<svg width="683" height="502" viewBox="0 0 683 502" fill="none" xmlns="http://www.w3.org/2000/svg">
<rect x="31" y="50" width="52" height="368" rx="15" fill="#48BFE3"/>
<rect x="124" y="134" width="52" height="236" rx="15" fill="#48BFE3" fill-opacity="0.75"/>
<rect x="217" y="165" width="52" height="173" rx="15" fill="#48BFE3" fill-opacity="0.5"/>
<rect width="52" height="368" rx="15" transform="matrix(-1 0 0 1 641 50)" fill="#5E60CE"/>
<rect width="52" height="236" rx="15" transform="matrix(-1 0 0 1 548 134)" fill="#5E60CE" fill-opacity="0.75"/>
<rect width="52" height="173" rx="15" transform="matrix(-1 0 0 1 455 165)" fill="#5E60CE" fill-opacity="0.5"/>
<rect x="310" y="208" width="52" height="89" rx="15" fill="#D9D9D9"/>
<rect x="61" y="442" width="179" height="60" rx="10" fill="#48BFE3" fill-opacity="0.5"/>
<path d="M119.539 478.16V480H110.504V478.16H119.539ZM110.961 462.938V480H108.699V462.938H110.961ZM118.344 470.273V472.113H110.504V470.273H118.344ZM119.422 462.938V464.789H110.504V462.938H119.422ZM124.18 470.027V480H122.012V467.32H124.062L124.18 470.027ZM123.664 473.18L122.762 473.145C122.77 472.277 122.898 471.477 123.148 470.742C123.398 470 123.75 469.355 124.203 468.809C124.656 468.262 125.195 467.84 125.82 467.543C126.453 467.238 127.152 467.086 127.918 467.086C128.543 467.086 129.105 467.172 129.605 467.344C130.105 467.508 130.531 467.773 130.883 468.141C131.242 468.508 131.516 468.984 131.703 469.57C131.891 470.148 131.984 470.855 131.984 471.691V480H129.805V471.668C129.805 471.004 129.707 470.473 129.512 470.074C129.316 469.668 129.031 469.375 128.656 469.195C128.281 469.008 127.82 468.914 127.273 468.914C126.734 468.914 126.242 469.027 125.797 469.254C125.359 469.48 124.98 469.793 124.66 470.191C124.348 470.59 124.102 471.047 123.922 471.562C123.75 472.07 123.664 472.609 123.664 473.18ZM140.352 478.453C140.867 478.453 141.344 478.348 141.781 478.137C142.219 477.926 142.578 477.637 142.859 477.27C143.141 476.895 143.301 476.469 143.34 475.992H145.402C145.363 476.742 145.109 477.441 144.641 478.09C144.18 478.73 143.574 479.25 142.824 479.648C142.074 480.039 141.25 480.234 140.352 480.234C139.398 480.234 138.566 480.066 137.855 479.73C137.152 479.395 136.566 478.934 136.098 478.348C135.637 477.762 135.289 477.09 135.055 476.332C134.828 475.566 134.715 474.758 134.715 473.906V473.414C134.715 472.562 134.828 471.758 135.055 471C135.289 470.234 135.637 469.559 136.098 468.973C136.566 468.387 137.152 467.926 137.855 467.59C138.566 467.254 139.398 467.086 140.352 467.086C141.344 467.086 142.211 467.289 142.953 467.695C143.695 468.094 144.277 468.641 144.699 469.336C145.129 470.023 145.363 470.805 145.402 471.68H143.34C143.301 471.156 143.152 470.684 142.895 470.262C142.645 469.84 142.301 469.504 141.863 469.254C141.434 468.996 140.93 468.867 140.352 468.867C139.688 468.867 139.129 469 138.676 469.266C138.23 469.523 137.875 469.875 137.609 470.32C137.352 470.758 137.164 471.246 137.047 471.785C136.938 472.316 136.883 472.859 136.883 473.414V473.906C136.883 474.461 136.938 475.008 137.047 475.547C137.156 476.086 137.34 476.574 137.598 477.012C137.863 477.449 138.219 477.801 138.664 478.066C139.117 478.324 139.68 478.453 140.352 478.453ZM147.266 473.801V473.531C147.266 472.617 147.398 471.77 147.664 470.988C147.93 470.199 148.312 469.516 148.812 468.938C149.312 468.352 149.918 467.898 150.629 467.578C151.34 467.25 152.137 467.086 153.02 467.086C153.91 467.086 154.711 467.25 155.422 467.578C156.141 467.898 156.75 468.352 157.25 468.938C157.758 469.516 158.145 470.199 158.41 470.988C158.676 471.77 158.809 472.617 158.809 473.531V473.801C158.809 474.715 158.676 475.562 158.41 476.344C158.145 477.125 157.758 477.809 157.25 478.395C156.75 478.973 156.145 479.426 155.434 479.754C154.73 480.074 153.934 480.234 153.043 480.234C152.152 480.234 151.352 480.074 150.641 479.754C149.93 479.426 149.32 478.973 148.812 478.395C148.312 477.809 147.93 477.125 147.664 476.344C147.398 475.562 147.266 474.715 147.266 473.801ZM149.434 473.531V473.801C149.434 474.434 149.508 475.031 149.656 475.594C149.805 476.148 150.027 476.641 150.324 477.07C150.629 477.5 151.008 477.84 151.461 478.09C151.914 478.332 152.441 478.453 153.043 478.453C153.637 478.453 154.156 478.332 154.602 478.09C155.055 477.84 155.43 477.5 155.727 477.07C156.023 476.641 156.246 476.148 156.395 475.594C156.551 475.031 156.629 474.434 156.629 473.801V473.531C156.629 472.906 156.551 472.316 156.395 471.762C156.246 471.199 156.02 470.703 155.715 470.273C155.418 469.836 155.043 469.492 154.59 469.242C154.145 468.992 153.621 468.867 153.02 468.867C152.426 468.867 151.902 468.992 151.449 469.242C151.004 469.492 150.629 469.836 150.324 470.273C150.027 470.703 149.805 471.199 149.656 471.762C149.508 472.316 149.434 472.906 149.434 473.531ZM169.52 477.539V462H171.699V480H169.707L169.52 477.539ZM160.988 473.801V473.555C160.988 472.586 161.105 471.707 161.34 470.918C161.582 470.121 161.922 469.438 162.359 468.867C162.805 468.297 163.332 467.859 163.941 467.555C164.559 467.242 165.246 467.086 166.004 467.086C166.801 467.086 167.496 467.227 168.09 467.508C168.691 467.781 169.199 468.184 169.613 468.715C170.035 469.238 170.367 469.871 170.609 470.613C170.852 471.355 171.02 472.195 171.113 473.133V474.211C171.027 475.141 170.859 475.977 170.609 476.719C170.367 477.461 170.035 478.094 169.613 478.617C169.199 479.141 168.691 479.543 168.09 479.824C167.488 480.098 166.785 480.234 165.98 480.234C165.238 480.234 164.559 480.074 163.941 479.754C163.332 479.434 162.805 478.984 162.359 478.406C161.922 477.828 161.582 477.148 161.34 476.367C161.105 475.578 160.988 474.723 160.988 473.801ZM163.168 473.555V473.801C163.168 474.434 163.23 475.027 163.355 475.582C163.488 476.137 163.691 476.625 163.965 477.047C164.238 477.469 164.586 477.801 165.008 478.043C165.43 478.277 165.934 478.395 166.52 478.395C167.238 478.395 167.828 478.242 168.289 477.938C168.758 477.633 169.133 477.23 169.414 476.73C169.695 476.23 169.914 475.688 170.07 475.102V472.277C169.977 471.848 169.84 471.434 169.66 471.035C169.488 470.629 169.262 470.27 168.98 469.957C168.707 469.637 168.367 469.383 167.961 469.195C167.562 469.008 167.09 468.914 166.543 468.914C165.949 468.914 165.438 469.039 165.008 469.289C164.586 469.531 164.238 469.867 163.965 470.297C163.691 470.719 163.488 471.211 163.355 471.773C163.23 472.328 163.168 472.922 163.168 473.555ZM180.336 480.234C179.453 480.234 178.652 480.086 177.934 479.789C177.223 479.484 176.609 479.059 176.094 478.512C175.586 477.965 175.195 477.316 174.922 476.566C174.648 475.816 174.512 474.996 174.512 474.105V473.613C174.512 472.582 174.664 471.664 174.969 470.859C175.273 470.047 175.688 469.359 176.211 468.797C176.734 468.234 177.328 467.809 177.992 467.52C178.656 467.23 179.344 467.086 180.055 467.086C180.961 467.086 181.742 467.242 182.398 467.555C183.062 467.867 183.605 468.305 184.027 468.867C184.449 469.422 184.762 470.078 184.965 470.836C185.168 471.586 185.27 472.406 185.27 473.297V474.27H175.801V472.5H183.102V472.336C183.07 471.773 182.953 471.227 182.75 470.695C182.555 470.164 182.242 469.727 181.812 469.383C181.383 469.039 180.797 468.867 180.055 468.867C179.562 468.867 179.109 468.973 178.695 469.184C178.281 469.387 177.926 469.691 177.629 470.098C177.332 470.504 177.102 471 176.938 471.586C176.773 472.172 176.691 472.848 176.691 473.613V474.105C176.691 474.707 176.773 475.273 176.938 475.805C177.109 476.328 177.355 476.789 177.676 477.188C178.004 477.586 178.398 477.898 178.859 478.125C179.328 478.352 179.859 478.465 180.453 478.465C181.219 478.465 181.867 478.309 182.398 477.996C182.93 477.684 183.395 477.266 183.793 476.742L185.105 477.785C184.832 478.199 184.484 478.594 184.062 478.969C183.641 479.344 183.121 479.648 182.504 479.883C181.895 480.117 181.172 480.234 180.336 480.234ZM189.969 469.312V480H187.801V467.32H189.91L189.969 469.312ZM193.93 467.25L193.918 469.266C193.738 469.227 193.566 469.203 193.402 469.195C193.246 469.18 193.066 469.172 192.863 469.172C192.363 469.172 191.922 469.25 191.539 469.406C191.156 469.562 190.832 469.781 190.566 470.062C190.301 470.344 190.09 470.68 189.934 471.07C189.785 471.453 189.688 471.875 189.641 472.336L189.031 472.688C189.031 471.922 189.105 471.203 189.254 470.531C189.41 469.859 189.648 469.266 189.969 468.75C190.289 468.227 190.695 467.82 191.188 467.531C191.688 467.234 192.281 467.086 192.969 467.086C193.125 467.086 193.305 467.105 193.508 467.145C193.711 467.176 193.852 467.211 193.93 467.25Z" fill="black"/>
<path d="M561.613 8.92969V10.0078C561.613 11.2891 561.453 12.4375 561.133 13.4531C560.812 14.4688 560.352 15.332 559.75 16.043C559.148 16.7539 558.426 17.2969 557.582 17.6719C556.746 18.0469 555.809 18.2344 554.77 18.2344C553.762 18.2344 552.836 18.0469 551.992 17.6719C551.156 17.2969 550.43 16.7539 549.812 16.043C549.203 15.332 548.73 14.4688 548.395 13.4531C548.059 12.4375 547.891 11.2891 547.891 10.0078V8.92969C547.891 7.64844 548.055 6.50391 548.383 5.49609C548.719 4.48047 549.191 3.61719 549.801 2.90625C550.41 2.1875 551.133 1.64062 551.969 1.26562C552.812 0.890625 553.738 0.703125 554.746 0.703125C555.785 0.703125 556.723 0.890625 557.559 1.26562C558.402 1.64062 559.125 2.1875 559.727 2.90625C560.336 3.61719 560.801 4.48047 561.121 5.49609C561.449 6.50391 561.613 7.64844 561.613 8.92969ZM559.375 10.0078V8.90625C559.375 7.89062 559.27 6.99219 559.059 6.21094C558.855 5.42969 558.555 4.77344 558.156 4.24219C557.758 3.71094 557.27 3.30859 556.691 3.03516C556.121 2.76172 555.473 2.625 554.746 2.625C554.043 2.625 553.406 2.76172 552.836 3.03516C552.273 3.30859 551.789 3.71094 551.383 4.24219C550.984 4.77344 550.676 5.42969 550.457 6.21094C550.238 6.99219 550.129 7.89062 550.129 8.90625V10.0078C550.129 11.0312 550.238 11.9375 550.457 12.7266C550.676 13.5078 550.988 14.168 551.395 14.707C551.809 15.2383 552.297 15.6406 552.859 15.9141C553.43 16.1875 554.066 16.3242 554.77 16.3242C555.504 16.3242 556.156 16.1875 556.727 15.9141C557.297 15.6406 557.777 15.2383 558.168 14.707C558.566 14.168 558.867 13.5078 559.07 12.7266C559.273 11.9375 559.375 11.0312 559.375 10.0078ZM572.43 15.0703V5.32031H574.609V18H572.535L572.43 15.0703ZM572.84 12.3984L573.742 12.375C573.742 13.2188 573.652 14 573.473 14.7188C573.301 15.4297 573.02 16.0469 572.629 16.5703C572.238 17.0938 571.727 17.5039 571.094 17.8008C570.461 18.0898 569.691 18.2344 568.785 18.2344C568.168 18.2344 567.602 18.1445 567.086 17.9648C566.578 17.7852 566.141 17.5078 565.773 17.1328C565.406 16.7578 565.121 16.2695 564.918 15.668C564.723 15.0664 564.625 14.3438 564.625 13.5V5.32031H566.793V13.5234C566.793 14.0938 566.855 14.5664 566.98 14.9414C567.113 15.3086 567.289 15.6016 567.508 15.8203C567.734 16.0312 567.984 16.1797 568.258 16.2656C568.539 16.3516 568.828 16.3945 569.125 16.3945C570.047 16.3945 570.777 16.2188 571.316 15.8672C571.855 15.5078 572.242 15.0273 572.477 14.4258C572.719 13.8164 572.84 13.1406 572.84 12.3984ZM583.223 5.32031V6.98438H576.367V5.32031H583.223ZM578.688 2.23828H580.855V14.8594C580.855 15.2891 580.922 15.6133 581.055 15.832C581.188 16.0508 581.359 16.1953 581.57 16.2656C581.781 16.3359 582.008 16.3711 582.25 16.3711C582.43 16.3711 582.617 16.3555 582.812 16.3242C583.016 16.2852 583.168 16.2539 583.27 16.2305L583.281 18C583.109 18.0547 582.883 18.1055 582.602 18.1523C582.328 18.207 581.996 18.2344 581.605 18.2344C581.074 18.2344 580.586 18.1289 580.141 17.918C579.695 17.707 579.34 17.3555 579.074 16.8633C578.816 16.3633 578.688 15.6914 578.688 14.8477V2.23828ZM587.934 7.75781V22.875H585.754V5.32031H587.746L587.934 7.75781ZM596.477 11.5547V11.8008C596.477 12.7227 596.367 13.5781 596.148 14.3672C595.93 15.1484 595.609 15.8281 595.188 16.4062C594.773 16.9844 594.262 17.4336 593.652 17.7539C593.043 18.0742 592.344 18.2344 591.555 18.2344C590.75 18.2344 590.039 18.1016 589.422 17.8359C588.805 17.5703 588.281 17.1836 587.852 16.6758C587.422 16.168 587.078 15.5586 586.82 14.8477C586.57 14.1367 586.398 13.3359 586.305 12.4453V11.1328C586.398 10.1953 586.574 9.35547 586.832 8.61328C587.09 7.87109 587.43 7.23828 587.852 6.71484C588.281 6.18359 588.801 5.78125 589.41 5.50781C590.02 5.22656 590.723 5.08594 591.52 5.08594C592.316 5.08594 593.023 5.24219 593.641 5.55469C594.258 5.85938 594.777 6.29688 595.199 6.86719C595.621 7.4375 595.938 8.12109 596.148 8.91797C596.367 9.70703 596.477 10.5859 596.477 11.5547ZM594.297 11.8008V11.5547C594.297 10.9219 594.23 10.3281 594.098 9.77344C593.965 9.21094 593.758 8.71875 593.477 8.29688C593.203 7.86719 592.852 7.53125 592.422 7.28906C591.992 7.03906 591.48 6.91406 590.887 6.91406C590.34 6.91406 589.863 7.00781 589.457 7.19531C589.059 7.38281 588.719 7.63672 588.438 7.95703C588.156 8.26953 587.926 8.62891 587.746 9.03516C587.574 9.43359 587.445 9.84766 587.359 10.2773V13.3125C587.516 13.8594 587.734 14.375 588.016 14.8594C588.297 15.3359 588.672 15.7227 589.141 16.0195C589.609 16.3086 590.199 16.4531 590.91 16.4531C591.496 16.4531 592 16.332 592.422 16.0898C592.852 15.8398 593.203 15.5 593.477 15.0703C593.758 14.6406 593.965 14.1484 594.098 13.5938C594.23 13.0312 594.297 12.4336 594.297 11.8008ZM607 15.0703V5.32031H609.18V18H607.105L607 15.0703ZM607.41 12.3984L608.312 12.375C608.312 13.2188 608.223 14 608.043 14.7188C607.871 15.4297 607.59 16.0469 607.199 16.5703C606.809 17.0938 606.297 17.5039 605.664 17.8008C605.031 18.0898 604.262 18.2344 603.355 18.2344C602.738 18.2344 602.172 18.1445 601.656 17.9648C601.148 17.7852 600.711 17.5078 600.344 17.1328C599.977 16.7578 599.691 16.2695 599.488 15.668C599.293 15.0664 599.195 14.3438 599.195 13.5V5.32031H601.363V13.5234C601.363 14.0938 601.426 14.5664 601.551 14.9414C601.684 15.3086 601.859 15.6016 602.078 15.8203C602.305 16.0312 602.555 16.1797 602.828 16.2656C603.109 16.3516 603.398 16.3945 603.695 16.3945C604.617 16.3945 605.348 16.2188 605.887 15.8672C606.426 15.5078 606.812 15.0273 607.047 14.4258C607.289 13.8164 607.41 13.1406 607.41 12.3984ZM617.793 5.32031V6.98438H610.938V5.32031H617.793ZM613.258 2.23828H615.426V14.8594C615.426 15.2891 615.492 15.6133 615.625 15.832C615.758 16.0508 615.93 16.1953 616.141 16.2656C616.352 16.3359 616.578 16.3711 616.82 16.3711C617 16.3711 617.188 16.3555 617.383 16.3242C617.586 16.2852 617.738 16.2539 617.84 16.2305L617.852 18C617.68 18.0547 617.453 18.1055 617.172 18.1523C616.898 18.207 616.566 18.2344 616.176 18.2344C615.645 18.2344 615.156 18.1289 614.711 17.918C614.266 17.707 613.91 17.3555 613.645 16.8633C613.387 16.3633 613.258 15.6914 613.258 14.8477V2.23828ZM636.965 16.1602V18H628.434V16.1602H636.965ZM628.879 0.9375V18H626.617V0.9375H628.879ZM646.703 15.832V9.30469C646.703 8.80469 646.602 8.37109 646.398 8.00391C646.203 7.62891 645.906 7.33984 645.508 7.13672C645.109 6.93359 644.617 6.83203 644.031 6.83203C643.484 6.83203 643.004 6.92578 642.59 7.11328C642.184 7.30078 641.863 7.54688 641.629 7.85156C641.402 8.15625 641.289 8.48438 641.289 8.83594H639.121C639.121 8.38281 639.238 7.93359 639.473 7.48828C639.707 7.04297 640.043 6.64062 640.48 6.28125C640.926 5.91406 641.457 5.625 642.074 5.41406C642.699 5.19531 643.395 5.08594 644.16 5.08594C645.082 5.08594 645.895 5.24219 646.598 5.55469C647.309 5.86719 647.863 6.33984 648.262 6.97266C648.668 7.59766 648.871 8.38281 648.871 9.32812V15.2344C648.871 15.6562 648.906 16.1055 648.977 16.582C649.055 17.0586 649.168 17.4688 649.316 17.8125V18H647.055C646.945 17.75 646.859 17.418 646.797 17.0039C646.734 16.582 646.703 16.1914 646.703 15.832ZM647.078 10.3125L647.102 11.8359H644.91C644.293 11.8359 643.742 11.8867 643.258 11.9883C642.773 12.082 642.367 12.2266 642.039 12.4219C641.711 12.6172 641.461 12.8633 641.289 13.1602C641.117 13.4492 641.031 13.7891 641.031 14.1797C641.031 14.5781 641.121 14.9414 641.301 15.2695C641.48 15.5977 641.75 15.8594 642.109 16.0547C642.477 16.2422 642.926 16.3359 643.457 16.3359C644.121 16.3359 644.707 16.1953 645.215 15.9141C645.723 15.6328 646.125 15.2891 646.422 14.8828C646.727 14.4766 646.891 14.082 646.914 13.6992L647.84 14.7422C647.785 15.0703 647.637 15.4336 647.395 15.832C647.152 16.2305 646.828 16.6133 646.422 16.9805C646.023 17.3398 645.547 17.6406 644.992 17.8828C644.445 18.1172 643.828 18.2344 643.141 18.2344C642.281 18.2344 641.527 18.0664 640.879 17.7305C640.238 17.3945 639.738 16.9453 639.379 16.3828C639.027 15.8125 638.852 15.1758 638.852 14.4727C638.852 13.793 638.984 13.1953 639.25 12.6797C639.516 12.1562 639.898 11.7227 640.398 11.3789C640.898 11.0273 641.5 10.7617 642.203 10.582C642.906 10.4023 643.691 10.3125 644.559 10.3125H647.078ZM655.656 16.6875L659.184 5.32031H661.504L656.418 19.957C656.301 20.2695 656.145 20.6055 655.949 20.9648C655.762 21.332 655.52 21.6797 655.223 22.0078C654.926 22.3359 654.566 22.6016 654.145 22.8047C653.73 23.0156 653.234 23.1211 652.656 23.1211C652.484 23.1211 652.266 23.0977 652 23.0508C651.734 23.0039 651.547 22.9648 651.438 22.9336L651.426 21.1758C651.488 21.1836 651.586 21.1914 651.719 21.1992C651.859 21.2148 651.957 21.2227 652.012 21.2227C652.504 21.2227 652.922 21.1562 653.266 21.0234C653.609 20.8984 653.898 20.6836 654.133 20.3789C654.375 20.082 654.582 19.6719 654.754 19.1484L655.656 16.6875ZM653.066 5.32031L656.359 15.1641L656.922 17.4492L655.363 18.2461L650.699 5.32031H653.066ZM668.559 18.2344C667.676 18.2344 666.875 18.0859 666.156 17.7891C665.445 17.4844 664.832 17.0586 664.316 16.5117C663.809 15.9648 663.418 15.3164 663.145 14.5664C662.871 13.8164 662.734 12.9961 662.734 12.1055V11.6133C662.734 10.582 662.887 9.66406 663.191 8.85938C663.496 8.04688 663.91 7.35938 664.434 6.79688C664.957 6.23438 665.551 5.80859 666.215 5.51953C666.879 5.23047 667.566 5.08594 668.277 5.08594C669.184 5.08594 669.965 5.24219 670.621 5.55469C671.285 5.86719 671.828 6.30469 672.25 6.86719C672.672 7.42188 672.984 8.07812 673.188 8.83594C673.391 9.58594 673.492 10.4062 673.492 11.2969V12.2695H664.023V10.5H671.324V10.3359C671.293 9.77344 671.176 9.22656 670.973 8.69531C670.777 8.16406 670.465 7.72656 670.035 7.38281C669.605 7.03906 669.02 6.86719 668.277 6.86719C667.785 6.86719 667.332 6.97266 666.918 7.18359C666.504 7.38672 666.148 7.69141 665.852 8.09766C665.555 8.50391 665.324 9 665.16 9.58594C664.996 10.1719 664.914 10.8477 664.914 11.6133V12.1055C664.914 12.707 664.996 13.2734 665.16 13.8047C665.332 14.3281 665.578 14.7891 665.898 15.1875C666.227 15.5859 666.621 15.8984 667.082 16.125C667.551 16.3516 668.082 16.4648 668.676 16.4648C669.441 16.4648 670.09 16.3086 670.621 15.9961C671.152 15.6836 671.617 15.2656 672.016 14.7422L673.328 15.7852C673.055 16.1992 672.707 16.5938 672.285 16.9688C671.863 17.3438 671.344 17.6484 670.727 17.8828C670.117 18.1172 669.395 18.2344 668.559 18.2344ZM678.191 7.3125V18H676.023V5.32031H678.133L678.191 7.3125ZM682.152 5.25L682.141 7.26562C681.961 7.22656 681.789 7.20312 681.625 7.19531C681.469 7.17969 681.289 7.17188 681.086 7.17188C680.586 7.17188 680.145 7.25 679.762 7.40625C679.379 7.5625 679.055 7.78125 678.789 8.0625C678.523 8.34375 678.312 8.67969 678.156 9.07031C678.008 9.45312 677.91 9.875 677.863 10.3359L677.254 10.6875C677.254 9.92188 677.328 9.20312 677.477 8.53125C677.633 7.85938 677.871 7.26562 678.191 6.75C678.512 6.22656 678.918 5.82031 679.41 5.53125C679.91 5.23438 680.504 5.08594 681.191 5.08594C681.348 5.08594 681.527 5.10547 681.73 5.14453C681.934 5.17578 682.074 5.21094 682.152 5.25Z" fill="black"/>
<rect x="432" y="442" width="179" height="60" rx="10" fill="#5E60CE" fill-opacity="0.5"/>
<path d="M483.531 480H479.969L479.992 478.16H483.531C484.75 478.16 485.766 477.906 486.578 477.398C487.391 476.883 488 476.164 488.406 475.242C488.82 474.312 489.027 473.227 489.027 471.984V470.941C489.027 469.965 488.91 469.098 488.676 468.34C488.441 467.574 488.098 466.93 487.645 466.406C487.191 465.875 486.637 465.473 485.98 465.199C485.332 464.926 484.586 464.789 483.742 464.789H479.898V462.938H483.742C484.859 462.938 485.879 463.125 486.801 463.5C487.723 463.867 488.516 464.402 489.18 465.105C489.852 465.801 490.367 466.645 490.727 467.637C491.086 468.621 491.266 469.73 491.266 470.965V471.984C491.266 473.219 491.086 474.332 490.727 475.324C490.367 476.309 489.848 477.148 489.168 477.844C488.496 478.539 487.684 479.074 486.73 479.449C485.785 479.816 484.719 480 483.531 480ZM481.176 462.938V480H478.914V462.938H481.176ZM499.598 480.234C498.715 480.234 497.914 480.086 497.195 479.789C496.484 479.484 495.871 479.059 495.355 478.512C494.848 477.965 494.457 477.316 494.184 476.566C493.91 475.816 493.773 474.996 493.773 474.105V473.613C493.773 472.582 493.926 471.664 494.23 470.859C494.535 470.047 494.949 469.359 495.473 468.797C495.996 468.234 496.59 467.809 497.254 467.52C497.918 467.23 498.605 467.086 499.316 467.086C500.223 467.086 501.004 467.242 501.66 467.555C502.324 467.867 502.867 468.305 503.289 468.867C503.711 469.422 504.023 470.078 504.227 470.836C504.43 471.586 504.531 472.406 504.531 473.297V474.27H495.062V472.5H502.363V472.336C502.332 471.773 502.215 471.227 502.012 470.695C501.816 470.164 501.504 469.727 501.074 469.383C500.645 469.039 500.059 468.867 499.316 468.867C498.824 468.867 498.371 468.973 497.957 469.184C497.543 469.387 497.188 469.691 496.891 470.098C496.594 470.504 496.363 471 496.199 471.586C496.035 472.172 495.953 472.848 495.953 473.613V474.105C495.953 474.707 496.035 475.273 496.199 475.805C496.371 476.328 496.617 476.789 496.938 477.188C497.266 477.586 497.66 477.898 498.121 478.125C498.59 478.352 499.121 478.465 499.715 478.465C500.48 478.465 501.129 478.309 501.66 477.996C502.191 477.684 502.656 477.266 503.055 476.742L504.367 477.785C504.094 478.199 503.746 478.594 503.324 478.969C502.902 479.344 502.383 479.648 501.766 479.883C501.156 480.117 500.434 480.234 499.598 480.234ZM512.137 478.453C512.652 478.453 513.129 478.348 513.566 478.137C514.004 477.926 514.363 477.637 514.645 477.27C514.926 476.895 515.086 476.469 515.125 475.992H517.188C517.148 476.742 516.895 477.441 516.426 478.09C515.965 478.73 515.359 479.25 514.609 479.648C513.859 480.039 513.035 480.234 512.137 480.234C511.184 480.234 510.352 480.066 509.641 479.73C508.938 479.395 508.352 478.934 507.883 478.348C507.422 477.762 507.074 477.09 506.84 476.332C506.613 475.566 506.5 474.758 506.5 473.906V473.414C506.5 472.562 506.613 471.758 506.84 471C507.074 470.234 507.422 469.559 507.883 468.973C508.352 468.387 508.938 467.926 509.641 467.59C510.352 467.254 511.184 467.086 512.137 467.086C513.129 467.086 513.996 467.289 514.738 467.695C515.48 468.094 516.062 468.641 516.484 469.336C516.914 470.023 517.148 470.805 517.188 471.68H515.125C515.086 471.156 514.938 470.684 514.68 470.262C514.43 469.84 514.086 469.504 513.648 469.254C513.219 468.996 512.715 468.867 512.137 468.867C511.473 468.867 510.914 469 510.461 469.266C510.016 469.523 509.66 469.875 509.395 470.32C509.137 470.758 508.949 471.246 508.832 471.785C508.723 472.316 508.668 472.859 508.668 473.414V473.906C508.668 474.461 508.723 475.008 508.832 475.547C508.941 476.086 509.125 476.574 509.383 477.012C509.648 477.449 510.004 477.801 510.449 478.066C510.902 478.324 511.465 478.453 512.137 478.453ZM519.051 473.801V473.531C519.051 472.617 519.184 471.77 519.449 470.988C519.715 470.199 520.098 469.516 520.598 468.938C521.098 468.352 521.703 467.898 522.414 467.578C523.125 467.25 523.922 467.086 524.805 467.086C525.695 467.086 526.496 467.25 527.207 467.578C527.926 467.898 528.535 468.352 529.035 468.938C529.543 469.516 529.93 470.199 530.195 470.988C530.461 471.77 530.594 472.617 530.594 473.531V473.801C530.594 474.715 530.461 475.562 530.195 476.344C529.93 477.125 529.543 477.809 529.035 478.395C528.535 478.973 527.93 479.426 527.219 479.754C526.516 480.074 525.719 480.234 524.828 480.234C523.938 480.234 523.137 480.074 522.426 479.754C521.715 479.426 521.105 478.973 520.598 478.395C520.098 477.809 519.715 477.125 519.449 476.344C519.184 475.562 519.051 474.715 519.051 473.801ZM521.219 473.531V473.801C521.219 474.434 521.293 475.031 521.441 475.594C521.59 476.148 521.812 476.641 522.109 477.07C522.414 477.5 522.793 477.84 523.246 478.09C523.699 478.332 524.227 478.453 524.828 478.453C525.422 478.453 525.941 478.332 526.387 478.09C526.84 477.84 527.215 477.5 527.512 477.07C527.809 476.641 528.031 476.148 528.18 475.594C528.336 475.031 528.414 474.434 528.414 473.801V473.531C528.414 472.906 528.336 472.316 528.18 471.762C528.031 471.199 527.805 470.703 527.5 470.273C527.203 469.836 526.828 469.492 526.375 469.242C525.93 468.992 525.406 468.867 524.805 468.867C524.211 468.867 523.688 468.992 523.234 469.242C522.789 469.492 522.414 469.836 522.109 470.273C521.812 470.703 521.59 471.199 521.441 471.762C521.293 472.316 521.219 472.906 521.219 473.531ZM541.305 477.539V462H543.484V480H541.492L541.305 477.539ZM532.773 473.801V473.555C532.773 472.586 532.891 471.707 533.125 470.918C533.367 470.121 533.707 469.438 534.145 468.867C534.59 468.297 535.117 467.859 535.727 467.555C536.344 467.242 537.031 467.086 537.789 467.086C538.586 467.086 539.281 467.227 539.875 467.508C540.477 467.781 540.984 468.184 541.398 468.715C541.82 469.238 542.152 469.871 542.395 470.613C542.637 471.355 542.805 472.195 542.898 473.133V474.211C542.812 475.141 542.645 475.977 542.395 476.719C542.152 477.461 541.82 478.094 541.398 478.617C540.984 479.141 540.477 479.543 539.875 479.824C539.273 480.098 538.57 480.234 537.766 480.234C537.023 480.234 536.344 480.074 535.727 479.754C535.117 479.434 534.59 478.984 534.145 478.406C533.707 477.828 533.367 477.148 533.125 476.367C532.891 475.578 532.773 474.723 532.773 473.801ZM534.953 473.555V473.801C534.953 474.434 535.016 475.027 535.141 475.582C535.273 476.137 535.477 476.625 535.75 477.047C536.023 477.469 536.371 477.801 536.793 478.043C537.215 478.277 537.719 478.395 538.305 478.395C539.023 478.395 539.613 478.242 540.074 477.938C540.543 477.633 540.918 477.23 541.199 476.73C541.48 476.23 541.699 475.688 541.855 475.102V472.277C541.762 471.848 541.625 471.434 541.445 471.035C541.273 470.629 541.047 470.27 540.766 469.957C540.492 469.637 540.152 469.383 539.746 469.195C539.348 469.008 538.875 468.914 538.328 468.914C537.734 468.914 537.223 469.039 536.793 469.289C536.371 469.531 536.023 469.867 535.75 470.297C535.477 470.719 535.273 471.211 535.141 471.773C535.016 472.328 534.953 472.922 534.953 473.555ZM552.121 480.234C551.238 480.234 550.438 480.086 549.719 479.789C549.008 479.484 548.395 479.059 547.879 478.512C547.371 477.965 546.98 477.316 546.707 476.566C546.434 475.816 546.297 474.996 546.297 474.105V473.613C546.297 472.582 546.449 471.664 546.754 470.859C547.059 470.047 547.473 469.359 547.996 468.797C548.52 468.234 549.113 467.809 549.777 467.52C550.441 467.23 551.129 467.086 551.84 467.086C552.746 467.086 553.527 467.242 554.184 467.555C554.848 467.867 555.391 468.305 555.812 468.867C556.234 469.422 556.547 470.078 556.75 470.836C556.953 471.586 557.055 472.406 557.055 473.297V474.27H547.586V472.5H554.887V472.336C554.855 471.773 554.738 471.227 554.535 470.695C554.34 470.164 554.027 469.727 553.598 469.383C553.168 469.039 552.582 468.867 551.84 468.867C551.348 468.867 550.895 468.973 550.48 469.184C550.066 469.387 549.711 469.691 549.414 470.098C549.117 470.504 548.887 471 548.723 471.586C548.559 472.172 548.477 472.848 548.477 473.613V474.105C548.477 474.707 548.559 475.273 548.723 475.805C548.895 476.328 549.141 476.789 549.461 477.188C549.789 477.586 550.184 477.898 550.645 478.125C551.113 478.352 551.645 478.465 552.238 478.465C553.004 478.465 553.652 478.309 554.184 477.996C554.715 477.684 555.18 477.266 555.578 476.742L556.891 477.785C556.617 478.199 556.27 478.594 555.848 478.969C555.426 479.344 554.906 479.648 554.289 479.883C553.68 480.117 552.957 480.234 552.121 480.234ZM561.754 469.312V480H559.586V467.32H561.695L561.754 469.312ZM565.715 467.25L565.703 469.266C565.523 469.227 565.352 469.203 565.188 469.195C565.031 469.18 564.852 469.172 564.648 469.172C564.148 469.172 563.707 469.25 563.324 469.406C562.941 469.562 562.617 469.781 562.352 470.062C562.086 470.344 561.875 470.68 561.719 471.07C561.57 471.453 561.473 471.875 561.426 472.336L560.816 472.688C560.816 471.922 560.891 471.203 561.039 470.531C561.195 469.859 561.434 469.266 561.754 468.75C562.074 468.227 562.48 467.82 562.973 467.531C563.473 467.234 564.066 467.086 564.754 467.086C564.91 467.086 565.09 467.105 565.293 467.145C565.496 467.176 565.637 467.211 565.715 467.25Z" fill="black"/>
<path d="M287.75 52.0195H283.426L283.402 50.2031H287.328C287.977 50.2031 288.543 50.0938 289.027 49.875C289.512 49.6562 289.887 49.3438 290.152 48.9375C290.426 48.5234 290.562 48.0312 290.562 47.4609C290.562 46.8359 290.441 46.3281 290.199 45.9375C289.965 45.5391 289.602 45.25 289.109 45.0703C288.625 44.8828 288.008 44.7891 287.258 44.7891H283.93V60H281.668V42.9375H287.258C288.133 42.9375 288.914 43.0273 289.602 43.207C290.289 43.3789 290.871 43.6523 291.348 44.0273C291.832 44.3945 292.199 44.8633 292.449 45.4336C292.699 46.0039 292.824 46.6875 292.824 47.4844C292.824 48.1875 292.645 48.8242 292.285 49.3945C291.926 49.957 291.426 50.418 290.785 50.7773C290.152 51.1367 289.41 51.3672 288.559 51.4688L287.75 52.0195ZM287.645 60H282.535L283.812 58.1602H287.645C288.363 58.1602 288.973 58.0352 289.473 57.7852C289.98 57.5352 290.367 57.1836 290.633 56.7305C290.898 56.2695 291.031 55.7266 291.031 55.1016C291.031 54.4688 290.918 53.9219 290.691 53.4609C290.465 53 290.109 52.6445 289.625 52.3945C289.141 52.1445 288.516 52.0195 287.75 52.0195H284.527L284.551 50.2031H288.957L289.438 50.8594C290.258 50.9297 290.953 51.1641 291.523 51.5625C292.094 51.9531 292.527 52.4531 292.824 53.0625C293.129 53.6719 293.281 54.3438 293.281 55.0781C293.281 56.1406 293.047 57.0391 292.578 57.7734C292.117 58.5 291.465 59.0547 290.621 59.4375C289.777 59.8125 288.785 60 287.645 60ZM295.719 53.8008V53.5312C295.719 52.6172 295.852 51.7695 296.117 50.9883C296.383 50.1992 296.766 49.5156 297.266 48.9375C297.766 48.3516 298.371 47.8984 299.082 47.5781C299.793 47.25 300.59 47.0859 301.473 47.0859C302.363 47.0859 303.164 47.25 303.875 47.5781C304.594 47.8984 305.203 48.3516 305.703 48.9375C306.211 49.5156 306.598 50.1992 306.863 50.9883C307.129 51.7695 307.262 52.6172 307.262 53.5312V53.8008C307.262 54.7148 307.129 55.5625 306.863 56.3438C306.598 57.125 306.211 57.8086 305.703 58.3945C305.203 58.9727 304.598 59.4258 303.887 59.7539C303.184 60.0742 302.387 60.2344 301.496 60.2344C300.605 60.2344 299.805 60.0742 299.094 59.7539C298.383 59.4258 297.773 58.9727 297.266 58.3945C296.766 57.8086 296.383 57.125 296.117 56.3438C295.852 55.5625 295.719 54.7148 295.719 53.8008ZM297.887 53.5312V53.8008C297.887 54.4336 297.961 55.0312 298.109 55.5938C298.258 56.1484 298.48 56.6406 298.777 57.0703C299.082 57.5 299.461 57.8398 299.914 58.0898C300.367 58.332 300.895 58.4531 301.496 58.4531C302.09 58.4531 302.609 58.332 303.055 58.0898C303.508 57.8398 303.883 57.5 304.18 57.0703C304.477 56.6406 304.699 56.1484 304.848 55.5938C305.004 55.0312 305.082 54.4336 305.082 53.8008V53.5312C305.082 52.9062 305.004 52.3164 304.848 51.7617C304.699 51.1992 304.473 50.7031 304.168 50.2734C303.871 49.8359 303.496 49.4922 303.043 49.2422C302.598 48.9922 302.074 48.8672 301.473 48.8672C300.879 48.8672 300.355 48.9922 299.902 49.2422C299.457 49.4922 299.082 49.8359 298.777 50.2734C298.48 50.7031 298.258 51.1992 298.109 51.7617C297.961 52.3164 297.887 52.9062 297.887 53.5312ZM315.289 47.3203V48.9844H308.434V47.3203H315.289ZM310.754 44.2383H312.922V56.8594C312.922 57.2891 312.988 57.6133 313.121 57.832C313.254 58.0508 313.426 58.1953 313.637 58.2656C313.848 58.3359 314.074 58.3711 314.316 58.3711C314.496 58.3711 314.684 58.3555 314.879 58.3242C315.082 58.2852 315.234 58.2539 315.336 58.2305L315.348 60C315.176 60.0547 314.949 60.1055 314.668 60.1523C314.395 60.207 314.062 60.2344 313.672 60.2344C313.141 60.2344 312.652 60.1289 312.207 59.918C311.762 59.707 311.406 59.3555 311.141 58.8633C310.883 58.3633 310.754 57.6914 310.754 56.8477V44.2383ZM323.141 47.3203V48.9844H316.285V47.3203H323.141ZM318.605 44.2383H320.773V56.8594C320.773 57.2891 320.84 57.6133 320.973 57.832C321.105 58.0508 321.277 58.1953 321.488 58.2656C321.699 58.3359 321.926 58.3711 322.168 58.3711C322.348 58.3711 322.535 58.3555 322.73 58.3242C322.934 58.2852 323.086 58.2539 323.188 58.2305L323.199 60C323.027 60.0547 322.801 60.1055 322.52 60.1523C322.246 60.207 321.914 60.2344 321.523 60.2344C320.992 60.2344 320.504 60.1289 320.059 59.918C319.613 59.707 319.258 59.3555 318.992 58.8633C318.734 58.3633 318.605 57.6914 318.605 56.8477V44.2383ZM328.039 42V60H325.859V42H328.039ZM336.781 60.2344C335.898 60.2344 335.098 60.0859 334.379 59.7891C333.668 59.4844 333.055 59.0586 332.539 58.5117C332.031 57.9648 331.641 57.3164 331.367 56.5664C331.094 55.8164 330.957 54.9961 330.957 54.1055V53.6133C330.957 52.582 331.109 51.6641 331.414 50.8594C331.719 50.0469 332.133 49.3594 332.656 48.7969C333.18 48.2344 333.773 47.8086 334.438 47.5195C335.102 47.2305 335.789 47.0859 336.5 47.0859C337.406 47.0859 338.188 47.2422 338.844 47.5547C339.508 47.8672 340.051 48.3047 340.473 48.8672C340.895 49.4219 341.207 50.0781 341.41 50.8359C341.613 51.5859 341.715 52.4062 341.715 53.2969V54.2695H332.246V52.5H339.547V52.3359C339.516 51.7734 339.398 51.2266 339.195 50.6953C339 50.1641 338.688 49.7266 338.258 49.3828C337.828 49.0391 337.242 48.8672 336.5 48.8672C336.008 48.8672 335.555 48.9727 335.141 49.1836C334.727 49.3867 334.371 49.6914 334.074 50.0977C333.777 50.5039 333.547 51 333.383 51.5859C333.219 52.1719 333.137 52.8477 333.137 53.6133V54.1055C333.137 54.707 333.219 55.2734 333.383 55.8047C333.555 56.3281 333.801 56.7891 334.121 57.1875C334.449 57.5859 334.844 57.8984 335.305 58.125C335.773 58.3516 336.305 58.4648 336.898 58.4648C337.664 58.4648 338.312 58.3086 338.844 57.9961C339.375 57.6836 339.84 57.2656 340.238 56.7422L341.551 57.7852C341.277 58.1992 340.93 58.5938 340.508 58.9688C340.086 59.3438 339.566 59.6484 338.949 59.8828C338.34 60.1172 337.617 60.2344 336.781 60.2344ZM346.414 50.0273V60H344.246V47.3203H346.297L346.414 50.0273ZM345.898 53.1797L344.996 53.1445C345.004 52.2773 345.133 51.4766 345.383 50.7422C345.633 50 345.984 49.3555 346.438 48.8086C346.891 48.2617 347.43 47.8398 348.055 47.543C348.688 47.2383 349.387 47.0859 350.152 47.0859C350.777 47.0859 351.34 47.1719 351.84 47.3438C352.34 47.5078 352.766 47.7734 353.117 48.1406C353.477 48.5078 353.75 48.9844 353.938 49.5703C354.125 50.1484 354.219 50.8555 354.219 51.6914V60H352.039V51.668C352.039 51.0039 351.941 50.4727 351.746 50.0742C351.551 49.668 351.266 49.375 350.891 49.1953C350.516 49.0078 350.055 48.9141 349.508 48.9141C348.969 48.9141 348.477 49.0273 348.031 49.2539C347.594 49.4805 347.215 49.793 346.895 50.1914C346.582 50.5898 346.336 51.0469 346.156 51.5625C345.984 52.0703 345.898 52.6094 345.898 53.1797ZM362.773 60.2344C361.891 60.2344 361.09 60.0859 360.371 59.7891C359.66 59.4844 359.047 59.0586 358.531 58.5117C358.023 57.9648 357.633 57.3164 357.359 56.5664C357.086 55.8164 356.949 54.9961 356.949 54.1055V53.6133C356.949 52.582 357.102 51.6641 357.406 50.8594C357.711 50.0469 358.125 49.3594 358.648 48.7969C359.172 48.2344 359.766 47.8086 360.43 47.5195C361.094 47.2305 361.781 47.0859 362.492 47.0859C363.398 47.0859 364.18 47.2422 364.836 47.5547C365.5 47.8672 366.043 48.3047 366.465 48.8672C366.887 49.4219 367.199 50.0781 367.402 50.8359C367.605 51.5859 367.707 52.4062 367.707 53.2969V54.2695H358.238V52.5H365.539V52.3359C365.508 51.7734 365.391 51.2266 365.188 50.6953C364.992 50.1641 364.68 49.7266 364.25 49.3828C363.82 49.0391 363.234 48.8672 362.492 48.8672C362 48.8672 361.547 48.9727 361.133 49.1836C360.719 49.3867 360.363 49.6914 360.066 50.0977C359.77 50.5039 359.539 51 359.375 51.5859C359.211 52.1719 359.129 52.8477 359.129 53.6133V54.1055C359.129 54.707 359.211 55.2734 359.375 55.8047C359.547 56.3281 359.793 56.7891 360.113 57.1875C360.441 57.5859 360.836 57.8984 361.297 58.125C361.766 58.3516 362.297 58.4648 362.891 58.4648C363.656 58.4648 364.305 58.3086 364.836 57.9961C365.367 57.6836 365.832 57.2656 366.23 56.7422L367.543 57.7852C367.27 58.1992 366.922 58.5938 366.5 58.9688C366.078 59.3438 365.559 59.6484 364.941 59.8828C364.332 60.1172 363.609 60.2344 362.773 60.2344ZM375.312 58.4531C375.828 58.4531 376.305 58.3477 376.742 58.1367C377.18 57.9258 377.539 57.6367 377.82 57.2695C378.102 56.8945 378.262 56.4688 378.301 55.9922H380.363C380.324 56.7422 380.07 57.4414 379.602 58.0898C379.141 58.7305 378.535 59.25 377.785 59.6484C377.035 60.0391 376.211 60.2344 375.312 60.2344C374.359 60.2344 373.527 60.0664 372.816 59.7305C372.113 59.3945 371.527 58.9336 371.059 58.3477C370.598 57.7617 370.25 57.0898 370.016 56.332C369.789 55.5664 369.676 54.7578 369.676 53.9062V53.4141C369.676 52.5625 369.789 51.7578 370.016 51C370.25 50.2344 370.598 49.5586 371.059 48.9727C371.527 48.3867 372.113 47.9258 372.816 47.5898C373.527 47.2539 374.359 47.0859 375.312 47.0859C376.305 47.0859 377.172 47.2891 377.914 47.6953C378.656 48.0938 379.238 48.6406 379.66 49.3359C380.09 50.0234 380.324 50.8047 380.363 51.6797H378.301C378.262 51.1562 378.113 50.6836 377.855 50.2617C377.605 49.8398 377.262 49.5039 376.824 49.2539C376.395 48.9961 375.891 48.8672 375.312 48.8672C374.648 48.8672 374.09 49 373.637 49.2656C373.191 49.5234 372.836 49.875 372.57 50.3203C372.312 50.7578 372.125 51.2461 372.008 51.7852C371.898 52.3164 371.844 52.8594 371.844 53.4141V53.9062C371.844 54.4609 371.898 55.0078 372.008 55.5469C372.117 56.0859 372.301 56.5742 372.559 57.0117C372.824 57.4492 373.18 57.8008 373.625 58.0664C374.078 58.3242 374.641 58.4531 375.312 58.4531ZM384.98 42V60H382.801V42H384.98ZM392.727 47.3203L387.195 53.2383L384.102 56.4492L383.926 54.1406L386.141 51.4922L390.078 47.3203H392.727ZM390.746 60L386.223 53.9531L387.348 52.0195L393.301 60H390.746Z" fill="black"/>
<path d="M335.939 166.061C336.525 166.646 337.475 166.646 338.061 166.061L347.607 156.515C348.192 155.929 348.192 154.979 347.607 154.393C347.021 153.808 346.071 153.808 345.485 154.393L337 162.879L328.515 154.393C327.929 153.808 326.979 153.808 326.393 154.393C325.808 154.979 325.808 155.929 326.393 156.515L335.939 166.061ZM335.5 92V165H338.5V92H335.5Z" fill="black"/>
<path d="M2.80859 0.9375V18H0.546875V0.9375H2.80859ZM8.76172 8.02734V18H6.59375V5.32031H8.64453L8.76172 8.02734ZM8.24609 11.1797L7.34375 11.1445C7.35156 10.2773 7.48047 9.47656 7.73047 8.74219C7.98047 8 8.33203 7.35547 8.78516 6.80859C9.23828 6.26172 9.77734 5.83984 10.4023 5.54297C11.0352 5.23828 11.7344 5.08594 12.5 5.08594C13.125 5.08594 13.6875 5.17188 14.1875 5.34375C14.6875 5.50781 15.1133 5.77344 15.4648 6.14062C15.8242 6.50781 16.0977 6.98438 16.2852 7.57031C16.4727 8.14844 16.5664 8.85547 16.5664 9.69141V18H14.3867V9.66797C14.3867 9.00391 14.2891 8.47266 14.0938 8.07422C13.8984 7.66797 13.6133 7.375 13.2383 7.19531C12.8633 7.00781 12.4023 6.91406 11.8555 6.91406C11.3164 6.91406 10.8242 7.02734 10.3789 7.25391C9.94141 7.48047 9.5625 7.79297 9.24219 8.19141C8.92969 8.58984 8.68359 9.04688 8.50391 9.5625C8.33203 10.0703 8.24609 10.6094 8.24609 11.1797ZM22.0273 7.75781V22.875H19.8477V5.32031H21.8398L22.0273 7.75781ZM30.5703 11.5547V11.8008C30.5703 12.7227 30.4609 13.5781 30.2422 14.3672C30.0234 15.1484 29.7031 15.8281 29.2812 16.4062C28.8672 16.9844 28.3555 17.4336 27.7461 17.7539C27.1367 18.0742 26.4375 18.2344 25.6484 18.2344C24.8438 18.2344 24.1328 18.1016 23.5156 17.8359C22.8984 17.5703 22.375 17.1836 21.9453 16.6758C21.5156 16.168 21.1719 15.5586 20.9141 14.8477C20.6641 14.1367 20.4922 13.3359 20.3984 12.4453V11.1328C20.4922 10.1953 20.668 9.35547 20.9258 8.61328C21.1836 7.87109 21.5234 7.23828 21.9453 6.71484C22.375 6.18359 22.8945 5.78125 23.5039 5.50781C24.1133 5.22656 24.8164 5.08594 25.6133 5.08594C26.4102 5.08594 27.1172 5.24219 27.7344 5.55469C28.3516 5.85938 28.8711 6.29688 29.293 6.86719C29.7148 7.4375 30.0312 8.12109 30.2422 8.91797C30.4609 9.70703 30.5703 10.5859 30.5703 11.5547ZM28.3906 11.8008V11.5547C28.3906 10.9219 28.3242 10.3281 28.1914 9.77344C28.0586 9.21094 27.8516 8.71875 27.5703 8.29688C27.2969 7.86719 26.9453 7.53125 26.5156 7.28906C26.0859 7.03906 25.5742 6.91406 24.9805 6.91406C24.4336 6.91406 23.957 7.00781 23.5508 7.19531C23.1523 7.38281 22.8125 7.63672 22.5312 7.95703C22.25 8.26953 22.0195 8.62891 21.8398 9.03516C21.668 9.43359 21.5391 9.84766 21.4531 10.2773V13.3125C21.6094 13.8594 21.8281 14.375 22.1094 14.8594C22.3906 15.3359 22.7656 15.7227 23.2344 16.0195C23.7031 16.3086 24.293 16.4531 25.0039 16.4531C25.5898 16.4531 26.0938 16.332 26.5156 16.0898C26.9453 15.8398 27.2969 15.5 27.5703 15.0703C27.8516 14.6406 28.0586 14.1484 28.1914 13.5938C28.3242 13.0312 28.3906 12.4336 28.3906 11.8008ZM41.0938 15.0703V5.32031H43.2734V18H41.1992L41.0938 15.0703ZM41.5039 12.3984L42.4062 12.375C42.4062 13.2188 42.3164 14 42.1367 14.7188C41.9648 15.4297 41.6836 16.0469 41.293 16.5703C40.9023 17.0938 40.3906 17.5039 39.7578 17.8008C39.125 18.0898 38.3555 18.2344 37.4492 18.2344C36.832 18.2344 36.2656 18.1445 35.75 17.9648C35.2422 17.7852 34.8047 17.5078 34.4375 17.1328C34.0703 16.7578 33.7852 16.2695 33.582 15.668C33.3867 15.0664 33.2891 14.3438 33.2891 13.5V5.32031H35.457V13.5234C35.457 14.0938 35.5195 14.5664 35.6445 14.9414C35.7773 15.3086 35.9531 15.6016 36.1719 15.8203C36.3984 16.0312 36.6484 16.1797 36.9219 16.2656C37.2031 16.3516 37.4922 16.3945 37.7891 16.3945C38.7109 16.3945 39.4414 16.2188 39.9805 15.8672C40.5195 15.5078 40.9062 15.0273 41.1406 14.4258C41.3828 13.8164 41.5039 13.1406 41.5039 12.3984ZM51.8867 5.32031V6.98438H45.0312V5.32031H51.8867ZM47.3516 2.23828H49.5195V14.8594C49.5195 15.2891 49.5859 15.6133 49.7188 15.832C49.8516 16.0508 50.0234 16.1953 50.2344 16.2656C50.4453 16.3359 50.6719 16.3711 50.9141 16.3711C51.0938 16.3711 51.2812 16.3555 51.4766 16.3242C51.6797 16.2852 51.832 16.2539 51.9336 16.2305L51.9453 18C51.7734 18.0547 51.5469 18.1055 51.2656 18.1523C50.9922 18.207 50.6602 18.2344 50.2695 18.2344C49.7383 18.2344 49.25 18.1289 48.8047 17.918C48.3594 17.707 48.0039 17.3555 47.7383 16.8633C47.4805 16.3633 47.3516 15.6914 47.3516 14.8477V2.23828ZM71.0586 16.1602V18H62.5273V16.1602H71.0586ZM62.9727 0.9375V18H60.7109V0.9375H62.9727ZM80.7969 15.832V9.30469C80.7969 8.80469 80.6953 8.37109 80.4922 8.00391C80.2969 7.62891 80 7.33984 79.6016 7.13672C79.2031 6.93359 78.7109 6.83203 78.125 6.83203C77.5781 6.83203 77.0977 6.92578 76.6836 7.11328C76.2773 7.30078 75.957 7.54688 75.7227 7.85156C75.4961 8.15625 75.3828 8.48438 75.3828 8.83594H73.2148C73.2148 8.38281 73.332 7.93359 73.5664 7.48828C73.8008 7.04297 74.1367 6.64062 74.5742 6.28125C75.0195 5.91406 75.5508 5.625 76.168 5.41406C76.793 5.19531 77.4883 5.08594 78.2539 5.08594C79.1758 5.08594 79.9883 5.24219 80.6914 5.55469C81.4023 5.86719 81.957 6.33984 82.3555 6.97266C82.7617 7.59766 82.9648 8.38281 82.9648 9.32812V15.2344C82.9648 15.6562 83 16.1055 83.0703 16.582C83.1484 17.0586 83.2617 17.4688 83.4102 17.8125V18H81.1484C81.0391 17.75 80.9531 17.418 80.8906 17.0039C80.8281 16.582 80.7969 16.1914 80.7969 15.832ZM81.1719 10.3125L81.1953 11.8359H79.0039C78.3867 11.8359 77.8359 11.8867 77.3516 11.9883C76.8672 12.082 76.4609 12.2266 76.1328 12.4219C75.8047 12.6172 75.5547 12.8633 75.3828 13.1602C75.2109 13.4492 75.125 13.7891 75.125 14.1797C75.125 14.5781 75.2148 14.9414 75.3945 15.2695C75.5742 15.5977 75.8438 15.8594 76.2031 16.0547C76.5703 16.2422 77.0195 16.3359 77.5508 16.3359C78.2148 16.3359 78.8008 16.1953 79.3086 15.9141C79.8164 15.6328 80.2188 15.2891 80.5156 14.8828C80.8203 14.4766 80.9844 14.082 81.0078 13.6992L81.9336 14.7422C81.8789 15.0703 81.7305 15.4336 81.4883 15.832C81.2461 16.2305 80.9219 16.6133 80.5156 16.9805C80.1172 17.3398 79.6406 17.6406 79.0859 17.8828C78.5391 18.1172 77.9219 18.2344 77.2344 18.2344C76.375 18.2344 75.6211 18.0664 74.9727 17.7305C74.332 17.3945 73.832 16.9453 73.4727 16.3828C73.1211 15.8125 72.9453 15.1758 72.9453 14.4727C72.9453 13.793 73.0781 13.1953 73.3438 12.6797C73.6094 12.1562 73.9922 11.7227 74.4922 11.3789C74.9922 11.0273 75.5938 10.7617 76.2969 10.582C77 10.4023 77.7852 10.3125 78.6523 10.3125H81.1719ZM89.75 16.6875L93.2773 5.32031H95.5977L90.5117 19.957C90.3945 20.2695 90.2383 20.6055 90.043 20.9648C89.8555 21.332 89.6133 21.6797 89.3164 22.0078C89.0195 22.3359 88.6602 22.6016 88.2383 22.8047C87.8242 23.0156 87.3281 23.1211 86.75 23.1211C86.5781 23.1211 86.3594 23.0977 86.0938 23.0508C85.8281 23.0039 85.6406 22.9648 85.5312 22.9336L85.5195 21.1758C85.582 21.1836 85.6797 21.1914 85.8125 21.1992C85.9531 21.2148 86.0508 21.2227 86.1055 21.2227C86.5977 21.2227 87.0156 21.1562 87.3594 21.0234C87.7031 20.8984 87.9922 20.6836 88.2266 20.3789C88.4688 20.082 88.6758 19.6719 88.8477 19.1484L89.75 16.6875ZM87.1602 5.32031L90.4531 15.1641L91.0156 17.4492L89.457 18.2461L84.793 5.32031H87.1602ZM102.652 18.2344C101.77 18.2344 100.969 18.0859 100.25 17.7891C99.5391 17.4844 98.9258 17.0586 98.4102 16.5117C97.9023 15.9648 97.5117 15.3164 97.2383 14.5664C96.9648 13.8164 96.8281 12.9961 96.8281 12.1055V11.6133C96.8281 10.582 96.9805 9.66406 97.2852 8.85938C97.5898 8.04688 98.0039 7.35938 98.5273 6.79688C99.0508 6.23438 99.6445 5.80859 100.309 5.51953C100.973 5.23047 101.66 5.08594 102.371 5.08594C103.277 5.08594 104.059 5.24219 104.715 5.55469C105.379 5.86719 105.922 6.30469 106.344 6.86719C106.766 7.42188 107.078 8.07812 107.281 8.83594C107.484 9.58594 107.586 10.4062 107.586 11.2969V12.2695H98.1172V10.5H105.418V10.3359C105.387 9.77344 105.27 9.22656 105.066 8.69531C104.871 8.16406 104.559 7.72656 104.129 7.38281C103.699 7.03906 103.113 6.86719 102.371 6.86719C101.879 6.86719 101.426 6.97266 101.012 7.18359C100.598 7.38672 100.242 7.69141 99.9453 8.09766C99.6484 8.50391 99.418 9 99.2539 9.58594C99.0898 10.1719 99.0078 10.8477 99.0078 11.6133V12.1055C99.0078 12.707 99.0898 13.2734 99.2539 13.8047C99.4258 14.3281 99.6719 14.7891 99.9922 15.1875C100.32 15.5859 100.715 15.8984 101.176 16.125C101.645 16.3516 102.176 16.4648 102.77 16.4648C103.535 16.4648 104.184 16.3086 104.715 15.9961C105.246 15.6836 105.711 15.2656 106.109 14.7422L107.422 15.7852C107.148 16.1992 106.801 16.5938 106.379 16.9688C105.957 17.3438 105.438 17.6484 104.82 17.8828C104.211 18.1172 103.488 18.2344 102.652 18.2344ZM112.285 7.3125V18H110.117V5.32031H112.227L112.285 7.3125ZM116.246 5.25L116.234 7.26562C116.055 7.22656 115.883 7.20312 115.719 7.19531C115.562 7.17969 115.383 7.17188 115.18 7.17188C114.68 7.17188 114.238 7.25 113.855 7.40625C113.473 7.5625 113.148 7.78125 112.883 8.0625C112.617 8.34375 112.406 8.67969 112.25 9.07031C112.102 9.45312 112.004 9.875 111.957 10.3359L111.348 10.6875C111.348 9.92188 111.422 9.20312 111.57 8.53125C111.727 7.85938 111.965 7.26562 112.285 6.75C112.605 6.22656 113.012 5.82031 113.504 5.53125C114.004 5.23438 114.598 5.08594 115.285 5.08594C115.441 5.08594 115.621 5.10547 115.824 5.14453C116.027 5.17578 116.168 5.21094 116.246 5.25Z" fill="black"/>
</svg>
