<svg width="747" height="583" viewBox="0 0 747 583" fill="none" xmlns="http://www.w3.org/2000/svg">
<path d="M25 120L157 25" stroke="#222222" stroke-width="4" stroke-linecap="square"/>
<path d="M25 309L157 310" stroke="#222222" stroke-width="4" stroke-linecap="square"/>
<path d="M25 120L157 310" stroke="#222222" stroke-width="4" stroke-linecap="square"/>
<path d="M25 120L157 405" stroke="#222222" stroke-width="4" stroke-linecap="square"/>
<path d="M25 120L157 215" stroke="#222222" stroke-width="4" stroke-linecap="square"/>
<path d="M25 214L157 215" stroke="#222222" stroke-width="4" stroke-linecap="square"/>
<path d="M25 310L157 214" stroke="#222222" stroke-width="4" stroke-linecap="square"/>
<path d="M25 310L157 120" stroke="#222222" stroke-width="4" stroke-linecap="square"/>
<path d="M25 310L157 25" stroke="#222222" stroke-width="4" stroke-linecap="square"/>
<path d="M25 310L157 405" stroke="#222222" stroke-width="4" stroke-linecap="square"/>
<path d="M25 214L157 405" stroke="#222222" stroke-width="4" stroke-linecap="square"/>
<path d="M25 214L157 310" stroke="#222222" stroke-width="4" stroke-linecap="square"/>
<path d="M25 214L157 120" stroke="#222222" stroke-width="4" stroke-linecap="square"/>
<path d="M25 214L157 25" stroke="#222222" stroke-width="4" stroke-linecap="square"/>
<path d="M25 119L157 120" stroke="#222222" stroke-width="4" stroke-linecap="square"/>
<path d="M289 120L157 25" stroke="#222222" stroke-width="4" stroke-linecap="square"/>
<path d="M289 309L157 310" stroke="#222222" stroke-width="4" stroke-linecap="square"/>
<path d="M289 120L157 310" stroke="#222222" stroke-width="4" stroke-linecap="square"/>
<path d="M289 120L157 405" stroke="#222222" stroke-width="4" stroke-linecap="square"/>
<path d="M289 120L157 215" stroke="#222222" stroke-width="4" stroke-linecap="square"/>
<path d="M289 214L157 215" stroke="#222222" stroke-width="4" stroke-linecap="square"/>
<path d="M289 310L157 214" stroke="#222222" stroke-width="4" stroke-linecap="square"/>
<path d="M289 310L157 120" stroke="#222222" stroke-width="4" stroke-linecap="square"/>
<path d="M289 310L157 25" stroke="#222222" stroke-width="4" stroke-linecap="square"/>
<path d="M289 310L157 405" stroke="#222222" stroke-width="4" stroke-linecap="square"/>
<path d="M289 214L157 405" stroke="#222222" stroke-width="4" stroke-linecap="square"/>
<path d="M289 214L157 310" stroke="#222222" stroke-width="4" stroke-linecap="square"/>
<path d="M289 214L157 120" stroke="#222222" stroke-width="4" stroke-linecap="square"/>
<path d="M289 214L157 25" stroke="#222222" stroke-width="4" stroke-linecap="square"/>
<path d="M289 119L157 120" stroke="#222222" stroke-width="4" stroke-linecap="square"/>
<circle cx="25" cy="120" r="25" fill="#D9D9D9"/>
<circle cx="25" cy="215" r="25" fill="#D9D9D9"/>
<circle cx="25" cy="310" r="25" fill="#D9D9D9"/>
<circle cx="25" cy="120" r="25" fill="#48BFE3"/>
<circle cx="25" cy="215" r="25" fill="#48BFE3"/>
<circle cx="25" cy="310" r="25" fill="#48BFE3"/>
<circle cx="289" cy="120" r="25" fill="#D9D9D9"/>
<circle cx="289" cy="215" r="25" fill="#D9D9D9"/>
<circle cx="289" cy="310" r="25" fill="#D9D9D9"/>
<circle cx="289" cy="120" r="25" fill="#48BFE3"/>
<circle cx="289" cy="215" r="25" fill="#48BFE3"/>
<circle cx="289" cy="310" r="25" fill="#48BFE3"/>
<circle cx="157" cy="120" r="25" fill="#5E60CE"/>
<circle cx="157" cy="25" r="25" fill="#5E60CE"/>
<circle cx="157" cy="215" r="25" fill="#5E60CE"/>
<circle cx="157" cy="310" r="25" fill="#5E60CE"/>
<circle cx="157" cy="405" r="25" fill="#5E60CE"/>
<path d="M458 120L590 310" stroke="#222222" stroke-width="4" stroke-linecap="square"/>
<path d="M458 120L590 405" stroke="#222222" stroke-width="4" stroke-linecap="square"/>
<path d="M458 214L590 405" stroke="#222222" stroke-width="4" stroke-linecap="square"/>
<path d="M458 214L590 310" stroke="#222222" stroke-width="4" stroke-linecap="square"/>
<path d="M458 214L590 120" stroke="#222222" stroke-width="4" stroke-linecap="square"/>
<path d="M458 119L590 120" stroke="#222222" stroke-width="4" stroke-linecap="square"/>
<path d="M722 309L590 310" stroke="#222222" stroke-width="4" stroke-linecap="square"/>
<path d="M722 120L590 310" stroke="#222222" stroke-width="4" stroke-linecap="square"/>
<path d="M722 120L590 405" stroke="#222222" stroke-width="4" stroke-linecap="square"/>
<path d="M722 310L590 120" stroke="#222222" stroke-width="4" stroke-linecap="square"/>
<path d="M722 310L590 405" stroke="#222222" stroke-width="4" stroke-linecap="square"/>
<path d="M722 214L590 405" stroke="#222222" stroke-width="4" stroke-linecap="square"/>
<path d="M722 214L590 310" stroke="#222222" stroke-width="4" stroke-linecap="square"/>
<path d="M722 214L590 120" stroke="#222222" stroke-width="4" stroke-linecap="square"/>
<path d="M722 119L590 120" stroke="#222222" stroke-width="4" stroke-linecap="square"/>
<circle cx="458" cy="120" r="25" fill="#D9D9D9"/>
<circle cx="458" cy="215" r="25" fill="#D9D9D9"/>
<circle cx="458" cy="310" r="25" fill="#D9D9D9"/>
<circle cx="458" cy="120" r="25" fill="#48BFE3"/>
<circle cx="458" cy="215" r="25" fill="#48BFE3"/>
<circle cx="458" cy="310" r="25" fill="#48BFE3" fill-opacity="0.2"/>
<circle cx="722" cy="120" r="25" fill="#D9D9D9"/>
<circle cx="722" cy="215" r="25" fill="#D9D9D9"/>
<circle cx="722" cy="310" r="25" fill="#D9D9D9"/>
<circle cx="722" cy="120" r="25" fill="#48BFE3"/>
<circle cx="722" cy="215" r="25" fill="#48BFE3"/>
<circle cx="722" cy="310" r="25" fill="#48BFE3"/>
<circle cx="590" cy="120" r="25" fill="#5E60CE"/>
<circle cx="590" cy="25" r="25" fill="#5E60CE" fill-opacity="0.2"/>
<circle cx="590" cy="215" r="25" fill="#5E60CE" fill-opacity="0.2"/>
<circle cx="590" cy="310" r="25" fill="#5E60CE"/>
<circle cx="590" cy="405" r="25" fill="#5E60CE"/>
<rect x="26" y="511" width="263" height="72" rx="10" fill="#A3D9E9"/>
<path d="M103.742 537.094V557H101.09L91.0684 541.646V557H88.4297V537.094H91.0684L101.131 552.488V537.094H103.742ZM107.365 549.768V549.453C107.365 548.387 107.52 547.398 107.83 546.486C108.14 545.566 108.587 544.768 109.17 544.094C109.753 543.41 110.46 542.882 111.289 542.508C112.118 542.125 113.048 541.934 114.078 541.934C115.117 541.934 116.051 542.125 116.881 542.508C117.719 542.882 118.43 543.41 119.014 544.094C119.606 544.768 120.057 545.566 120.367 546.486C120.677 547.398 120.832 548.387 120.832 549.453V549.768C120.832 550.834 120.677 551.823 120.367 552.734C120.057 553.646 119.606 554.443 119.014 555.127C118.43 555.801 117.724 556.33 116.895 556.713C116.074 557.087 115.145 557.273 114.105 557.273C113.066 557.273 112.132 557.087 111.303 556.713C110.473 556.33 109.762 555.801 109.17 555.127C108.587 554.443 108.14 553.646 107.83 552.734C107.52 551.823 107.365 550.834 107.365 549.768ZM109.895 549.453V549.768C109.895 550.506 109.981 551.203 110.154 551.859C110.327 552.507 110.587 553.081 110.934 553.582C111.289 554.083 111.731 554.48 112.26 554.771C112.788 555.054 113.404 555.195 114.105 555.195C114.798 555.195 115.404 555.054 115.924 554.771C116.452 554.48 116.89 554.083 117.236 553.582C117.583 553.081 117.842 552.507 118.016 551.859C118.198 551.203 118.289 550.506 118.289 549.768V549.453C118.289 548.724 118.198 548.036 118.016 547.389C117.842 546.732 117.578 546.154 117.223 545.652C116.876 545.142 116.439 544.741 115.91 544.449C115.391 544.158 114.78 544.012 114.078 544.012C113.385 544.012 112.775 544.158 112.246 544.449C111.727 544.741 111.289 545.142 110.934 545.652C110.587 546.154 110.327 546.732 110.154 547.389C109.981 548.036 109.895 548.724 109.895 549.453ZM136.719 557H132.562L132.59 554.854H136.719C138.141 554.854 139.326 554.557 140.273 553.965C141.221 553.363 141.932 552.525 142.406 551.449C142.889 550.365 143.131 549.098 143.131 547.648V546.432C143.131 545.292 142.994 544.281 142.721 543.396C142.447 542.503 142.046 541.751 141.518 541.141C140.989 540.521 140.342 540.051 139.576 539.732C138.82 539.413 137.949 539.254 136.965 539.254H132.48V537.094H136.965C138.268 537.094 139.458 537.312 140.533 537.75C141.609 538.178 142.534 538.803 143.309 539.623C144.092 540.434 144.694 541.419 145.113 542.576C145.533 543.725 145.742 545.019 145.742 546.459V547.648C145.742 549.089 145.533 550.387 145.113 551.545C144.694 552.693 144.088 553.673 143.295 554.484C142.511 555.296 141.563 555.92 140.451 556.357C139.348 556.786 138.104 557 136.719 557ZM133.971 537.094V557H131.332V537.094H133.971ZM151.854 544.531V557H149.324V542.207H151.785L151.854 544.531ZM156.475 542.125L156.461 544.477C156.251 544.431 156.051 544.404 155.859 544.395C155.677 544.376 155.467 544.367 155.23 544.367C154.647 544.367 154.132 544.458 153.686 544.641C153.239 544.823 152.861 545.078 152.551 545.406C152.241 545.734 151.995 546.126 151.812 546.582C151.639 547.029 151.525 547.521 151.471 548.059L150.76 548.469C150.76 547.576 150.846 546.737 151.02 545.953C151.202 545.169 151.48 544.477 151.854 543.875C152.227 543.264 152.701 542.79 153.275 542.453C153.859 542.107 154.551 541.934 155.354 541.934C155.536 541.934 155.745 541.956 155.982 542.002C156.219 542.038 156.383 542.079 156.475 542.125ZM157.869 549.768V549.453C157.869 548.387 158.024 547.398 158.334 546.486C158.644 545.566 159.09 544.768 159.674 544.094C160.257 543.41 160.964 542.882 161.793 542.508C162.622 542.125 163.552 541.934 164.582 541.934C165.621 541.934 166.555 542.125 167.385 542.508C168.223 542.882 168.934 543.41 169.518 544.094C170.11 544.768 170.561 545.566 170.871 546.486C171.181 547.398 171.336 548.387 171.336 549.453V549.768C171.336 550.834 171.181 551.823 170.871 552.734C170.561 553.646 170.11 554.443 169.518 555.127C168.934 555.801 168.228 556.33 167.398 556.713C166.578 557.087 165.648 557.273 164.609 557.273C163.57 557.273 162.636 557.087 161.807 556.713C160.977 556.33 160.266 555.801 159.674 555.127C159.09 554.443 158.644 553.646 158.334 552.734C158.024 551.823 157.869 550.834 157.869 549.768ZM160.398 549.453V549.768C160.398 550.506 160.485 551.203 160.658 551.859C160.831 552.507 161.091 553.081 161.438 553.582C161.793 554.083 162.235 554.48 162.764 554.771C163.292 555.054 163.908 555.195 164.609 555.195C165.302 555.195 165.908 555.054 166.428 554.771C166.956 554.48 167.394 554.083 167.74 553.582C168.087 553.081 168.346 552.507 168.52 551.859C168.702 551.203 168.793 550.506 168.793 549.768V549.453C168.793 548.724 168.702 548.036 168.52 547.389C168.346 546.732 168.082 546.154 167.727 545.652C167.38 545.142 166.943 544.741 166.414 544.449C165.895 544.158 165.284 544.012 164.582 544.012C163.889 544.012 163.279 544.158 162.75 544.449C162.23 544.741 161.793 545.142 161.438 545.652C161.091 546.154 160.831 546.732 160.658 547.389C160.485 548.036 160.398 548.724 160.398 549.453ZM177.037 545.051V562.688H174.494V542.207H176.818L177.037 545.051ZM187.004 549.48V549.768C187.004 550.843 186.876 551.841 186.621 552.762C186.366 553.673 185.992 554.466 185.5 555.141C185.017 555.815 184.42 556.339 183.709 556.713C182.998 557.087 182.182 557.273 181.262 557.273C180.323 557.273 179.493 557.118 178.773 556.809C178.053 556.499 177.443 556.048 176.941 555.455C176.44 554.863 176.039 554.152 175.738 553.322C175.447 552.493 175.246 551.559 175.137 550.52V548.988C175.246 547.895 175.451 546.915 175.752 546.049C176.053 545.183 176.449 544.445 176.941 543.834C177.443 543.214 178.049 542.745 178.76 542.426C179.471 542.098 180.291 541.934 181.221 541.934C182.15 541.934 182.975 542.116 183.695 542.48C184.415 542.836 185.021 543.346 185.514 544.012C186.006 544.677 186.375 545.475 186.621 546.404C186.876 547.325 187.004 548.35 187.004 549.48ZM184.461 549.768V549.48C184.461 548.742 184.383 548.049 184.229 547.402C184.074 546.746 183.832 546.172 183.504 545.68C183.185 545.178 182.775 544.786 182.273 544.504C181.772 544.212 181.175 544.066 180.482 544.066C179.844 544.066 179.288 544.176 178.814 544.395C178.35 544.613 177.953 544.91 177.625 545.283C177.297 545.648 177.028 546.067 176.818 546.541C176.618 547.006 176.467 547.489 176.367 547.99V551.531C176.549 552.169 176.805 552.771 177.133 553.336C177.461 553.892 177.898 554.343 178.445 554.689C178.992 555.027 179.68 555.195 180.51 555.195C181.193 555.195 181.781 555.054 182.273 554.771C182.775 554.48 183.185 554.083 183.504 553.582C183.832 553.081 184.074 552.507 184.229 551.859C184.383 551.203 184.461 550.506 184.461 549.768ZM189.561 549.768V549.453C189.561 548.387 189.715 547.398 190.025 546.486C190.335 545.566 190.782 544.768 191.365 544.094C191.949 543.41 192.655 542.882 193.484 542.508C194.314 542.125 195.243 541.934 196.273 541.934C197.312 541.934 198.247 542.125 199.076 542.508C199.915 542.882 200.626 543.41 201.209 544.094C201.801 544.768 202.253 545.566 202.562 546.486C202.872 547.398 203.027 548.387 203.027 549.453V549.768C203.027 550.834 202.872 551.823 202.562 552.734C202.253 553.646 201.801 554.443 201.209 555.127C200.626 555.801 199.919 556.33 199.09 556.713C198.27 557.087 197.34 557.273 196.301 557.273C195.262 557.273 194.327 557.087 193.498 556.713C192.669 556.33 191.958 555.801 191.365 555.127C190.782 554.443 190.335 553.646 190.025 552.734C189.715 551.823 189.561 550.834 189.561 549.768ZM192.09 549.453V549.768C192.09 550.506 192.176 551.203 192.35 551.859C192.523 552.507 192.783 553.081 193.129 553.582C193.484 554.083 193.926 554.48 194.455 554.771C194.984 555.054 195.599 555.195 196.301 555.195C196.993 555.195 197.6 555.054 198.119 554.771C198.648 554.48 199.085 554.083 199.432 553.582C199.778 553.081 200.038 552.507 200.211 551.859C200.393 551.203 200.484 550.506 200.484 549.768V549.453C200.484 548.724 200.393 548.036 200.211 547.389C200.038 546.732 199.773 546.154 199.418 545.652C199.072 545.142 198.634 544.741 198.105 544.449C197.586 544.158 196.975 544.012 196.273 544.012C195.581 544.012 194.97 544.158 194.441 544.449C193.922 544.741 193.484 545.142 193.129 545.652C192.783 546.154 192.523 546.732 192.35 547.389C192.176 548.036 192.09 548.724 192.09 549.453ZM215.25 553.582V542.207H217.793V557H215.373L215.25 553.582ZM215.729 550.465L216.781 550.438C216.781 551.422 216.676 552.333 216.467 553.172C216.266 554.001 215.938 554.721 215.482 555.332C215.027 555.943 214.43 556.421 213.691 556.768C212.953 557.105 212.055 557.273 210.998 557.273C210.278 557.273 209.617 557.169 209.016 556.959C208.423 556.749 207.913 556.426 207.484 555.988C207.056 555.551 206.723 554.981 206.486 554.279C206.258 553.577 206.145 552.734 206.145 551.75V542.207H208.674V551.777C208.674 552.443 208.747 552.994 208.893 553.432C209.048 553.86 209.253 554.202 209.508 554.457C209.772 554.703 210.064 554.876 210.383 554.977C210.711 555.077 211.048 555.127 211.395 555.127C212.47 555.127 213.322 554.922 213.951 554.512C214.58 554.092 215.031 553.532 215.305 552.83C215.587 552.119 215.729 551.331 215.729 550.465ZM227.842 542.207V544.148H219.844V542.207H227.842ZM222.551 538.611H225.08V553.336C225.08 553.837 225.158 554.215 225.312 554.471C225.467 554.726 225.668 554.895 225.914 554.977C226.16 555.059 226.424 555.1 226.707 555.1C226.917 555.1 227.135 555.081 227.363 555.045C227.6 554.999 227.778 554.963 227.896 554.936L227.91 557C227.71 557.064 227.445 557.123 227.117 557.178C226.798 557.242 226.411 557.273 225.955 557.273C225.335 557.273 224.766 557.15 224.246 556.904C223.727 556.658 223.312 556.248 223.002 555.674C222.701 555.09 222.551 554.307 222.551 553.322V538.611Z" fill="black"/>
<rect x="458" y="511" width="263" height="72" rx="10" fill="#A3D9E9"/>
<path d="M486.264 537.094H492.854C494.348 537.094 495.611 537.322 496.641 537.777C497.68 538.233 498.468 538.908 499.006 539.801C499.553 540.685 499.826 541.774 499.826 543.068C499.826 543.98 499.639 544.814 499.266 545.57C498.901 546.318 498.372 546.956 497.68 547.484C496.996 548.004 496.176 548.391 495.219 548.646L494.48 548.934H488.287L488.26 546.787H492.936C493.883 546.787 494.672 546.623 495.301 546.295C495.93 545.958 496.404 545.507 496.723 544.941C497.042 544.376 497.201 543.752 497.201 543.068C497.201 542.303 497.051 541.633 496.75 541.059C496.449 540.484 495.975 540.042 495.328 539.732C494.69 539.413 493.865 539.254 492.854 539.254H488.902V557H486.264V537.094ZM497.898 557L493.059 547.977L495.807 547.963L500.715 556.836V557H497.898ZM511.857 554.471V546.855C511.857 546.272 511.739 545.766 511.502 545.338C511.274 544.9 510.928 544.563 510.463 544.326C509.998 544.089 509.424 543.971 508.74 543.971C508.102 543.971 507.542 544.08 507.059 544.299C506.585 544.518 506.211 544.805 505.938 545.16C505.673 545.516 505.541 545.898 505.541 546.309H503.012C503.012 545.78 503.148 545.256 503.422 544.736C503.695 544.217 504.087 543.747 504.598 543.328C505.117 542.9 505.737 542.562 506.457 542.316C507.186 542.061 507.997 541.934 508.891 541.934C509.966 541.934 510.914 542.116 511.734 542.48C512.564 542.845 513.211 543.396 513.676 544.135C514.15 544.864 514.387 545.78 514.387 546.883V553.773C514.387 554.266 514.428 554.79 514.51 555.346C514.601 555.902 514.733 556.38 514.906 556.781V557H512.268C512.14 556.708 512.04 556.321 511.967 555.838C511.894 555.346 511.857 554.89 511.857 554.471ZM512.295 548.031L512.322 549.809H509.766C509.046 549.809 508.403 549.868 507.838 549.986C507.273 550.096 506.799 550.264 506.416 550.492C506.033 550.72 505.742 551.007 505.541 551.354C505.34 551.691 505.24 552.087 505.24 552.543C505.24 553.008 505.345 553.432 505.555 553.814C505.764 554.197 506.079 554.503 506.498 554.73C506.926 554.949 507.451 555.059 508.07 555.059C508.845 555.059 509.529 554.895 510.121 554.566C510.714 554.238 511.183 553.837 511.529 553.363C511.885 552.889 512.076 552.429 512.104 551.982L513.184 553.199C513.12 553.582 512.947 554.006 512.664 554.471C512.382 554.936 512.003 555.382 511.529 555.811C511.064 556.23 510.508 556.581 509.861 556.863C509.223 557.137 508.503 557.273 507.701 557.273C506.699 557.273 505.819 557.077 505.062 556.686C504.315 556.294 503.732 555.77 503.312 555.113C502.902 554.448 502.697 553.705 502.697 552.885C502.697 552.092 502.852 551.395 503.162 550.793C503.472 550.182 503.919 549.676 504.502 549.275C505.085 548.865 505.787 548.555 506.607 548.346C507.428 548.136 508.344 548.031 509.355 548.031H512.295ZM520.895 545.365V557H518.365V542.207H520.758L520.895 545.365ZM520.293 549.043L519.24 549.002C519.249 547.99 519.4 547.056 519.691 546.199C519.983 545.333 520.393 544.581 520.922 543.943C521.451 543.305 522.079 542.813 522.809 542.467C523.547 542.111 524.363 541.934 525.256 541.934C525.985 541.934 526.641 542.034 527.225 542.234C527.808 542.426 528.305 542.736 528.715 543.164C529.134 543.592 529.453 544.148 529.672 544.832C529.891 545.507 530 546.331 530 547.307V557H527.457V547.279C527.457 546.505 527.343 545.885 527.115 545.42C526.887 544.946 526.555 544.604 526.117 544.395C525.68 544.176 525.142 544.066 524.504 544.066C523.875 544.066 523.301 544.199 522.781 544.463C522.271 544.727 521.829 545.092 521.455 545.557C521.09 546.021 520.803 546.555 520.594 547.156C520.393 547.749 520.293 548.378 520.293 549.043ZM543.166 554.129V536H545.709V557H543.385L543.166 554.129ZM533.213 549.768V549.48C533.213 548.35 533.35 547.325 533.623 546.404C533.906 545.475 534.302 544.677 534.812 544.012C535.332 543.346 535.947 542.836 536.658 542.48C537.378 542.116 538.18 541.934 539.064 541.934C539.994 541.934 540.805 542.098 541.498 542.426C542.2 542.745 542.792 543.214 543.275 543.834C543.768 544.445 544.155 545.183 544.438 546.049C544.72 546.915 544.916 547.895 545.025 548.988V550.246C544.925 551.331 544.729 552.306 544.438 553.172C544.155 554.038 543.768 554.776 543.275 555.387C542.792 555.997 542.2 556.467 541.498 556.795C540.796 557.114 539.976 557.273 539.037 557.273C538.171 557.273 537.378 557.087 536.658 556.713C535.947 556.339 535.332 555.815 534.812 555.141C534.302 554.466 533.906 553.673 533.623 552.762C533.35 551.841 533.213 550.843 533.213 549.768ZM535.756 549.48V549.768C535.756 550.506 535.829 551.199 535.975 551.846C536.13 552.493 536.367 553.062 536.686 553.555C537.005 554.047 537.41 554.434 537.902 554.717C538.395 554.99 538.982 555.127 539.666 555.127C540.505 555.127 541.193 554.949 541.73 554.594C542.277 554.238 542.715 553.769 543.043 553.186C543.371 552.602 543.626 551.969 543.809 551.285V547.99C543.699 547.489 543.54 547.006 543.33 546.541C543.13 546.067 542.865 545.648 542.537 545.283C542.218 544.91 541.822 544.613 541.348 544.395C540.883 544.176 540.331 544.066 539.693 544.066C539.001 544.066 538.404 544.212 537.902 544.504C537.41 544.786 537.005 545.178 536.686 545.68C536.367 546.172 536.13 546.746 535.975 547.402C535.829 548.049 535.756 548.742 535.756 549.48ZM548.977 549.768V549.453C548.977 548.387 549.132 547.398 549.441 546.486C549.751 545.566 550.198 544.768 550.781 544.094C551.365 543.41 552.071 542.882 552.9 542.508C553.73 542.125 554.66 541.934 555.689 541.934C556.729 541.934 557.663 542.125 558.492 542.508C559.331 542.882 560.042 543.41 560.625 544.094C561.217 544.768 561.669 545.566 561.979 546.486C562.288 547.398 562.443 548.387 562.443 549.453V549.768C562.443 550.834 562.288 551.823 561.979 552.734C561.669 553.646 561.217 554.443 560.625 555.127C560.042 555.801 559.335 556.33 558.506 556.713C557.686 557.087 556.756 557.273 555.717 557.273C554.678 557.273 553.743 557.087 552.914 556.713C552.085 556.33 551.374 555.801 550.781 555.127C550.198 554.443 549.751 553.646 549.441 552.734C549.132 551.823 548.977 550.834 548.977 549.768ZM551.506 549.453V549.768C551.506 550.506 551.592 551.203 551.766 551.859C551.939 552.507 552.199 553.081 552.545 553.582C552.9 554.083 553.342 554.48 553.871 554.771C554.4 555.054 555.015 555.195 555.717 555.195C556.41 555.195 557.016 555.054 557.535 554.771C558.064 554.48 558.501 554.083 558.848 553.582C559.194 553.081 559.454 552.507 559.627 551.859C559.809 551.203 559.9 550.506 559.9 549.768V549.453C559.9 548.724 559.809 548.036 559.627 547.389C559.454 546.732 559.189 546.154 558.834 545.652C558.488 545.142 558.05 544.741 557.521 544.449C557.002 544.158 556.391 544.012 555.689 544.012C554.997 544.012 554.386 544.158 553.857 544.449C553.338 544.741 552.9 545.142 552.545 545.652C552.199 546.154 551.939 546.732 551.766 547.389C551.592 548.036 551.506 548.724 551.506 549.453ZM568.131 545.146V557H565.588V542.207H567.994L568.131 545.146ZM567.611 549.043L566.436 549.002C566.445 547.99 566.577 547.056 566.832 546.199C567.087 545.333 567.465 544.581 567.967 543.943C568.468 543.305 569.092 542.813 569.84 542.467C570.587 542.111 571.453 541.934 572.438 541.934C573.13 541.934 573.768 542.034 574.352 542.234C574.935 542.426 575.441 542.731 575.869 543.15C576.298 543.57 576.63 544.107 576.867 544.764C577.104 545.42 577.223 546.213 577.223 547.143V557H574.693V547.266C574.693 546.491 574.561 545.871 574.297 545.406C574.042 544.941 573.677 544.604 573.203 544.395C572.729 544.176 572.173 544.066 571.535 544.066C570.788 544.066 570.163 544.199 569.662 544.463C569.161 544.727 568.76 545.092 568.459 545.557C568.158 546.021 567.939 546.555 567.803 547.156C567.675 547.749 567.611 548.378 567.611 549.043ZM577.195 547.648L575.5 548.168C575.509 547.357 575.641 546.577 575.896 545.83C576.161 545.083 576.539 544.417 577.031 543.834C577.533 543.251 578.148 542.79 578.877 542.453C579.606 542.107 580.44 541.934 581.379 541.934C582.172 541.934 582.874 542.038 583.484 542.248C584.104 542.458 584.624 542.781 585.043 543.219C585.471 543.647 585.795 544.199 586.014 544.873C586.232 545.548 586.342 546.35 586.342 547.279V557H583.799V547.252C583.799 546.423 583.667 545.78 583.402 545.324C583.147 544.859 582.783 544.536 582.309 544.354C581.844 544.162 581.288 544.066 580.641 544.066C580.085 544.066 579.592 544.162 579.164 544.354C578.736 544.545 578.376 544.809 578.084 545.146C577.792 545.475 577.569 545.853 577.414 546.281C577.268 546.71 577.195 547.165 577.195 547.648ZM602.885 557H598.729L598.756 554.854H602.885C604.307 554.854 605.492 554.557 606.439 553.965C607.387 553.363 608.098 552.525 608.572 551.449C609.055 550.365 609.297 549.098 609.297 547.648V546.432C609.297 545.292 609.16 544.281 608.887 543.396C608.613 542.503 608.212 541.751 607.684 541.141C607.155 540.521 606.508 540.051 605.742 539.732C604.986 539.413 604.115 539.254 603.131 539.254H598.646V537.094H603.131C604.434 537.094 605.624 537.312 606.699 537.75C607.775 538.178 608.7 538.803 609.475 539.623C610.258 540.434 610.86 541.419 611.279 542.576C611.699 543.725 611.908 545.019 611.908 546.459V547.648C611.908 549.089 611.699 550.387 611.279 551.545C610.86 552.693 610.254 553.673 609.461 554.484C608.677 555.296 607.729 555.92 606.617 556.357C605.514 556.786 604.27 557 602.885 557ZM600.137 537.094V557H597.498V537.094H600.137ZM618.02 544.531V557H615.49V542.207H617.951L618.02 544.531ZM622.641 542.125L622.627 544.477C622.417 544.431 622.217 544.404 622.025 544.395C621.843 544.376 621.633 544.367 621.396 544.367C620.813 544.367 620.298 544.458 619.852 544.641C619.405 544.823 619.027 545.078 618.717 545.406C618.407 545.734 618.161 546.126 617.979 546.582C617.805 547.029 617.691 547.521 617.637 548.059L616.926 548.469C616.926 547.576 617.012 546.737 617.186 545.953C617.368 545.169 617.646 544.477 618.02 543.875C618.393 543.264 618.867 542.79 619.441 542.453C620.025 542.107 620.717 541.934 621.52 541.934C621.702 541.934 621.911 541.956 622.148 542.002C622.385 542.038 622.549 542.079 622.641 542.125ZM624.035 549.768V549.453C624.035 548.387 624.19 547.398 624.5 546.486C624.81 545.566 625.257 544.768 625.84 544.094C626.423 543.41 627.13 542.882 627.959 542.508C628.788 542.125 629.718 541.934 630.748 541.934C631.787 541.934 632.721 542.125 633.551 542.508C634.389 542.882 635.1 543.41 635.684 544.094C636.276 544.768 636.727 545.566 637.037 546.486C637.347 547.398 637.502 548.387 637.502 549.453V549.768C637.502 550.834 637.347 551.823 637.037 552.734C636.727 553.646 636.276 554.443 635.684 555.127C635.1 555.801 634.394 556.33 633.564 556.713C632.744 557.087 631.814 557.273 630.775 557.273C629.736 557.273 628.802 557.087 627.973 556.713C627.143 556.33 626.432 555.801 625.84 555.127C625.257 554.443 624.81 553.646 624.5 552.734C624.19 551.823 624.035 550.834 624.035 549.768ZM626.564 549.453V549.768C626.564 550.506 626.651 551.203 626.824 551.859C626.997 552.507 627.257 553.081 627.604 553.582C627.959 554.083 628.401 554.48 628.93 554.771C629.458 555.054 630.074 555.195 630.775 555.195C631.468 555.195 632.074 555.054 632.594 554.771C633.122 554.48 633.56 554.083 633.906 553.582C634.253 553.081 634.512 552.507 634.686 551.859C634.868 551.203 634.959 550.506 634.959 549.768V549.453C634.959 548.724 634.868 548.036 634.686 547.389C634.512 546.732 634.248 546.154 633.893 545.652C633.546 545.142 633.109 544.741 632.58 544.449C632.061 544.158 631.45 544.012 630.748 544.012C630.055 544.012 629.445 544.158 628.916 544.449C628.396 544.741 627.959 545.142 627.604 545.652C627.257 546.154 626.997 546.732 626.824 547.389C626.651 548.036 626.564 548.724 626.564 549.453ZM643.203 545.051V562.688H640.66V542.207H642.984L643.203 545.051ZM653.17 549.48V549.768C653.17 550.843 653.042 551.841 652.787 552.762C652.532 553.673 652.158 554.466 651.666 555.141C651.183 555.815 650.586 556.339 649.875 556.713C649.164 557.087 648.348 557.273 647.428 557.273C646.489 557.273 645.66 557.118 644.939 556.809C644.219 556.499 643.609 556.048 643.107 555.455C642.606 554.863 642.205 554.152 641.904 553.322C641.613 552.493 641.412 551.559 641.303 550.52V548.988C641.412 547.895 641.617 546.915 641.918 546.049C642.219 545.183 642.615 544.445 643.107 543.834C643.609 543.214 644.215 542.745 644.926 542.426C645.637 542.098 646.457 541.934 647.387 541.934C648.316 541.934 649.141 542.116 649.861 542.48C650.581 542.836 651.188 543.346 651.68 544.012C652.172 544.677 652.541 545.475 652.787 546.404C653.042 547.325 653.17 548.35 653.17 549.48ZM650.627 549.768V549.48C650.627 548.742 650.549 548.049 650.395 547.402C650.24 546.746 649.998 546.172 649.67 545.68C649.351 545.178 648.941 544.786 648.439 544.504C647.938 544.212 647.341 544.066 646.648 544.066C646.01 544.066 645.454 544.176 644.98 544.395C644.516 544.613 644.119 544.91 643.791 545.283C643.463 545.648 643.194 546.067 642.984 546.541C642.784 547.006 642.633 547.489 642.533 547.99V551.531C642.715 552.169 642.971 552.771 643.299 553.336C643.627 553.892 644.064 554.343 644.611 554.689C645.158 555.027 645.846 555.195 646.676 555.195C647.359 555.195 647.947 555.054 648.439 554.771C648.941 554.48 649.351 554.083 649.67 553.582C649.998 553.081 650.24 552.507 650.395 551.859C650.549 551.203 650.627 550.506 650.627 549.768ZM655.727 549.768V549.453C655.727 548.387 655.882 547.398 656.191 546.486C656.501 545.566 656.948 544.768 657.531 544.094C658.115 543.41 658.821 542.882 659.65 542.508C660.48 542.125 661.41 541.934 662.439 541.934C663.479 541.934 664.413 542.125 665.242 542.508C666.081 542.882 666.792 543.41 667.375 544.094C667.967 544.768 668.419 545.566 668.729 546.486C669.038 547.398 669.193 548.387 669.193 549.453V549.768C669.193 550.834 669.038 551.823 668.729 552.734C668.419 553.646 667.967 554.443 667.375 555.127C666.792 555.801 666.085 556.33 665.256 556.713C664.436 557.087 663.506 557.273 662.467 557.273C661.428 557.273 660.493 557.087 659.664 556.713C658.835 556.33 658.124 555.801 657.531 555.127C656.948 554.443 656.501 553.646 656.191 552.734C655.882 551.823 655.727 550.834 655.727 549.768ZM658.256 549.453V549.768C658.256 550.506 658.342 551.203 658.516 551.859C658.689 552.507 658.949 553.081 659.295 553.582C659.65 554.083 660.092 554.48 660.621 554.771C661.15 555.054 661.765 555.195 662.467 555.195C663.16 555.195 663.766 555.054 664.285 554.771C664.814 554.48 665.251 554.083 665.598 553.582C665.944 553.081 666.204 552.507 666.377 551.859C666.559 551.203 666.65 550.506 666.65 549.768V549.453C666.65 548.724 666.559 548.036 666.377 547.389C666.204 546.732 665.939 546.154 665.584 545.652C665.238 545.142 664.8 544.741 664.271 544.449C663.752 544.158 663.141 544.012 662.439 544.012C661.747 544.012 661.136 544.158 660.607 544.449C660.088 544.741 659.65 545.142 659.295 545.652C658.949 546.154 658.689 546.732 658.516 547.389C658.342 548.036 658.256 548.724 658.256 549.453ZM681.416 553.582V542.207H683.959V557H681.539L681.416 553.582ZM681.895 550.465L682.947 550.438C682.947 551.422 682.842 552.333 682.633 553.172C682.432 554.001 682.104 554.721 681.648 555.332C681.193 555.943 680.596 556.421 679.857 556.768C679.119 557.105 678.221 557.273 677.164 557.273C676.444 557.273 675.783 557.169 675.182 556.959C674.589 556.749 674.079 556.426 673.65 555.988C673.222 555.551 672.889 554.981 672.652 554.279C672.424 553.577 672.311 552.734 672.311 551.75V542.207H674.84V551.777C674.84 552.443 674.913 552.994 675.059 553.432C675.214 553.86 675.419 554.202 675.674 554.457C675.938 554.703 676.23 554.876 676.549 554.977C676.877 555.077 677.214 555.127 677.561 555.127C678.636 555.127 679.488 554.922 680.117 554.512C680.746 554.092 681.197 553.532 681.471 552.83C681.753 552.119 681.895 551.331 681.895 550.465ZM694.008 542.207V544.148H686.01V542.207H694.008ZM688.717 538.611H691.246V553.336C691.246 553.837 691.324 554.215 691.479 554.471C691.633 554.726 691.834 554.895 692.08 554.977C692.326 555.059 692.59 555.1 692.873 555.1C693.083 555.1 693.301 555.081 693.529 555.045C693.766 554.999 693.944 554.963 694.062 554.936L694.076 557C693.876 557.064 693.611 557.123 693.283 557.178C692.964 557.242 692.577 557.273 692.121 557.273C691.501 557.273 690.932 557.15 690.412 556.904C689.893 556.658 689.478 556.248 689.168 555.674C688.867 555.09 688.717 554.307 688.717 553.322V538.611Z" fill="black"/>
</svg>
