<svg width="778" height="217" viewBox="0 0 778 217" fill="none" xmlns="http://www.w3.org/2000/svg">
<path d="M13 61L79 156" stroke="#222222" stroke-width="4" stroke-linecap="square"/>
<path d="M13 61L79 204" stroke="#222222" stroke-width="4" stroke-linecap="square"/>
<path d="M13 108L79 204" stroke="#222222" stroke-width="4" stroke-linecap="square"/>
<path d="M13 108L79 156" stroke="#222222" stroke-width="4" stroke-linecap="square"/>
<path d="M13 108L79 61" stroke="#222222" stroke-width="4" stroke-linecap="square"/>
<path d="M13 60L79 61" stroke="#222222" stroke-width="4" stroke-linecap="square"/>
<path d="M146 156H79" stroke="#222222" stroke-width="4" stroke-linecap="square"/>
<path d="M146 61L79 156" stroke="#222222" stroke-width="4" stroke-linecap="square"/>
<path d="M146 61L79 204" stroke="#222222" stroke-width="4" stroke-linecap="square"/>
<path d="M146 156L79 61" stroke="#222222" stroke-width="4" stroke-linecap="square"/>
<path d="M146 156L79 204" stroke="#222222" stroke-width="4" stroke-linecap="square"/>
<path d="M146 108L79 204" stroke="#222222" stroke-width="4" stroke-linecap="square"/>
<path d="M146 108L79 156" stroke="#222222" stroke-width="4" stroke-linecap="square"/>
<path d="M146 108L79 61" stroke="#222222" stroke-width="4" stroke-linecap="square"/>
<path d="M146 60L79 61" stroke="#222222" stroke-width="4" stroke-linecap="square"/>
<circle cx="12.5" cy="60.5" r="12.5" fill="#D9D9D9"/>
<circle cx="12.5" cy="108.5" r="12.5" fill="#D9D9D9"/>
<circle cx="12.5" cy="156.5" r="12.5" fill="#D9D9D9"/>
<circle cx="12.5" cy="60.5" r="12.5" fill="#48BFE3"/>
<circle cx="12.5" cy="108.5" r="12.5" fill="#48BFE3"/>
<circle cx="12.5" cy="156.5" r="12.5" fill="#48BFE3" fill-opacity="0.4"/>
<circle cx="145.5" cy="60.5" r="12.5" fill="#D9D9D9"/>
<circle cx="145.5" cy="108.5" r="12.5" fill="#D9D9D9"/>
<circle cx="145.5" cy="156.5" r="12.5" fill="#D9D9D9"/>
<circle cx="145.5" cy="60.5" r="12.5" fill="#48BFE3"/>
<circle cx="145.5" cy="108.5" r="12.5" fill="#48BFE3"/>
<circle cx="145.5" cy="156.5" r="12.5" fill="#48BFE3"/>
<circle cx="79.5" cy="60.5" r="12.5" fill="#5E60CE"/>
<circle cx="79.5" cy="12.5" r="12.5" fill="#5E60CE" fill-opacity="0.4"/>
<circle cx="79.5" cy="108.5" r="12.5" fill="#5E60CE" fill-opacity="0.4"/>
<circle cx="79.5" cy="156.5" r="12.5" fill="#5E60CE"/>
<circle cx="79.5" cy="204.5" r="12.5" fill="#5E60CE"/>
<path d="M270.056 151L247.443 85.4189H246.96C247.067 86.887 247.193 88.8923 247.336 91.4346C247.479 93.9769 247.604 96.6982 247.712 99.5986C247.819 102.499 247.873 105.274 247.873 107.924V151H236.164V72.4746H254.265L276.018 135.155H276.34L298.845 72.4746H316.892V151H304.592V107.279C304.592 104.88 304.628 102.284 304.699 99.4912C304.807 96.6982 304.914 94.0485 305.021 91.542C305.165 89.0355 305.272 87.0303 305.344 85.5264H304.914L281.442 151H270.056ZM337.57 151V72.4746H350.461V140.043H383.815V151H337.57ZM453.21 151H440.266V83.4316H417.277V72.4746H476.145V83.4316H453.21V151ZM539.523 121.137C539.523 126.078 538.879 130.465 537.59 134.296C536.301 138.127 534.421 141.368 531.95 144.018C529.479 146.632 526.507 148.637 523.034 150.033C519.561 151.394 515.64 152.074 511.271 152.074C507.189 152.074 503.448 151.394 500.046 150.033C496.644 148.637 493.69 146.632 491.184 144.018C488.713 141.368 486.797 138.127 485.437 134.296C484.076 130.465 483.396 126.078 483.396 121.137C483.396 114.584 484.523 109.034 486.779 104.486C489.071 99.903 492.329 96.4118 496.555 94.0127C500.78 91.6136 505.811 90.4141 511.647 90.4141C517.126 90.4141 521.96 91.6136 526.149 94.0127C530.339 96.4118 533.615 99.903 535.979 104.486C538.342 109.07 539.523 114.62 539.523 121.137ZM496.394 121.137C496.394 125.469 496.913 129.175 497.951 132.255C499.025 135.334 500.673 137.698 502.893 139.345C505.113 140.956 507.977 141.762 511.486 141.762C514.995 141.762 517.86 140.956 520.08 139.345C522.3 137.698 523.929 135.334 524.968 132.255C526.006 129.175 526.525 125.469 526.525 121.137C526.525 116.804 526.006 113.134 524.968 110.126C523.929 107.082 522.3 104.773 520.08 103.197C517.86 101.586 514.978 100.78 511.433 100.78C506.205 100.78 502.391 102.535 499.992 106.044C497.593 109.553 496.394 114.584 496.394 121.137ZM606.662 121.137C606.662 126.078 606.018 130.465 604.729 134.296C603.439 138.127 601.56 141.368 599.089 144.018C596.618 146.632 593.646 148.637 590.173 150.033C586.7 151.394 582.779 152.074 578.41 152.074C574.328 152.074 570.586 151.394 567.185 150.033C563.783 148.637 560.829 146.632 558.322 144.018C555.852 141.368 553.936 138.127 552.575 134.296C551.215 130.465 550.534 126.078 550.534 121.137C550.534 114.584 551.662 109.034 553.918 104.486C556.21 99.903 559.468 96.4118 563.693 94.0127C567.919 91.6136 572.95 90.4141 578.786 90.4141C584.265 90.4141 589.099 91.6136 593.288 94.0127C597.478 96.4118 600.754 99.903 603.117 104.486C605.48 109.07 606.662 114.62 606.662 121.137ZM563.532 121.137C563.532 125.469 564.051 129.175 565.09 132.255C566.164 135.334 567.811 137.698 570.031 139.345C572.251 140.956 575.116 141.762 578.625 141.762C582.134 141.762 584.999 140.956 587.219 139.345C589.439 137.698 591.068 135.334 592.106 132.255C593.145 129.175 593.664 125.469 593.664 121.137C593.664 116.804 593.145 113.134 592.106 110.126C591.068 107.082 589.439 104.773 587.219 103.197C584.999 101.586 582.116 100.78 578.571 100.78C573.343 100.78 569.53 102.535 567.131 106.044C564.732 109.553 563.532 114.584 563.532 121.137ZM633.84 151H621.164V67.4258H633.84V151ZM664.509 67.4258V107.816C664.509 109.643 664.437 111.648 664.294 113.832C664.151 115.98 664.007 118.004 663.864 119.901H664.133C665.064 118.648 666.174 117.18 667.463 115.497C668.788 113.814 670.041 112.346 671.223 111.093L689.377 91.542H703.879L680.085 117.108L705.437 151H690.612L671.599 124.896L664.509 130.966V151H651.887V67.4258H664.509ZM727.565 91.542V151H714.943V91.542H727.565ZM721.335 68.7686C723.269 68.7686 724.934 69.2878 726.33 70.3262C727.762 71.3646 728.479 73.1549 728.479 75.6973C728.479 78.2038 727.762 79.9941 726.33 81.0684C724.934 82.1068 723.269 82.626 721.335 82.626C719.33 82.626 717.629 82.1068 716.232 81.0684C714.872 79.9941 714.191 78.2038 714.191 75.6973C714.191 73.1549 714.872 71.3646 716.232 70.3262C717.629 69.2878 719.33 68.7686 721.335 68.7686ZM767.795 141.869C769.442 141.869 771.071 141.726 772.683 141.439C774.294 141.117 775.762 140.741 777.087 140.312V149.872C775.69 150.481 773.882 151 771.662 151.43C769.442 151.859 767.132 152.074 764.733 152.074C761.368 152.074 758.342 151.519 755.656 150.409C752.971 149.263 750.84 147.312 749.265 144.555C747.689 141.798 746.901 137.984 746.901 133.114V101.156H738.791V95.5166L747.492 91.0586L751.628 78.3291H759.577V91.542H776.604V101.156H759.577V132.953C759.577 135.961 760.329 138.199 761.833 139.667C763.337 141.135 765.324 141.869 767.795 141.869Z" fill="black"/>
</svg>
