<svg width="1140" height="799" viewBox="0 0 1140 799" fill="none" xmlns="http://www.w3.org/2000/svg">
<path d="M55 744L270 399" stroke="black" stroke-width="8"/>
<path d="M482 744L270 399" stroke="black" stroke-width="8"/>
<circle cx="55.5" cy="743.5" r="55.5" fill="#5E60CE"/>
<circle cx="481.5" cy="743.5" r="55.5" fill="#5E60CE"/>
<path d="M658 744L873 399" stroke="black" stroke-width="8"/>
<path d="M872 744L873 399" stroke="black" stroke-width="8"/>
<path d="M569 55L268 399" stroke="black" stroke-width="8"/>
<path d="M569 55L872 399" stroke="black" stroke-width="8"/>
<path d="M1085 744L873 399" stroke="black" stroke-width="8"/>
<circle cx="568.5" cy="55.5" r="55.5" fill="#5E60CE"/>
<circle cx="658.5" cy="743.5" r="55.5" fill="#5E60CE"/>
<circle cx="871.5" cy="743.5" r="55.5" fill="#5E60CE"/>
<circle cx="1084.5" cy="743.5" r="55.5" fill="#5E60CE"/>
<circle cx="268.5" cy="399.5" r="55.5" fill="#48BFE3"/>
<path d="M238.895 422.545V377.091H249.406V380.571H242.872V419.065H249.406V422.545H238.895ZM257.01 418H252.394L265.746 381.636H270.291L283.644 418H279.027L268.161 387.389H267.877L257.01 418ZM258.715 403.795H277.323V407.702H258.715V403.795ZM297.12 377.091V422.545H286.609V419.065H293.143V380.571H286.609V377.091H297.12Z" fill="white"/>
<circle cx="871.5" cy="399.5" r="55.5" fill="#48BFE3"/>
<rect x="298" y="544" width="183" height="85" rx="10" fill="#A3D9E9"/>
<path d="M363.172 576.547V579H351.797V576.547H363.172ZM352.391 556.25V579H349.375V556.25H352.391ZM365.422 570.734V570.375C365.422 569.156 365.599 568.026 365.953 566.984C366.307 565.932 366.818 565.021 367.484 564.25C368.151 563.469 368.958 562.865 369.906 562.438C370.854 562 371.917 561.781 373.094 561.781C374.281 561.781 375.349 562 376.297 562.438C377.255 562.865 378.068 563.469 378.734 564.25C379.411 565.021 379.927 565.932 380.281 566.984C380.635 568.026 380.812 569.156 380.812 570.375V570.734C380.812 571.953 380.635 573.083 380.281 574.125C379.927 575.167 379.411 576.078 378.734 576.859C378.068 577.63 377.26 578.234 376.312 578.672C375.375 579.099 374.312 579.312 373.125 579.312C371.938 579.312 370.87 579.099 369.922 578.672C368.974 578.234 368.161 577.63 367.484 576.859C366.818 576.078 366.307 575.167 365.953 574.125C365.599 573.083 365.422 571.953 365.422 570.734ZM368.312 570.375V570.734C368.312 571.578 368.411 572.375 368.609 573.125C368.807 573.865 369.104 574.521 369.5 575.094C369.906 575.667 370.411 576.12 371.016 576.453C371.62 576.776 372.323 576.938 373.125 576.938C373.917 576.938 374.609 576.776 375.203 576.453C375.807 576.12 376.307 575.667 376.703 575.094C377.099 574.521 377.396 573.865 377.594 573.125C377.802 572.375 377.906 571.578 377.906 570.734V570.375C377.906 569.542 377.802 568.755 377.594 568.016C377.396 567.266 377.094 566.604 376.688 566.031C376.292 565.448 375.792 564.99 375.188 564.656C374.594 564.323 373.896 564.156 373.094 564.156C372.302 564.156 371.604 564.323 371 564.656C370.406 564.99 369.906 565.448 369.5 566.031C369.104 566.604 368.807 567.266 368.609 568.016C368.411 568.755 368.312 569.542 368.312 570.375ZM394.281 574.516C394.281 574.099 394.188 573.714 394 573.359C393.823 572.995 393.453 572.667 392.891 572.375C392.339 572.073 391.505 571.812 390.391 571.594C389.453 571.396 388.604 571.161 387.844 570.891C387.094 570.62 386.453 570.292 385.922 569.906C385.401 569.521 385 569.068 384.719 568.547C384.438 568.026 384.297 567.417 384.297 566.719C384.297 566.052 384.443 565.422 384.734 564.828C385.036 564.234 385.458 563.708 386 563.25C386.552 562.792 387.214 562.432 387.984 562.172C388.755 561.911 389.615 561.781 390.562 561.781C391.917 561.781 393.073 562.021 394.031 562.5C394.99 562.979 395.724 563.62 396.234 564.422C396.745 565.214 397 566.094 397 567.062H394.109C394.109 566.594 393.969 566.141 393.688 565.703C393.417 565.255 393.016 564.885 392.484 564.594C391.964 564.302 391.323 564.156 390.562 564.156C389.76 564.156 389.109 564.281 388.609 564.531C388.12 564.771 387.76 565.078 387.531 565.453C387.312 565.828 387.203 566.224 387.203 566.641C387.203 566.953 387.255 567.234 387.359 567.484C387.474 567.724 387.672 567.948 387.953 568.156C388.234 568.354 388.63 568.542 389.141 568.719C389.651 568.896 390.302 569.073 391.094 569.25C392.479 569.562 393.62 569.938 394.516 570.375C395.411 570.812 396.078 571.349 396.516 571.984C396.953 572.62 397.172 573.391 397.172 574.297C397.172 575.036 397.016 575.714 396.703 576.328C396.401 576.943 395.958 577.474 395.375 577.922C394.802 578.359 394.115 578.703 393.312 578.953C392.521 579.193 391.63 579.312 390.641 579.312C389.151 579.312 387.891 579.047 386.859 578.516C385.828 577.984 385.047 577.297 384.516 576.453C383.984 575.609 383.719 574.719 383.719 573.781H386.625C386.667 574.573 386.896 575.203 387.312 575.672C387.729 576.13 388.24 576.458 388.844 576.656C389.448 576.844 390.047 576.938 390.641 576.938C391.432 576.938 392.094 576.833 392.625 576.625C393.167 576.417 393.578 576.13 393.859 575.766C394.141 575.401 394.281 574.984 394.281 574.516ZM407.984 579.312C406.807 579.312 405.74 579.115 404.781 578.719C403.833 578.312 403.016 577.745 402.328 577.016C401.651 576.286 401.13 575.422 400.766 574.422C400.401 573.422 400.219 572.328 400.219 571.141V570.484C400.219 569.109 400.422 567.885 400.828 566.812C401.234 565.729 401.786 564.812 402.484 564.062C403.182 563.312 403.974 562.745 404.859 562.359C405.745 561.974 406.661 561.781 407.609 561.781C408.818 561.781 409.859 561.99 410.734 562.406C411.62 562.823 412.344 563.406 412.906 564.156C413.469 564.896 413.885 565.771 414.156 566.781C414.427 567.781 414.562 568.875 414.562 570.062V571.359H401.938V569H411.672V568.781C411.63 568.031 411.474 567.302 411.203 566.594C410.943 565.885 410.526 565.302 409.953 564.844C409.38 564.385 408.599 564.156 407.609 564.156C406.953 564.156 406.349 564.297 405.797 564.578C405.245 564.849 404.771 565.255 404.375 565.797C403.979 566.339 403.672 567 403.453 567.781C403.234 568.562 403.125 569.464 403.125 570.484V571.141C403.125 571.943 403.234 572.698 403.453 573.406C403.682 574.104 404.01 574.719 404.438 575.25C404.875 575.781 405.401 576.198 406.016 576.5C406.641 576.802 407.349 576.953 408.141 576.953C409.161 576.953 410.026 576.745 410.734 576.328C411.443 575.911 412.062 575.354 412.594 574.656L414.344 576.047C413.979 576.599 413.516 577.125 412.953 577.625C412.391 578.125 411.698 578.531 410.875 578.844C410.062 579.156 409.099 579.312 407.984 579.312ZM427.781 574.516C427.781 574.099 427.688 573.714 427.5 573.359C427.323 572.995 426.953 572.667 426.391 572.375C425.839 572.073 425.005 571.812 423.891 571.594C422.953 571.396 422.104 571.161 421.344 570.891C420.594 570.62 419.953 570.292 419.422 569.906C418.901 569.521 418.5 569.068 418.219 568.547C417.938 568.026 417.797 567.417 417.797 566.719C417.797 566.052 417.943 565.422 418.234 564.828C418.536 564.234 418.958 563.708 419.5 563.25C420.052 562.792 420.714 562.432 421.484 562.172C422.255 561.911 423.115 561.781 424.062 561.781C425.417 561.781 426.573 562.021 427.531 562.5C428.49 562.979 429.224 563.62 429.734 564.422C430.245 565.214 430.5 566.094 430.5 567.062H427.609C427.609 566.594 427.469 566.141 427.188 565.703C426.917 565.255 426.516 564.885 425.984 564.594C425.464 564.302 424.823 564.156 424.062 564.156C423.26 564.156 422.609 564.281 422.109 564.531C421.62 564.771 421.26 565.078 421.031 565.453C420.812 565.828 420.703 566.224 420.703 566.641C420.703 566.953 420.755 567.234 420.859 567.484C420.974 567.724 421.172 567.948 421.453 568.156C421.734 568.354 422.13 568.542 422.641 568.719C423.151 568.896 423.802 569.073 424.594 569.25C425.979 569.562 427.12 569.938 428.016 570.375C428.911 570.812 429.578 571.349 430.016 571.984C430.453 572.62 430.672 573.391 430.672 574.297C430.672 575.036 430.516 575.714 430.203 576.328C429.901 576.943 429.458 577.474 428.875 577.922C428.302 578.359 427.615 578.703 426.812 578.953C426.021 579.193 425.13 579.312 424.141 579.312C422.651 579.312 421.391 579.047 420.359 578.516C419.328 577.984 418.547 577.297 418.016 576.453C417.484 575.609 417.219 574.719 417.219 573.781H420.125C420.167 574.573 420.396 575.203 420.812 575.672C421.229 576.13 421.74 576.458 422.344 576.656C422.948 576.844 423.547 576.938 424.141 576.938C424.932 576.938 425.594 576.833 426.125 576.625C426.667 576.417 427.078 576.13 427.359 575.766C427.641 575.401 427.781 574.984 427.781 574.516ZM341.75 617H338.859V598.312C338.859 597.094 339.078 596.068 339.516 595.234C339.964 594.391 340.604 593.755 341.438 593.328C342.271 592.891 343.26 592.672 344.406 592.672C344.74 592.672 345.073 592.693 345.406 592.734C345.75 592.776 346.083 592.839 346.406 592.922L346.25 595.281C346.031 595.229 345.781 595.193 345.5 595.172C345.229 595.151 344.958 595.141 344.688 595.141C344.073 595.141 343.542 595.266 343.094 595.516C342.656 595.755 342.323 596.109 342.094 596.578C341.865 597.047 341.75 597.625 341.75 598.312V617ZM345.344 600.094V602.312H336.188V600.094H345.344ZM347.797 608.734V608.375C347.797 607.156 347.974 606.026 348.328 604.984C348.682 603.932 349.193 603.021 349.859 602.25C350.526 601.469 351.333 600.865 352.281 600.438C353.229 600 354.292 599.781 355.469 599.781C356.656 599.781 357.724 600 358.672 600.438C359.63 600.865 360.443 601.469 361.109 602.25C361.786 603.021 362.302 603.932 362.656 604.984C363.01 606.026 363.188 607.156 363.188 608.375V608.734C363.188 609.953 363.01 611.083 362.656 612.125C362.302 613.167 361.786 614.078 361.109 614.859C360.443 615.63 359.635 616.234 358.688 616.672C357.75 617.099 356.688 617.312 355.5 617.312C354.312 617.312 353.245 617.099 352.297 616.672C351.349 616.234 350.536 615.63 349.859 614.859C349.193 614.078 348.682 613.167 348.328 612.125C347.974 611.083 347.797 609.953 347.797 608.734ZM350.688 608.375V608.734C350.688 609.578 350.786 610.375 350.984 611.125C351.182 611.865 351.479 612.521 351.875 613.094C352.281 613.667 352.786 614.12 353.391 614.453C353.995 614.776 354.698 614.938 355.5 614.938C356.292 614.938 356.984 614.776 357.578 614.453C358.182 614.12 358.682 613.667 359.078 613.094C359.474 612.521 359.771 611.865 359.969 611.125C360.177 610.375 360.281 609.578 360.281 608.734V608.375C360.281 607.542 360.177 606.755 359.969 606.016C359.771 605.266 359.469 604.604 359.062 604.031C358.667 603.448 358.167 602.99 357.562 602.656C356.969 602.323 356.271 602.156 355.469 602.156C354.677 602.156 353.979 602.323 353.375 602.656C352.781 602.99 352.281 603.448 351.875 604.031C351.479 604.604 351.182 605.266 350.984 606.016C350.786 606.755 350.688 607.542 350.688 608.375ZM369.703 602.75V617H366.812V600.094H369.625L369.703 602.75ZM374.984 600L374.969 602.688C374.729 602.635 374.5 602.604 374.281 602.594C374.073 602.573 373.833 602.562 373.562 602.562C372.896 602.562 372.307 602.667 371.797 602.875C371.286 603.083 370.854 603.375 370.5 603.75C370.146 604.125 369.865 604.573 369.656 605.094C369.458 605.604 369.328 606.167 369.266 606.781L368.453 607.25C368.453 606.229 368.552 605.271 368.75 604.375C368.958 603.479 369.276 602.688 369.703 602C370.13 601.302 370.672 600.76 371.328 600.375C371.995 599.979 372.786 599.781 373.703 599.781C373.911 599.781 374.151 599.807 374.422 599.859C374.693 599.901 374.88 599.948 374.984 600ZM385.578 593H388.484V613.719L388.234 617H385.578V593ZM399.906 608.406V608.734C399.906 609.964 399.76 611.104 399.469 612.156C399.177 613.198 398.75 614.104 398.188 614.875C397.625 615.646 396.938 616.245 396.125 616.672C395.312 617.099 394.38 617.312 393.328 617.312C392.255 617.312 391.312 617.13 390.5 616.766C389.698 616.391 389.021 615.854 388.469 615.156C387.917 614.458 387.474 613.615 387.141 612.625C386.818 611.635 386.594 610.521 386.469 609.281V607.844C386.594 606.594 386.818 605.474 387.141 604.484C387.474 603.495 387.917 602.651 388.469 601.953C389.021 601.245 389.698 600.708 390.5 600.344C391.302 599.969 392.234 599.781 393.297 599.781C394.359 599.781 395.302 599.99 396.125 600.406C396.948 600.812 397.635 601.396 398.188 602.156C398.75 602.917 399.177 603.828 399.469 604.891C399.76 605.943 399.906 607.115 399.906 608.406ZM397 608.734V608.406C397 607.562 396.922 606.771 396.766 606.031C396.609 605.281 396.359 604.625 396.016 604.062C395.672 603.49 395.219 603.042 394.656 602.719C394.094 602.385 393.401 602.219 392.578 602.219C391.849 602.219 391.214 602.344 390.672 602.594C390.141 602.844 389.688 603.182 389.312 603.609C388.938 604.026 388.63 604.505 388.391 605.047C388.161 605.578 387.99 606.13 387.875 606.703V610.469C388.042 611.198 388.312 611.901 388.688 612.578C389.073 613.245 389.583 613.792 390.219 614.219C390.865 614.646 391.661 614.859 392.609 614.859C393.391 614.859 394.057 614.703 394.609 614.391C395.172 614.068 395.625 613.625 395.969 613.062C396.323 612.5 396.583 611.849 396.75 611.109C396.917 610.37 397 609.578 397 608.734ZM406.703 593V617H403.797V593H406.703ZM421.688 613.094V600.094H424.594V617H421.828L421.688 613.094ZM422.234 609.531L423.438 609.5C423.438 610.625 423.318 611.667 423.078 612.625C422.849 613.573 422.474 614.396 421.953 615.094C421.432 615.792 420.75 616.339 419.906 616.734C419.062 617.12 418.036 617.312 416.828 617.312C416.005 617.312 415.25 617.193 414.562 616.953C413.885 616.714 413.302 616.344 412.812 615.844C412.323 615.344 411.943 614.693 411.672 613.891C411.411 613.089 411.281 612.125 411.281 611V600.094H414.172V611.031C414.172 611.792 414.255 612.422 414.422 612.922C414.599 613.411 414.833 613.802 415.125 614.094C415.427 614.375 415.76 614.573 416.125 614.688C416.5 614.802 416.885 614.859 417.281 614.859C418.51 614.859 419.484 614.625 420.203 614.156C420.922 613.677 421.438 613.036 421.75 612.234C422.073 611.422 422.234 610.521 422.234 609.531ZM436.016 617.312C434.839 617.312 433.771 617.115 432.812 616.719C431.865 616.312 431.047 615.745 430.359 615.016C429.682 614.286 429.161 613.422 428.797 612.422C428.432 611.422 428.25 610.328 428.25 609.141V608.484C428.25 607.109 428.453 605.885 428.859 604.812C429.266 603.729 429.818 602.812 430.516 602.062C431.214 601.312 432.005 600.745 432.891 600.359C433.776 599.974 434.693 599.781 435.641 599.781C436.849 599.781 437.891 599.99 438.766 600.406C439.651 600.823 440.375 601.406 440.938 602.156C441.5 602.896 441.917 603.771 442.188 604.781C442.458 605.781 442.594 606.875 442.594 608.062V609.359H429.969V607H439.703V606.781C439.661 606.031 439.505 605.302 439.234 604.594C438.974 603.885 438.557 603.302 437.984 602.844C437.411 602.385 436.63 602.156 435.641 602.156C434.984 602.156 434.38 602.297 433.828 602.578C433.276 602.849 432.802 603.255 432.406 603.797C432.01 604.339 431.703 605 431.484 605.781C431.266 606.562 431.156 607.464 431.156 608.484V609.141C431.156 609.943 431.266 610.698 431.484 611.406C431.714 612.104 432.042 612.719 432.469 613.25C432.906 613.781 433.432 614.198 434.047 614.5C434.672 614.802 435.38 614.953 436.172 614.953C437.193 614.953 438.057 614.745 438.766 614.328C439.474 613.911 440.094 613.354 440.625 612.656L442.375 614.047C442.01 614.599 441.547 615.125 440.984 615.625C440.422 616.125 439.729 616.531 438.906 616.844C438.094 617.156 437.13 617.312 436.016 617.312Z" fill="black"/>
<rect x="55" y="544" width="183" height="85" rx="10" fill="#A3D9E9"/>
<path d="M119.922 572.125L124.438 556.25H126.625L125.359 562.422L120.5 579H118.328L119.922 572.125ZM115.25 556.25L118.844 571.812L119.922 579H117.766L112.25 556.25H115.25ZM132.469 571.797L135.984 556.25H139L133.5 579H131.344L132.469 571.797ZM126.953 556.25L131.344 572.125L132.938 579H130.766L126.078 562.422L124.797 556.25H126.953ZM145.047 562.094V579H142.141V562.094H145.047ZM141.922 557.609C141.922 557.141 142.062 556.745 142.344 556.422C142.635 556.099 143.062 555.938 143.625 555.938C144.177 555.938 144.599 556.099 144.891 556.422C145.193 556.745 145.344 557.141 145.344 557.609C145.344 558.057 145.193 558.443 144.891 558.766C144.599 559.078 144.177 559.234 143.625 559.234C143.062 559.234 142.635 559.078 142.344 558.766C142.062 558.443 141.922 558.057 141.922 557.609ZM152.578 565.703V579H149.688V562.094H152.422L152.578 565.703ZM151.891 569.906L150.688 569.859C150.698 568.703 150.87 567.635 151.203 566.656C151.536 565.667 152.005 564.807 152.609 564.078C153.214 563.349 153.932 562.786 154.766 562.391C155.609 561.984 156.542 561.781 157.562 561.781C158.396 561.781 159.146 561.896 159.812 562.125C160.479 562.344 161.047 562.698 161.516 563.188C161.995 563.677 162.359 564.312 162.609 565.094C162.859 565.865 162.984 566.807 162.984 567.922V579H160.078V567.891C160.078 567.005 159.948 566.297 159.688 565.766C159.427 565.224 159.047 564.833 158.547 564.594C158.047 564.344 157.432 564.219 156.703 564.219C155.984 564.219 155.328 564.37 154.734 564.672C154.151 564.974 153.646 565.391 153.219 565.922C152.802 566.453 152.474 567.062 152.234 567.75C152.005 568.427 151.891 569.146 151.891 569.906ZM177.219 574.516C177.219 574.099 177.125 573.714 176.938 573.359C176.76 572.995 176.391 572.667 175.828 572.375C175.276 572.073 174.443 571.812 173.328 571.594C172.391 571.396 171.542 571.161 170.781 570.891C170.031 570.62 169.391 570.292 168.859 569.906C168.339 569.521 167.938 569.068 167.656 568.547C167.375 568.026 167.234 567.417 167.234 566.719C167.234 566.052 167.38 565.422 167.672 564.828C167.974 564.234 168.396 563.708 168.938 563.25C169.49 562.792 170.151 562.432 170.922 562.172C171.693 561.911 172.552 561.781 173.5 561.781C174.854 561.781 176.01 562.021 176.969 562.5C177.927 562.979 178.661 563.62 179.172 564.422C179.682 565.214 179.938 566.094 179.938 567.062H177.047C177.047 566.594 176.906 566.141 176.625 565.703C176.354 565.255 175.953 564.885 175.422 564.594C174.901 564.302 174.26 564.156 173.5 564.156C172.698 564.156 172.047 564.281 171.547 564.531C171.057 564.771 170.698 565.078 170.469 565.453C170.25 565.828 170.141 566.224 170.141 566.641C170.141 566.953 170.193 567.234 170.297 567.484C170.411 567.724 170.609 567.948 170.891 568.156C171.172 568.354 171.568 568.542 172.078 568.719C172.589 568.896 173.24 569.073 174.031 569.25C175.417 569.562 176.557 569.938 177.453 570.375C178.349 570.812 179.016 571.349 179.453 571.984C179.891 572.62 180.109 573.391 180.109 574.297C180.109 575.036 179.953 575.714 179.641 576.328C179.339 576.943 178.896 577.474 178.312 577.922C177.74 578.359 177.052 578.703 176.25 578.953C175.458 579.193 174.568 579.312 173.578 579.312C172.089 579.312 170.828 579.047 169.797 578.516C168.766 577.984 167.984 577.297 167.453 576.453C166.922 575.609 166.656 574.719 166.656 573.781H169.562C169.604 574.573 169.833 575.203 170.25 575.672C170.667 576.13 171.177 576.458 171.781 576.656C172.385 576.844 172.984 576.938 173.578 576.938C174.37 576.938 175.031 576.833 175.562 576.625C176.104 576.417 176.516 576.13 176.797 575.766C177.078 575.401 177.219 574.984 177.219 574.516ZM98.75 617H95.8594V598.312C95.8594 597.094 96.0781 596.068 96.5156 595.234C96.9635 594.391 97.6042 593.755 98.4375 593.328C99.2708 592.891 100.26 592.672 101.406 592.672C101.74 592.672 102.073 592.693 102.406 592.734C102.75 592.776 103.083 592.839 103.406 592.922L103.25 595.281C103.031 595.229 102.781 595.193 102.5 595.172C102.229 595.151 101.958 595.141 101.688 595.141C101.073 595.141 100.542 595.266 100.094 595.516C99.6562 595.755 99.3229 596.109 99.0938 596.578C98.8646 597.047 98.75 597.625 98.75 598.312V617ZM102.344 600.094V602.312H93.1875V600.094H102.344ZM104.797 608.734V608.375C104.797 607.156 104.974 606.026 105.328 604.984C105.682 603.932 106.193 603.021 106.859 602.25C107.526 601.469 108.333 600.865 109.281 600.438C110.229 600 111.292 599.781 112.469 599.781C113.656 599.781 114.724 600 115.672 600.438C116.63 600.865 117.443 601.469 118.109 602.25C118.786 603.021 119.302 603.932 119.656 604.984C120.01 606.026 120.188 607.156 120.188 608.375V608.734C120.188 609.953 120.01 611.083 119.656 612.125C119.302 613.167 118.786 614.078 118.109 614.859C117.443 615.63 116.635 616.234 115.688 616.672C114.75 617.099 113.688 617.312 112.5 617.312C111.312 617.312 110.245 617.099 109.297 616.672C108.349 616.234 107.536 615.63 106.859 614.859C106.193 614.078 105.682 613.167 105.328 612.125C104.974 611.083 104.797 609.953 104.797 608.734ZM107.688 608.375V608.734C107.688 609.578 107.786 610.375 107.984 611.125C108.182 611.865 108.479 612.521 108.875 613.094C109.281 613.667 109.786 614.12 110.391 614.453C110.995 614.776 111.698 614.938 112.5 614.938C113.292 614.938 113.984 614.776 114.578 614.453C115.182 614.12 115.682 613.667 116.078 613.094C116.474 612.521 116.771 611.865 116.969 611.125C117.177 610.375 117.281 609.578 117.281 608.734V608.375C117.281 607.542 117.177 606.755 116.969 606.016C116.771 605.266 116.469 604.604 116.062 604.031C115.667 603.448 115.167 602.99 114.562 602.656C113.969 602.323 113.271 602.156 112.469 602.156C111.677 602.156 110.979 602.323 110.375 602.656C109.781 602.99 109.281 603.448 108.875 604.031C108.479 604.604 108.182 605.266 107.984 606.016C107.786 606.755 107.688 607.542 107.688 608.375ZM126.703 602.75V617H123.812V600.094H126.625L126.703 602.75ZM131.984 600L131.969 602.688C131.729 602.635 131.5 602.604 131.281 602.594C131.073 602.573 130.833 602.562 130.562 602.562C129.896 602.562 129.307 602.667 128.797 602.875C128.286 603.083 127.854 603.375 127.5 603.75C127.146 604.125 126.865 604.573 126.656 605.094C126.458 605.604 126.328 606.167 126.266 606.781L125.453 607.25C125.453 606.229 125.552 605.271 125.75 604.375C125.958 603.479 126.276 602.688 126.703 602C127.13 601.302 127.672 600.76 128.328 600.375C128.995 599.979 129.786 599.781 130.703 599.781C130.911 599.781 131.151 599.807 131.422 599.859C131.693 599.901 131.88 599.948 131.984 600ZM142.578 593H145.484V613.719L145.234 617H142.578V593ZM156.906 608.406V608.734C156.906 609.964 156.76 611.104 156.469 612.156C156.177 613.198 155.75 614.104 155.188 614.875C154.625 615.646 153.938 616.245 153.125 616.672C152.312 617.099 151.38 617.312 150.328 617.312C149.255 617.312 148.312 617.13 147.5 616.766C146.698 616.391 146.021 615.854 145.469 615.156C144.917 614.458 144.474 613.615 144.141 612.625C143.818 611.635 143.594 610.521 143.469 609.281V607.844C143.594 606.594 143.818 605.474 144.141 604.484C144.474 603.495 144.917 602.651 145.469 601.953C146.021 601.245 146.698 600.708 147.5 600.344C148.302 599.969 149.234 599.781 150.297 599.781C151.359 599.781 152.302 599.99 153.125 600.406C153.948 600.812 154.635 601.396 155.188 602.156C155.75 602.917 156.177 603.828 156.469 604.891C156.76 605.943 156.906 607.115 156.906 608.406ZM154 608.734V608.406C154 607.562 153.922 606.771 153.766 606.031C153.609 605.281 153.359 604.625 153.016 604.062C152.672 603.49 152.219 603.042 151.656 602.719C151.094 602.385 150.401 602.219 149.578 602.219C148.849 602.219 148.214 602.344 147.672 602.594C147.141 602.844 146.688 603.182 146.312 603.609C145.938 604.026 145.63 604.505 145.391 605.047C145.161 605.578 144.99 606.13 144.875 606.703V610.469C145.042 611.198 145.312 611.901 145.688 612.578C146.073 613.245 146.583 613.792 147.219 614.219C147.865 614.646 148.661 614.859 149.609 614.859C150.391 614.859 151.057 614.703 151.609 614.391C152.172 614.068 152.625 613.625 152.969 613.062C153.323 612.5 153.583 611.849 153.75 611.109C153.917 610.37 154 609.578 154 608.734ZM163.703 593V617H160.797V593H163.703ZM178.688 613.094V600.094H181.594V617H178.828L178.688 613.094ZM179.234 609.531L180.438 609.5C180.438 610.625 180.318 611.667 180.078 612.625C179.849 613.573 179.474 614.396 178.953 615.094C178.432 615.792 177.75 616.339 176.906 616.734C176.062 617.12 175.036 617.312 173.828 617.312C173.005 617.312 172.25 617.193 171.562 616.953C170.885 616.714 170.302 616.344 169.812 615.844C169.323 615.344 168.943 614.693 168.672 613.891C168.411 613.089 168.281 612.125 168.281 611V600.094H171.172V611.031C171.172 611.792 171.255 612.422 171.422 612.922C171.599 613.411 171.833 613.802 172.125 614.094C172.427 614.375 172.76 614.573 173.125 614.688C173.5 614.802 173.885 614.859 174.281 614.859C175.51 614.859 176.484 614.625 177.203 614.156C177.922 613.677 178.438 613.036 178.75 612.234C179.073 611.422 179.234 610.521 179.234 609.531ZM193.016 617.312C191.839 617.312 190.771 617.115 189.812 616.719C188.865 616.312 188.047 615.745 187.359 615.016C186.682 614.286 186.161 613.422 185.797 612.422C185.432 611.422 185.25 610.328 185.25 609.141V608.484C185.25 607.109 185.453 605.885 185.859 604.812C186.266 603.729 186.818 602.812 187.516 602.062C188.214 601.312 189.005 600.745 189.891 600.359C190.776 599.974 191.693 599.781 192.641 599.781C193.849 599.781 194.891 599.99 195.766 600.406C196.651 600.823 197.375 601.406 197.938 602.156C198.5 602.896 198.917 603.771 199.188 604.781C199.458 605.781 199.594 606.875 199.594 608.062V609.359H186.969V607H196.703V606.781C196.661 606.031 196.505 605.302 196.234 604.594C195.974 603.885 195.557 603.302 194.984 602.844C194.411 602.385 193.63 602.156 192.641 602.156C191.984 602.156 191.38 602.297 190.828 602.578C190.276 602.849 189.802 603.255 189.406 603.797C189.01 604.339 188.703 605 188.484 605.781C188.266 606.562 188.156 607.464 188.156 608.484V609.141C188.156 609.943 188.266 610.698 188.484 611.406C188.714 612.104 189.042 612.719 189.469 613.25C189.906 613.781 190.432 614.198 191.047 614.5C191.672 614.802 192.38 614.953 193.172 614.953C194.193 614.953 195.057 614.745 195.766 614.328C196.474 613.911 197.094 613.354 197.625 612.656L199.375 614.047C199.01 614.599 198.547 615.125 197.984 615.625C197.422 616.125 196.729 616.531 195.906 616.844C195.094 617.156 194.13 617.312 193.016 617.312Z" fill="black"/>
</svg>
