<svg width="1215" height="219" viewBox="0 0 1215 219" fill="none" xmlns="http://www.w3.org/2000/svg">
<path d="M100 122.226C100 -50.4662 919 -26.9312 919 147" stroke="url(#paint0_linear_102_2)" stroke-width="7"/>
<path d="M202 167L300 167" stroke="url(#paint1_linear_102_2)" stroke-width="7" stroke-linecap="square"/>
<path d="M502 167L600 167" stroke="url(#paint2_linear_102_2)" stroke-width="7" stroke-linecap="square"/>
<path d="M804 164H899" stroke="url(#paint3_linear_102_2)" stroke-width="7" stroke-linecap="square"/>
<rect x="300" y="122" width="202" height="81" rx="40.5" fill="#48BFE3"/>
<path d="M341.757 169.519L344.872 156.359H346.612L347.01 158.551L343.69 172H341.821L341.757 169.519ZM340.156 156.359L342.734 169.519L342.52 172H340.436L336.966 156.359H340.156ZM349.749 169.465L352.295 156.359H355.485L352.026 172H349.942L349.749 169.465ZM347.59 156.359L350.727 169.572L350.641 172H348.771L345.431 158.54L345.86 156.359H347.59ZM362.049 172.215C361.146 172.215 360.337 172.072 359.621 171.785C358.905 171.492 358.296 171.087 357.795 170.571C357.301 170.056 356.921 169.458 356.656 168.777C356.391 168.09 356.259 167.359 356.259 166.586V166.156C356.259 165.275 356.384 164.47 356.635 163.739C356.885 163.009 357.243 162.375 357.709 161.838C358.182 161.301 358.755 160.889 359.428 160.603C360.101 160.309 360.86 160.162 361.705 160.162C362.529 160.162 363.259 160.298 363.896 160.57C364.534 160.842 365.067 161.229 365.497 161.73C365.934 162.232 366.263 162.833 366.485 163.535C366.707 164.23 366.818 165.003 366.818 165.855V167.145H357.58V165.082H363.778V164.846C363.778 164.416 363.7 164.033 363.542 163.696C363.392 163.353 363.162 163.08 362.854 162.88C362.547 162.679 362.153 162.579 361.673 162.579C361.265 162.579 360.914 162.669 360.62 162.848C360.326 163.027 360.087 163.277 359.9 163.6C359.721 163.922 359.585 164.301 359.492 164.738C359.406 165.168 359.363 165.641 359.363 166.156V166.586C359.363 167.051 359.428 167.481 359.557 167.875C359.693 168.269 359.882 168.609 360.126 168.896C360.377 169.182 360.677 169.404 361.028 169.562C361.386 169.719 361.791 169.798 362.242 169.798C362.801 169.798 363.32 169.69 363.8 169.476C364.287 169.254 364.706 168.921 365.057 168.477L366.561 170.109C366.317 170.46 365.984 170.797 365.562 171.119C365.146 171.441 364.645 171.706 364.058 171.914C363.47 172.115 362.801 172.215 362.049 172.215ZM371.846 160.377V172H368.741V160.377H371.846ZM368.548 157.348C368.548 156.896 368.705 156.524 369.021 156.23C369.336 155.937 369.758 155.79 370.288 155.79C370.811 155.79 371.23 155.937 371.545 156.23C371.867 156.524 372.028 156.896 372.028 157.348C372.028 157.799 371.867 158.171 371.545 158.465C371.23 158.758 370.811 158.905 370.288 158.905C369.758 158.905 369.336 158.758 369.021 158.465C368.705 158.171 368.548 157.799 368.548 157.348ZM381.761 160.377H384.564V171.613C384.564 172.673 384.328 173.572 383.855 174.31C383.39 175.054 382.738 175.617 381.9 175.996C381.062 176.383 380.089 176.576 378.979 176.576C378.492 176.576 377.976 176.512 377.432 176.383C376.895 176.254 376.379 176.053 375.885 175.781C375.398 175.509 374.99 175.165 374.66 174.75L376.024 172.924C376.382 173.339 376.798 173.661 377.271 173.891C377.743 174.127 378.266 174.245 378.839 174.245C379.397 174.245 379.87 174.141 380.257 173.934C380.644 173.733 380.941 173.436 381.148 173.042C381.356 172.655 381.46 172.186 381.46 171.635V163.062L381.761 160.377ZM373.94 166.328V166.103C373.94 165.215 374.048 164.409 374.263 163.686C374.485 162.955 374.796 162.328 375.197 161.806C375.605 161.283 376.1 160.878 376.68 160.592C377.26 160.305 377.915 160.162 378.646 160.162C379.419 160.162 380.067 160.305 380.59 160.592C381.113 160.878 381.542 161.286 381.879 161.816C382.215 162.339 382.477 162.959 382.663 163.675C382.856 164.384 383.007 165.161 383.114 166.006V166.5C383.007 167.309 382.846 168.061 382.631 168.756C382.416 169.451 382.133 170.059 381.782 170.582C381.431 171.098 380.994 171.499 380.472 171.785C379.956 172.072 379.34 172.215 378.624 172.215C377.908 172.215 377.26 172.068 376.68 171.774C376.107 171.481 375.616 171.069 375.208 170.539C374.8 170.009 374.485 169.386 374.263 168.67C374.048 167.954 373.94 167.173 373.94 166.328ZM377.034 166.103V166.328C377.034 166.808 377.081 167.256 377.174 167.671C377.267 168.086 377.41 168.455 377.604 168.777C377.804 169.092 378.051 169.34 378.345 169.519C378.646 169.69 379 169.776 379.408 169.776C379.974 169.776 380.436 169.658 380.794 169.422C381.152 169.178 381.421 168.845 381.6 168.423C381.779 168 381.882 167.513 381.911 166.962V165.555C381.897 165.104 381.836 164.699 381.729 164.341C381.621 163.976 381.471 163.664 381.277 163.406C381.084 163.148 380.833 162.948 380.525 162.805C380.217 162.661 379.852 162.59 379.43 162.59C379.021 162.59 378.667 162.683 378.366 162.869C378.073 163.048 377.826 163.295 377.625 163.61C377.432 163.925 377.285 164.298 377.185 164.728C377.084 165.15 377.034 165.608 377.034 166.103ZM389.989 155.5V172H386.896V155.5H389.989ZM389.549 165.78H388.7C388.707 164.971 388.815 164.226 389.022 163.546C389.23 162.858 389.527 162.264 389.914 161.763C390.301 161.254 390.763 160.86 391.3 160.581C391.844 160.302 392.446 160.162 393.104 160.162C393.677 160.162 394.197 160.244 394.662 160.409C395.135 160.567 395.539 160.825 395.876 161.183C396.22 161.534 396.485 161.995 396.671 162.568C396.857 163.141 396.95 163.836 396.95 164.652V172H393.835V164.631C393.835 164.115 393.76 163.711 393.609 163.417C393.466 163.116 393.255 162.905 392.976 162.783C392.703 162.654 392.367 162.59 391.966 162.59C391.522 162.59 391.142 162.672 390.827 162.837C390.519 163.002 390.272 163.231 390.086 163.524C389.9 163.811 389.764 164.147 389.678 164.534C389.592 164.921 389.549 165.336 389.549 165.78ZM404.996 160.377V162.568H398.229V160.377H404.996ZM399.904 157.509H402.998V168.498C402.998 168.835 403.041 169.092 403.127 169.271C403.22 169.451 403.356 169.576 403.535 169.647C403.714 169.712 403.94 169.744 404.212 169.744C404.405 169.744 404.577 169.737 404.728 169.723C404.885 169.701 405.018 169.68 405.125 169.658L405.136 171.936C404.871 172.021 404.584 172.09 404.276 172.14C403.968 172.19 403.628 172.215 403.256 172.215C402.576 172.215 401.981 172.104 401.473 171.882C400.971 171.653 400.585 171.287 400.312 170.786C400.04 170.285 399.904 169.626 399.904 168.81V157.509ZM422.484 169.486V172H414.61V169.486H422.484ZM415.652 156.359V172H412.43V156.359H415.652ZM430.412 169.379V164.201C430.412 163.829 430.351 163.51 430.229 163.245C430.108 162.973 429.918 162.762 429.66 162.611C429.41 162.461 429.084 162.386 428.683 162.386C428.339 162.386 428.042 162.447 427.791 162.568C427.54 162.683 427.347 162.851 427.211 163.073C427.075 163.288 427.007 163.542 427.007 163.836H423.913C423.913 163.342 424.028 162.873 424.257 162.429C424.486 161.985 424.819 161.594 425.256 161.258C425.693 160.914 426.212 160.646 426.813 160.452C427.422 160.259 428.103 160.162 428.854 160.162C429.757 160.162 430.559 160.312 431.261 160.613C431.963 160.914 432.514 161.365 432.915 161.967C433.323 162.568 433.527 163.32 433.527 164.223V169.196C433.527 169.834 433.567 170.356 433.646 170.765C433.724 171.166 433.839 171.517 433.989 171.817V172H430.863C430.713 171.685 430.598 171.291 430.52 170.818C430.448 170.339 430.412 169.859 430.412 169.379ZM430.82 164.921L430.842 166.672H429.112C428.704 166.672 428.35 166.718 428.049 166.812C427.748 166.905 427.501 167.037 427.308 167.209C427.114 167.374 426.971 167.567 426.878 167.789C426.792 168.011 426.749 168.255 426.749 168.52C426.749 168.785 426.81 169.024 426.932 169.239C427.053 169.447 427.229 169.612 427.458 169.733C427.687 169.848 427.956 169.905 428.264 169.905C428.729 169.905 429.134 169.812 429.478 169.626C429.821 169.44 430.086 169.211 430.272 168.938C430.466 168.666 430.566 168.409 430.573 168.165L431.39 169.476C431.275 169.769 431.118 170.074 430.917 170.389C430.724 170.704 430.477 171.001 430.176 171.28C429.875 171.552 429.513 171.778 429.091 171.957C428.668 172.129 428.167 172.215 427.587 172.215C426.849 172.215 426.18 172.068 425.578 171.774C424.984 171.474 424.511 171.062 424.16 170.539C423.816 170.009 423.645 169.408 423.645 168.734C423.645 168.126 423.759 167.585 423.988 167.112C424.217 166.64 424.554 166.242 424.998 165.92C425.449 165.59 426.011 165.343 426.685 165.179C427.358 165.007 428.138 164.921 429.026 164.921H430.82ZM439.188 170.689L442.271 160.377H445.591L440.918 173.751C440.818 174.045 440.682 174.36 440.51 174.696C440.345 175.033 440.119 175.352 439.833 175.652C439.554 175.96 439.199 176.211 438.77 176.404C438.347 176.598 437.828 176.694 437.212 176.694C436.918 176.694 436.678 176.676 436.492 176.641C436.306 176.605 436.084 176.555 435.826 176.49V174.224C435.905 174.224 435.987 174.224 436.073 174.224C436.159 174.231 436.242 174.234 436.32 174.234C436.729 174.234 437.062 174.188 437.319 174.095C437.577 174.002 437.785 173.858 437.942 173.665C438.1 173.479 438.225 173.235 438.318 172.935L439.188 170.689ZM437.899 160.377L440.424 168.799L440.864 172.075L438.759 172.301L434.58 160.377H437.899ZM452.025 172.215C451.123 172.215 450.314 172.072 449.598 171.785C448.882 171.492 448.273 171.087 447.771 170.571C447.277 170.056 446.898 169.458 446.633 168.777C446.368 168.09 446.235 167.359 446.235 166.586V166.156C446.235 165.275 446.361 164.47 446.611 163.739C446.862 163.009 447.22 162.375 447.686 161.838C448.158 161.301 448.731 160.889 449.404 160.603C450.077 160.309 450.837 160.162 451.682 160.162C452.505 160.162 453.236 160.298 453.873 160.57C454.51 160.842 455.044 161.229 455.474 161.73C455.91 162.232 456.24 162.833 456.462 163.535C456.684 164.23 456.795 165.003 456.795 165.855V167.145H447.557V165.082H453.755V164.846C453.755 164.416 453.676 164.033 453.519 163.696C453.368 163.353 453.139 163.08 452.831 162.88C452.523 162.679 452.129 162.579 451.649 162.579C451.241 162.579 450.89 162.669 450.597 162.848C450.303 163.027 450.063 163.277 449.877 163.6C449.698 163.922 449.562 164.301 449.469 164.738C449.383 165.168 449.34 165.641 449.34 166.156V166.586C449.34 167.051 449.404 167.481 449.533 167.875C449.669 168.269 449.859 168.609 450.103 168.896C450.353 169.182 450.654 169.404 451.005 169.562C451.363 169.719 451.768 169.798 452.219 169.798C452.777 169.798 453.297 169.69 453.776 169.476C454.263 169.254 454.682 168.921 455.033 168.477L456.537 170.109C456.294 170.46 455.961 170.797 455.538 171.119C455.123 171.441 454.621 171.706 454.034 171.914C453.447 172.115 452.777 172.215 452.025 172.215ZM461.65 162.912V172H458.557V160.377H461.468L461.65 162.912ZM465.152 160.302L465.099 163.17C464.948 163.148 464.766 163.131 464.551 163.116C464.343 163.095 464.153 163.084 463.981 163.084C463.545 163.084 463.165 163.141 462.843 163.256C462.528 163.363 462.263 163.524 462.048 163.739C461.84 163.954 461.683 164.215 461.575 164.523C461.475 164.831 461.418 165.182 461.403 165.576L460.78 165.383C460.78 164.631 460.855 163.94 461.006 163.31C461.156 162.672 461.375 162.117 461.661 161.645C461.955 161.172 462.313 160.807 462.735 160.549C463.158 160.291 463.641 160.162 464.186 160.162C464.357 160.162 464.533 160.176 464.712 160.205C464.891 160.227 465.038 160.259 465.152 160.302Z" fill="white"/>
<path d="M519.678 129.094H527.102C528.624 129.094 529.932 129.322 531.025 129.777C532.128 130.233 532.976 130.908 533.568 131.801C534.161 132.694 534.457 133.792 534.457 135.096C534.457 136.162 534.275 137.078 533.91 137.844C533.555 138.6 533.049 139.234 532.393 139.744C531.745 140.245 530.984 140.646 530.109 140.947L528.811 141.631H522.357L522.33 138.432H527.129C527.849 138.432 528.446 138.304 528.92 138.049C529.394 137.794 529.749 137.438 529.986 136.982C530.232 136.527 530.355 135.998 530.355 135.396C530.355 134.758 530.237 134.207 530 133.742C529.763 133.277 529.403 132.922 528.92 132.676C528.437 132.43 527.831 132.307 527.102 132.307H523.779V149H519.678V129.094ZM530.807 149L526.268 140.127L530.602 140.1L535.195 148.809V149H530.807ZM544.178 149.273C543.029 149.273 541.999 149.091 541.088 148.727C540.176 148.353 539.402 147.838 538.764 147.182C538.135 146.525 537.652 145.764 537.314 144.898C536.977 144.023 536.809 143.094 536.809 142.109V141.562C536.809 140.441 536.968 139.416 537.287 138.486C537.606 137.557 538.062 136.75 538.654 136.066C539.256 135.383 539.985 134.859 540.842 134.494C541.699 134.12 542.665 133.934 543.74 133.934C544.788 133.934 545.718 134.107 546.529 134.453C547.34 134.799 548.02 135.292 548.566 135.93C549.122 136.568 549.542 137.333 549.824 138.227C550.107 139.111 550.248 140.095 550.248 141.18V142.82H538.49V140.195H546.379V139.895C546.379 139.348 546.279 138.86 546.078 138.432C545.887 137.994 545.595 137.648 545.203 137.393C544.811 137.137 544.31 137.01 543.699 137.01C543.18 137.01 542.733 137.124 542.359 137.352C541.986 137.579 541.68 137.898 541.443 138.309C541.215 138.719 541.042 139.202 540.924 139.758C540.814 140.305 540.76 140.906 540.76 141.562V142.109C540.76 142.702 540.842 143.249 541.006 143.75C541.179 144.251 541.421 144.684 541.73 145.049C542.049 145.413 542.432 145.696 542.879 145.896C543.335 146.097 543.85 146.197 544.424 146.197C545.135 146.197 545.796 146.061 546.406 145.787C547.026 145.505 547.559 145.081 548.006 144.516L549.92 146.594C549.61 147.04 549.186 147.469 548.648 147.879C548.12 148.289 547.482 148.626 546.734 148.891C545.987 149.146 545.135 149.273 544.178 149.273ZM565.533 145.801V149H555.512V145.801H565.533ZM556.838 129.094V149H552.736V129.094H556.838ZM578.412 129.094H582.5V142.246C582.5 143.777 582.172 145.067 581.516 146.115C580.868 147.163 579.971 147.952 578.822 148.48C577.683 149.009 576.37 149.273 574.885 149.273C573.399 149.273 572.077 149.009 570.92 148.48C569.771 147.952 568.869 147.163 568.213 146.115C567.566 145.067 567.242 143.777 567.242 142.246V129.094H571.344V142.246C571.344 143.139 571.485 143.868 571.768 144.434C572.05 144.999 572.456 145.413 572.984 145.678C573.522 145.942 574.156 146.074 574.885 146.074C575.632 146.074 576.266 145.942 576.785 145.678C577.314 145.413 577.715 144.999 577.988 144.434C578.271 143.868 578.412 143.139 578.412 142.246V129.094Z" fill="black"/>
<path d="M941 164H1211" stroke="url(#paint4_linear_102_2)" stroke-width="7" stroke-linecap="square"/>
<path d="M1110.68 126.094H1118.1C1119.62 126.094 1120.93 126.322 1122.03 126.777C1123.13 127.233 1123.98 127.908 1124.57 128.801C1125.16 129.694 1125.46 130.792 1125.46 132.096C1125.46 133.162 1125.27 134.078 1124.91 134.844C1124.55 135.6 1124.05 136.234 1123.39 136.744C1122.75 137.245 1121.98 137.646 1121.11 137.947L1119.81 138.631H1113.36L1113.33 135.432H1118.13C1118.85 135.432 1119.45 135.304 1119.92 135.049C1120.39 134.794 1120.75 134.438 1120.99 133.982C1121.23 133.527 1121.36 132.998 1121.36 132.396C1121.36 131.758 1121.24 131.207 1121 130.742C1120.76 130.277 1120.4 129.922 1119.92 129.676C1119.44 129.43 1118.83 129.307 1118.1 129.307H1114.78V146H1110.68V126.094ZM1121.81 146L1117.27 137.127L1121.6 137.1L1126.2 145.809V146H1121.81ZM1135.18 146.273C1134.03 146.273 1133 146.091 1132.09 145.727C1131.18 145.353 1130.4 144.838 1129.76 144.182C1129.13 143.525 1128.65 142.764 1128.31 141.898C1127.98 141.023 1127.81 140.094 1127.81 139.109V138.562C1127.81 137.441 1127.97 136.416 1128.29 135.486C1128.61 134.557 1129.06 133.75 1129.65 133.066C1130.26 132.383 1130.99 131.859 1131.84 131.494C1132.7 131.12 1133.66 130.934 1134.74 130.934C1135.79 130.934 1136.72 131.107 1137.53 131.453C1138.34 131.799 1139.02 132.292 1139.57 132.93C1140.12 133.568 1140.54 134.333 1140.82 135.227C1141.11 136.111 1141.25 137.095 1141.25 138.18V139.82H1129.49V137.195H1137.38V136.895C1137.38 136.348 1137.28 135.86 1137.08 135.432C1136.89 134.994 1136.6 134.648 1136.2 134.393C1135.81 134.137 1135.31 134.01 1134.7 134.01C1134.18 134.01 1133.73 134.124 1133.36 134.352C1132.99 134.579 1132.68 134.898 1132.44 135.309C1132.22 135.719 1132.04 136.202 1131.92 136.758C1131.81 137.305 1131.76 137.906 1131.76 138.562V139.109C1131.76 139.702 1131.84 140.249 1132.01 140.75C1132.18 141.251 1132.42 141.684 1132.73 142.049C1133.05 142.413 1133.43 142.696 1133.88 142.896C1134.33 143.097 1134.85 143.197 1135.42 143.197C1136.13 143.197 1136.8 143.061 1137.41 142.787C1138.03 142.505 1138.56 142.081 1139.01 141.516L1140.92 143.594C1140.61 144.04 1140.19 144.469 1139.65 144.879C1139.12 145.289 1138.48 145.626 1137.73 145.891C1136.99 146.146 1136.13 146.273 1135.18 146.273ZM1156.53 142.801V146H1146.51V142.801H1156.53ZM1147.84 126.094V146H1143.74V126.094H1147.84ZM1169.41 126.094H1173.5V139.246C1173.5 140.777 1173.17 142.067 1172.52 143.115C1171.87 144.163 1170.97 144.952 1169.82 145.48C1168.68 146.009 1167.37 146.273 1165.88 146.273C1164.4 146.273 1163.08 146.009 1161.92 145.48C1160.77 144.952 1159.87 144.163 1159.21 143.115C1158.57 142.067 1158.24 140.777 1158.24 139.246V126.094H1162.34V139.246C1162.34 140.139 1162.49 140.868 1162.77 141.434C1163.05 141.999 1163.46 142.413 1163.98 142.678C1164.52 142.942 1165.16 143.074 1165.88 143.074C1166.63 143.074 1167.27 142.942 1167.79 142.678C1168.31 142.413 1168.71 141.999 1168.99 141.434C1169.27 140.868 1169.41 140.139 1169.41 139.246V126.094Z" fill="black"/>
<rect x="600" y="124" width="202" height="81" rx="40.5" fill="#48BFE3"/>
<path d="M641.757 169.519L644.872 156.359H646.612L647.01 158.551L643.69 172H641.821L641.757 169.519ZM640.156 156.359L642.734 169.519L642.52 172H640.436L636.966 156.359H640.156ZM649.749 169.465L652.295 156.359H655.485L652.026 172H649.942L649.749 169.465ZM647.59 156.359L650.727 169.572L650.641 172H648.771L645.431 158.54L645.86 156.359H647.59ZM662.049 172.215C661.146 172.215 660.337 172.072 659.621 171.785C658.905 171.492 658.296 171.087 657.795 170.571C657.301 170.056 656.921 169.458 656.656 168.777C656.391 168.09 656.259 167.359 656.259 166.586V166.156C656.259 165.275 656.384 164.47 656.635 163.739C656.885 163.009 657.243 162.375 657.709 161.838C658.182 161.301 658.755 160.889 659.428 160.603C660.101 160.309 660.86 160.162 661.705 160.162C662.529 160.162 663.259 160.298 663.896 160.57C664.534 160.842 665.067 161.229 665.497 161.73C665.934 162.232 666.263 162.833 666.485 163.535C666.707 164.23 666.818 165.003 666.818 165.855V167.145H657.58V165.082H663.778V164.846C663.778 164.416 663.7 164.033 663.542 163.696C663.392 163.353 663.162 163.08 662.854 162.88C662.547 162.679 662.153 162.579 661.673 162.579C661.265 162.579 660.914 162.669 660.62 162.848C660.326 163.027 660.087 163.277 659.9 163.6C659.721 163.922 659.585 164.301 659.492 164.738C659.406 165.168 659.363 165.641 659.363 166.156V166.586C659.363 167.051 659.428 167.481 659.557 167.875C659.693 168.269 659.882 168.609 660.126 168.896C660.377 169.182 660.677 169.404 661.028 169.562C661.386 169.719 661.791 169.798 662.242 169.798C662.801 169.798 663.32 169.69 663.8 169.476C664.287 169.254 664.706 168.921 665.057 168.477L666.561 170.109C666.317 170.46 665.984 170.797 665.562 171.119C665.146 171.441 664.645 171.706 664.058 171.914C663.47 172.115 662.801 172.215 662.049 172.215ZM671.846 160.377V172H668.741V160.377H671.846ZM668.548 157.348C668.548 156.896 668.705 156.524 669.021 156.23C669.336 155.937 669.758 155.79 670.288 155.79C670.811 155.79 671.23 155.937 671.545 156.23C671.867 156.524 672.028 156.896 672.028 157.348C672.028 157.799 671.867 158.171 671.545 158.465C671.23 158.758 670.811 158.905 670.288 158.905C669.758 158.905 669.336 158.758 669.021 158.465C668.705 158.171 668.548 157.799 668.548 157.348ZM681.761 160.377H684.564V171.613C684.564 172.673 684.328 173.572 683.855 174.31C683.39 175.054 682.738 175.617 681.9 175.996C681.062 176.383 680.089 176.576 678.979 176.576C678.492 176.576 677.976 176.512 677.432 176.383C676.895 176.254 676.379 176.053 675.885 175.781C675.398 175.509 674.99 175.165 674.66 174.75L676.024 172.924C676.382 173.339 676.798 173.661 677.271 173.891C677.743 174.127 678.266 174.245 678.839 174.245C679.397 174.245 679.87 174.141 680.257 173.934C680.644 173.733 680.941 173.436 681.148 173.042C681.356 172.655 681.46 172.186 681.46 171.635V163.062L681.761 160.377ZM673.94 166.328V166.103C673.94 165.215 674.048 164.409 674.263 163.686C674.485 162.955 674.796 162.328 675.197 161.806C675.605 161.283 676.1 160.878 676.68 160.592C677.26 160.305 677.915 160.162 678.646 160.162C679.419 160.162 680.067 160.305 680.59 160.592C681.113 160.878 681.542 161.286 681.879 161.816C682.215 162.339 682.477 162.959 682.663 163.675C682.856 164.384 683.007 165.161 683.114 166.006V166.5C683.007 167.309 682.846 168.061 682.631 168.756C682.416 169.451 682.133 170.059 681.782 170.582C681.431 171.098 680.994 171.499 680.472 171.785C679.956 172.072 679.34 172.215 678.624 172.215C677.908 172.215 677.26 172.068 676.68 171.774C676.107 171.481 675.616 171.069 675.208 170.539C674.8 170.009 674.485 169.386 674.263 168.67C674.048 167.954 673.94 167.173 673.94 166.328ZM677.034 166.103V166.328C677.034 166.808 677.081 167.256 677.174 167.671C677.267 168.086 677.41 168.455 677.604 168.777C677.804 169.092 678.051 169.34 678.345 169.519C678.646 169.69 679 169.776 679.408 169.776C679.974 169.776 680.436 169.658 680.794 169.422C681.152 169.178 681.421 168.845 681.6 168.423C681.779 168 681.882 167.513 681.911 166.962V165.555C681.897 165.104 681.836 164.699 681.729 164.341C681.621 163.976 681.471 163.664 681.277 163.406C681.084 163.148 680.833 162.948 680.525 162.805C680.217 162.661 679.852 162.59 679.43 162.59C679.021 162.59 678.667 162.683 678.366 162.869C678.073 163.048 677.826 163.295 677.625 163.61C677.432 163.925 677.285 164.298 677.185 164.728C677.084 165.15 677.034 165.608 677.034 166.103ZM689.989 155.5V172H686.896V155.5H689.989ZM689.549 165.78H688.7C688.707 164.971 688.815 164.226 689.022 163.546C689.23 162.858 689.527 162.264 689.914 161.763C690.301 161.254 690.763 160.86 691.3 160.581C691.844 160.302 692.446 160.162 693.104 160.162C693.677 160.162 694.197 160.244 694.662 160.409C695.135 160.567 695.539 160.825 695.876 161.183C696.22 161.534 696.485 161.995 696.671 162.568C696.857 163.141 696.95 163.836 696.95 164.652V172H693.835V164.631C693.835 164.115 693.76 163.711 693.609 163.417C693.466 163.116 693.255 162.905 692.976 162.783C692.703 162.654 692.367 162.59 691.966 162.59C691.522 162.59 691.142 162.672 690.827 162.837C690.519 163.002 690.272 163.231 690.086 163.524C689.9 163.811 689.764 164.147 689.678 164.534C689.592 164.921 689.549 165.336 689.549 165.78ZM704.996 160.377V162.568H698.229V160.377H704.996ZM699.904 157.509H702.998V168.498C702.998 168.835 703.041 169.092 703.127 169.271C703.22 169.451 703.356 169.576 703.535 169.647C703.714 169.712 703.94 169.744 704.212 169.744C704.405 169.744 704.577 169.737 704.728 169.723C704.885 169.701 705.018 169.68 705.125 169.658L705.136 171.936C704.871 172.021 704.584 172.09 704.276 172.14C703.968 172.19 703.628 172.215 703.256 172.215C702.576 172.215 701.981 172.104 701.473 171.882C700.971 171.653 700.585 171.287 700.312 170.786C700.04 170.285 699.904 169.626 699.904 168.81V157.509ZM722.484 169.486V172H714.61V169.486H722.484ZM715.652 156.359V172H712.43V156.359H715.652ZM730.412 169.379V164.201C730.412 163.829 730.351 163.51 730.229 163.245C730.108 162.973 729.918 162.762 729.66 162.611C729.41 162.461 729.084 162.386 728.683 162.386C728.339 162.386 728.042 162.447 727.791 162.568C727.54 162.683 727.347 162.851 727.211 163.073C727.075 163.288 727.007 163.542 727.007 163.836H723.913C723.913 163.342 724.028 162.873 724.257 162.429C724.486 161.985 724.819 161.594 725.256 161.258C725.693 160.914 726.212 160.646 726.813 160.452C727.422 160.259 728.103 160.162 728.854 160.162C729.757 160.162 730.559 160.312 731.261 160.613C731.963 160.914 732.514 161.365 732.915 161.967C733.323 162.568 733.527 163.32 733.527 164.223V169.196C733.527 169.834 733.567 170.356 733.646 170.765C733.724 171.166 733.839 171.517 733.989 171.817V172H730.863C730.713 171.685 730.598 171.291 730.52 170.818C730.448 170.339 730.412 169.859 730.412 169.379ZM730.82 164.921L730.842 166.672H729.112C728.704 166.672 728.35 166.718 728.049 166.812C727.748 166.905 727.501 167.037 727.308 167.209C727.114 167.374 726.971 167.567 726.878 167.789C726.792 168.011 726.749 168.255 726.749 168.52C726.749 168.785 726.81 169.024 726.932 169.239C727.053 169.447 727.229 169.612 727.458 169.733C727.687 169.848 727.956 169.905 728.264 169.905C728.729 169.905 729.134 169.812 729.478 169.626C729.821 169.44 730.086 169.211 730.272 168.938C730.466 168.666 730.566 168.409 730.573 168.165L731.39 169.476C731.275 169.769 731.118 170.074 730.917 170.389C730.724 170.704 730.477 171.001 730.176 171.28C729.875 171.552 729.513 171.778 729.091 171.957C728.668 172.129 728.167 172.215 727.587 172.215C726.849 172.215 726.18 172.068 725.578 171.774C724.984 171.474 724.511 171.062 724.16 170.539C723.816 170.009 723.645 169.408 723.645 168.734C723.645 168.126 723.759 167.585 723.988 167.112C724.217 166.64 724.554 166.242 724.998 165.92C725.449 165.59 726.011 165.343 726.685 165.179C727.358 165.007 728.138 164.921 729.026 164.921H730.82ZM739.188 170.689L742.271 160.377H745.591L740.918 173.751C740.818 174.045 740.682 174.36 740.51 174.696C740.345 175.033 740.119 175.352 739.833 175.652C739.554 175.96 739.199 176.211 738.77 176.404C738.347 176.598 737.828 176.694 737.212 176.694C736.918 176.694 736.678 176.676 736.492 176.641C736.306 176.605 736.084 176.555 735.826 176.49V174.224C735.905 174.224 735.987 174.224 736.073 174.224C736.159 174.231 736.242 174.234 736.32 174.234C736.729 174.234 737.062 174.188 737.319 174.095C737.577 174.002 737.785 173.858 737.942 173.665C738.1 173.479 738.225 173.235 738.318 172.935L739.188 170.689ZM737.899 160.377L740.424 168.799L740.864 172.075L738.759 172.301L734.58 160.377H737.899ZM752.025 172.215C751.123 172.215 750.314 172.072 749.598 171.785C748.882 171.492 748.273 171.087 747.771 170.571C747.277 170.056 746.898 169.458 746.633 168.777C746.368 168.09 746.235 167.359 746.235 166.586V166.156C746.235 165.275 746.361 164.47 746.611 163.739C746.862 163.009 747.22 162.375 747.686 161.838C748.158 161.301 748.731 160.889 749.404 160.603C750.077 160.309 750.837 160.162 751.682 160.162C752.505 160.162 753.236 160.298 753.873 160.57C754.51 160.842 755.044 161.229 755.474 161.73C755.91 162.232 756.24 162.833 756.462 163.535C756.684 164.23 756.795 165.003 756.795 165.855V167.145H747.557V165.082H753.755V164.846C753.755 164.416 753.676 164.033 753.519 163.696C753.368 163.353 753.139 163.08 752.831 162.88C752.523 162.679 752.129 162.579 751.649 162.579C751.241 162.579 750.89 162.669 750.597 162.848C750.303 163.027 750.063 163.277 749.877 163.6C749.698 163.922 749.562 164.301 749.469 164.738C749.383 165.168 749.34 165.641 749.34 166.156V166.586C749.34 167.051 749.404 167.481 749.533 167.875C749.669 168.269 749.859 168.609 750.103 168.896C750.353 169.182 750.654 169.404 751.005 169.562C751.363 169.719 751.768 169.798 752.219 169.798C752.777 169.798 753.297 169.69 753.776 169.476C754.263 169.254 754.682 168.921 755.033 168.477L756.537 170.109C756.294 170.46 755.961 170.797 755.538 171.119C755.123 171.441 754.621 171.706 754.034 171.914C753.447 172.115 752.777 172.215 752.025 172.215ZM761.65 162.912V172H758.557V160.377H761.468L761.65 162.912ZM765.152 160.302L765.099 163.17C764.948 163.148 764.766 163.131 764.551 163.116C764.343 163.095 764.153 163.084 763.981 163.084C763.545 163.084 763.165 163.141 762.843 163.256C762.528 163.363 762.263 163.524 762.048 163.739C761.84 163.954 761.683 164.215 761.575 164.523C761.475 164.831 761.418 165.182 761.403 165.576L760.78 165.383C760.78 164.631 760.855 163.94 761.006 163.31C761.156 162.672 761.375 162.117 761.661 161.645C761.955 161.172 762.313 160.807 762.735 160.549C763.158 160.291 763.641 160.162 764.186 160.162C764.357 160.162 764.533 160.176 764.712 160.205C764.891 160.227 765.038 160.259 765.152 160.302Z" fill="white"/>
<circle cx="919" cy="161" r="24" fill="#5E60CE"/>
<path d="M925.281 159.912V163.344H911.637V159.912H925.281ZM920.332 154.512V169.004H916.6V154.512H920.332Z" fill="white"/>
<rect y="122" width="202" height="81" rx="40.5" fill="#5E60CE"/>
<path d="M953.786 192.466C953.402 192.466 953.21 192.349 953.21 192.114C953.21 191.944 953.285 191.72 953.434 191.443C953.583 191.166 953.839 190.868 954.201 190.548C954.563 190.228 955.075 189.941 955.735 189.685C956.396 189.429 957.195 189.259 958.133 189.174C958.154 189.174 958.303 189.174 958.58 189.174C958.857 189.174 959.22 189.174 959.667 189.174C960.115 189.174 960.626 189.174 961.201 189.174C961.777 189.174 962.437 189.163 963.183 189.142C963.929 189.12 964.654 189.12 965.357 189.142C969.939 189.163 972.315 189.184 972.485 189.206C973.38 189.376 973.86 189.738 973.923 190.292C973.923 190.868 973.583 191.369 972.901 191.795C972.219 192.221 971.654 192.434 971.206 192.434C970.866 192.434 970.695 192.274 970.695 191.955C970.716 191.699 970.557 191.539 970.216 191.475C969.896 191.411 968.671 191.369 966.54 191.347H963.407L963.375 191.475C963.375 191.731 963.034 193.052 962.352 195.439C961.67 197.825 961.255 199.093 961.106 199.243C961.106 199.285 962.416 199.306 965.037 199.306H968.969C969.161 199.413 969.267 199.52 969.289 199.626C969.353 199.818 969.278 200.095 969.065 200.457C968.83 200.819 968.457 201.139 967.946 201.416C967.435 201.693 966.966 201.842 966.54 201.864C966.284 201.864 966.113 201.746 966.028 201.512H960.274L960.019 202.119C959.848 202.524 959.625 203.036 959.348 203.654C959.07 204.272 958.783 204.932 958.484 205.636C958.186 206.339 957.856 207.031 957.494 207.713C957.131 208.395 956.822 208.939 956.567 209.343C956.119 209.961 955.469 210.558 954.617 211.133C953.764 211.709 952.784 211.997 951.676 211.997C951.143 211.997 950.653 211.922 950.206 211.773C949.758 211.624 949.406 211.432 949.151 211.197C948.895 210.963 948.671 210.729 948.479 210.494C948.288 210.26 948.16 210.047 948.096 209.855C948.032 209.663 948 209.535 948 209.471C948 209.194 948.277 208.843 948.831 208.416C949.385 207.99 949.961 207.745 950.557 207.681C950.77 207.681 950.909 207.703 950.973 207.745C951.037 207.788 951.122 207.926 951.228 208.161C951.463 208.63 951.793 208.992 952.219 209.248C952.646 209.503 952.955 209.663 953.146 209.727C953.338 209.791 953.509 209.812 953.658 209.791C953.743 209.791 953.828 209.727 953.913 209.599C954.212 209.088 954.659 208.214 955.256 206.978C955.853 205.742 956.631 203.877 957.589 201.384C958.548 198.891 959.326 196.419 959.923 193.968C959.966 193.734 960.04 193.393 960.147 192.945C960.253 192.498 960.338 192.136 960.402 191.859C960.466 191.582 960.498 191.422 960.498 191.379C960.498 191.337 959.752 191.326 958.261 191.347H956.023C955.171 192.093 954.425 192.466 953.786 192.466Z" fill="black"/>
<path d="M976.928 202.982C976.928 201.512 977.035 200.116 977.248 198.795C977.461 197.474 977.706 196.334 977.983 195.375C978.26 194.416 978.654 193.478 979.166 192.562C979.677 191.646 980.082 190.932 980.38 190.42C980.679 189.909 981.126 189.355 981.723 188.758C982.32 188.161 982.671 187.799 982.778 187.671C982.884 187.543 983.151 187.32 983.577 187H983.992H984.12C984.419 187 984.568 187.096 984.568 187.288C984.568 187.352 984.387 187.575 984.024 187.959C983.662 188.343 983.225 188.907 982.714 189.653C982.202 190.399 981.68 191.315 981.148 192.402C980.615 193.489 980.167 194.959 979.805 196.813C979.443 198.667 979.262 200.724 979.262 202.982C979.262 205.241 979.443 207.287 979.805 209.12C980.167 210.952 980.604 212.433 981.116 213.563C981.627 214.692 982.149 215.609 982.682 216.312C983.215 217.015 983.662 217.58 984.024 218.006C984.387 218.432 984.568 218.656 984.568 218.677C984.568 218.869 984.408 218.965 984.088 218.965H983.992H983.577L982.682 218.198C980.679 216.386 979.219 214.127 978.303 211.421C977.386 208.715 976.928 205.902 976.928 202.982Z" fill="black"/>
<path d="M993.614 210.974C993.294 210.91 992.165 210.878 990.226 210.878C988.499 210.878 987.509 210.91 987.253 210.974H987.029V208.992H990.098L994.189 204.165L989.842 198.763H987.189V196.781H987.445C987.764 196.845 988.926 196.877 990.929 196.877C993.145 196.877 994.445 196.845 994.828 196.781H995.116V198.763H994.221L995.34 200.138C996.064 201.033 996.437 201.48 996.459 201.48C996.544 201.48 996.949 201.011 997.673 200.074L998.792 198.763H997.609V196.781H997.865C998.185 196.845 999.314 196.877 1001.25 196.877C1002.98 196.877 1003.97 196.845 1004.23 196.781H1004.45V198.763H1001.41L997.705 203.11L1002.47 208.96L1003.78 208.992H1005.09V210.974H1004.83C1004.51 210.91 1003.35 210.878 1001.35 210.878C999.133 210.878 997.833 210.91 997.45 210.974H997.162V208.992H998.057C998.057 208.971 997.631 208.438 996.778 207.394C995.926 206.349 995.489 205.806 995.468 205.763L992.687 208.96L993.294 208.992H993.87V210.974H993.614Z" fill="black"/>
<path d="M1007.68 187.032L1007.81 187C1007.91 187 1008.02 187 1008.13 187H1008.51L1009.4 187.767C1011.41 189.579 1012.87 191.837 1013.78 194.544C1014.7 197.25 1015.16 200.063 1015.16 202.982C1015.16 204.431 1015.05 205.827 1014.84 207.17C1014.63 208.512 1014.38 209.652 1014.1 210.59C1013.83 211.528 1013.43 212.465 1012.92 213.403C1012.41 214.341 1012 215.054 1011.71 215.545C1011.41 216.035 1010.97 216.578 1010.4 217.175C1009.82 217.771 1009.48 218.123 1009.37 218.23C1009.27 218.336 1009.02 218.539 1008.64 218.837C1008.57 218.901 1008.53 218.944 1008.51 218.965H1008.13C1007.96 218.965 1007.84 218.965 1007.77 218.965C1007.71 218.965 1007.66 218.933 1007.61 218.869C1007.57 218.805 1007.54 218.709 1007.52 218.581C1007.54 218.56 1007.66 218.421 1007.87 218.166C1011.17 214.735 1012.82 209.674 1012.82 202.982C1012.82 196.291 1011.17 191.23 1007.87 187.799C1007.66 187.543 1007.54 187.405 1007.52 187.384C1007.52 187.213 1007.57 187.096 1007.68 187.032Z" fill="black"/>
<path d="M1027.09 203.398C1027.09 203.398 1027.09 203.259 1027.09 202.982C1027.09 202.705 1027.24 202.492 1027.53 202.343H1037.09V197.548L1037.12 192.754C1037.34 192.477 1037.54 192.338 1037.73 192.338C1038.01 192.338 1038.22 192.498 1038.37 192.818V202.343H1047.9C1048.22 202.514 1048.38 202.727 1048.38 202.982C1048.38 203.238 1048.22 203.451 1047.9 203.622H1038.37V213.147C1038.2 213.446 1038.01 213.595 1037.8 213.595H1037.73H1037.67C1037.41 213.595 1037.22 213.446 1037.09 213.147V203.622H1027.53C1027.24 203.473 1027.09 203.259 1027.09 202.982V203.398Z" fill="black"/>
<path d="M1064.52 210.974C1064.2 210.91 1063.08 210.878 1061.14 210.878C1059.41 210.878 1058.42 210.91 1058.16 210.974H1057.94V208.992H1061.01L1065.1 204.165L1060.75 198.763H1058.1V196.781H1058.36C1058.68 196.845 1059.84 196.877 1061.84 196.877C1064.06 196.877 1065.36 196.845 1065.74 196.781H1066.03V198.763H1065.13L1066.25 200.138C1066.98 201.033 1067.35 201.48 1067.37 201.48C1067.45 201.48 1067.86 201.011 1068.58 200.074L1069.7 198.763H1068.52V196.781H1068.78C1069.1 196.845 1070.23 196.877 1072.16 196.877C1073.89 196.877 1074.88 196.845 1075.14 196.781H1075.36V198.763H1072.32L1068.62 203.11L1073.38 208.96L1074.69 208.992H1076V210.974H1075.74C1075.42 210.91 1074.26 210.878 1072.26 210.878C1070.04 210.878 1068.74 210.91 1068.36 210.974H1068.07V208.992H1068.97C1068.97 208.971 1068.54 208.438 1067.69 207.394C1066.84 206.349 1066.4 205.806 1066.38 205.763L1063.6 208.96L1064.2 208.992H1064.78V210.974H1064.52Z" fill="black"/>
<path d="M96.2088 175.004C95.7133 174.904 93.9622 174.855 90.9558 174.855C88.2796 174.855 86.7434 174.904 86.3469 175.004H86V171.931H90.7575L97.1009 164.448L90.3611 156.073H86.2478V153H86.6442C87.1398 153.099 88.9404 153.149 92.046 153.149C95.482 153.149 97.4973 153.099 98.092 153H98.5381V156.073H97.1504L98.885 158.204C100.008 159.591 100.586 160.285 100.619 160.285C100.752 160.285 101.379 159.558 102.503 158.104L104.237 156.073H102.404V153H102.8C103.296 153.099 105.047 153.149 108.053 153.149C110.729 153.149 112.265 153.099 112.662 153H113.009V156.073H108.301L102.552 162.812L109.936 171.881L111.968 171.931H114V175.004H113.604C113.108 174.904 111.307 174.855 108.202 174.855C104.766 174.855 102.75 174.904 102.156 175.004H101.71V171.931H103.097C103.097 171.898 102.437 171.072 101.115 169.453C99.7935 167.834 99.1162 166.992 99.0832 166.926L94.7717 171.881L95.7133 171.931H96.6053V175.004H96.2088Z" fill="white"/>
<path d="M824.728 192.411C824.348 192.411 824.158 192.295 824.158 192.063C824.158 191.894 824.232 191.673 824.38 191.399C824.527 191.124 824.781 190.829 825.139 190.513C825.498 190.196 826.004 189.911 826.658 189.658C827.312 189.405 828.103 189.236 829.032 189.152C829.053 189.152 829.2 189.152 829.475 189.152C829.749 189.152 830.108 189.152 830.551 189.152C830.994 189.152 831.5 189.152 832.07 189.152C832.639 189.152 833.293 189.141 834.032 189.12C834.77 189.099 835.487 189.099 836.183 189.12C840.719 189.141 843.072 189.162 843.24 189.184C844.126 189.352 844.601 189.711 844.664 190.259C844.664 190.829 844.327 191.325 843.652 191.747C842.977 192.169 842.418 192.38 841.975 192.38C841.637 192.38 841.468 192.221 841.468 191.905C841.489 191.652 841.331 191.494 840.994 191.43C840.677 191.367 839.464 191.325 837.354 191.304H834.253L834.221 191.43C834.221 191.684 833.884 192.992 833.209 195.354C832.534 197.717 832.122 198.973 831.975 199.12C831.975 199.162 833.272 199.183 835.867 199.183H839.759C839.949 199.289 840.055 199.394 840.076 199.5C840.139 199.69 840.065 199.964 839.854 200.323C839.622 200.681 839.253 200.998 838.747 201.272C838.24 201.546 837.776 201.694 837.354 201.715C837.101 201.715 836.932 201.599 836.848 201.367H831.152L830.899 201.968C830.73 202.369 830.508 202.875 830.234 203.487C829.96 204.099 829.675 204.753 829.38 205.449C829.084 206.145 828.757 206.831 828.399 207.506C828.04 208.181 827.734 208.719 827.481 209.12C827.038 209.732 826.394 210.323 825.551 210.892C824.707 211.462 823.736 211.747 822.639 211.747C822.112 211.747 821.627 211.673 821.184 211.525C820.741 211.378 820.392 211.188 820.139 210.956C819.886 210.724 819.665 210.491 819.475 210.259C819.285 210.027 819.158 209.816 819.095 209.626C819.032 209.437 819 209.31 819 209.247C819 208.972 819.274 208.624 819.823 208.202C820.371 207.781 820.941 207.538 821.532 207.475C821.743 207.475 821.88 207.496 821.943 207.538C822.006 207.58 822.091 207.717 822.196 207.949C822.428 208.413 822.755 208.772 823.177 209.025C823.599 209.278 823.905 209.437 824.095 209.5C824.285 209.563 824.454 209.584 824.601 209.563C824.686 209.563 824.77 209.5 824.854 209.373C825.15 208.867 825.593 208.002 826.184 206.778C826.774 205.555 827.544 203.709 828.494 201.24C829.443 198.772 830.213 196.325 830.804 193.899C830.846 193.667 830.92 193.329 831.025 192.886C831.131 192.443 831.215 192.084 831.278 191.81C831.342 191.536 831.373 191.378 831.373 191.335C831.373 191.293 830.635 191.283 829.158 191.304H826.943C826.099 192.042 825.361 192.411 824.728 192.411Z" fill="black"/>
<path d="M847.639 202.823C847.639 201.367 847.745 199.985 847.956 198.677C848.167 197.369 848.409 196.24 848.683 195.291C848.958 194.342 849.348 193.413 849.854 192.506C850.361 191.599 850.762 190.892 851.057 190.386C851.352 189.88 851.795 189.331 852.386 188.74C852.977 188.15 853.325 187.791 853.43 187.665C853.536 187.538 853.799 187.316 854.221 187H854.633H854.759C855.055 187 855.202 187.095 855.202 187.285C855.202 187.348 855.023 187.57 854.664 187.949C854.306 188.329 853.873 188.888 853.367 189.627C852.861 190.365 852.344 191.272 851.816 192.348C851.289 193.424 850.846 194.88 850.487 196.715C850.129 198.551 849.949 200.586 849.949 202.823C849.949 205.059 850.129 207.084 850.487 208.899C850.846 210.713 851.278 212.179 851.785 213.297C852.291 214.416 852.808 215.323 853.335 216.019C853.863 216.715 854.306 217.274 854.664 217.696C855.023 218.118 855.202 218.34 855.202 218.361C855.202 218.551 855.044 218.645 854.728 218.645H854.633H854.221L853.335 217.886C851.352 216.093 849.907 213.856 849 211.177C848.093 208.498 847.639 205.713 847.639 202.823Z" fill="black"/>
<path d="M864.158 210.734C863.842 210.671 862.723 210.639 860.804 210.639C859.095 210.639 858.114 210.671 857.861 210.734H857.639V208.772H860.677L864.728 203.994L860.424 198.646H857.797V196.683H858.05C858.367 196.747 859.517 196.778 861.5 196.778C863.694 196.778 864.981 196.747 865.361 196.683H865.645V198.646H864.759L865.867 200.006C866.584 200.892 866.953 201.335 866.975 201.335C867.059 201.335 867.46 200.871 868.177 199.943L869.285 198.646H868.114V196.683H868.367C868.683 196.747 869.802 196.778 871.721 196.778C873.43 196.778 874.411 196.747 874.664 196.683H874.886V198.646H871.88L868.209 202.949L872.924 208.74L874.221 208.772H875.519V210.734H875.266C874.949 210.671 873.799 210.639 871.816 210.639C869.622 210.639 868.335 210.671 867.956 210.734H867.671V208.772H868.557C868.557 208.751 868.135 208.224 867.291 207.19C866.447 206.156 866.015 205.618 865.994 205.576L863.24 208.74L863.842 208.772H864.411V210.734H864.158Z" fill="black"/>
<path d="M878.082 187.032L878.209 187C878.314 187 878.42 187 878.525 187H878.905L879.791 187.759C881.774 189.553 883.219 191.789 884.126 194.468C885.034 197.148 885.487 199.932 885.487 202.823C885.487 204.257 885.382 205.639 885.171 206.968C884.96 208.297 884.717 209.426 884.443 210.354C884.169 211.283 883.778 212.211 883.272 213.139C882.766 214.067 882.365 214.774 882.069 215.259C881.774 215.745 881.342 216.283 880.772 216.873C880.202 217.464 879.865 217.812 879.759 217.918C879.654 218.023 879.411 218.224 879.031 218.519C878.968 218.582 878.926 218.624 878.905 218.645H878.525C878.356 218.645 878.24 218.645 878.177 218.645C878.114 218.645 878.061 218.614 878.019 218.551C877.977 218.487 877.945 218.392 877.924 218.266C877.945 218.245 878.061 218.107 878.272 217.854C881.542 214.458 883.177 209.447 883.177 202.823C883.177 196.198 881.542 191.188 878.272 187.791C878.061 187.538 877.945 187.401 877.924 187.38C877.924 187.211 877.977 187.095 878.082 187.032Z" fill="black"/>
<defs>
<linearGradient id="paint0_linear_102_2" x1="918.502" y1="4" x2="100" y2="4" gradientUnits="userSpaceOnUse">
<stop stop-color="#7400B8"/>
<stop offset="1" stop-color="#5390D9"/>
</linearGradient>
<linearGradient id="paint1_linear_102_2" x1="300" y1="167" x2="202" y2="167" gradientUnits="userSpaceOnUse">
<stop stop-color="#7400B8"/>
<stop offset="0.0001" stop-color="#7400B8"/>
<stop offset="1" stop-color="#5390D9"/>
<stop offset="1" stop-color="#5390D9"/>
</linearGradient>
<linearGradient id="paint2_linear_102_2" x1="600" y1="167" x2="502" y2="167" gradientUnits="userSpaceOnUse">
<stop stop-color="#7400B8"/>
<stop offset="0.0001" stop-color="#7400B8"/>
<stop offset="1" stop-color="#5390D9"/>
</linearGradient>
<linearGradient id="paint3_linear_102_2" x1="899" y1="164" x2="804" y2="164" gradientUnits="userSpaceOnUse">
<stop stop-color="#7400B8"/>
<stop offset="0.0001" stop-color="#7400B8"/>
<stop offset="1" stop-color="#5390D9"/>
</linearGradient>
<linearGradient id="paint4_linear_102_2" x1="1211" y1="164" x2="941" y2="164" gradientUnits="userSpaceOnUse">
<stop stop-color="#7400B8"/>
<stop offset="0.0001" stop-color="#7400B8"/>
<stop offset="1" stop-color="#5390D9"/>
</linearGradient>
</defs>
</svg>
