<svg width="2214" height="1488" viewBox="0 0 2214 1488" fill="none" xmlns="http://www.w3.org/2000/svg">
<rect width="2214" height="1488" fill="white"/>
<path d="M158 744L157 1088" stroke="black" stroke-width="8"/>
<path d="M158 1089L51 1433" stroke="black" stroke-width="8"/>
<path d="M158 1089L259 1433" stroke="black" stroke-width="8"/>
<circle cx="55.5" cy="1432.5" r="55.5" fill="#5E60CE"/>
<circle cx="258.5" cy="1432.5" r="55.5" fill="#5E60CE"/>
<path d="M673 1433L888 1088" stroke="black" stroke-width="8"/>
<path d="M887 1433L888 1088" stroke="black" stroke-width="8"/>
<path d="M1100 1433L888 1088" stroke="black" stroke-width="8"/>
<circle cx="673.5" cy="1432.5" r="55.5" fill="#5E60CE"/>
<circle cx="886.5" cy="1432.5" r="55.5" fill="#5E60CE"/>
<circle cx="1099.5" cy="1432.5" r="55.5" fill="#5E60CE"/>
<path d="M657.386 1445.33V1417.2H662.159V1445.33H657.386ZM645.71 1433.65V1428.88H673.835V1433.65H645.71ZM699.409 1409.36V1453H694.125V1414.9H693.869L683.216 1421.98V1416.61L694.125 1409.36H699.409Z" fill="white"/>
<path d="M242.386 1445.33V1417.2H247.159V1445.33H242.386ZM230.71 1433.65V1428.88H258.835V1433.65H230.71ZM284.409 1409.36V1453H279.125V1414.9H278.869L268.216 1421.98V1416.61L279.125 1409.36H284.409Z" fill="white"/>
<path d="M877.352 1428.84V1433.53H858.261V1428.84H877.352ZM900.156 1453.6C897.343 1453.6 894.836 1453.11 892.635 1452.15C890.447 1451.18 888.707 1449.84 887.414 1448.12C886.136 1446.39 885.44 1444.38 885.326 1442.09H890.696C890.809 1443.5 891.292 1444.71 892.145 1445.73C892.997 1446.74 894.112 1447.52 895.49 1448.08C896.868 1448.63 898.395 1448.91 900.071 1448.91C901.946 1448.91 903.608 1448.58 905.056 1447.93C906.505 1447.28 907.642 1446.37 908.466 1445.2C909.289 1444.04 909.701 1442.69 909.701 1441.15C909.701 1439.55 909.304 1438.13 908.508 1436.91C907.713 1435.68 906.548 1434.71 905.014 1434.02C903.48 1433.32 901.605 1432.97 899.389 1432.97H895.895V1428.28H899.389C901.122 1428.28 902.642 1427.97 903.949 1427.35C905.27 1426.72 906.299 1425.84 907.038 1424.7C907.791 1423.57 908.167 1422.23 908.167 1420.7C908.167 1419.22 907.841 1417.94 907.187 1416.84C906.534 1415.75 905.61 1414.9 904.417 1414.29C903.238 1413.67 901.846 1413.37 900.241 1413.37C898.735 1413.37 897.315 1413.65 895.98 1414.2C894.659 1414.74 893.579 1415.53 892.741 1416.57C891.903 1417.59 891.449 1418.82 891.377 1420.27H886.264C886.349 1417.99 887.038 1415.98 888.331 1414.26C889.623 1412.53 891.314 1411.18 893.402 1410.22C895.504 1409.25 897.812 1408.77 900.326 1408.77C903.025 1408.77 905.341 1409.31 907.272 1410.41C909.204 1411.49 910.689 1412.91 911.725 1414.69C912.762 1416.47 913.281 1418.38 913.281 1420.44C913.281 1422.9 912.635 1425 911.342 1426.73C910.064 1428.46 908.324 1429.66 906.122 1430.33V1430.67C908.877 1431.12 911.029 1432.3 912.578 1434.19C914.126 1436.06 914.9 1438.38 914.9 1441.15C914.9 1443.53 914.254 1445.66 912.961 1447.55C911.683 1449.42 909.936 1450.9 907.72 1451.98C905.504 1453.06 902.983 1453.6 900.156 1453.6Z" fill="white"/>
<path opacity="0.35" d="M1761 1386L1918 1135" stroke="black" stroke-width="8"/>
<path opacity="0.35" d="M1946 1377L1947 1143" stroke="black" stroke-width="8"/>
<path opacity="0.35" d="M2130 1386L1975 1133" stroke="black" stroke-width="8"/>
<circle opacity="0.35" cx="1732.5" cy="1432.5" r="55.5" fill="#5E60CE"/>
<circle opacity="0.35" cx="1945.5" cy="1432.5" r="55.5" fill="#5E60CE"/>
<circle opacity="0.35" cx="2158.5" cy="1432.5" r="55.5" fill="#5E60CE"/>
<path opacity="0.35" d="M1723.35 1428.84V1433.53H1704.26V1428.84H1723.35ZM1746.09 1453.6C1743.17 1453.6 1740.58 1453.08 1738.34 1452.04C1736.11 1450.99 1734.37 1449.55 1733.12 1447.72C1731.87 1445.87 1731.25 1443.77 1731.26 1441.41C1731.25 1439.56 1731.61 1437.86 1732.35 1436.3C1733.09 1434.72 1734.1 1433.4 1735.37 1432.35C1736.67 1431.29 1738.11 1430.61 1739.7 1430.33V1430.07C1737.61 1429.53 1735.95 1428.36 1734.71 1426.56C1733.48 1424.74 1732.87 1422.67 1732.88 1420.36C1732.87 1418.14 1733.43 1416.16 1734.56 1414.41C1735.7 1412.67 1737.26 1411.29 1739.25 1410.28C1741.26 1409.27 1743.54 1408.77 1746.09 1408.77C1748.62 1408.77 1750.88 1409.27 1752.87 1410.28C1754.86 1411.29 1756.42 1412.67 1757.56 1414.41C1758.71 1416.16 1759.29 1418.14 1759.3 1420.36C1759.29 1422.67 1758.66 1424.74 1757.41 1426.56C1756.17 1428.36 1754.53 1429.53 1752.48 1430.07V1430.33C1754.06 1430.61 1755.48 1431.29 1756.75 1432.35C1758.01 1433.4 1759.02 1434.72 1759.77 1436.3C1760.52 1437.86 1760.91 1439.56 1760.92 1441.41C1760.91 1443.77 1760.27 1445.87 1759 1447.72C1757.75 1449.55 1756.01 1450.99 1753.78 1452.04C1751.57 1453.08 1749 1453.6 1746.09 1453.6ZM1746.09 1448.91C1748.07 1448.91 1749.77 1448.59 1751.21 1447.95C1752.64 1447.31 1753.75 1446.41 1754.53 1445.24C1755.31 1444.08 1755.71 1442.72 1755.72 1441.15C1755.71 1439.51 1755.28 1438.05 1754.44 1436.79C1753.61 1435.52 1752.46 1434.53 1751.01 1433.8C1749.58 1433.08 1747.94 1432.72 1746.09 1432.72C1744.23 1432.72 1742.57 1433.08 1741.11 1433.8C1739.66 1434.53 1738.51 1435.52 1737.68 1436.79C1736.85 1438.05 1736.45 1439.51 1736.46 1441.15C1736.45 1442.72 1736.82 1444.08 1737.59 1445.24C1738.37 1446.41 1739.49 1447.31 1740.94 1447.95C1742.38 1448.59 1744.1 1448.91 1746.09 1448.91ZM1746.09 1428.2C1747.65 1428.2 1749.04 1427.89 1750.25 1427.26C1751.47 1426.64 1752.43 1425.76 1753.12 1424.64C1753.82 1423.52 1754.17 1422.2 1754.19 1420.7C1754.17 1419.22 1753.83 1417.94 1753.14 1416.84C1752.46 1415.73 1751.52 1414.88 1750.31 1414.29C1749.1 1413.67 1747.7 1413.37 1746.09 1413.37C1744.46 1413.37 1743.03 1413.67 1741.81 1414.29C1740.59 1414.88 1739.64 1415.73 1738.98 1416.84C1738.31 1417.94 1737.98 1419.22 1738 1420.7C1737.98 1422.2 1738.31 1423.52 1739 1424.64C1739.69 1425.76 1740.65 1426.64 1741.87 1427.26C1743.09 1427.89 1744.5 1428.2 1746.09 1428.2Z" fill="white"/>
<path opacity="0.35" d="M1945.75 1454.6C1942.54 1454.6 1939.81 1453.72 1937.55 1451.98C1935.29 1450.21 1933.56 1447.66 1932.37 1444.33C1931.18 1440.97 1930.58 1436.93 1930.58 1432.18C1930.58 1427.47 1931.18 1423.44 1932.37 1420.1C1933.58 1416.75 1935.31 1414.19 1937.57 1412.43C1939.84 1410.65 1942.57 1409.77 1945.75 1409.77C1948.93 1409.77 1951.65 1410.65 1953.91 1412.43C1956.18 1414.19 1957.92 1416.75 1959.11 1420.1C1960.32 1423.44 1960.92 1427.47 1960.92 1432.18C1960.92 1436.93 1960.32 1440.97 1959.13 1444.33C1957.94 1447.66 1956.21 1450.21 1953.95 1451.98C1951.69 1453.72 1948.96 1454.6 1945.75 1454.6ZM1945.75 1449.91C1948.93 1449.91 1951.4 1448.37 1953.16 1445.31C1954.93 1442.24 1955.81 1437.86 1955.81 1432.18C1955.81 1428.4 1955.4 1425.19 1954.59 1422.53C1953.8 1419.87 1952.65 1417.85 1951.14 1416.46C1949.65 1415.07 1947.85 1414.37 1945.75 1414.37C1942.6 1414.37 1940.13 1415.92 1938.36 1419.04C1936.58 1422.13 1935.69 1426.51 1935.69 1432.18C1935.69 1435.96 1936.09 1439.17 1936.89 1441.81C1937.68 1444.45 1938.83 1446.46 1940.32 1447.84C1941.82 1449.22 1943.63 1449.91 1945.75 1449.91Z" fill="white"/>
<path opacity="0.35" d="M2158.75 1454.6C2155.54 1454.6 2152.81 1453.72 2150.55 1451.98C2148.29 1450.21 2146.56 1447.66 2145.37 1444.33C2144.18 1440.97 2143.58 1436.93 2143.58 1432.18C2143.58 1427.47 2144.18 1423.44 2145.37 1420.1C2146.58 1416.75 2148.31 1414.19 2150.57 1412.43C2152.84 1410.65 2155.57 1409.77 2158.75 1409.77C2161.93 1409.77 2164.65 1410.65 2166.91 1412.43C2169.18 1414.19 2170.92 1416.75 2172.11 1420.1C2173.32 1423.44 2173.92 1427.47 2173.92 1432.18C2173.92 1436.93 2173.32 1440.97 2172.13 1444.33C2170.94 1447.66 2169.21 1450.21 2166.95 1451.98C2164.69 1453.72 2161.96 1454.6 2158.75 1454.6ZM2158.75 1449.91C2161.93 1449.91 2164.4 1448.37 2166.16 1445.31C2167.93 1442.24 2168.81 1437.86 2168.81 1432.18C2168.81 1428.4 2168.4 1425.19 2167.59 1422.53C2166.8 1419.87 2165.65 1417.85 2164.14 1416.46C2162.65 1415.07 2160.85 1414.37 2158.75 1414.37C2155.6 1414.37 2153.13 1415.92 2151.36 1419.04C2149.58 1422.13 2148.69 1426.51 2148.69 1432.18C2148.69 1435.96 2149.09 1439.17 2149.89 1441.81C2150.68 1444.45 2151.83 1446.46 2153.32 1447.84C2154.82 1449.22 2156.63 1449.91 2158.75 1449.91Z" fill="white"/>
<path d="M786 744L679 1088" stroke="black" stroke-width="8"/>
<path d="M786 744L887 1088" stroke="black" stroke-width="8"/>
<circle cx="683.5" cy="1087.5" r="55.5" fill="#48BFE3"/>
<circle cx="886.5" cy="1087.5" r="55.5" fill="#48BFE3"/>
<path opacity="0.35" d="M1828 796L1752 1034" stroke="black" stroke-width="8"/>
<path opacity="0.35" d="M1859 796L1930 1035" stroke="black" stroke-width="8"/>
<path d="M1417 744L1310 1088" stroke="black" stroke-width="8"/>
<path d="M1417 744L1518 1088" stroke="black" stroke-width="8"/>
<path d="M156 744L371 399" stroke="black" stroke-width="8"/>
<circle cx="1314.5" cy="1087.5" r="55.5" fill="#48BFE3"/>
<path d="M785 744L1000 399" stroke="black" stroke-width="8"/>
<path d="M999 744L1000 399" stroke="black" stroke-width="8"/>
<path d="M1000 55L999 399" stroke="black" stroke-width="8"/>
<path d="M999 55L369 399" stroke="black" stroke-width="8"/>
<path d="M999 55L1631 399" stroke="black" stroke-width="8"/>
<path d="M1212 744L1000 399" stroke="black" stroke-width="8"/>
<circle cx="998.5" cy="55.5" r="55.5" fill="#5E60CE"/>
<circle cx="785.5" cy="743.5" r="55.5" fill="#5E60CE"/>
<circle cx="998.5" cy="743.5" r="55.5" fill="#5E60CE"/>
<circle cx="1211.5" cy="743.5" r="55.5" fill="#5E60CE"/>
<path d="M1416 744L1631 399" stroke="black" stroke-width="8"/>
<path d="M1630 744L1631 399" stroke="black" stroke-width="8"/>
<path opacity="0.35" d="M1814 697L1631 399" stroke="black" stroke-width="8"/>
<circle cx="1416.5" cy="743.5" r="55.5" fill="#5E60CE"/>
<circle cx="1629.5" cy="743.5" r="55.5" fill="#5E60CE"/>
<circle opacity="0.35" cx="1842.5" cy="743.5" r="55.5" fill="#5E60CE"/>
<path d="M370 744L371 399" stroke="black" stroke-width="8"/>
<path d="M583 744L371 399" stroke="black" stroke-width="8"/>
<circle cx="156.5" cy="743.5" r="55.5" fill="#5E60CE"/>
<circle cx="369.5" cy="743.5" r="55.5" fill="#5E60CE"/>
<circle cx="582.5" cy="743.5" r="55.5" fill="#5E60CE"/>
<circle cx="369.5" cy="399.5" r="55.5" fill="#48BFE3"/>
<circle cx="998.5" cy="399.5" r="55.5" fill="#48BFE3"/>
<path d="M1519 1088L1518 1432" stroke="black" stroke-width="8"/>
<circle cx="1517.5" cy="1432.5" r="55.5" fill="#5E60CE"/>
<circle cx="1517.5" cy="1087.5" r="55.5" fill="#48BFE3"/>
<circle cx="1629.5" cy="399.5" r="55.5" fill="#48BFE3"/>
<circle opacity="0.35" cx="1741.5" cy="1087.5" r="55.5" fill="#48BFE3"/>
<circle opacity="0.35" cx="1944.5" cy="1087.5" r="55.5" fill="#48BFE3"/>
<circle cx="156.5" cy="1088.5" r="55.5" fill="#48BFE3"/>
<path d="M1508.35 1429.84V1434.53H1489.26V1429.84H1508.35ZM1530.75 1454.6C1528.25 1454.6 1526 1454.1 1524 1453.11C1521.99 1452.11 1520.39 1450.75 1519.18 1449.01C1517.97 1447.28 1517.31 1445.31 1517.2 1443.09H1522.31C1522.51 1445.07 1523.41 1446.7 1525 1447.99C1526.6 1449.27 1528.52 1449.91 1530.75 1449.91C1532.54 1449.91 1534.13 1449.49 1535.52 1448.65C1536.93 1447.81 1538.03 1446.66 1538.83 1445.2C1539.64 1443.72 1540.04 1442.05 1540.04 1440.19C1540.04 1438.29 1539.62 1436.59 1538.78 1435.1C1537.96 1433.6 1536.82 1432.41 1535.37 1431.54C1533.93 1430.68 1532.27 1430.24 1530.41 1430.22C1529.07 1430.21 1527.7 1430.41 1526.3 1430.84C1524.89 1431.25 1523.73 1431.78 1522.82 1432.44L1517.88 1431.84L1520.52 1410.36H1543.19V1415.05H1524.96L1523.42 1427.92H1523.68C1524.57 1427.21 1525.69 1426.62 1527.04 1426.15C1528.39 1425.68 1529.8 1425.45 1531.26 1425.45C1533.93 1425.45 1536.31 1426.09 1538.4 1427.37C1540.5 1428.63 1542.15 1430.36 1543.34 1432.57C1544.55 1434.77 1545.15 1437.28 1545.15 1440.11C1545.15 1442.89 1544.53 1445.38 1543.28 1447.57C1542.04 1449.74 1540.34 1451.46 1538.17 1452.72C1535.99 1453.97 1533.52 1454.6 1530.75 1454.6Z" fill="white"/>
<path d="M1508.35 1084.84V1089.53H1489.26V1084.84H1508.35ZM1530.75 1109.6C1528.25 1109.6 1526 1109.1 1524 1108.11C1521.99 1107.11 1520.39 1105.75 1519.18 1104.01C1517.97 1102.28 1517.31 1100.31 1517.2 1098.09H1522.31C1522.51 1100.07 1523.41 1101.7 1525 1102.99C1526.6 1104.27 1528.52 1104.91 1530.75 1104.91C1532.54 1104.91 1534.13 1104.49 1535.52 1103.65C1536.93 1102.81 1538.03 1101.66 1538.83 1100.2C1539.64 1098.72 1540.04 1097.05 1540.04 1095.19C1540.04 1093.29 1539.62 1091.59 1538.78 1090.1C1537.96 1088.6 1536.82 1087.41 1535.37 1086.54C1533.93 1085.68 1532.27 1085.24 1530.41 1085.22C1529.07 1085.21 1527.7 1085.41 1526.3 1085.84C1524.89 1086.25 1523.73 1086.78 1522.82 1087.44L1517.88 1086.84L1520.52 1065.36H1543.19V1070.05H1524.96L1523.42 1082.92H1523.68C1524.57 1082.21 1525.69 1081.62 1527.04 1081.15C1528.39 1080.68 1529.8 1080.45 1531.26 1080.45C1533.93 1080.45 1536.31 1081.09 1538.4 1082.37C1540.5 1083.63 1542.15 1085.36 1543.34 1087.57C1544.55 1089.77 1545.15 1092.28 1545.15 1095.11C1545.15 1097.89 1544.53 1100.38 1543.28 1102.57C1542.04 1104.74 1540.34 1106.46 1538.17 1107.72C1535.99 1108.97 1533.52 1109.6 1530.75 1109.6Z" fill="white"/>
<path d="M1084.35 1429.84V1434.53H1065.26V1429.84H1084.35ZM1091.06 1454V1450.16L1105.47 1434.4C1107.16 1432.55 1108.55 1430.95 1109.64 1429.58C1110.74 1428.2 1111.55 1426.91 1112.07 1425.7C1112.61 1424.48 1112.88 1423.2 1112.88 1421.87C1112.88 1420.34 1112.51 1419.01 1111.77 1417.88C1111.05 1416.76 1110.06 1415.9 1108.79 1415.29C1107.53 1414.67 1106.11 1414.37 1104.53 1414.37C1102.85 1414.37 1101.39 1414.72 1100.14 1415.41C1098.9 1416.1 1097.95 1417.05 1097.26 1418.29C1096.6 1419.53 1096.26 1420.97 1096.26 1422.64H1091.23C1091.23 1420.08 1091.82 1417.84 1093 1415.9C1094.18 1413.97 1095.79 1412.47 1097.82 1411.39C1099.86 1410.31 1102.16 1409.77 1104.7 1409.77C1107.26 1409.77 1109.52 1410.31 1111.5 1411.39C1113.47 1412.47 1115.02 1413.92 1116.14 1415.75C1117.26 1417.59 1117.83 1419.62 1117.83 1421.87C1117.83 1423.47 1117.53 1425.04 1116.95 1426.58C1116.38 1428.1 1115.39 1429.8 1113.97 1431.67C1112.56 1433.53 1110.61 1435.8 1108.11 1438.49L1098.31 1448.97V1449.31H1118.59V1454H1091.06Z" fill="white"/>
<path d="M991.352 740.838V745.526H972.261V740.838H991.352ZM1000.13 765L1019.65 726.392V726.051H997.148V721.364H1025.1V726.307L1005.67 765H1000.13Z" fill="white"/>
<path d="M991.352 396.838V401.526H972.261V396.838H991.352ZM1000.13 421L1019.65 382.392V382.051H997.148V377.364H1025.1V382.307L1005.67 421H1000.13Z" fill="white"/>
<path d="M1204.35 740.838V745.526H1185.26V740.838H1204.35ZM1211.06 765V761.165L1225.47 745.398C1227.16 743.551 1228.55 741.946 1229.64 740.582C1230.74 739.205 1231.55 737.912 1232.07 736.705C1232.61 735.483 1232.88 734.205 1232.88 732.869C1232.88 731.335 1232.51 730.007 1231.77 728.885C1231.05 727.763 1230.06 726.896 1228.79 726.286C1227.53 725.675 1226.11 725.369 1224.53 725.369C1222.85 725.369 1221.39 725.717 1220.14 726.413C1218.9 727.095 1217.95 728.054 1217.26 729.29C1216.6 730.526 1216.26 731.974 1216.26 733.636H1211.23C1211.23 731.08 1211.82 728.835 1213 726.903C1214.18 724.972 1215.79 723.466 1217.82 722.386C1219.86 721.307 1222.16 720.767 1224.7 720.767C1227.26 720.767 1229.52 721.307 1231.5 722.386C1233.47 723.466 1235.02 724.922 1236.14 726.754C1237.26 728.587 1237.83 730.625 1237.83 732.869C1237.83 734.474 1237.53 736.044 1236.95 737.578C1236.38 739.098 1235.39 740.795 1233.97 742.67C1232.56 744.531 1230.61 746.804 1228.11 749.489L1218.31 759.972V760.312H1238.59V765H1211.06Z" fill="white"/>
<path d="M1621.35 740.838V745.526H1602.26V740.838H1621.35ZM1644.16 765.597C1641.34 765.597 1638.84 765.114 1636.63 764.148C1634.45 763.182 1632.71 761.839 1631.41 760.121C1630.14 758.388 1629.44 756.378 1629.33 754.091H1634.7C1634.81 755.497 1635.29 756.712 1636.14 757.734C1637 758.743 1638.11 759.524 1639.49 760.078C1640.87 760.632 1642.39 760.909 1644.07 760.909C1645.95 760.909 1647.61 760.582 1649.06 759.929C1650.51 759.276 1651.64 758.366 1652.47 757.202C1653.29 756.037 1653.7 754.688 1653.7 753.153C1653.7 751.548 1653.3 750.135 1652.51 748.913C1651.71 747.678 1650.55 746.712 1649.01 746.016C1647.48 745.32 1645.6 744.972 1643.39 744.972H1639.89V740.284H1643.39C1645.12 740.284 1646.64 739.972 1647.95 739.347C1649.27 738.722 1650.3 737.841 1651.04 736.705C1651.79 735.568 1652.17 734.233 1652.17 732.699C1652.17 731.222 1651.84 729.936 1651.19 728.842C1650.53 727.749 1649.61 726.896 1648.42 726.286C1647.24 725.675 1645.85 725.369 1644.24 725.369C1642.74 725.369 1641.31 725.646 1639.98 726.2C1638.66 726.74 1637.58 727.528 1636.74 728.565C1635.9 729.588 1635.45 730.824 1635.38 732.273H1630.26C1630.35 729.986 1631.04 727.983 1632.33 726.264C1633.62 724.531 1635.31 723.182 1637.4 722.216C1639.5 721.25 1641.81 720.767 1644.33 720.767C1647.03 720.767 1649.34 721.314 1651.27 722.408C1653.2 723.487 1654.69 724.915 1655.73 726.69C1656.76 728.466 1657.28 730.384 1657.28 732.443C1657.28 734.901 1656.63 736.996 1655.34 738.729C1654.06 740.462 1652.32 741.662 1650.12 742.33V742.67C1652.88 743.125 1655.03 744.297 1656.58 746.186C1658.13 748.061 1658.9 750.384 1658.9 753.153C1658.9 755.526 1658.25 757.656 1656.96 759.545C1655.68 761.42 1653.94 762.898 1651.72 763.977C1649.5 765.057 1646.98 765.597 1644.16 765.597Z" fill="white"/>
<path d="M1614.81 412.886H1591.94V408.909H1614.81V412.886ZM1591.94 397.83V394.989L1614.81 386.75V391.082L1598.83 396.338L1598.97 396.054V396.764L1598.83 396.48L1614.81 401.736V406.068L1591.94 397.83ZM1639.32 397.865V401.771H1623.41V397.865H1639.32ZM1658.32 418.497C1655.97 418.497 1653.89 418.095 1652.05 417.29C1650.23 416.485 1648.78 415.366 1647.7 413.934C1646.64 412.49 1646.06 410.815 1645.96 408.909H1650.44C1650.53 410.081 1650.93 411.093 1651.64 411.945C1652.35 412.786 1653.28 413.437 1654.43 413.898C1655.58 414.36 1656.85 414.591 1658.25 414.591C1659.81 414.591 1661.2 414.319 1662.4 413.774C1663.61 413.23 1664.56 412.472 1665.24 411.501C1665.93 410.531 1666.27 409.406 1666.27 408.128C1666.27 406.79 1665.94 405.612 1665.28 404.594C1664.62 403.565 1663.65 402.76 1662.37 402.18C1661.09 401.6 1659.53 401.31 1657.68 401.31H1654.77V397.403H1657.68C1659.12 397.403 1660.39 397.143 1661.48 396.622C1662.58 396.101 1663.44 395.367 1664.05 394.42C1664.68 393.473 1664.99 392.361 1664.99 391.082C1664.99 389.851 1664.72 388.78 1664.18 387.869C1663.63 386.957 1662.86 386.247 1661.87 385.738C1660.89 385.229 1659.73 384.974 1658.39 384.974C1657.14 384.974 1655.95 385.205 1654.84 385.667C1653.74 386.117 1652.84 386.774 1652.14 387.638C1651.44 388.49 1651.06 389.52 1651 390.727H1646.74C1646.81 388.821 1647.39 387.152 1648.46 385.72C1649.54 384.276 1650.95 383.152 1652.69 382.347C1654.44 381.542 1656.37 381.139 1658.46 381.139C1660.71 381.139 1662.64 381.595 1664.25 382.506C1665.86 383.406 1667.1 384.596 1667.96 386.075C1668.82 387.555 1669.26 389.153 1669.26 390.869C1669.26 392.917 1668.72 394.663 1667.64 396.107C1666.58 397.551 1665.13 398.552 1663.29 399.108V399.392C1665.59 399.771 1667.38 400.747 1668.67 402.322C1669.96 403.884 1670.61 405.82 1670.61 408.128C1670.61 410.105 1670.07 411.88 1668.99 413.455C1667.92 415.017 1666.47 416.248 1664.62 417.148C1662.78 418.047 1660.67 418.497 1658.32 418.497Z" fill="white"/>
<path d="M582.75 765.597C579.54 765.597 576.805 764.723 574.547 762.976C572.288 761.214 570.563 758.665 569.369 755.327C568.176 751.974 567.58 747.926 567.58 743.182C567.58 738.466 568.176 734.439 569.369 731.101C570.577 727.749 572.31 725.192 574.568 723.43C576.841 721.655 579.568 720.767 582.75 720.767C585.932 720.767 588.652 721.655 590.911 723.43C593.183 725.192 594.916 727.749 596.109 731.101C597.317 734.439 597.92 738.466 597.92 743.182C597.92 747.926 597.324 751.974 596.131 755.327C594.938 758.665 593.212 761.214 590.953 762.976C588.695 764.723 585.96 765.597 582.75 765.597ZM582.75 760.909C585.932 760.909 588.403 759.375 590.165 756.307C591.926 753.239 592.807 748.864 592.807 743.182C592.807 739.403 592.402 736.186 591.592 733.53C590.797 730.874 589.646 728.849 588.141 727.457C586.649 726.065 584.852 725.369 582.75 725.369C579.597 725.369 577.132 726.925 575.357 730.036C573.581 733.132 572.693 737.514 572.693 743.182C572.693 746.96 573.091 750.17 573.886 752.812C574.682 755.455 575.825 757.464 577.317 758.842C578.822 760.22 580.634 760.909 582.75 760.909Z" fill="white"/>
<path d="M370.75 765.597C367.54 765.597 364.805 764.723 362.547 762.976C360.288 761.214 358.563 758.665 357.369 755.327C356.176 751.974 355.58 747.926 355.58 743.182C355.58 738.466 356.176 734.439 357.369 731.101C358.577 727.749 360.31 725.192 362.568 723.43C364.841 721.655 367.568 720.767 370.75 720.767C373.932 720.767 376.652 721.655 378.911 723.43C381.183 725.192 382.916 727.749 384.109 731.101C385.317 734.439 385.92 738.466 385.92 743.182C385.92 747.926 385.324 751.974 384.131 755.327C382.938 758.665 381.212 761.214 378.953 762.976C376.695 764.723 373.96 765.597 370.75 765.597ZM370.75 760.909C373.932 760.909 376.403 759.375 378.165 756.307C379.926 753.239 380.807 748.864 380.807 743.182C380.807 739.403 380.402 736.186 379.592 733.53C378.797 730.874 377.646 728.849 376.141 727.457C374.649 726.065 372.852 725.369 370.75 725.369C367.597 725.369 365.132 726.925 363.357 730.036C361.581 733.132 360.693 737.514 360.693 743.182C360.693 746.96 361.091 750.17 361.886 752.812C362.682 755.455 363.825 757.464 365.317 758.842C366.822 760.22 368.634 760.909 370.75 760.909Z" fill="white"/>
<path d="M370.75 421.597C367.54 421.597 364.805 420.723 362.547 418.976C360.288 417.214 358.563 414.665 357.369 411.327C356.176 407.974 355.58 403.926 355.58 399.182C355.58 394.466 356.176 390.439 357.369 387.101C358.577 383.749 360.31 381.192 362.568 379.43C364.841 377.655 367.568 376.767 370.75 376.767C373.932 376.767 376.652 377.655 378.911 379.43C381.183 381.192 382.916 383.749 384.109 387.101C385.317 390.439 385.92 394.466 385.92 399.182C385.92 403.926 385.324 407.974 384.131 411.327C382.938 414.665 381.212 417.214 378.953 418.976C376.695 420.723 373.96 421.597 370.75 421.597ZM370.75 416.909C373.932 416.909 376.403 415.375 378.165 412.307C379.926 409.239 380.807 404.864 380.807 399.182C380.807 395.403 380.402 392.186 379.592 389.53C378.797 386.874 377.646 384.849 376.141 383.457C374.649 382.065 372.852 381.369 370.75 381.369C367.597 381.369 365.132 382.925 363.357 386.036C361.581 389.132 360.693 393.514 360.693 399.182C360.693 402.96 361.091 406.17 361.886 408.812C362.682 411.455 363.825 413.464 365.317 414.842C366.822 416.22 368.634 416.909 370.75 416.909Z" fill="white"/>
<path d="M999.75 77.5966C996.54 77.5966 993.805 76.723 991.547 74.9759C989.288 73.2145 987.563 70.6648 986.369 67.3267C985.176 63.9744 984.58 59.9261 984.58 55.1818C984.58 50.4659 985.176 46.4389 986.369 43.1009C987.577 39.7486 989.31 37.1918 991.568 35.4304C993.841 33.6548 996.568 32.767 999.75 32.767C1002.93 32.767 1005.65 33.6548 1007.91 35.4304C1010.18 37.1918 1011.92 39.7486 1013.11 43.1009C1014.32 46.4389 1014.92 50.4659 1014.92 55.1818C1014.92 59.9261 1014.32 63.9744 1013.13 67.3267C1011.94 70.6648 1010.21 73.2145 1007.95 74.9759C1005.69 76.723 1002.96 77.5966 999.75 77.5966ZM999.75 72.9091C1002.93 72.9091 1005.4 71.375 1007.16 68.3068C1008.93 65.2386 1009.81 60.8636 1009.81 55.1818C1009.81 51.4034 1009.4 48.1861 1008.59 45.5298C1007.8 42.8736 1006.65 40.8494 1005.14 39.4574C1003.65 38.0653 1001.85 37.3693 999.75 37.3693C996.597 37.3693 994.132 38.9247 992.357 42.0355C990.581 45.1321 989.693 49.5142 989.693 55.1818C989.693 58.9602 990.091 62.1705 990.886 64.8125C991.682 67.4545 992.825 69.4645 994.317 70.8423C995.822 72.2202 997.634 72.9091 999.75 72.9091Z" fill="white"/>
<path d="M35.3864 1445.33V1417.2H40.1591V1445.33H35.3864ZM23.7102 1433.65V1428.88H51.8352V1433.65H23.7102ZM60.017 1453V1449.16L74.4205 1433.4C76.1108 1431.55 77.5028 1429.95 78.5966 1428.58C79.6903 1427.2 80.5 1425.91 81.0256 1424.7C81.5653 1423.48 81.8352 1422.2 81.8352 1420.87C81.8352 1419.34 81.4659 1418.01 80.7273 1416.88C80.0028 1415.76 79.0085 1414.9 77.7443 1414.29C76.4801 1413.67 75.0597 1413.37 73.483 1413.37C71.8068 1413.37 70.3438 1413.72 69.0938 1414.41C67.858 1415.1 66.8991 1416.05 66.2173 1417.29C65.5497 1418.53 65.2159 1419.97 65.2159 1421.64H60.1875C60.1875 1419.08 60.777 1416.84 61.956 1414.9C63.1349 1412.97 64.7401 1411.47 66.7713 1410.39C68.8168 1409.31 71.1108 1408.77 73.6534 1408.77C76.2102 1408.77 78.4759 1409.31 80.4503 1410.39C82.4247 1411.47 83.973 1412.92 85.0952 1414.75C86.2173 1416.59 86.7784 1418.62 86.7784 1420.87C86.7784 1422.47 86.4872 1424.04 85.9048 1425.58C85.3366 1427.1 84.3423 1428.8 82.9219 1430.67C81.5156 1432.53 79.5625 1434.8 77.0625 1437.49L67.2614 1447.97V1448.31H87.5455V1453H60.017Z" fill="white"/>
<path d="M661.386 1101.33V1073.2H666.159V1101.33H661.386ZM649.71 1089.65V1084.88H677.835V1089.65H649.71ZM687.045 1100.05V1095.7L706.221 1065.36H709.375V1072.1H707.244L692.755 1095.02V1095.36H718.579V1100.05H687.045ZM707.585 1109V1098.73V1096.71V1065.36H712.613V1109H707.585Z" fill="white"/>
<path d="M1295.39 1101.33V1073.2H1300.16V1101.33H1295.39ZM1283.71 1089.65V1084.88H1311.84V1089.65H1283.71ZM1320.02 1109V1105.16L1334.42 1089.4C1336.11 1087.55 1337.5 1085.95 1338.6 1084.58C1339.69 1083.2 1340.5 1081.91 1341.03 1080.7C1341.57 1079.48 1341.84 1078.2 1341.84 1076.87C1341.84 1075.34 1341.47 1074.01 1340.73 1072.88C1340 1071.76 1339.01 1070.9 1337.74 1070.29C1336.48 1069.67 1335.06 1069.37 1333.48 1069.37C1331.81 1069.37 1330.34 1069.72 1329.09 1070.41C1327.86 1071.1 1326.9 1072.05 1326.22 1073.29C1325.55 1074.53 1325.22 1075.97 1325.22 1077.64H1320.19C1320.19 1075.08 1320.78 1072.84 1321.96 1070.9C1323.13 1068.97 1324.74 1067.47 1326.77 1066.39C1328.82 1065.31 1331.11 1064.77 1333.65 1064.77C1336.21 1064.77 1338.48 1065.31 1340.45 1066.39C1342.42 1067.47 1343.97 1068.92 1345.1 1070.75C1346.22 1072.59 1346.78 1074.62 1346.78 1076.87C1346.78 1078.47 1346.49 1080.04 1345.9 1081.58C1345.34 1083.1 1344.34 1084.8 1342.92 1086.67C1341.52 1088.53 1339.56 1090.8 1337.06 1093.49L1327.26 1103.97V1104.31H1347.55V1109H1320.02Z" fill="white"/>
<path d="M1396.39 757.33V729.205H1401.16V757.33H1396.39ZM1384.71 745.653V740.881H1412.84V745.653H1384.71ZM1421.02 765V761.165L1435.42 745.398C1437.11 743.551 1438.5 741.946 1439.6 740.582C1440.69 739.205 1441.5 737.912 1442.03 736.705C1442.57 735.483 1442.84 734.205 1442.84 732.869C1442.84 731.335 1442.47 730.007 1441.73 728.885C1441 727.763 1440.01 726.896 1438.74 726.286C1437.48 725.675 1436.06 725.369 1434.48 725.369C1432.81 725.369 1431.34 725.717 1430.09 726.413C1428.86 727.095 1427.9 728.054 1427.22 729.29C1426.55 730.526 1426.22 731.974 1426.22 733.636H1421.19C1421.19 731.08 1421.78 728.835 1422.96 726.903C1424.13 724.972 1425.74 723.466 1427.77 722.386C1429.82 721.307 1432.11 720.767 1434.65 720.767C1437.21 720.767 1439.48 721.307 1441.45 722.386C1443.42 723.466 1444.97 724.922 1446.1 726.754C1447.22 728.587 1447.78 730.625 1447.78 732.869C1447.78 734.474 1447.49 736.044 1446.9 737.578C1446.34 739.098 1445.34 740.795 1443.92 742.67C1442.52 744.531 1440.56 746.804 1438.06 749.489L1428.26 759.972V760.312H1448.55V765H1421.02Z" fill="white"/>
<path opacity="0.35" d="M1717.39 1101.33V1073.2H1722.16V1101.33H1717.39ZM1705.71 1089.65V1084.88H1733.84V1089.65H1705.71ZM1742.02 1109V1105.16L1756.42 1089.4C1758.11 1087.55 1759.5 1085.95 1760.6 1084.58C1761.69 1083.2 1762.5 1081.91 1763.03 1080.7C1763.57 1079.48 1763.84 1078.2 1763.84 1076.87C1763.84 1075.34 1763.47 1074.01 1762.73 1072.88C1762 1071.76 1761.01 1070.9 1759.74 1070.29C1758.48 1069.67 1757.06 1069.37 1755.48 1069.37C1753.81 1069.37 1752.34 1069.72 1751.09 1070.41C1749.86 1071.1 1748.9 1072.05 1748.22 1073.29C1747.55 1074.53 1747.22 1075.97 1747.22 1077.64H1742.19C1742.19 1075.08 1742.78 1072.84 1743.96 1070.9C1745.13 1068.97 1746.74 1067.47 1748.77 1066.39C1750.82 1065.31 1753.11 1064.77 1755.65 1064.77C1758.21 1064.77 1760.48 1065.31 1762.45 1066.39C1764.42 1067.47 1765.97 1068.92 1767.1 1070.75C1768.22 1072.59 1768.78 1074.62 1768.78 1076.87C1768.78 1078.47 1768.49 1080.04 1767.9 1081.58C1767.34 1083.1 1766.34 1084.8 1764.92 1086.67C1763.52 1088.53 1761.56 1090.8 1759.06 1093.49L1749.26 1103.97V1104.31H1769.55V1109H1742.02Z" fill="white"/>
<path d="M139.386 1102.33V1074.2H144.159V1102.33H139.386ZM127.71 1090.65V1085.88H155.835V1090.65H127.71ZM181.409 1066.36V1110H176.125V1071.9H175.869L165.216 1078.98V1073.61L176.125 1066.36H181.409Z" fill="white"/>
<path d="M139.386 757.33V729.205H144.159V757.33H139.386ZM127.71 745.653V740.881H155.835V745.653H127.71ZM181.409 721.364V765H176.125V726.903H175.869L165.216 733.977V728.608L176.125 721.364H181.409Z" fill="white"/>
<path d="M877.352 1084.84V1089.53H858.261V1084.84H877.352ZM900.156 1109.6C897.343 1109.6 894.836 1109.11 892.635 1108.15C890.447 1107.18 888.707 1105.84 887.414 1104.12C886.136 1102.39 885.44 1100.38 885.326 1098.09H890.696C890.809 1099.5 891.292 1100.71 892.145 1101.73C892.997 1102.74 894.112 1103.52 895.49 1104.08C896.868 1104.63 898.395 1104.91 900.071 1104.91C901.946 1104.91 903.608 1104.58 905.056 1103.93C906.505 1103.28 907.642 1102.37 908.466 1101.2C909.289 1100.04 909.701 1098.69 909.701 1097.15C909.701 1095.55 909.304 1094.13 908.508 1092.91C907.713 1091.68 906.548 1090.71 905.014 1090.02C903.48 1089.32 901.605 1088.97 899.389 1088.97H895.895V1084.28H899.389C901.122 1084.28 902.642 1083.97 903.949 1083.35C905.27 1082.72 906.299 1081.84 907.038 1080.7C907.791 1079.57 908.167 1078.23 908.167 1076.7C908.167 1075.22 907.841 1073.94 907.187 1072.84C906.534 1071.75 905.61 1070.9 904.417 1070.29C903.238 1069.67 901.846 1069.37 900.241 1069.37C898.735 1069.37 897.315 1069.65 895.98 1070.2C894.659 1070.74 893.579 1071.53 892.741 1072.57C891.903 1073.59 891.449 1074.82 891.377 1076.27H886.264C886.349 1073.99 887.038 1071.98 888.331 1070.26C889.623 1068.53 891.314 1067.18 893.402 1066.22C895.504 1065.25 897.812 1064.77 900.326 1064.77C903.025 1064.77 905.341 1065.31 907.272 1066.41C909.204 1067.49 910.689 1068.91 911.725 1070.69C912.762 1072.47 913.281 1074.38 913.281 1076.44C913.281 1078.9 912.635 1081 911.342 1082.73C910.064 1084.46 908.324 1085.66 906.122 1086.33V1086.67C908.877 1087.12 911.029 1088.3 912.578 1090.19C914.126 1092.06 914.9 1094.38 914.9 1097.15C914.9 1099.53 914.254 1101.66 912.961 1103.55C911.683 1105.42 909.936 1106.9 907.72 1107.98C905.504 1109.06 902.983 1109.6 900.156 1109.6Z" fill="white"/>
<path d="M763.386 757.33V729.205H768.159V757.33H763.386ZM751.71 745.653V740.881H779.835V745.653H751.71ZM789.045 756.051V751.705L808.221 721.364H811.375V728.097H809.244L794.755 751.023V751.364H820.579V756.051H789.045ZM809.585 765V754.73V752.706V721.364H814.613V765H809.585Z" fill="white"/>
</svg>
