<svg width="2214" height="1488" viewBox="0 0 2214 1488" fill="none" xmlns="http://www.w3.org/2000/svg">
<path d="M158 744L157 1088" stroke="black" stroke-width="8"/>
<path d="M158 1089L51 1433" stroke="black" stroke-width="8"/>
<path d="M158 1089L259 1433" stroke="black" stroke-width="8"/>
<circle cx="55.5" cy="1432.5" r="55.5" fill="#5E60CE"/>
<circle cx="258.5" cy="1432.5" r="55.5" fill="#5E60CE"/>
<path d="M673 1433L888 1088" stroke="black" stroke-width="8"/>
<path d="M887 1433L888 1088" stroke="black" stroke-width="8"/>
<path d="M1100 1433L888 1088" stroke="black" stroke-width="8"/>
<circle cx="673.5" cy="1432.5" r="55.5" fill="#5E60CE"/>
<circle cx="886.5" cy="1432.5" r="55.5" fill="#5E60CE"/>
<circle cx="1099.5" cy="1432.5" r="55.5" fill="#5E60CE"/>
<path d="M657.386 1445.33V1417.2H662.159V1445.33H657.386ZM645.71 1433.65V1428.88H673.835V1433.65H645.71ZM699.409 1409.36V1453H694.125V1414.9H693.869L683.216 1421.98V1416.61L694.125 1409.36H699.409Z" fill="white"/>
<path d="M242.386 1445.33V1417.2H247.159V1445.33H242.386ZM230.71 1433.65V1428.88H258.835V1433.65H230.71ZM284.409 1409.36V1453H279.125V1414.9H278.869L268.216 1421.98V1416.61L279.125 1409.36H284.409Z" fill="white"/>
<path d="M877.352 1428.84V1433.53H858.261V1428.84H877.352ZM900.156 1453.6C897.343 1453.6 894.836 1453.11 892.635 1452.15C890.447 1451.18 888.707 1449.84 887.414 1448.12C886.136 1446.39 885.44 1444.38 885.326 1442.09H890.696C890.809 1443.5 891.292 1444.71 892.145 1445.73C892.997 1446.74 894.112 1447.52 895.49 1448.08C896.868 1448.63 898.395 1448.91 900.071 1448.91C901.946 1448.91 903.608 1448.58 905.056 1447.93C906.505 1447.28 907.642 1446.37 908.466 1445.2C909.289 1444.04 909.701 1442.69 909.701 1441.15C909.701 1439.55 909.304 1438.13 908.508 1436.91C907.713 1435.68 906.548 1434.71 905.014 1434.02C903.48 1433.32 901.605 1432.97 899.389 1432.97H895.895V1428.28H899.389C901.122 1428.28 902.642 1427.97 903.949 1427.35C905.27 1426.72 906.299 1425.84 907.038 1424.7C907.791 1423.57 908.167 1422.23 908.167 1420.7C908.167 1419.22 907.841 1417.94 907.187 1416.84C906.534 1415.75 905.61 1414.9 904.417 1414.29C903.238 1413.67 901.846 1413.37 900.241 1413.37C898.735 1413.37 897.315 1413.65 895.98 1414.2C894.659 1414.74 893.579 1415.53 892.741 1416.57C891.903 1417.59 891.449 1418.82 891.377 1420.27H886.264C886.349 1417.99 887.038 1415.98 888.331 1414.26C889.623 1412.53 891.314 1411.18 893.402 1410.22C895.504 1409.25 897.812 1408.77 900.326 1408.77C903.025 1408.77 905.341 1409.31 907.272 1410.41C909.204 1411.49 910.689 1412.91 911.725 1414.69C912.762 1416.47 913.281 1418.38 913.281 1420.44C913.281 1422.9 912.635 1425 911.342 1426.73C910.064 1428.46 908.324 1429.66 906.122 1430.33V1430.67C908.877 1431.12 911.029 1432.3 912.578 1434.19C914.126 1436.06 914.9 1438.38 914.9 1441.15C914.9 1443.53 914.254 1445.66 912.961 1447.55C911.683 1449.42 909.936 1450.9 907.72 1451.98C905.504 1453.06 902.983 1453.6 900.156 1453.6Z" fill="white"/>
<path d="M1732 1433L1947 1088" stroke="black" stroke-width="8"/>
<path d="M1946 1433L1947 1088" stroke="black" stroke-width="8"/>
<path d="M2159 1433L1947 1088" stroke="black" stroke-width="8"/>
<circle cx="1732.5" cy="1432.5" r="55.5" fill="#5E60CE"/>
<circle cx="1945.5" cy="1432.5" r="55.5" fill="#5E60CE"/>
<circle cx="2158.5" cy="1432.5" r="55.5" fill="#5E60CE"/>
<path d="M1723.35 1428.84V1433.53H1704.26V1428.84H1723.35ZM1746.09 1453.6C1743.17 1453.6 1740.58 1453.08 1738.34 1452.04C1736.11 1450.99 1734.37 1449.55 1733.12 1447.72C1731.87 1445.87 1731.25 1443.77 1731.26 1441.41C1731.25 1439.56 1731.61 1437.86 1732.35 1436.3C1733.09 1434.72 1734.1 1433.4 1735.37 1432.35C1736.67 1431.29 1738.11 1430.61 1739.7 1430.33V1430.07C1737.61 1429.53 1735.95 1428.36 1734.71 1426.56C1733.48 1424.74 1732.87 1422.67 1732.88 1420.36C1732.87 1418.14 1733.43 1416.16 1734.56 1414.41C1735.7 1412.67 1737.26 1411.29 1739.25 1410.28C1741.26 1409.27 1743.54 1408.77 1746.09 1408.77C1748.62 1408.77 1750.88 1409.27 1752.87 1410.28C1754.86 1411.29 1756.42 1412.67 1757.56 1414.41C1758.71 1416.16 1759.29 1418.14 1759.3 1420.36C1759.29 1422.67 1758.66 1424.74 1757.41 1426.56C1756.17 1428.36 1754.53 1429.53 1752.48 1430.07V1430.33C1754.06 1430.61 1755.48 1431.29 1756.75 1432.35C1758.01 1433.4 1759.02 1434.72 1759.77 1436.3C1760.52 1437.86 1760.91 1439.56 1760.92 1441.41C1760.91 1443.77 1760.27 1445.87 1759 1447.72C1757.75 1449.55 1756.01 1450.99 1753.78 1452.04C1751.57 1453.08 1749 1453.6 1746.09 1453.6ZM1746.09 1448.91C1748.07 1448.91 1749.77 1448.59 1751.21 1447.95C1752.64 1447.31 1753.75 1446.41 1754.53 1445.24C1755.31 1444.08 1755.71 1442.72 1755.72 1441.15C1755.71 1439.51 1755.28 1438.05 1754.44 1436.79C1753.61 1435.52 1752.46 1434.53 1751.01 1433.8C1749.58 1433.08 1747.94 1432.72 1746.09 1432.72C1744.23 1432.72 1742.57 1433.08 1741.11 1433.8C1739.66 1434.53 1738.51 1435.52 1737.68 1436.79C1736.85 1438.05 1736.45 1439.51 1736.46 1441.15C1736.45 1442.72 1736.82 1444.08 1737.59 1445.24C1738.37 1446.41 1739.49 1447.31 1740.94 1447.95C1742.38 1448.59 1744.1 1448.91 1746.09 1448.91ZM1746.09 1428.2C1747.65 1428.2 1749.04 1427.89 1750.25 1427.26C1751.47 1426.64 1752.43 1425.76 1753.12 1424.64C1753.82 1423.52 1754.17 1422.2 1754.19 1420.7C1754.17 1419.22 1753.83 1417.94 1753.14 1416.84C1752.46 1415.73 1751.52 1414.88 1750.31 1414.29C1749.1 1413.67 1747.7 1413.37 1746.09 1413.37C1744.46 1413.37 1743.03 1413.67 1741.81 1414.29C1740.59 1414.88 1739.64 1415.73 1738.98 1416.84C1738.31 1417.94 1737.98 1419.22 1738 1420.7C1737.98 1422.2 1738.31 1423.52 1739 1424.64C1739.69 1425.76 1740.65 1426.64 1741.87 1427.26C1743.09 1427.89 1744.5 1428.2 1746.09 1428.2Z" fill="white"/>
<path d="M1945.75 1454.6C1942.54 1454.6 1939.81 1453.72 1937.55 1451.98C1935.29 1450.21 1933.56 1447.66 1932.37 1444.33C1931.18 1440.97 1930.58 1436.93 1930.58 1432.18C1930.58 1427.47 1931.18 1423.44 1932.37 1420.1C1933.58 1416.75 1935.31 1414.19 1937.57 1412.43C1939.84 1410.65 1942.57 1409.77 1945.75 1409.77C1948.93 1409.77 1951.65 1410.65 1953.91 1412.43C1956.18 1414.19 1957.92 1416.75 1959.11 1420.1C1960.32 1423.44 1960.92 1427.47 1960.92 1432.18C1960.92 1436.93 1960.32 1440.97 1959.13 1444.33C1957.94 1447.66 1956.21 1450.21 1953.95 1451.98C1951.69 1453.72 1948.96 1454.6 1945.75 1454.6ZM1945.75 1449.91C1948.93 1449.91 1951.4 1448.37 1953.16 1445.31C1954.93 1442.24 1955.81 1437.86 1955.81 1432.18C1955.81 1428.4 1955.4 1425.19 1954.59 1422.53C1953.8 1419.87 1952.65 1417.85 1951.14 1416.46C1949.65 1415.07 1947.85 1414.37 1945.75 1414.37C1942.6 1414.37 1940.13 1415.92 1938.36 1419.04C1936.58 1422.13 1935.69 1426.51 1935.69 1432.18C1935.69 1435.96 1936.09 1439.17 1936.89 1441.81C1937.68 1444.45 1938.83 1446.46 1940.32 1447.84C1941.82 1449.22 1943.63 1449.91 1945.75 1449.91Z" fill="white"/>
<path d="M2158.75 1454.6C2155.54 1454.6 2152.81 1453.72 2150.55 1451.98C2148.29 1450.21 2146.56 1447.66 2145.37 1444.33C2144.18 1440.97 2143.58 1436.93 2143.58 1432.18C2143.58 1427.47 2144.18 1423.44 2145.37 1420.1C2146.58 1416.75 2148.31 1414.19 2150.57 1412.43C2152.84 1410.65 2155.57 1409.77 2158.75 1409.77C2161.93 1409.77 2164.65 1410.65 2166.91 1412.43C2169.18 1414.19 2170.92 1416.75 2172.11 1420.1C2173.32 1423.44 2173.92 1427.47 2173.92 1432.18C2173.92 1436.93 2173.32 1440.97 2172.13 1444.33C2170.94 1447.66 2169.21 1450.21 2166.95 1451.98C2164.69 1453.72 2161.96 1454.6 2158.75 1454.6ZM2158.75 1449.91C2161.93 1449.91 2164.4 1448.37 2166.16 1445.31C2167.93 1442.24 2168.81 1437.86 2168.81 1432.18C2168.81 1428.4 2168.4 1425.19 2167.59 1422.53C2166.8 1419.87 2165.65 1417.85 2164.14 1416.46C2162.65 1415.07 2160.85 1414.37 2158.75 1414.37C2155.6 1414.37 2153.13 1415.92 2151.36 1419.04C2149.58 1422.13 2148.69 1426.51 2148.69 1432.18C2148.69 1435.96 2149.09 1439.17 2149.89 1441.81C2150.68 1444.45 2151.83 1446.46 2153.32 1447.84C2154.82 1449.22 2156.63 1449.91 2158.75 1449.91Z" fill="white"/>
<path d="M786 744L679 1088" stroke="black" stroke-width="8"/>
<path d="M786 744L887 1088" stroke="black" stroke-width="8"/>
<circle cx="683.5" cy="1087.5" r="55.5" fill="#48BFE3"/>
<circle cx="886.5" cy="1087.5" r="55.5" fill="#48BFE3"/>
<path d="M1844 744L1737 1088" stroke="black" stroke-width="8"/>
<path d="M1844 744L1945 1088" stroke="black" stroke-width="8"/>
<path d="M1417 744L1310 1088" stroke="black" stroke-width="8"/>
<path d="M1417 744L1518 1088" stroke="black" stroke-width="8"/>
<path d="M156 744L371 399" stroke="black" stroke-width="8"/>
<circle cx="1314.5" cy="1087.5" r="55.5" fill="#48BFE3"/>
<path d="M785 744L1000 399" stroke="black" stroke-width="8"/>
<path d="M999 744L1000 399" stroke="black" stroke-width="8"/>
<path d="M1000 55L999 399" stroke="black" stroke-width="8"/>
<path d="M999 55L369 399" stroke="black" stroke-width="8"/>
<path d="M999 55L1631 399" stroke="black" stroke-width="8"/>
<path d="M1212 744L1000 399" stroke="black" stroke-width="8"/>
<circle cx="998.5" cy="55.5" r="55.5" fill="#5E60CE"/>
<circle cx="785.5" cy="743.5" r="55.5" fill="#5E60CE"/>
<circle cx="998.5" cy="743.5" r="55.5" fill="#5E60CE"/>
<circle cx="1211.5" cy="743.5" r="55.5" fill="#5E60CE"/>
<path d="M1416 744L1631 399" stroke="black" stroke-width="8"/>
<path d="M1630 744L1631 399" stroke="black" stroke-width="8"/>
<path d="M1843 744L1631 399" stroke="black" stroke-width="8"/>
<circle cx="1416.5" cy="743.5" r="55.5" fill="#5E60CE"/>
<circle cx="1629.5" cy="743.5" r="55.5" fill="#5E60CE"/>
<circle cx="1842.5" cy="743.5" r="55.5" fill="#5E60CE"/>
<path d="M370 744L371 399" stroke="black" stroke-width="8"/>
<path d="M583 744L371 399" stroke="black" stroke-width="8"/>
<circle cx="156.5" cy="743.5" r="55.5" fill="#5E60CE"/>
<circle cx="369.5" cy="743.5" r="55.5" fill="#5E60CE"/>
<circle cx="582.5" cy="743.5" r="55.5" fill="#5E60CE"/>
<circle cx="369.5" cy="399.5" r="55.5" fill="#48BFE3"/>
<circle cx="998.5" cy="399.5" r="55.5" fill="#48BFE3"/>
<path d="M1519 1088L1518 1432" stroke="black" stroke-width="8"/>
<circle cx="1517.5" cy="1432.5" r="55.5" fill="#5E60CE"/>
<circle cx="1517.5" cy="1087.5" r="55.5" fill="#48BFE3"/>
<circle cx="1629.5" cy="399.5" r="55.5" fill="#48BFE3"/>
<circle cx="1741.5" cy="1087.5" r="55.5" fill="#48BFE3"/>
<circle cx="1944.5" cy="1087.5" r="55.5" fill="#48BFE3"/>
<circle cx="156.5" cy="1088.5" r="55.5" fill="#48BFE3"/>
<path d="M1508.35 1429.84V1434.53H1489.26V1429.84H1508.35ZM1530.75 1454.6C1528.25 1454.6 1526 1454.1 1524 1453.11C1521.99 1452.11 1520.39 1450.75 1519.18 1449.01C1517.97 1447.28 1517.31 1445.31 1517.2 1443.09H1522.31C1522.51 1445.07 1523.41 1446.7 1525 1447.99C1526.6 1449.27 1528.52 1449.91 1530.75 1449.91C1532.54 1449.91 1534.13 1449.49 1535.52 1448.65C1536.93 1447.81 1538.03 1446.66 1538.83 1445.2C1539.64 1443.72 1540.04 1442.05 1540.04 1440.19C1540.04 1438.29 1539.62 1436.59 1538.78 1435.1C1537.96 1433.6 1536.82 1432.41 1535.37 1431.54C1533.93 1430.68 1532.27 1430.24 1530.41 1430.22C1529.07 1430.21 1527.7 1430.41 1526.3 1430.84C1524.89 1431.25 1523.73 1431.78 1522.82 1432.44L1517.88 1431.84L1520.52 1410.36H1543.19V1415.05H1524.96L1523.42 1427.92H1523.68C1524.57 1427.21 1525.69 1426.62 1527.04 1426.15C1528.39 1425.68 1529.8 1425.45 1531.26 1425.45C1533.93 1425.45 1536.31 1426.09 1538.4 1427.37C1540.5 1428.63 1542.15 1430.36 1543.34 1432.57C1544.55 1434.77 1545.15 1437.28 1545.15 1440.11C1545.15 1442.89 1544.53 1445.38 1543.28 1447.57C1542.04 1449.74 1540.34 1451.46 1538.17 1452.72C1535.99 1453.97 1533.52 1454.6 1530.75 1454.6Z" fill="white"/>
<path d="M1084.35 1429.84V1434.53H1065.26V1429.84H1084.35ZM1091.06 1454V1450.16L1105.47 1434.4C1107.16 1432.55 1108.55 1430.95 1109.64 1429.58C1110.74 1428.2 1111.55 1426.91 1112.07 1425.7C1112.61 1424.48 1112.88 1423.2 1112.88 1421.87C1112.88 1420.34 1112.51 1419.01 1111.77 1417.88C1111.05 1416.76 1110.06 1415.9 1108.79 1415.29C1107.53 1414.67 1106.11 1414.37 1104.53 1414.37C1102.85 1414.37 1101.39 1414.72 1100.14 1415.41C1098.9 1416.1 1097.95 1417.05 1097.26 1418.29C1096.6 1419.53 1096.26 1420.97 1096.26 1422.64H1091.23C1091.23 1420.08 1091.82 1417.84 1093 1415.9C1094.18 1413.97 1095.79 1412.47 1097.82 1411.39C1099.86 1410.31 1102.16 1409.77 1104.7 1409.77C1107.26 1409.77 1109.52 1410.31 1111.5 1411.39C1113.47 1412.47 1115.02 1413.92 1116.14 1415.75C1117.26 1417.59 1117.83 1419.62 1117.83 1421.87C1117.83 1423.47 1117.53 1425.04 1116.95 1426.58C1116.38 1428.1 1115.39 1429.8 1113.97 1431.67C1112.56 1433.53 1110.61 1435.8 1108.11 1438.49L1098.31 1448.97V1449.31H1118.59V1454H1091.06Z" fill="white"/>
<path d="M991.352 740.838V745.526H972.261V740.838H991.352ZM1000.13 765L1019.65 726.392V726.051H997.148V721.364H1025.1V726.307L1005.67 765H1000.13Z" fill="white"/>
<path d="M1204.35 740.838V745.526H1185.26V740.838H1204.35ZM1211.06 765V761.165L1225.47 745.398C1227.16 743.551 1228.55 741.946 1229.64 740.582C1230.74 739.205 1231.55 737.912 1232.07 736.705C1232.61 735.483 1232.88 734.205 1232.88 732.869C1232.88 731.335 1232.51 730.007 1231.77 728.885C1231.05 727.763 1230.06 726.896 1228.79 726.286C1227.53 725.675 1226.11 725.369 1224.53 725.369C1222.85 725.369 1221.39 725.717 1220.14 726.413C1218.9 727.095 1217.95 728.054 1217.26 729.29C1216.6 730.526 1216.26 731.974 1216.26 733.636H1211.23C1211.23 731.08 1211.82 728.835 1213 726.903C1214.18 724.972 1215.79 723.466 1217.82 722.386C1219.86 721.307 1222.16 720.767 1224.7 720.767C1227.26 720.767 1229.52 721.307 1231.5 722.386C1233.47 723.466 1235.02 724.922 1236.14 726.754C1237.26 728.587 1237.83 730.625 1237.83 732.869C1237.83 734.474 1237.53 736.044 1236.95 737.578C1236.38 739.098 1235.39 740.795 1233.97 742.67C1232.56 744.531 1230.61 746.804 1228.11 749.489L1218.31 759.972V760.312H1238.59V765H1211.06Z" fill="white"/>
<path d="M1621.35 740.838V745.526H1602.26V740.838H1621.35ZM1644.16 765.597C1641.34 765.597 1638.84 765.114 1636.63 764.148C1634.45 763.182 1632.71 761.839 1631.41 760.121C1630.14 758.388 1629.44 756.378 1629.33 754.091H1634.7C1634.81 755.497 1635.29 756.712 1636.14 757.734C1637 758.743 1638.11 759.524 1639.49 760.078C1640.87 760.632 1642.39 760.909 1644.07 760.909C1645.95 760.909 1647.61 760.582 1649.06 759.929C1650.51 759.276 1651.64 758.366 1652.47 757.202C1653.29 756.037 1653.7 754.688 1653.7 753.153C1653.7 751.548 1653.3 750.135 1652.51 748.913C1651.71 747.678 1650.55 746.712 1649.01 746.016C1647.48 745.32 1645.6 744.972 1643.39 744.972H1639.89V740.284H1643.39C1645.12 740.284 1646.64 739.972 1647.95 739.347C1649.27 738.722 1650.3 737.841 1651.04 736.705C1651.79 735.568 1652.17 734.233 1652.17 732.699C1652.17 731.222 1651.84 729.936 1651.19 728.842C1650.53 727.749 1649.61 726.896 1648.42 726.286C1647.24 725.675 1645.85 725.369 1644.24 725.369C1642.74 725.369 1641.31 725.646 1639.98 726.2C1638.66 726.74 1637.58 727.528 1636.74 728.565C1635.9 729.588 1635.45 730.824 1635.38 732.273H1630.26C1630.35 729.986 1631.04 727.983 1632.33 726.264C1633.62 724.531 1635.31 723.182 1637.4 722.216C1639.5 721.25 1641.81 720.767 1644.33 720.767C1647.03 720.767 1649.34 721.314 1651.27 722.408C1653.2 723.487 1654.69 724.915 1655.73 726.69C1656.76 728.466 1657.28 730.384 1657.28 732.443C1657.28 734.901 1656.63 736.996 1655.34 738.729C1654.06 740.462 1652.32 741.662 1650.12 742.33V742.67C1652.88 743.125 1655.03 744.297 1656.58 746.186C1658.13 748.061 1658.9 750.384 1658.9 753.153C1658.9 755.526 1658.25 757.656 1656.96 759.545C1655.68 761.42 1653.94 762.898 1651.72 763.977C1649.5 765.057 1646.98 765.597 1644.16 765.597Z" fill="white"/>
<path d="M582.75 765.597C579.54 765.597 576.805 764.723 574.547 762.976C572.288 761.214 570.563 758.665 569.369 755.327C568.176 751.974 567.58 747.926 567.58 743.182C567.58 738.466 568.176 734.439 569.369 731.101C570.577 727.749 572.31 725.192 574.568 723.43C576.841 721.655 579.568 720.767 582.75 720.767C585.932 720.767 588.652 721.655 590.911 723.43C593.183 725.192 594.916 727.749 596.109 731.101C597.317 734.439 597.92 738.466 597.92 743.182C597.92 747.926 597.324 751.974 596.131 755.327C594.938 758.665 593.212 761.214 590.953 762.976C588.695 764.723 585.96 765.597 582.75 765.597ZM582.75 760.909C585.932 760.909 588.403 759.375 590.165 756.307C591.926 753.239 592.807 748.864 592.807 743.182C592.807 739.403 592.402 736.186 591.592 733.53C590.797 730.874 589.646 728.849 588.141 727.457C586.649 726.065 584.852 725.369 582.75 725.369C579.597 725.369 577.132 726.925 575.357 730.036C573.581 733.132 572.693 737.514 572.693 743.182C572.693 746.96 573.091 750.17 573.886 752.812C574.682 755.455 575.825 757.464 577.317 758.842C578.822 760.22 580.634 760.909 582.75 760.909Z" fill="white"/>
<path d="M370.75 765.597C367.54 765.597 364.805 764.723 362.547 762.976C360.288 761.214 358.563 758.665 357.369 755.327C356.176 751.974 355.58 747.926 355.58 743.182C355.58 738.466 356.176 734.439 357.369 731.101C358.577 727.749 360.31 725.192 362.568 723.43C364.841 721.655 367.568 720.767 370.75 720.767C373.932 720.767 376.652 721.655 378.911 723.43C381.183 725.192 382.916 727.749 384.109 731.101C385.317 734.439 385.92 738.466 385.92 743.182C385.92 747.926 385.324 751.974 384.131 755.327C382.938 758.665 381.212 761.214 378.953 762.976C376.695 764.723 373.96 765.597 370.75 765.597ZM370.75 760.909C373.932 760.909 376.403 759.375 378.165 756.307C379.926 753.239 380.807 748.864 380.807 743.182C380.807 739.403 380.402 736.186 379.592 733.53C378.797 730.874 377.646 728.849 376.141 727.457C374.649 726.065 372.852 725.369 370.75 725.369C367.597 725.369 365.132 726.925 363.357 730.036C361.581 733.132 360.693 737.514 360.693 743.182C360.693 746.96 361.091 750.17 361.886 752.812C362.682 755.455 363.825 757.464 365.317 758.842C366.822 760.22 368.634 760.909 370.75 760.909Z" fill="white"/>
<path d="M35.3864 1445.33V1417.2H40.1591V1445.33H35.3864ZM23.7102 1433.65V1428.88H51.8352V1433.65H23.7102ZM60.017 1453V1449.16L74.4205 1433.4C76.1108 1431.55 77.5028 1429.95 78.5966 1428.58C79.6903 1427.2 80.5 1425.91 81.0256 1424.7C81.5653 1423.48 81.8352 1422.2 81.8352 1420.87C81.8352 1419.34 81.4659 1418.01 80.7273 1416.88C80.0028 1415.76 79.0085 1414.9 77.7443 1414.29C76.4801 1413.67 75.0597 1413.37 73.483 1413.37C71.8068 1413.37 70.3438 1413.72 69.0938 1414.41C67.858 1415.1 66.8991 1416.05 66.2173 1417.29C65.5497 1418.53 65.2159 1419.97 65.2159 1421.64H60.1875C60.1875 1419.08 60.777 1416.84 61.956 1414.9C63.1349 1412.97 64.7401 1411.47 66.7713 1410.39C68.8168 1409.31 71.1108 1408.77 73.6534 1408.77C76.2102 1408.77 78.4759 1409.31 80.4503 1410.39C82.4247 1411.47 83.973 1412.92 85.0952 1414.75C86.2173 1416.59 86.7784 1418.62 86.7784 1420.87C86.7784 1422.47 86.4872 1424.04 85.9048 1425.58C85.3366 1427.1 84.3423 1428.8 82.9219 1430.67C81.5156 1432.53 79.5625 1434.8 77.0625 1437.49L67.2614 1447.97V1448.31H87.5455V1453H60.017Z" fill="white"/>
<path d="M661.386 1101.33V1073.2H666.159V1101.33H661.386ZM649.71 1089.65V1084.88H677.835V1089.65H649.71ZM687.045 1100.05V1095.7L706.221 1065.36H709.375V1072.1H707.244L692.755 1095.02V1095.36H718.579V1100.05H687.045ZM707.585 1109V1098.73V1096.71V1065.36H712.613V1109H707.585Z" fill="white"/>
<path d="M1295.39 1101.33V1073.2H1300.16V1101.33H1295.39ZM1283.71 1089.65V1084.88H1311.84V1089.65H1283.71ZM1320.02 1109V1105.16L1334.42 1089.4C1336.11 1087.55 1337.5 1085.95 1338.6 1084.58C1339.69 1083.2 1340.5 1081.91 1341.03 1080.7C1341.57 1079.48 1341.84 1078.2 1341.84 1076.87C1341.84 1075.34 1341.47 1074.01 1340.73 1072.88C1340 1071.76 1339.01 1070.9 1337.74 1070.29C1336.48 1069.67 1335.06 1069.37 1333.48 1069.37C1331.81 1069.37 1330.34 1069.72 1329.09 1070.41C1327.86 1071.1 1326.9 1072.05 1326.22 1073.29C1325.55 1074.53 1325.22 1075.97 1325.22 1077.64H1320.19C1320.19 1075.08 1320.78 1072.84 1321.96 1070.9C1323.13 1068.97 1324.74 1067.47 1326.77 1066.39C1328.82 1065.31 1331.11 1064.77 1333.65 1064.77C1336.21 1064.77 1338.48 1065.31 1340.45 1066.39C1342.42 1067.47 1343.97 1068.92 1345.1 1070.75C1346.22 1072.59 1346.78 1074.62 1346.78 1076.87C1346.78 1078.47 1346.49 1080.04 1345.9 1081.58C1345.34 1083.1 1344.34 1084.8 1342.92 1086.67C1341.52 1088.53 1339.56 1090.8 1337.06 1093.49L1327.26 1103.97V1104.31H1347.55V1109H1320.02Z" fill="white"/>
<path d="M1717.39 1101.33V1073.2H1722.16V1101.33H1717.39ZM1705.71 1089.65V1084.88H1733.84V1089.65H1705.71ZM1742.02 1109V1105.16L1756.42 1089.4C1758.11 1087.55 1759.5 1085.95 1760.6 1084.58C1761.69 1083.2 1762.5 1081.91 1763.03 1080.7C1763.57 1079.48 1763.84 1078.2 1763.84 1076.87C1763.84 1075.34 1763.47 1074.01 1762.73 1072.88C1762 1071.76 1761.01 1070.9 1759.74 1070.29C1758.48 1069.67 1757.06 1069.37 1755.48 1069.37C1753.81 1069.37 1752.34 1069.72 1751.09 1070.41C1749.86 1071.1 1748.9 1072.05 1748.22 1073.29C1747.55 1074.53 1747.22 1075.97 1747.22 1077.64H1742.19C1742.19 1075.08 1742.78 1072.84 1743.96 1070.9C1745.13 1068.97 1746.74 1067.47 1748.77 1066.39C1750.82 1065.31 1753.11 1064.77 1755.65 1064.77C1758.21 1064.77 1760.48 1065.31 1762.45 1066.39C1764.42 1067.47 1765.97 1068.92 1767.1 1070.75C1768.22 1072.59 1768.78 1074.62 1768.78 1076.87C1768.78 1078.47 1768.49 1080.04 1767.9 1081.58C1767.34 1083.1 1766.34 1084.8 1764.92 1086.67C1763.52 1088.53 1761.56 1090.8 1759.06 1093.49L1749.26 1103.97V1104.31H1769.55V1109H1742.02Z" fill="white"/>
<path d="M339.895 422.545V377.091H350.406V380.571H343.872V419.065H350.406V422.545H339.895ZM358.01 418H353.394L366.746 381.636H371.291L384.644 418H380.027L369.161 387.389H368.877L358.01 418ZM359.715 403.795H378.323V407.702H359.715V403.795ZM398.12 377.091V422.545H387.609V419.065H394.143V380.571H387.609V377.091H398.12Z" fill="white"/>
<path d="M127.895 766.545V721.091H138.406V724.571H131.872V763.065H138.406V766.545H127.895ZM155.74 762H144.519V725.636H156.237C159.765 725.636 162.783 726.364 165.293 727.82C167.802 729.264 169.726 731.342 171.063 734.053C172.401 736.751 173.07 739.983 173.07 743.747C173.07 747.535 172.395 750.796 171.046 753.531C169.696 756.253 167.731 758.348 165.151 759.816C162.57 761.272 159.433 762 155.74 762ZM148.922 758.094H155.456C158.463 758.094 160.954 757.514 162.931 756.354C164.908 755.194 166.382 753.542 167.352 751.4C168.323 749.257 168.808 746.706 168.808 743.747C168.808 740.812 168.329 738.284 167.37 736.165C166.411 734.035 164.979 732.401 163.073 731.265C161.168 730.117 158.794 729.543 155.953 729.543H148.922V758.094ZM188.269 721.091V766.545H177.757V763.065H184.291V724.571H177.757V721.091H188.269Z" fill="white"/>
<path d="M124.895 1110.55V1065.09H135.406V1068.57H128.872V1107.07H135.406V1110.55H124.895ZM141.519 1106V1069.64H145.922V1085.83H165.311V1069.64H169.715V1106H165.311V1089.74H145.922V1106H141.519ZM186.343 1065.09V1110.55H175.831V1107.07H182.366V1068.57H175.831V1065.09H186.343Z" fill="white"/>
<path d="M866.895 1110.55V1065.09H877.406V1068.57H870.872V1107.07H877.406V1110.55H866.895ZM887.922 1069.64V1106H883.519V1069.64H887.922ZM904.564 1065.09V1110.55H894.052V1107.07H900.586V1068.57H894.052V1065.09H904.564Z" fill="white"/>
<path d="M1490.89 1110.55V1065.09H1501.41V1068.57H1494.87V1107.07H1501.41V1110.55H1490.89ZM1521.44 1069.64H1525.84V1095.63C1525.84 1097.95 1525.42 1099.92 1524.56 1101.54C1523.71 1103.17 1522.51 1104.4 1520.96 1105.24C1519.41 1106.08 1517.58 1106.5 1515.47 1106.5C1513.48 1106.5 1511.71 1106.14 1510.16 1105.41C1508.61 1104.68 1507.39 1103.64 1506.51 1102.29C1505.62 1100.94 1505.17 1099.34 1505.17 1097.48H1509.51C1509.51 1098.51 1509.76 1099.41 1510.27 1100.18C1510.79 1100.93 1511.5 1101.53 1512.4 1101.95C1513.3 1102.38 1514.32 1102.59 1515.47 1102.59C1516.74 1102.59 1517.82 1102.32 1518.7 1101.79C1519.59 1101.26 1520.27 1100.48 1520.73 1099.45C1521.2 1098.41 1521.44 1097.13 1521.44 1095.63V1069.64ZM1542.48 1065.09V1110.55H1531.97V1107.07H1538.5V1068.57H1531.97V1065.09H1542.48Z" fill="white"/>
<path d="M1917.89 1110.55V1065.09H1928.41V1068.57H1921.87V1107.07H1928.41V1110.55H1917.89ZM1934.52 1106V1069.64H1938.92V1087.68H1939.35L1955.68 1069.64H1961.44L1946.17 1086.04L1961.44 1106H1956.11L1943.47 1089.1L1938.92 1094.21V1106H1934.52ZM1974.95 1065.09V1110.55H1964.44V1107.07H1970.97V1068.57H1964.44V1065.09H1974.95Z" fill="white"/>
<path d="M759.895 766.545V721.091H770.406V724.571H763.872V763.065H770.406V766.545H759.895ZM776.519 762V725.636H798.465V729.543H780.922V741.83H797.328V745.736H780.922V758.094H798.749V762H776.519ZM814.214 721.091V766.545H803.703V763.065H810.237V724.571H803.703V721.091H814.214Z" fill="white"/>
<path d="M1389.89 766.545V721.091H1400.41V724.571H1393.87V763.065H1400.41V766.545H1389.89ZM1406.52 762V725.636H1428.32V729.543H1410.92V741.83H1426.69V745.736H1410.92V762H1406.52ZM1443.68 721.091V766.545H1433.17V763.065H1439.7V724.571H1433.17V721.091H1443.68Z" fill="white"/>
<path d="M1812.89 766.545V721.091H1823.41V724.571H1816.87V763.065H1823.41V766.545H1812.89ZM1854.38 737C1853.99 735.804 1853.47 734.733 1852.83 733.786C1852.2 732.827 1851.45 732.011 1850.58 731.336C1849.71 730.661 1848.73 730.146 1847.63 729.791C1846.53 729.436 1845.32 729.259 1844.01 729.259C1841.85 729.259 1839.89 729.815 1838.13 730.928C1836.37 732.04 1834.96 733.68 1833.92 735.846C1832.88 738.012 1832.36 740.67 1832.36 743.818C1832.36 746.967 1832.89 749.624 1833.94 751.79C1834.99 753.957 1836.42 755.596 1838.22 756.709C1840.02 757.821 1842.04 758.378 1844.29 758.378C1846.37 758.378 1848.21 757.934 1849.8 757.046C1851.39 756.147 1852.64 754.88 1853.52 753.246C1854.42 751.601 1854.87 749.666 1854.87 747.44L1856.22 747.724H1845.29V743.818H1859.14V747.724C1859.14 750.719 1858.5 753.323 1857.22 755.537C1855.95 757.75 1854.2 759.467 1851.96 760.686C1849.74 761.893 1847.18 762.497 1844.29 762.497C1841.07 762.497 1838.24 761.74 1835.8 760.224C1833.38 758.709 1831.48 756.555 1830.12 753.761C1828.77 750.968 1828.1 747.653 1828.1 743.818C1828.1 740.942 1828.48 738.355 1829.25 736.059C1830.03 733.751 1831.13 731.786 1832.55 730.164C1833.98 728.542 1835.66 727.299 1837.6 726.435C1839.54 725.571 1841.68 725.139 1844.01 725.139C1845.92 725.139 1847.71 725.429 1849.37 726.009C1851.04 726.577 1852.52 727.388 1853.83 728.442C1855.14 729.483 1856.24 730.732 1857.11 732.188C1857.99 733.632 1858.59 735.236 1858.92 737H1854.38ZM1874.49 721.091V766.545H1863.98V763.065H1870.51V724.571H1863.98V721.091H1874.49Z" fill="white"/>
<path d="M969.895 422.545V377.091H980.406V380.571H973.872V419.065H980.406V422.545H969.895ZM986.519 418V381.636H999.232C1001.76 381.636 1003.85 382.074 1005.5 382.95C1007.14 383.814 1008.37 384.98 1009.17 386.448C1009.98 387.904 1010.38 389.52 1010.38 391.295C1010.38 392.858 1010.1 394.148 1009.55 395.166C1009 396.184 1008.28 396.989 1007.38 397.581C1006.49 398.173 1005.53 398.611 1004.49 398.895V399.25C1005.6 399.321 1006.72 399.712 1007.84 400.422C1008.97 401.132 1009.91 402.15 1010.67 403.476C1011.42 404.802 1011.8 406.423 1011.8 408.341C1011.8 410.164 1011.39 411.803 1010.56 413.259C1009.73 414.715 1008.42 415.869 1006.64 416.722C1004.85 417.574 1002.52 418 999.658 418H986.519ZM990.922 414.094H999.658C1002.53 414.094 1004.58 413.537 1005.78 412.425C1007 411.3 1007.61 409.939 1007.61 408.341C1007.61 407.11 1007.3 405.973 1006.67 404.932C1006.04 403.878 1005.15 403.038 1003.99 402.411C1002.83 401.771 1001.46 401.452 999.871 401.452H990.922V414.094ZM990.922 397.616H999.09C1000.42 397.616 1001.61 397.356 1002.68 396.835C1003.75 396.314 1004.61 395.58 1005.23 394.634C1005.87 393.687 1006.19 392.574 1006.19 391.295C1006.19 389.697 1005.64 388.342 1004.52 387.229C1003.41 386.105 1001.65 385.543 999.232 385.543H990.922V397.616ZM1026.85 377.091V422.545H1016.34V419.065H1022.87V380.571H1016.34V377.091H1026.85Z" fill="white"/>
<path d="M1599.89 422.545V377.091H1610.41V380.571H1603.87V419.065H1610.41V422.545H1599.89ZM1645.78 393H1641.38C1641.12 391.733 1640.66 390.621 1640.01 389.662C1639.37 388.703 1638.59 387.898 1637.67 387.247C1636.75 386.584 1635.74 386.087 1634.63 385.756C1633.52 385.424 1632.36 385.259 1631.15 385.259C1628.95 385.259 1626.95 385.815 1625.17 386.928C1623.39 388.04 1621.98 389.68 1620.92 391.846C1619.88 394.012 1619.36 396.67 1619.36 399.818C1619.36 402.967 1619.88 405.624 1620.92 407.79C1621.98 409.957 1623.39 411.596 1625.17 412.709C1626.95 413.821 1628.95 414.378 1631.15 414.378C1632.36 414.378 1633.52 414.212 1634.63 413.881C1635.74 413.549 1636.75 413.058 1637.67 412.407C1638.59 411.744 1639.37 410.933 1640.01 409.974C1640.66 409.004 1641.12 407.891 1641.38 406.636H1645.78C1645.45 408.495 1644.84 410.158 1643.97 411.626C1643.09 413.094 1642 414.342 1640.7 415.372C1639.4 416.39 1637.94 417.165 1636.32 417.698C1634.71 418.231 1632.98 418.497 1631.15 418.497C1628.05 418.497 1625.29 417.74 1622.88 416.224C1620.46 414.709 1618.56 412.555 1617.18 409.761C1615.79 406.968 1615.1 403.653 1615.1 399.818C1615.1 395.983 1615.79 392.669 1617.18 389.875C1618.56 387.081 1620.46 384.927 1622.88 383.412C1625.29 381.897 1628.05 381.139 1631.15 381.139C1632.98 381.139 1634.71 381.406 1636.32 381.938C1637.94 382.471 1639.4 383.252 1640.7 384.282C1642 385.3 1643.09 386.543 1643.97 388.011C1644.84 389.467 1645.45 391.13 1645.78 393ZM1660.71 377.091V422.545H1650.2V419.065H1656.73V380.571H1650.2V377.091H1660.71Z" fill="white"/>
</svg>
