<svg width="343" height="529" viewBox="0 0 343 529" fill="none" xmlns="http://www.w3.org/2000/svg">
<path d="M169 120L301 25" stroke="#222222" stroke-width="4" stroke-linecap="square"/>
<path d="M169 309L301 310" stroke="#222222" stroke-width="4" stroke-linecap="square"/>
<path d="M169 120L301 310" stroke="#222222" stroke-width="4" stroke-linecap="square"/>
<path d="M169 120L301 405" stroke="#222222" stroke-width="4" stroke-linecap="square"/>
<path d="M169 120L301 215" stroke="#222222" stroke-width="4" stroke-linecap="square"/>
<path d="M169 214L301 215" stroke="#222222" stroke-width="4" stroke-linecap="square"/>
<path d="M169 310L301 214" stroke="#222222" stroke-width="4" stroke-linecap="square"/>
<path d="M169 310L301 120" stroke="#222222" stroke-width="4" stroke-linecap="square"/>
<path d="M169 310L301 25" stroke="#222222" stroke-width="4" stroke-linecap="square"/>
<path d="M169 310L301 405" stroke="#222222" stroke-width="4" stroke-linecap="square"/>
<path d="M169 214L301 405" stroke="#222222" stroke-width="4" stroke-linecap="square"/>
<path d="M169 214L301 310" stroke="#222222" stroke-width="4" stroke-linecap="square"/>
<path d="M169 214L301 120" stroke="#222222" stroke-width="4" stroke-linecap="square"/>
<path d="M169 214L301 25" stroke="#222222" stroke-width="4" stroke-linecap="square"/>
<path d="M169 119L301 120" stroke="#222222" stroke-width="4" stroke-linecap="square"/>
<circle cx="301" cy="120" r="25" fill="#5E60CE"/>
<circle cx="301" cy="25" r="25" fill="#5E60CE"/>
<circle cx="301" cy="215" r="25" fill="#5E60CE"/>
<circle cx="301" cy="310" r="25" fill="#5E60CE"/>
<circle cx="301" cy="405" r="25" fill="#5E60CE"/>
<path d="M169 120L37 25" stroke="#222222" stroke-width="4" stroke-linecap="square"/>
<path d="M169 309L37 310" stroke="#222222" stroke-width="4" stroke-linecap="square"/>
<path d="M169 120L37 310" stroke="#222222" stroke-width="4" stroke-linecap="square"/>
<path d="M169 120L37 405" stroke="#222222" stroke-width="4" stroke-linecap="square"/>
<path d="M169 120L37 215" stroke="#222222" stroke-width="4" stroke-linecap="square"/>
<path d="M169 214L37 215" stroke="#222222" stroke-width="4" stroke-linecap="square"/>
<path d="M169 310L37 214" stroke="#222222" stroke-width="4" stroke-linecap="square"/>
<path d="M169 310L37 120" stroke="#222222" stroke-width="4" stroke-linecap="square"/>
<path d="M169 310L37 25" stroke="#222222" stroke-width="4" stroke-linecap="square"/>
<path d="M169 310L37 405" stroke="#222222" stroke-width="4" stroke-linecap="square"/>
<path d="M169 214L37 405" stroke="#222222" stroke-width="4" stroke-linecap="square"/>
<path d="M169 214L37 310" stroke="#222222" stroke-width="4" stroke-linecap="square"/>
<path d="M169 214L37 120" stroke="#222222" stroke-width="4" stroke-linecap="square"/>
<path d="M169 214L37 25" stroke="#222222" stroke-width="4" stroke-linecap="square"/>
<path d="M169 119L37 120" stroke="#222222" stroke-width="4" stroke-linecap="square"/>
<circle cx="169" cy="120" r="25" fill="#D9D9D9"/>
<circle cx="169" cy="215" r="25" fill="#D9D9D9"/>
<circle cx="169" cy="310" r="25" fill="#D9D9D9"/>
<circle cx="169" cy="120" r="25" fill="#48BFE3"/>
<circle cx="169" cy="215" r="25" fill="#48BFE3"/>
<circle cx="169" cy="310" r="25" fill="#48BFE3"/>
<circle r="25" transform="matrix(-1 0 0 1 37 120)" fill="#5E60CE"/>
<circle r="25" transform="matrix(-1 0 0 1 37 25)" fill="#5E60CE"/>
<circle r="25" transform="matrix(-1 0 0 1 37 215)" fill="#5E60CE"/>
<circle r="25" transform="matrix(-1 0 0 1 37 310)" fill="#5E60CE"/>
<circle r="25" transform="matrix(-1 0 0 1 37 405)" fill="#5E60CE"/>
<path d="M4.92188 470.094V490H2.2832V470.094H4.92188ZM11.8672 478.365V490H9.33789V475.207H11.7305L11.8672 478.365ZM11.2656 482.043L10.2129 482.002C10.222 480.99 10.3724 480.056 10.6641 479.199C10.9557 478.333 11.3659 477.581 11.8945 476.943C12.4232 476.305 13.0521 475.813 13.7812 475.467C14.5195 475.111 15.3353 474.934 16.2285 474.934C16.9577 474.934 17.6139 475.034 18.1973 475.234C18.7806 475.426 19.2773 475.736 19.6875 476.164C20.1068 476.592 20.4258 477.148 20.6445 477.832C20.8633 478.507 20.9727 479.331 20.9727 480.307V490H18.4297V480.279C18.4297 479.505 18.3158 478.885 18.0879 478.42C17.86 477.946 17.5273 477.604 17.0898 477.395C16.6523 477.176 16.1146 477.066 15.4766 477.066C14.8477 477.066 14.2734 477.199 13.7539 477.463C13.2435 477.727 12.8014 478.092 12.4277 478.557C12.0632 479.021 11.776 479.555 11.5664 480.156C11.3659 480.749 11.2656 481.378 11.2656 482.043ZM27.3438 478.051V495.688H24.8008V475.207H27.125L27.3438 478.051ZM37.3105 482.48V482.768C37.3105 483.843 37.1829 484.841 36.9277 485.762C36.6725 486.673 36.2988 487.466 35.8066 488.141C35.3236 488.815 34.7266 489.339 34.0156 489.713C33.3047 490.087 32.4889 490.273 31.5684 490.273C30.6296 490.273 29.8001 490.118 29.0801 489.809C28.36 489.499 27.7493 489.048 27.248 488.455C26.7467 487.863 26.3457 487.152 26.0449 486.322C25.7533 485.493 25.5527 484.559 25.4434 483.52V481.988C25.5527 480.895 25.7578 479.915 26.0586 479.049C26.3594 478.183 26.7559 477.445 27.248 476.834C27.7493 476.214 28.3555 475.745 29.0664 475.426C29.7773 475.098 30.5977 474.934 31.5273 474.934C32.457 474.934 33.2819 475.116 34.002 475.48C34.722 475.836 35.3281 476.346 35.8203 477.012C36.3125 477.677 36.6816 478.475 36.9277 479.404C37.1829 480.325 37.3105 481.35 37.3105 482.48ZM34.7676 482.768V482.48C34.7676 481.742 34.6901 481.049 34.5352 480.402C34.3802 479.746 34.1387 479.172 33.8105 478.68C33.4915 478.178 33.0814 477.786 32.5801 477.504C32.0788 477.212 31.4818 477.066 30.7891 477.066C30.151 477.066 29.5951 477.176 29.1211 477.395C28.6562 477.613 28.2598 477.91 27.9316 478.283C27.6035 478.648 27.3346 479.067 27.125 479.541C26.9245 480.006 26.7741 480.489 26.6738 480.99V484.531C26.8561 485.169 27.1113 485.771 27.4395 486.336C27.7676 486.892 28.2051 487.343 28.752 487.689C29.2988 488.027 29.987 488.195 30.8164 488.195C31.5 488.195 32.0879 488.054 32.5801 487.771C33.0814 487.48 33.4915 487.083 33.8105 486.582C34.1387 486.081 34.3802 485.507 34.5352 484.859C34.6901 484.203 34.7676 483.506 34.7676 482.768ZM49.5879 486.582V475.207H52.1309V490H49.7109L49.5879 486.582ZM50.0664 483.465L51.1191 483.438C51.1191 484.422 51.0143 485.333 50.8047 486.172C50.6042 487.001 50.276 487.721 49.8203 488.332C49.3646 488.943 48.7676 489.421 48.0293 489.768C47.291 490.105 46.3932 490.273 45.3359 490.273C44.6159 490.273 43.9551 490.169 43.3535 489.959C42.7611 489.749 42.2507 489.426 41.8223 488.988C41.3939 488.551 41.0612 487.981 40.8242 487.279C40.5964 486.577 40.4824 485.734 40.4824 484.75V475.207H43.0117V484.777C43.0117 485.443 43.0846 485.994 43.2305 486.432C43.3854 486.86 43.5905 487.202 43.8457 487.457C44.11 487.703 44.4017 487.876 44.7207 487.977C45.0488 488.077 45.3861 488.127 45.7324 488.127C46.8079 488.127 47.6602 487.922 48.2891 487.512C48.918 487.092 49.3691 486.532 49.6426 485.83C49.9251 485.119 50.0664 484.331 50.0664 483.465ZM62.1797 475.207V477.148H54.1816V475.207H62.1797ZM56.8887 471.611H59.418V486.336C59.418 486.837 59.4954 487.215 59.6504 487.471C59.8053 487.726 60.0059 487.895 60.252 487.977C60.498 488.059 60.7624 488.1 61.0449 488.1C61.2546 488.1 61.4733 488.081 61.7012 488.045C61.9382 487.999 62.1159 487.963 62.2344 487.936L62.248 490C62.0475 490.064 61.7832 490.123 61.4551 490.178C61.1361 490.242 60.7487 490.273 60.293 490.273C59.6732 490.273 59.1035 490.15 58.584 489.904C58.0645 489.658 57.6497 489.248 57.3398 488.674C57.0391 488.09 56.8887 487.307 56.8887 486.322V471.611ZM12.127 520.854V523H2.17383V520.854H12.127ZM2.69336 503.094V523H0.0546875V503.094H2.69336ZM23.4883 520.471V512.855C23.4883 512.272 23.3698 511.766 23.1328 511.338C22.9049 510.9 22.5586 510.563 22.0938 510.326C21.6289 510.089 21.0547 509.971 20.3711 509.971C19.7331 509.971 19.1725 510.08 18.6895 510.299C18.2155 510.518 17.8418 510.805 17.5684 511.16C17.304 511.516 17.1719 511.898 17.1719 512.309H14.6426C14.6426 511.78 14.7793 511.256 15.0527 510.736C15.3262 510.217 15.7181 509.747 16.2285 509.328C16.748 508.9 17.3678 508.562 18.0879 508.316C18.8171 508.061 19.6283 507.934 20.5215 507.934C21.597 507.934 22.5449 508.116 23.3652 508.48C24.1947 508.845 24.8418 509.396 25.3066 510.135C25.7806 510.864 26.0176 511.78 26.0176 512.883V519.773C26.0176 520.266 26.0586 520.79 26.1406 521.346C26.2318 521.902 26.3639 522.38 26.5371 522.781V523H23.8984C23.7708 522.708 23.6706 522.321 23.5977 521.838C23.5247 521.346 23.4883 520.89 23.4883 520.471ZM23.9258 514.031L23.9531 515.809H21.3965C20.6764 515.809 20.0339 515.868 19.4688 515.986C18.9036 516.096 18.4297 516.264 18.0469 516.492C17.6641 516.72 17.3724 517.007 17.1719 517.354C16.9714 517.691 16.8711 518.087 16.8711 518.543C16.8711 519.008 16.9759 519.432 17.1855 519.814C17.3952 520.197 17.7096 520.503 18.1289 520.73C18.5573 520.949 19.0814 521.059 19.7012 521.059C20.4759 521.059 21.1595 520.895 21.752 520.566C22.3444 520.238 22.8138 519.837 23.1602 519.363C23.5156 518.889 23.707 518.429 23.7344 517.982L24.8145 519.199C24.7507 519.582 24.5775 520.006 24.2949 520.471C24.0124 520.936 23.6341 521.382 23.1602 521.811C22.6953 522.23 22.1393 522.581 21.4922 522.863C20.8542 523.137 20.1341 523.273 19.332 523.273C18.3294 523.273 17.4499 523.077 16.6934 522.686C15.946 522.294 15.3626 521.77 14.9434 521.113C14.5332 520.448 14.3281 519.705 14.3281 518.885C14.3281 518.092 14.4831 517.395 14.793 516.793C15.1029 516.182 15.5495 515.676 16.1328 515.275C16.7161 514.865 17.418 514.555 18.2383 514.346C19.0586 514.136 19.9746 514.031 20.9863 514.031H23.9258ZM33.9336 521.469L38.0488 508.207H40.7559L34.8223 525.283C34.6855 525.648 34.5033 526.04 34.2754 526.459C34.0566 526.887 33.7741 527.293 33.4277 527.676C33.0814 528.059 32.6621 528.368 32.1699 528.605C31.6868 528.852 31.1081 528.975 30.4336 528.975C30.2331 528.975 29.9779 528.947 29.668 528.893C29.3581 528.838 29.1393 528.792 29.0117 528.756L28.998 526.705C29.071 526.714 29.1849 526.723 29.3398 526.732C29.5039 526.751 29.6178 526.76 29.6816 526.76C30.2559 526.76 30.7435 526.682 31.1445 526.527C31.5456 526.382 31.8828 526.131 32.1562 525.775C32.4388 525.429 32.6803 524.951 32.8809 524.34L33.9336 521.469ZM30.9121 508.207L34.7539 519.691L35.4102 522.357L33.5918 523.287L28.1504 508.207H30.9121ZM48.9863 523.273C47.9564 523.273 47.0221 523.1 46.1836 522.754C45.3542 522.398 44.6387 521.902 44.0371 521.264C43.4447 520.626 42.9889 519.869 42.6699 518.994C42.3509 518.119 42.1914 517.162 42.1914 516.123V515.549C42.1914 514.346 42.3691 513.275 42.7246 512.336C43.0801 511.388 43.5632 510.586 44.1738 509.93C44.7845 509.273 45.4772 508.777 46.252 508.439C47.0267 508.102 47.8288 507.934 48.6582 507.934C49.7155 507.934 50.627 508.116 51.3926 508.48C52.1673 508.845 52.8008 509.355 53.293 510.012C53.7852 510.659 54.1497 511.424 54.3867 512.309C54.6237 513.184 54.7422 514.141 54.7422 515.18V516.314H43.6953V514.25H52.2129V514.059C52.1764 513.402 52.0397 512.764 51.8027 512.145C51.5749 511.525 51.2103 511.014 50.709 510.613C50.2077 510.212 49.5241 510.012 48.6582 510.012C48.084 510.012 47.5553 510.135 47.0723 510.381C46.5892 510.618 46.1745 510.973 45.8281 511.447C45.4818 511.921 45.2129 512.5 45.0215 513.184C44.8301 513.867 44.7344 514.656 44.7344 515.549V516.123C44.7344 516.825 44.8301 517.486 45.0215 518.105C45.222 518.716 45.5091 519.254 45.8828 519.719C46.2656 520.184 46.7259 520.548 47.2637 520.812C47.8105 521.077 48.4303 521.209 49.123 521.209C50.0163 521.209 50.7728 521.027 51.3926 520.662C52.0124 520.298 52.5547 519.81 53.0195 519.199L54.5508 520.416C54.2318 520.899 53.8262 521.359 53.334 521.797C52.8418 522.234 52.2357 522.59 51.5156 522.863C50.8047 523.137 49.9616 523.273 48.9863 523.273ZM60.2246 510.531V523H57.6953V508.207H60.1562L60.2246 510.531ZM64.8457 508.125L64.832 510.477C64.6224 510.431 64.4219 510.404 64.2305 510.395C64.0482 510.376 63.8385 510.367 63.6016 510.367C63.0182 510.367 62.5033 510.458 62.0566 510.641C61.61 510.823 61.2318 511.078 60.9219 511.406C60.612 511.734 60.3659 512.126 60.1836 512.582C60.0104 513.029 59.8965 513.521 59.8418 514.059L59.1309 514.469C59.1309 513.576 59.2174 512.737 59.3906 511.953C59.5729 511.169 59.8509 510.477 60.2246 509.875C60.5983 509.264 61.0723 508.79 61.6465 508.453C62.2298 508.107 62.9225 507.934 63.7246 507.934C63.9069 507.934 64.1165 507.956 64.3535 508.002C64.5905 508.038 64.7546 508.079 64.8457 508.125Z" fill="black"/>
<path d="M140.447 478.652V480.799H129.674V478.652H140.447ZM130.084 470.094V490H127.445V470.094H130.084ZM142.744 470.094V490H140.119V470.094H142.744ZM149.799 475.207V490H147.256V475.207H149.799ZM147.064 471.283C147.064 470.873 147.188 470.527 147.434 470.244C147.689 469.962 148.062 469.82 148.555 469.82C149.038 469.82 149.407 469.962 149.662 470.244C149.926 470.527 150.059 470.873 150.059 471.283C150.059 471.675 149.926 472.012 149.662 472.295C149.407 472.568 149.038 472.705 148.555 472.705C148.062 472.705 147.689 472.568 147.434 472.295C147.188 472.012 147.064 471.675 147.064 471.283ZM163.184 487.129V469H165.727V490H163.402L163.184 487.129ZM153.23 482.768V482.48C153.23 481.35 153.367 480.325 153.641 479.404C153.923 478.475 154.32 477.677 154.83 477.012C155.35 476.346 155.965 475.836 156.676 475.48C157.396 475.116 158.198 474.934 159.082 474.934C160.012 474.934 160.823 475.098 161.516 475.426C162.217 475.745 162.81 476.214 163.293 476.834C163.785 477.445 164.173 478.183 164.455 479.049C164.738 479.915 164.934 480.895 165.043 481.988V483.246C164.943 484.331 164.747 485.306 164.455 486.172C164.173 487.038 163.785 487.776 163.293 488.387C162.81 488.997 162.217 489.467 161.516 489.795C160.814 490.114 159.993 490.273 159.055 490.273C158.189 490.273 157.396 490.087 156.676 489.713C155.965 489.339 155.35 488.815 154.83 488.141C154.32 487.466 153.923 486.673 153.641 485.762C153.367 484.841 153.23 483.843 153.23 482.768ZM155.773 482.48V482.768C155.773 483.506 155.846 484.199 155.992 484.846C156.147 485.493 156.384 486.062 156.703 486.555C157.022 487.047 157.428 487.434 157.92 487.717C158.412 487.99 159 488.127 159.684 488.127C160.522 488.127 161.21 487.949 161.748 487.594C162.295 487.238 162.732 486.769 163.061 486.186C163.389 485.602 163.644 484.969 163.826 484.285V480.99C163.717 480.489 163.557 480.006 163.348 479.541C163.147 479.067 162.883 478.648 162.555 478.283C162.236 477.91 161.839 477.613 161.365 477.395C160.9 477.176 160.349 477.066 159.711 477.066C159.018 477.066 158.421 477.212 157.92 477.504C157.428 477.786 157.022 478.178 156.703 478.68C156.384 479.172 156.147 479.746 155.992 480.402C155.846 481.049 155.773 481.742 155.773 482.48ZM178.988 487.129V469H181.531V490H179.207L178.988 487.129ZM169.035 482.768V482.48C169.035 481.35 169.172 480.325 169.445 479.404C169.728 478.475 170.124 477.677 170.635 477.012C171.154 476.346 171.77 475.836 172.48 475.48C173.201 475.116 174.003 474.934 174.887 474.934C175.816 474.934 176.628 475.098 177.32 475.426C178.022 475.745 178.615 476.214 179.098 476.834C179.59 477.445 179.977 478.183 180.26 479.049C180.542 479.915 180.738 480.895 180.848 481.988V483.246C180.747 484.331 180.551 485.306 180.26 486.172C179.977 487.038 179.59 487.776 179.098 488.387C178.615 488.997 178.022 489.467 177.32 489.795C176.618 490.114 175.798 490.273 174.859 490.273C173.993 490.273 173.201 490.087 172.48 489.713C171.77 489.339 171.154 488.815 170.635 488.141C170.124 487.466 169.728 486.673 169.445 485.762C169.172 484.841 169.035 483.843 169.035 482.768ZM171.578 482.48V482.768C171.578 483.506 171.651 484.199 171.797 484.846C171.952 485.493 172.189 486.062 172.508 486.555C172.827 487.047 173.232 487.434 173.725 487.717C174.217 487.99 174.805 488.127 175.488 488.127C176.327 488.127 177.015 487.949 177.553 487.594C178.1 487.238 178.537 486.769 178.865 486.186C179.193 485.602 179.449 484.969 179.631 484.285V480.99C179.521 480.489 179.362 480.006 179.152 479.541C178.952 479.067 178.688 478.648 178.359 478.283C178.04 477.91 177.644 477.613 177.17 477.395C176.705 477.176 176.154 477.066 175.516 477.066C174.823 477.066 174.226 477.212 173.725 477.504C173.232 477.786 172.827 478.178 172.508 478.68C172.189 479.172 171.952 479.746 171.797 480.402C171.651 481.049 171.578 481.742 171.578 482.48ZM191.607 490.273C190.577 490.273 189.643 490.1 188.805 489.754C187.975 489.398 187.26 488.902 186.658 488.264C186.066 487.626 185.61 486.869 185.291 485.994C184.972 485.119 184.812 484.162 184.812 483.123V482.549C184.812 481.346 184.99 480.275 185.346 479.336C185.701 478.388 186.184 477.586 186.795 476.93C187.406 476.273 188.098 475.777 188.873 475.439C189.648 475.102 190.45 474.934 191.279 474.934C192.337 474.934 193.248 475.116 194.014 475.48C194.788 475.845 195.422 476.355 195.914 477.012C196.406 477.659 196.771 478.424 197.008 479.309C197.245 480.184 197.363 481.141 197.363 482.18V483.314H186.316V481.25H194.834V481.059C194.798 480.402 194.661 479.764 194.424 479.145C194.196 478.525 193.831 478.014 193.33 477.613C192.829 477.212 192.145 477.012 191.279 477.012C190.705 477.012 190.176 477.135 189.693 477.381C189.21 477.618 188.796 477.973 188.449 478.447C188.103 478.921 187.834 479.5 187.643 480.184C187.451 480.867 187.355 481.656 187.355 482.549V483.123C187.355 483.825 187.451 484.486 187.643 485.105C187.843 485.716 188.13 486.254 188.504 486.719C188.887 487.184 189.347 487.548 189.885 487.812C190.432 488.077 191.051 488.209 191.744 488.209C192.637 488.209 193.394 488.027 194.014 487.662C194.633 487.298 195.176 486.81 195.641 486.199L197.172 487.416C196.853 487.899 196.447 488.359 195.955 488.797C195.463 489.234 194.857 489.59 194.137 489.863C193.426 490.137 192.583 490.273 191.607 490.273ZM202.846 478.365V490H200.316V475.207H202.709L202.846 478.365ZM202.244 482.043L201.191 482.002C201.201 480.99 201.351 480.056 201.643 479.199C201.934 478.333 202.344 477.581 202.873 476.943C203.402 476.305 204.031 475.813 204.76 475.467C205.498 475.111 206.314 474.934 207.207 474.934C207.936 474.934 208.592 475.034 209.176 475.234C209.759 475.426 210.256 475.736 210.666 476.164C211.085 476.592 211.404 477.148 211.623 477.832C211.842 478.507 211.951 479.331 211.951 480.307V490H209.408V480.279C209.408 479.505 209.294 478.885 209.066 478.42C208.839 477.946 208.506 477.604 208.068 477.395C207.631 477.176 207.093 477.066 206.455 477.066C205.826 477.066 205.252 477.199 204.732 477.463C204.222 477.727 203.78 478.092 203.406 478.557C203.042 479.021 202.755 479.555 202.545 480.156C202.344 480.749 202.244 481.378 202.244 482.043ZM150.127 520.854V523H140.174V520.854H150.127ZM140.693 503.094V523H138.055V503.094H140.693ZM161.488 520.471V512.855C161.488 512.272 161.37 511.766 161.133 511.338C160.905 510.9 160.559 510.563 160.094 510.326C159.629 510.089 159.055 509.971 158.371 509.971C157.733 509.971 157.173 510.08 156.689 510.299C156.215 510.518 155.842 510.805 155.568 511.16C155.304 511.516 155.172 511.898 155.172 512.309H152.643C152.643 511.78 152.779 511.256 153.053 510.736C153.326 510.217 153.718 509.747 154.229 509.328C154.748 508.9 155.368 508.562 156.088 508.316C156.817 508.061 157.628 507.934 158.521 507.934C159.597 507.934 160.545 508.116 161.365 508.48C162.195 508.845 162.842 509.396 163.307 510.135C163.781 510.864 164.018 511.78 164.018 512.883V519.773C164.018 520.266 164.059 520.79 164.141 521.346C164.232 521.902 164.364 522.38 164.537 522.781V523H161.898C161.771 522.708 161.671 522.321 161.598 521.838C161.525 521.346 161.488 520.89 161.488 520.471ZM161.926 514.031L161.953 515.809H159.396C158.676 515.809 158.034 515.868 157.469 515.986C156.904 516.096 156.43 516.264 156.047 516.492C155.664 516.72 155.372 517.007 155.172 517.354C154.971 517.691 154.871 518.087 154.871 518.543C154.871 519.008 154.976 519.432 155.186 519.814C155.395 520.197 155.71 520.503 156.129 520.73C156.557 520.949 157.081 521.059 157.701 521.059C158.476 521.059 159.16 520.895 159.752 520.566C160.344 520.238 160.814 519.837 161.16 519.363C161.516 518.889 161.707 518.429 161.734 517.982L162.814 519.199C162.751 519.582 162.577 520.006 162.295 520.471C162.012 520.936 161.634 521.382 161.16 521.811C160.695 522.23 160.139 522.581 159.492 522.863C158.854 523.137 158.134 523.273 157.332 523.273C156.329 523.273 155.45 523.077 154.693 522.686C153.946 522.294 153.363 521.77 152.943 521.113C152.533 520.448 152.328 519.705 152.328 518.885C152.328 518.092 152.483 517.395 152.793 516.793C153.103 516.182 153.549 515.676 154.133 515.275C154.716 514.865 155.418 514.555 156.238 514.346C157.059 514.136 157.975 514.031 158.986 514.031H161.926ZM171.934 521.469L176.049 508.207H178.756L172.822 525.283C172.686 525.648 172.503 526.04 172.275 526.459C172.057 526.887 171.774 527.293 171.428 527.676C171.081 528.059 170.662 528.368 170.17 528.605C169.687 528.852 169.108 528.975 168.434 528.975C168.233 528.975 167.978 528.947 167.668 528.893C167.358 528.838 167.139 528.792 167.012 528.756L166.998 526.705C167.071 526.714 167.185 526.723 167.34 526.732C167.504 526.751 167.618 526.76 167.682 526.76C168.256 526.76 168.743 526.682 169.145 526.527C169.546 526.382 169.883 526.131 170.156 525.775C170.439 525.429 170.68 524.951 170.881 524.34L171.934 521.469ZM168.912 508.207L172.754 519.691L173.41 522.357L171.592 523.287L166.15 508.207H168.912ZM186.986 523.273C185.956 523.273 185.022 523.1 184.184 522.754C183.354 522.398 182.639 521.902 182.037 521.264C181.445 520.626 180.989 519.869 180.67 518.994C180.351 518.119 180.191 517.162 180.191 516.123V515.549C180.191 514.346 180.369 513.275 180.725 512.336C181.08 511.388 181.563 510.586 182.174 509.93C182.785 509.273 183.477 508.777 184.252 508.439C185.027 508.102 185.829 507.934 186.658 507.934C187.715 507.934 188.627 508.116 189.393 508.48C190.167 508.845 190.801 509.355 191.293 510.012C191.785 510.659 192.15 511.424 192.387 512.309C192.624 513.184 192.742 514.141 192.742 515.18V516.314H181.695V514.25H190.213V514.059C190.176 513.402 190.04 512.764 189.803 512.145C189.575 511.525 189.21 511.014 188.709 510.613C188.208 510.212 187.524 510.012 186.658 510.012C186.084 510.012 185.555 510.135 185.072 510.381C184.589 510.618 184.174 510.973 183.828 511.447C183.482 511.921 183.213 512.5 183.021 513.184C182.83 513.867 182.734 514.656 182.734 515.549V516.123C182.734 516.825 182.83 517.486 183.021 518.105C183.222 518.716 183.509 519.254 183.883 519.719C184.266 520.184 184.726 520.548 185.264 520.812C185.811 521.077 186.43 521.209 187.123 521.209C188.016 521.209 188.773 521.027 189.393 520.662C190.012 520.298 190.555 519.81 191.02 519.199L192.551 520.416C192.232 520.899 191.826 521.359 191.334 521.797C190.842 522.234 190.236 522.59 189.516 522.863C188.805 523.137 187.962 523.273 186.986 523.273ZM198.225 510.531V523H195.695V508.207H198.156L198.225 510.531ZM202.846 508.125L202.832 510.477C202.622 510.431 202.422 510.404 202.23 510.395C202.048 510.376 201.839 510.367 201.602 510.367C201.018 510.367 200.503 510.458 200.057 510.641C199.61 510.823 199.232 511.078 198.922 511.406C198.612 511.734 198.366 512.126 198.184 512.582C198.01 513.029 197.896 513.521 197.842 514.059L197.131 514.469C197.131 513.576 197.217 512.737 197.391 511.953C197.573 511.169 197.851 510.477 198.225 509.875C198.598 509.264 199.072 508.79 199.646 508.453C200.23 508.107 200.923 507.934 201.725 507.934C201.907 507.934 202.117 507.956 202.354 508.002C202.59 508.038 202.755 508.079 202.846 508.125Z" fill="black"/>
<path d="M277.027 479.418V480.676C277.027 482.171 276.84 483.51 276.467 484.695C276.093 485.88 275.555 486.887 274.854 487.717C274.152 488.546 273.309 489.18 272.324 489.617C271.349 490.055 270.255 490.273 269.043 490.273C267.867 490.273 266.787 490.055 265.803 489.617C264.827 489.18 263.98 488.546 263.26 487.717C262.549 486.887 261.997 485.88 261.605 484.695C261.214 483.51 261.018 482.171 261.018 480.676V479.418C261.018 477.923 261.209 476.588 261.592 475.412C261.984 474.227 262.535 473.22 263.246 472.391C263.957 471.552 264.8 470.914 265.775 470.477C266.76 470.039 267.84 469.82 269.016 469.82C270.228 469.82 271.322 470.039 272.297 470.477C273.281 470.914 274.124 471.552 274.826 472.391C275.537 473.22 276.079 474.227 276.453 475.412C276.836 476.588 277.027 477.923 277.027 479.418ZM274.416 480.676V479.391C274.416 478.206 274.293 477.158 274.047 476.246C273.81 475.335 273.459 474.569 272.994 473.949C272.529 473.329 271.96 472.86 271.285 472.541C270.62 472.222 269.863 472.062 269.016 472.062C268.195 472.062 267.452 472.222 266.787 472.541C266.131 472.86 265.566 473.329 265.092 473.949C264.627 474.569 264.267 475.335 264.012 476.246C263.757 477.158 263.629 478.206 263.629 479.391V480.676C263.629 481.87 263.757 482.927 264.012 483.848C264.267 484.759 264.632 485.529 265.105 486.158C265.589 486.778 266.158 487.247 266.814 487.566C267.48 487.885 268.223 488.045 269.043 488.045C269.9 488.045 270.661 487.885 271.326 487.566C271.992 487.247 272.552 486.778 273.008 486.158C273.473 485.529 273.824 484.759 274.061 483.848C274.298 482.927 274.416 481.87 274.416 480.676ZM289.646 486.582V475.207H292.189V490H289.77L289.646 486.582ZM290.125 483.465L291.178 483.438C291.178 484.422 291.073 485.333 290.863 486.172C290.663 487.001 290.335 487.721 289.879 488.332C289.423 488.943 288.826 489.421 288.088 489.768C287.35 490.105 286.452 490.273 285.395 490.273C284.674 490.273 284.014 490.169 283.412 489.959C282.82 489.749 282.309 489.426 281.881 488.988C281.452 488.551 281.12 487.981 280.883 487.279C280.655 486.577 280.541 485.734 280.541 484.75V475.207H283.07V484.777C283.07 485.443 283.143 485.994 283.289 486.432C283.444 486.86 283.649 487.202 283.904 487.457C284.169 487.703 284.46 487.876 284.779 487.977C285.107 488.077 285.445 488.127 285.791 488.127C286.867 488.127 287.719 487.922 288.348 487.512C288.977 487.092 289.428 486.532 289.701 485.83C289.984 485.119 290.125 484.331 290.125 483.465ZM302.238 475.207V477.148H294.24V475.207H302.238ZM296.947 471.611H299.477V486.336C299.477 486.837 299.554 487.215 299.709 487.471C299.864 487.726 300.064 487.895 300.311 487.977C300.557 488.059 300.821 488.1 301.104 488.1C301.313 488.1 301.532 488.081 301.76 488.045C301.997 487.999 302.174 487.963 302.293 487.936L302.307 490C302.106 490.064 301.842 490.123 301.514 490.178C301.195 490.242 300.807 490.273 300.352 490.273C299.732 490.273 299.162 490.15 298.643 489.904C298.123 489.658 297.708 489.248 297.398 488.674C297.098 488.09 296.947 487.307 296.947 486.322V471.611ZM307.734 478.051V495.688H305.191V475.207H307.516L307.734 478.051ZM317.701 482.48V482.768C317.701 483.843 317.574 484.841 317.318 485.762C317.063 486.673 316.689 487.466 316.197 488.141C315.714 488.815 315.117 489.339 314.406 489.713C313.695 490.087 312.88 490.273 311.959 490.273C311.02 490.273 310.191 490.118 309.471 489.809C308.751 489.499 308.14 489.048 307.639 488.455C307.137 487.863 306.736 487.152 306.436 486.322C306.144 485.493 305.943 484.559 305.834 483.52V481.988C305.943 480.895 306.148 479.915 306.449 479.049C306.75 478.183 307.146 477.445 307.639 476.834C308.14 476.214 308.746 475.745 309.457 475.426C310.168 475.098 310.988 474.934 311.918 474.934C312.848 474.934 313.673 475.116 314.393 475.48C315.113 475.836 315.719 476.346 316.211 477.012C316.703 477.677 317.072 478.475 317.318 479.404C317.574 480.325 317.701 481.35 317.701 482.48ZM315.158 482.768V482.48C315.158 481.742 315.081 481.049 314.926 480.402C314.771 479.746 314.529 479.172 314.201 478.68C313.882 478.178 313.472 477.786 312.971 477.504C312.469 477.212 311.872 477.066 311.18 477.066C310.542 477.066 309.986 477.176 309.512 477.395C309.047 477.613 308.65 477.91 308.322 478.283C307.994 478.648 307.725 479.067 307.516 479.541C307.315 480.006 307.165 480.489 307.064 480.99V484.531C307.247 485.169 307.502 485.771 307.83 486.336C308.158 486.892 308.596 487.343 309.143 487.689C309.689 488.027 310.378 488.195 311.207 488.195C311.891 488.195 312.479 488.054 312.971 487.771C313.472 487.48 313.882 487.083 314.201 486.582C314.529 486.081 314.771 485.507 314.926 484.859C315.081 484.203 315.158 483.506 315.158 482.768ZM329.979 486.582V475.207H332.521V490H330.102L329.979 486.582ZM330.457 483.465L331.51 483.438C331.51 484.422 331.405 485.333 331.195 486.172C330.995 487.001 330.667 487.721 330.211 488.332C329.755 488.943 329.158 489.421 328.42 489.768C327.682 490.105 326.784 490.273 325.727 490.273C325.007 490.273 324.346 490.169 323.744 489.959C323.152 489.749 322.641 489.426 322.213 488.988C321.785 488.551 321.452 487.981 321.215 487.279C320.987 486.577 320.873 485.734 320.873 484.75V475.207H323.402V484.777C323.402 485.443 323.475 485.994 323.621 486.432C323.776 486.86 323.981 487.202 324.236 487.457C324.501 487.703 324.792 487.876 325.111 487.977C325.439 488.077 325.777 488.127 326.123 488.127C327.199 488.127 328.051 487.922 328.68 487.512C329.309 487.092 329.76 486.532 330.033 485.83C330.316 485.119 330.457 484.331 330.457 483.465ZM342.57 475.207V477.148H334.572V475.207H342.57ZM337.279 471.611H339.809V486.336C339.809 486.837 339.886 487.215 340.041 487.471C340.196 487.726 340.396 487.895 340.643 487.977C340.889 488.059 341.153 488.1 341.436 488.1C341.645 488.1 341.864 488.081 342.092 488.045C342.329 487.999 342.507 487.963 342.625 487.936L342.639 490C342.438 490.064 342.174 490.123 341.846 490.178C341.527 490.242 341.139 490.273 340.684 490.273C340.064 490.273 339.494 490.15 338.975 489.904C338.455 489.658 338.04 489.248 337.73 488.674C337.43 488.09 337.279 487.307 337.279 486.322V471.611ZM282.127 520.854V523H272.174V520.854H282.127ZM272.693 503.094V523H270.055V503.094H272.693ZM293.488 520.471V512.855C293.488 512.272 293.37 511.766 293.133 511.338C292.905 510.9 292.559 510.563 292.094 510.326C291.629 510.089 291.055 509.971 290.371 509.971C289.733 509.971 289.173 510.08 288.689 510.299C288.215 510.518 287.842 510.805 287.568 511.16C287.304 511.516 287.172 511.898 287.172 512.309H284.643C284.643 511.78 284.779 511.256 285.053 510.736C285.326 510.217 285.718 509.747 286.229 509.328C286.748 508.9 287.368 508.562 288.088 508.316C288.817 508.061 289.628 507.934 290.521 507.934C291.597 507.934 292.545 508.116 293.365 508.48C294.195 508.845 294.842 509.396 295.307 510.135C295.781 510.864 296.018 511.78 296.018 512.883V519.773C296.018 520.266 296.059 520.79 296.141 521.346C296.232 521.902 296.364 522.38 296.537 522.781V523H293.898C293.771 522.708 293.671 522.321 293.598 521.838C293.525 521.346 293.488 520.89 293.488 520.471ZM293.926 514.031L293.953 515.809H291.396C290.676 515.809 290.034 515.868 289.469 515.986C288.904 516.096 288.43 516.264 288.047 516.492C287.664 516.72 287.372 517.007 287.172 517.354C286.971 517.691 286.871 518.087 286.871 518.543C286.871 519.008 286.976 519.432 287.186 519.814C287.395 520.197 287.71 520.503 288.129 520.73C288.557 520.949 289.081 521.059 289.701 521.059C290.476 521.059 291.16 520.895 291.752 520.566C292.344 520.238 292.814 519.837 293.16 519.363C293.516 518.889 293.707 518.429 293.734 517.982L294.814 519.199C294.751 519.582 294.577 520.006 294.295 520.471C294.012 520.936 293.634 521.382 293.16 521.811C292.695 522.23 292.139 522.581 291.492 522.863C290.854 523.137 290.134 523.273 289.332 523.273C288.329 523.273 287.45 523.077 286.693 522.686C285.946 522.294 285.363 521.77 284.943 521.113C284.533 520.448 284.328 519.705 284.328 518.885C284.328 518.092 284.483 517.395 284.793 516.793C285.103 516.182 285.549 515.676 286.133 515.275C286.716 514.865 287.418 514.555 288.238 514.346C289.059 514.136 289.975 514.031 290.986 514.031H293.926ZM303.934 521.469L308.049 508.207H310.756L304.822 525.283C304.686 525.648 304.503 526.04 304.275 526.459C304.057 526.887 303.774 527.293 303.428 527.676C303.081 528.059 302.662 528.368 302.17 528.605C301.687 528.852 301.108 528.975 300.434 528.975C300.233 528.975 299.978 528.947 299.668 528.893C299.358 528.838 299.139 528.792 299.012 528.756L298.998 526.705C299.071 526.714 299.185 526.723 299.34 526.732C299.504 526.751 299.618 526.76 299.682 526.76C300.256 526.76 300.743 526.682 301.145 526.527C301.546 526.382 301.883 526.131 302.156 525.775C302.439 525.429 302.68 524.951 302.881 524.34L303.934 521.469ZM300.912 508.207L304.754 519.691L305.41 522.357L303.592 523.287L298.15 508.207H300.912ZM318.986 523.273C317.956 523.273 317.022 523.1 316.184 522.754C315.354 522.398 314.639 521.902 314.037 521.264C313.445 520.626 312.989 519.869 312.67 518.994C312.351 518.119 312.191 517.162 312.191 516.123V515.549C312.191 514.346 312.369 513.275 312.725 512.336C313.08 511.388 313.563 510.586 314.174 509.93C314.785 509.273 315.477 508.777 316.252 508.439C317.027 508.102 317.829 507.934 318.658 507.934C319.715 507.934 320.627 508.116 321.393 508.48C322.167 508.845 322.801 509.355 323.293 510.012C323.785 510.659 324.15 511.424 324.387 512.309C324.624 513.184 324.742 514.141 324.742 515.18V516.314H313.695V514.25H322.213V514.059C322.176 513.402 322.04 512.764 321.803 512.145C321.575 511.525 321.21 511.014 320.709 510.613C320.208 510.212 319.524 510.012 318.658 510.012C318.084 510.012 317.555 510.135 317.072 510.381C316.589 510.618 316.174 510.973 315.828 511.447C315.482 511.921 315.213 512.5 315.021 513.184C314.83 513.867 314.734 514.656 314.734 515.549V516.123C314.734 516.825 314.83 517.486 315.021 518.105C315.222 518.716 315.509 519.254 315.883 519.719C316.266 520.184 316.726 520.548 317.264 520.812C317.811 521.077 318.43 521.209 319.123 521.209C320.016 521.209 320.773 521.027 321.393 520.662C322.012 520.298 322.555 519.81 323.02 519.199L324.551 520.416C324.232 520.899 323.826 521.359 323.334 521.797C322.842 522.234 322.236 522.59 321.516 522.863C320.805 523.137 319.962 523.273 318.986 523.273ZM330.225 510.531V523H327.695V508.207H330.156L330.225 510.531ZM334.846 508.125L334.832 510.477C334.622 510.431 334.422 510.404 334.23 510.395C334.048 510.376 333.839 510.367 333.602 510.367C333.018 510.367 332.503 510.458 332.057 510.641C331.61 510.823 331.232 511.078 330.922 511.406C330.612 511.734 330.366 512.126 330.184 512.582C330.01 513.029 329.896 513.521 329.842 514.059L329.131 514.469C329.131 513.576 329.217 512.737 329.391 511.953C329.573 511.169 329.851 510.477 330.225 509.875C330.598 509.264 331.072 508.79 331.646 508.453C332.23 508.107 332.923 507.934 333.725 507.934C333.907 507.934 334.117 507.956 334.354 508.002C334.59 508.038 334.755 508.079 334.846 508.125Z" fill="black"/>
</svg>
