<svg width="2672" height="3037" viewBox="0 0 2672 3037" fill="none" xmlns="http://www.w3.org/2000/svg">
<path d="M2404 1313L2405 968" stroke="black" stroke-width="8"/>
<circle cx="2403.5" cy="1312.5" r="50.5" fill="#48BFE3" stroke="#F57A97" stroke-width="10"/>
<path d="M2383.5 1328.4C2381.36 1328.4 2379.54 1327.82 2378.03 1326.65C2376.53 1325.48 2375.38 1323.78 2374.58 1321.55C2373.78 1319.32 2373.39 1316.62 2373.39 1313.45C2373.39 1310.31 2373.78 1307.63 2374.58 1305.4C2375.38 1303.17 2376.54 1301.46 2378.05 1300.29C2379.56 1299.1 2381.38 1298.51 2383.5 1298.51C2385.62 1298.51 2387.43 1299.1 2388.94 1300.29C2390.46 1301.46 2391.61 1303.17 2392.41 1305.4C2393.21 1307.63 2393.61 1310.31 2393.61 1313.45C2393.61 1316.62 2393.22 1319.32 2392.42 1321.55C2391.62 1323.78 2390.47 1325.48 2388.97 1326.65C2387.46 1327.82 2385.64 1328.4 2383.5 1328.4ZM2383.5 1325.27C2385.62 1325.27 2387.27 1324.25 2388.44 1322.2C2389.62 1320.16 2390.2 1317.24 2390.2 1313.45C2390.2 1310.94 2389.93 1308.79 2389.39 1307.02C2388.86 1305.25 2388.1 1303.9 2387.09 1302.97C2386.1 1302.04 2384.9 1301.58 2383.5 1301.58C2381.4 1301.58 2379.75 1302.62 2378.57 1304.69C2377.39 1306.75 2376.8 1309.68 2376.8 1313.45C2376.8 1315.97 2377.06 1318.11 2377.59 1319.88C2378.12 1321.64 2378.88 1322.98 2379.88 1323.89C2380.88 1324.81 2382.09 1325.27 2383.5 1325.27ZM2409.35 1297.55L2399.98 1332.38H2396.91L2406.28 1297.55H2409.35ZM2422.76 1328.4C2420.62 1328.4 2418.79 1327.82 2417.29 1326.65C2415.78 1325.48 2414.63 1323.78 2413.84 1321.55C2413.04 1319.32 2412.64 1316.62 2412.64 1313.45C2412.64 1310.31 2413.04 1307.63 2413.84 1305.4C2414.64 1303.17 2415.8 1301.46 2417.3 1300.29C2418.82 1299.1 2420.64 1298.51 2422.76 1298.51C2424.88 1298.51 2426.69 1299.1 2428.2 1300.29C2429.71 1301.46 2430.87 1303.17 2431.66 1305.4C2432.47 1307.63 2432.87 1310.31 2432.87 1313.45C2432.87 1316.62 2432.47 1319.32 2431.68 1321.55C2430.88 1323.78 2429.73 1325.48 2428.23 1326.65C2426.72 1327.82 2424.9 1328.4 2422.76 1328.4ZM2422.76 1325.27C2424.88 1325.27 2426.53 1324.25 2427.7 1322.2C2428.88 1320.16 2429.46 1317.24 2429.46 1313.45C2429.46 1310.94 2429.19 1308.79 2428.65 1307.02C2428.12 1305.25 2427.36 1303.9 2426.35 1302.97C2425.36 1302.04 2424.16 1301.58 2422.76 1301.58C2420.66 1301.58 2419.01 1302.62 2417.83 1304.69C2416.65 1306.75 2416.05 1309.68 2416.05 1313.45C2416.05 1315.97 2416.32 1318.11 2416.85 1319.88C2417.38 1321.64 2418.14 1322.98 2419.14 1323.89C2420.14 1324.81 2421.35 1325.27 2422.76 1325.27Z" fill="white"/>
<path d="M337 630L230 974" stroke="black" stroke-width="8"/>
<path d="M337 630L438 974" stroke="black" stroke-width="8"/>
<circle cx="234.5" cy="973.5" r="55.5" fill="#5E60CE"/>
<circle cx="437.5" cy="973.5" r="55.5" fill="#5E60CE"/>
<path d="M726 975L941 630" stroke="black" stroke-width="8"/>
<path d="M940 975L941 630" stroke="black" stroke-width="8"/>
<path d="M637 286L336 630" stroke="black" stroke-width="8"/>
<path d="M637 286L940 630" stroke="black" stroke-width="8"/>
<path d="M1153 975L941 630" stroke="black" stroke-width="8"/>
<circle cx="636.5" cy="286.5" r="55.5" fill="#5E60CE"/>
<circle cx="726.5" cy="974.5" r="55.5" fill="#5E60CE"/>
<circle cx="939.5" cy="974.5" r="50.5" fill="#5E60CE" stroke="#F57A97" stroke-width="10"/>
<circle cx="1152.5" cy="974.5" r="55.5" fill="#5E60CE"/>
<circle cx="336.5" cy="630.5" r="55.5" fill="#48BFE3"/>
<circle cx="939.5" cy="630.5" r="55.5" fill="#48BFE3"/>
<path d="M607.33 295.034V292.136L620.114 271.909H622.216V276.398H620.795L611.136 291.682V291.909H628.352V295.034H607.33ZM621.023 301V294.153V292.804V271.909H624.375V301H621.023ZM644.016 270.545L634.641 305.375H631.573L640.948 270.545H644.016ZM648.842 301L661.854 275.261V275.034H646.854V271.909H665.49V275.205L652.536 301H648.842Z" fill="white"/>
<path d="M307.011 645V642.443L316.614 631.932C317.741 630.701 318.669 629.631 319.398 628.722C320.127 627.803 320.667 626.941 321.017 626.136C321.377 625.322 321.557 624.47 321.557 623.58C321.557 622.557 321.311 621.671 320.818 620.923C320.335 620.175 319.672 619.598 318.83 619.19C317.987 618.783 317.04 618.58 315.989 618.58C314.871 618.58 313.896 618.812 313.062 619.276C312.239 619.73 311.599 620.369 311.145 621.193C310.7 622.017 310.477 622.983 310.477 624.091H307.125C307.125 622.386 307.518 620.89 308.304 619.602C309.09 618.314 310.16 617.311 311.514 616.591C312.878 615.871 314.407 615.511 316.102 615.511C317.807 615.511 319.317 615.871 320.634 616.591C321.95 617.311 322.982 618.281 323.73 619.503C324.478 620.724 324.852 622.083 324.852 623.58C324.852 624.65 324.658 625.696 324.27 626.719C323.891 627.732 323.228 628.864 322.281 630.114C321.344 631.354 320.042 632.869 318.375 634.659L311.841 641.648V641.875H325.364V645H307.011ZM341.571 614.545L332.196 649.375H329.128L338.503 614.545H341.571ZM355.317 645.398C353.442 645.398 351.771 645.076 350.303 644.432C348.845 643.788 347.685 642.893 346.823 641.747C345.971 640.592 345.507 639.252 345.431 637.727H349.011C349.086 638.665 349.408 639.474 349.977 640.156C350.545 640.829 351.288 641.349 352.207 641.719C353.125 642.088 354.143 642.273 355.261 642.273C356.511 642.273 357.619 642.055 358.585 641.619C359.55 641.184 360.308 640.578 360.857 639.801C361.406 639.025 361.681 638.125 361.681 637.102C361.681 636.032 361.416 635.09 360.886 634.276C360.355 633.452 359.579 632.808 358.556 632.344C357.533 631.88 356.283 631.648 354.806 631.648H352.477V628.523H354.806C355.961 628.523 356.975 628.314 357.846 627.898C358.727 627.481 359.413 626.894 359.906 626.136C360.407 625.379 360.658 624.489 360.658 623.466C360.658 622.481 360.441 621.624 360.005 620.895C359.569 620.166 358.954 619.598 358.158 619.19C357.372 618.783 356.444 618.58 355.374 618.58C354.371 618.58 353.424 618.764 352.533 619.134C351.653 619.493 350.933 620.019 350.374 620.71C349.816 621.392 349.513 622.216 349.465 623.182H346.056C346.113 621.657 346.572 620.322 347.434 619.176C348.296 618.021 349.423 617.121 350.815 616.477C352.216 615.833 353.755 615.511 355.431 615.511C357.23 615.511 358.774 615.876 360.062 616.605C361.35 617.325 362.339 618.277 363.031 619.46C363.722 620.644 364.067 621.922 364.067 623.295C364.067 624.934 363.637 626.33 362.775 627.486C361.923 628.641 360.763 629.441 359.295 629.886V630.114C361.132 630.417 362.567 631.198 363.599 632.457C364.631 633.707 365.147 635.256 365.147 637.102C365.147 638.684 364.716 640.104 363.854 641.364C363.002 642.614 361.837 643.598 360.36 644.318C358.883 645.038 357.202 645.398 355.317 645.398Z" fill="white"/>
<path d="M923.239 615.909V645H919.716V619.602H919.545L912.443 624.318V620.739L919.716 615.909H923.239ZM941.946 614.545L932.571 649.375H929.503L938.878 614.545H941.946ZM945.181 639.034V636.136L957.965 615.909H960.067V620.398H958.647L948.988 635.682V635.909H966.204V639.034H945.181ZM958.874 645V638.153V636.804V615.909H962.227V645H958.874Z" fill="white"/>
<path d="M421.5 989.398C419.36 989.398 417.537 988.815 416.031 987.651C414.526 986.476 413.375 984.777 412.58 982.551C411.784 980.316 411.386 977.617 411.386 974.455C411.386 971.311 411.784 968.626 412.58 966.401C413.384 964.166 414.54 962.461 416.045 961.287C417.561 960.103 419.379 959.511 421.5 959.511C423.621 959.511 425.435 960.103 426.94 961.287C428.455 962.461 429.611 964.166 430.406 966.401C431.211 968.626 431.614 971.311 431.614 974.455C431.614 977.617 431.216 980.316 430.42 982.551C429.625 984.777 428.474 986.476 426.969 987.651C425.463 988.815 423.64 989.398 421.5 989.398ZM421.5 986.273C423.621 986.273 425.269 985.25 426.443 983.205C427.617 981.159 428.205 978.242 428.205 974.455C428.205 971.936 427.935 969.791 427.395 968.02C426.865 966.249 426.098 964.9 425.094 963.972C424.099 963.044 422.902 962.58 421.5 962.58C419.398 962.58 417.755 963.616 416.571 965.69C415.387 967.755 414.795 970.676 414.795 974.455C414.795 976.973 415.061 979.114 415.591 980.875C416.121 982.636 416.884 983.976 417.878 984.895C418.882 985.813 420.089 986.273 421.5 986.273ZM447.352 958.545L437.977 993.375H434.909L444.284 958.545H447.352ZM461.496 959.909V989H457.974V963.602H457.803L450.701 968.318V964.739L457.974 959.909H461.496Z" fill="white"/>
<path d="M421.5 989.398C419.36 989.398 417.537 988.815 416.031 987.651C414.526 986.476 413.375 984.777 412.58 982.551C411.784 980.316 411.386 977.617 411.386 974.455C411.386 971.311 411.784 968.626 412.58 966.401C413.384 964.166 414.54 962.461 416.045 961.287C417.561 960.103 419.379 959.511 421.5 959.511C423.621 959.511 425.435 960.103 426.94 961.287C428.455 962.461 429.611 964.166 430.406 966.401C431.211 968.626 431.614 971.311 431.614 974.455C431.614 977.617 431.216 980.316 430.42 982.551C429.625 984.777 428.474 986.476 426.969 987.651C425.463 988.815 423.64 989.398 421.5 989.398ZM421.5 986.273C423.621 986.273 425.269 985.25 426.443 983.205C427.617 981.159 428.205 978.242 428.205 974.455C428.205 971.936 427.935 969.791 427.395 968.02C426.865 966.249 426.098 964.9 425.094 963.972C424.099 963.044 422.902 962.58 421.5 962.58C419.398 962.58 417.755 963.616 416.571 965.69C415.387 967.755 414.795 970.676 414.795 974.455C414.795 976.973 415.061 979.114 415.591 980.875C416.121 982.636 416.884 983.976 417.878 984.895C418.882 985.813 420.089 986.273 421.5 986.273ZM447.352 958.545L437.977 993.375H434.909L444.284 958.545H447.352ZM461.496 959.909V989H457.974V963.602H457.803L450.701 968.318V964.739L457.974 959.909H461.496Z" fill="white"/>
<path d="M221.239 959.909V989H217.716V963.602H217.545L210.443 968.318V964.739L217.716 959.909H221.239ZM239.946 958.545L230.571 993.375H227.503L236.878 958.545H239.946ZM254.09 959.909V989H250.567V963.602H250.397L243.295 968.318V964.739L250.567 959.909H254.09Z" fill="white"/>
<path d="M713.239 959.909V989H709.716V963.602H709.545L702.443 968.318V964.739L709.716 959.909H713.239ZM731.946 958.545L722.571 993.375H719.503L728.878 958.545H731.946ZM746.09 959.909V989H742.567V963.602H742.397L735.295 968.318V964.739L742.567 959.909H746.09Z" fill="white"/>
<path d="M923.5 989.398C921.36 989.398 919.537 988.815 918.031 987.651C916.526 986.476 915.375 984.777 914.58 982.551C913.784 980.316 913.386 977.617 913.386 974.455C913.386 971.311 913.784 968.626 914.58 966.401C915.384 964.166 916.54 962.461 918.045 961.287C919.561 960.103 921.379 959.511 923.5 959.511C925.621 959.511 927.435 960.103 928.94 961.287C930.455 962.461 931.611 964.166 932.406 966.401C933.211 968.626 933.614 971.311 933.614 974.455C933.614 977.617 933.216 980.316 932.42 982.551C931.625 984.777 930.474 986.476 928.969 987.651C927.463 988.815 925.64 989.398 923.5 989.398ZM923.5 986.273C925.621 986.273 927.269 985.25 928.443 983.205C929.617 981.159 930.205 978.242 930.205 974.455C930.205 971.936 929.935 969.791 929.395 968.02C928.865 966.249 928.098 964.9 927.094 963.972C926.099 963.044 924.902 962.58 923.5 962.58C921.398 962.58 919.755 963.616 918.571 965.69C917.387 967.755 916.795 970.676 916.795 974.455C916.795 976.973 917.061 979.114 917.591 980.875C918.121 982.636 918.884 983.976 919.878 984.895C920.882 985.813 922.089 986.273 923.5 986.273ZM949.352 958.545L939.977 993.375H936.909L946.284 958.545H949.352ZM963.496 959.909V989H959.974V963.602H959.803L952.701 968.318V964.739L959.974 959.909H963.496Z" fill="white"/>
<path d="M1140.24 959.909V989H1136.72V963.602H1136.55L1129.44 968.318V964.739L1136.72 959.909H1140.24ZM1158.95 958.545L1149.57 993.375H1146.5L1155.88 958.545H1158.95ZM1173.09 959.909V989H1169.57V963.602H1169.4L1162.29 968.318V964.739L1169.57 959.909H1173.09Z" fill="white"/>
<path d="M1801 635L1694 979" stroke="black" stroke-width="8"/>
<path d="M1801 635L1902 979" stroke="black" stroke-width="8"/>
<circle cx="1698.5" cy="978.5" r="55.5" fill="#5E60CE"/>
<circle cx="1901.5" cy="978.5" r="55.5" fill="#5E60CE"/>
<path d="M2190 980L2405 635" stroke="black" stroke-width="8"/>
<path d="M2404 980L2405 635" stroke="black" stroke-width="8"/>
<path d="M2101 291L1800 635" stroke="black" stroke-width="8"/>
<path d="M2101 291L2404 635" stroke="black" stroke-width="8"/>
<path d="M2617 980L2405 635" stroke="black" stroke-width="8"/>
<circle cx="2100.5" cy="291.5" r="55.5" fill="#5E60CE"/>
<circle cx="2190.5" cy="979.5" r="55.5" fill="#5E60CE"/>
<circle cx="2403.5" cy="979.5" r="55" fill="#5E60CE" stroke="black"/>
<circle cx="2616.5" cy="979.5" r="55.5" fill="#5E60CE"/>
<circle cx="1800.5" cy="635.5" r="55.5" fill="#48BFE3"/>
<circle cx="2403.5" cy="635.5" r="55.5" fill="#48BFE3"/>
<path d="M2071.33 300.034V297.136L2084.11 276.909H2086.22V281.398H2084.8L2075.14 296.682V296.909H2092.35V300.034H2071.33ZM2085.02 306V299.153V297.804V276.909H2088.38V306H2085.02ZM2108.02 275.545L2098.64 310.375H2095.57L2104.95 275.545H2108.02ZM2112.84 306L2125.85 280.261V280.034H2110.85V276.909H2129.49V280.205L2116.54 306H2112.84Z" fill="white"/>
<path d="M1771.01 650V647.443L1780.61 636.932C1781.74 635.701 1782.67 634.631 1783.4 633.722C1784.13 632.803 1784.67 631.941 1785.02 631.136C1785.38 630.322 1785.56 629.47 1785.56 628.58C1785.56 627.557 1785.31 626.671 1784.82 625.923C1784.34 625.175 1783.67 624.598 1782.83 624.19C1781.99 623.783 1781.04 623.58 1779.99 623.58C1778.87 623.58 1777.9 623.812 1777.06 624.276C1776.24 624.73 1775.6 625.369 1775.14 626.193C1774.7 627.017 1774.48 627.983 1774.48 629.091H1771.12C1771.12 627.386 1771.52 625.89 1772.3 624.602C1773.09 623.314 1774.16 622.311 1775.51 621.591C1776.88 620.871 1778.41 620.511 1780.1 620.511C1781.81 620.511 1783.32 620.871 1784.63 621.591C1785.95 622.311 1786.98 623.281 1787.73 624.503C1788.48 625.724 1788.85 627.083 1788.85 628.58C1788.85 629.65 1788.66 630.696 1788.27 631.719C1787.89 632.732 1787.23 633.864 1786.28 635.114C1785.34 636.354 1784.04 637.869 1782.38 639.659L1775.84 646.648V646.875H1789.36V650H1771.01ZM1805.57 619.545L1796.2 654.375H1793.13L1802.5 619.545H1805.57ZM1819.32 650.398C1817.44 650.398 1815.77 650.076 1814.3 649.432C1812.84 648.788 1811.68 647.893 1810.82 646.747C1809.97 645.592 1809.51 644.252 1809.43 642.727H1813.01C1813.09 643.665 1813.41 644.474 1813.98 645.156C1814.54 645.829 1815.29 646.349 1816.21 646.719C1817.13 647.088 1818.14 647.273 1819.26 647.273C1820.51 647.273 1821.62 647.055 1822.58 646.619C1823.55 646.184 1824.31 645.578 1824.86 644.801C1825.41 644.025 1825.68 643.125 1825.68 642.102C1825.68 641.032 1825.42 640.09 1824.89 639.276C1824.36 638.452 1823.58 637.808 1822.56 637.344C1821.53 636.88 1820.28 636.648 1818.81 636.648H1816.48V633.523H1818.81C1819.96 633.523 1820.97 633.314 1821.85 632.898C1822.73 632.481 1823.41 631.894 1823.91 631.136C1824.41 630.379 1824.66 629.489 1824.66 628.466C1824.66 627.481 1824.44 626.624 1824 625.895C1823.57 625.166 1822.95 624.598 1822.16 624.19C1821.37 623.783 1820.44 623.58 1819.37 623.58C1818.37 623.58 1817.42 623.764 1816.53 624.134C1815.65 624.493 1814.93 625.019 1814.37 625.71C1813.82 626.392 1813.51 627.216 1813.47 628.182H1810.06C1810.11 626.657 1810.57 625.322 1811.43 624.176C1812.3 623.021 1813.42 622.121 1814.81 621.477C1816.22 620.833 1817.75 620.511 1819.43 620.511C1821.23 620.511 1822.77 620.876 1824.06 621.605C1825.35 622.325 1826.34 623.277 1827.03 624.46C1827.72 625.644 1828.07 626.922 1828.07 628.295C1828.07 629.934 1827.64 631.33 1826.77 632.486C1825.92 633.641 1824.76 634.441 1823.29 634.886V635.114C1825.13 635.417 1826.57 636.198 1827.6 637.457C1828.63 638.707 1829.15 640.256 1829.15 642.102C1829.15 643.684 1828.72 645.104 1827.85 646.364C1827 647.614 1825.84 648.598 1824.36 649.318C1822.88 650.038 1821.2 650.398 1819.32 650.398Z" fill="white"/>
<path d="M2387.24 620.909V650H2383.72V624.602H2383.55L2376.44 629.318V625.739L2383.72 620.909H2387.24ZM2405.95 619.545L2396.57 654.375H2393.5L2402.88 619.545H2405.95ZM2409.18 644.034V641.136L2421.97 620.909H2424.07V625.398H2422.65L2412.99 640.682V640.909H2430.2V644.034H2409.18ZM2422.87 650V643.153V641.804V620.909H2426.23V650H2422.87Z" fill="white"/>
<path d="M1885.5 994.398C1883.36 994.398 1881.54 993.815 1880.03 992.651C1878.53 991.476 1877.38 989.777 1876.58 987.551C1875.78 985.316 1875.39 982.617 1875.39 979.455C1875.39 976.311 1875.78 973.626 1876.58 971.401C1877.38 969.166 1878.54 967.461 1880.05 966.287C1881.56 965.103 1883.38 964.511 1885.5 964.511C1887.62 964.511 1889.43 965.103 1890.94 966.287C1892.46 967.461 1893.61 969.166 1894.41 971.401C1895.21 973.626 1895.61 976.311 1895.61 979.455C1895.61 982.617 1895.22 985.316 1894.42 987.551C1893.62 989.777 1892.47 991.476 1890.97 992.651C1889.46 993.815 1887.64 994.398 1885.5 994.398ZM1885.5 991.273C1887.62 991.273 1889.27 990.25 1890.44 988.205C1891.62 986.159 1892.2 983.242 1892.2 979.455C1892.2 976.936 1891.93 974.791 1891.39 973.02C1890.86 971.249 1890.1 969.9 1889.09 968.972C1888.1 968.044 1886.9 967.58 1885.5 967.58C1883.4 967.58 1881.75 968.616 1880.57 970.69C1879.39 972.755 1878.8 975.676 1878.8 979.455C1878.8 981.973 1879.06 984.114 1879.59 985.875C1880.12 987.636 1880.88 988.976 1881.88 989.895C1882.88 990.813 1884.09 991.273 1885.5 991.273ZM1911.35 963.545L1901.98 998.375H1898.91L1908.28 963.545H1911.35ZM1925.5 964.909V994H1921.97V968.602H1921.8L1914.7 973.318V969.739L1921.97 964.909H1925.5Z" fill="white"/>
<path d="M1885.5 994.398C1883.36 994.398 1881.54 993.815 1880.03 992.651C1878.53 991.476 1877.38 989.777 1876.58 987.551C1875.78 985.316 1875.39 982.617 1875.39 979.455C1875.39 976.311 1875.78 973.626 1876.58 971.401C1877.38 969.166 1878.54 967.461 1880.05 966.287C1881.56 965.103 1883.38 964.511 1885.5 964.511C1887.62 964.511 1889.43 965.103 1890.94 966.287C1892.46 967.461 1893.61 969.166 1894.41 971.401C1895.21 973.626 1895.61 976.311 1895.61 979.455C1895.61 982.617 1895.22 985.316 1894.42 987.551C1893.62 989.777 1892.47 991.476 1890.97 992.651C1889.46 993.815 1887.64 994.398 1885.5 994.398ZM1885.5 991.273C1887.62 991.273 1889.27 990.25 1890.44 988.205C1891.62 986.159 1892.2 983.242 1892.2 979.455C1892.2 976.936 1891.93 974.791 1891.39 973.02C1890.86 971.249 1890.1 969.9 1889.09 968.972C1888.1 968.044 1886.9 967.58 1885.5 967.58C1883.4 967.58 1881.75 968.616 1880.57 970.69C1879.39 972.755 1878.8 975.676 1878.8 979.455C1878.8 981.973 1879.06 984.114 1879.59 985.875C1880.12 987.636 1880.88 988.976 1881.88 989.895C1882.88 990.813 1884.09 991.273 1885.5 991.273ZM1911.35 963.545L1901.98 998.375H1898.91L1908.28 963.545H1911.35ZM1925.5 964.909V994H1921.97V968.602H1921.8L1914.7 973.318V969.739L1921.97 964.909H1925.5Z" fill="white"/>
<path d="M1685.24 964.909V994H1681.72V968.602H1681.55L1674.44 973.318V969.739L1681.72 964.909H1685.24ZM1703.95 963.545L1694.57 998.375H1691.5L1700.88 963.545H1703.95ZM1718.09 964.909V994H1714.57V968.602H1714.4L1707.29 973.318V969.739L1714.57 964.909H1718.09Z" fill="white"/>
<path d="M2177.24 964.909V994H2173.72V968.602H2173.55L2166.44 973.318V969.739L2173.72 964.909H2177.24ZM2195.95 963.545L2186.57 998.375H2183.5L2192.88 963.545H2195.95ZM2210.09 964.909V994H2206.57V968.602H2206.4L2199.29 973.318V969.739L2206.57 964.909H2210.09Z" fill="white"/>
<path d="M2387.5 994.398C2385.36 994.398 2383.54 993.815 2382.03 992.651C2380.53 991.476 2379.38 989.777 2378.58 987.551C2377.78 985.316 2377.39 982.617 2377.39 979.455C2377.39 976.311 2377.78 973.626 2378.58 971.401C2379.38 969.166 2380.54 967.461 2382.05 966.287C2383.56 965.103 2385.38 964.511 2387.5 964.511C2389.62 964.511 2391.43 965.103 2392.94 966.287C2394.46 967.461 2395.61 969.166 2396.41 971.401C2397.21 973.626 2397.61 976.311 2397.61 979.455C2397.61 982.617 2397.22 985.316 2396.42 987.551C2395.62 989.777 2394.47 991.476 2392.97 992.651C2391.46 993.815 2389.64 994.398 2387.5 994.398ZM2387.5 991.273C2389.62 991.273 2391.27 990.25 2392.44 988.205C2393.62 986.159 2394.2 983.242 2394.2 979.455C2394.2 976.936 2393.93 974.791 2393.39 973.02C2392.86 971.249 2392.1 969.9 2391.09 968.972C2390.1 968.044 2388.9 967.58 2387.5 967.58C2385.4 967.58 2383.75 968.616 2382.57 970.69C2381.39 972.755 2380.8 975.676 2380.8 979.455C2380.8 981.973 2381.06 984.114 2381.59 985.875C2382.12 987.636 2382.88 988.976 2383.88 989.895C2384.88 990.813 2386.09 991.273 2387.5 991.273ZM2413.35 963.545L2403.98 998.375H2400.91L2410.28 963.545H2413.35ZM2427.5 964.909V994H2423.97V968.602H2423.8L2416.7 973.318V969.739L2423.97 964.909H2427.5Z" fill="white"/>
<path d="M2604.24 964.909V994H2600.72V968.602H2600.55L2593.44 973.318V969.739L2600.72 964.909H2604.24ZM2622.95 963.545L2613.57 998.375H2610.5L2619.88 963.545H2622.95ZM2637.09 964.909V994H2633.57V968.602H2633.4L2626.29 973.318V969.739L2633.57 964.909H2637.09Z" fill="white"/>
<path d="M939 2667L940 2322" stroke="black" stroke-width="8"/>
<path d="M940 2953L916.766 2913.08L962.954 2912.92L940 2953ZM935.917 2929.18L935.861 2913.29L943.861 2913.26L943.917 2929.15L935.917 2929.18ZM935.806 2897.4L935.75 2881.51L943.75 2881.49L943.806 2897.37L935.806 2897.4ZM935.694 2865.63L935.639 2849.74L943.639 2849.71L943.694 2865.6L935.694 2865.63ZM935.583 2833.85L935.528 2817.96L943.528 2817.93L943.583 2833.82L935.583 2833.85ZM935.472 2802.07L935.417 2786.18L943.417 2786.15L943.472 2802.04L935.472 2802.07ZM935.361 2770.29L935.306 2754.4L943.306 2754.37L943.361 2770.26L935.361 2770.29ZM935.25 2738.51L935.194 2722.63L943.194 2722.6L943.25 2738.49L935.25 2738.51ZM935.139 2706.74L935.083 2690.85L943.083 2690.82L943.139 2706.71L935.139 2706.74ZM935.028 2674.96L935 2667.01L943 2666.99L943.028 2674.93L935.028 2674.96Z" fill="black"/>
<circle cx="938.5" cy="2666.5" r="50.5" fill="#48BFE3" stroke="#F57A97" stroke-width="10"/>
<path d="M918.5 2682.4C916.36 2682.4 914.537 2681.82 913.031 2680.65C911.526 2679.48 910.375 2677.78 909.58 2675.55C908.784 2673.32 908.386 2670.62 908.386 2667.45C908.386 2664.31 908.784 2661.63 909.58 2659.4C910.384 2657.17 911.54 2655.46 913.045 2654.29C914.561 2653.1 916.379 2652.51 918.5 2652.51C920.621 2652.51 922.435 2653.1 923.94 2654.29C925.455 2655.46 926.611 2657.17 927.406 2659.4C928.211 2661.63 928.614 2664.31 928.614 2667.45C928.614 2670.62 928.216 2673.32 927.42 2675.55C926.625 2677.78 925.474 2679.48 923.969 2680.65C922.463 2681.82 920.64 2682.4 918.5 2682.4ZM918.5 2679.27C920.621 2679.27 922.269 2678.25 923.443 2676.2C924.617 2674.16 925.205 2671.24 925.205 2667.45C925.205 2664.94 924.935 2662.79 924.395 2661.02C923.865 2659.25 923.098 2657.9 922.094 2656.97C921.099 2656.04 919.902 2655.58 918.5 2655.58C916.398 2655.58 914.755 2656.62 913.571 2658.69C912.387 2660.75 911.795 2663.68 911.795 2667.45C911.795 2669.97 912.061 2672.11 912.591 2673.88C913.121 2675.64 913.884 2676.98 914.878 2677.89C915.882 2678.81 917.089 2679.27 918.5 2679.27ZM944.352 2651.55L934.977 2686.38H931.909L941.284 2651.55H944.352ZM957.758 2682.4C955.618 2682.4 953.795 2681.82 952.289 2680.65C950.783 2679.48 949.633 2677.78 948.837 2675.55C948.042 2673.32 947.644 2670.62 947.644 2667.45C947.644 2664.31 948.042 2661.63 948.837 2659.4C949.642 2657.17 950.798 2655.46 952.303 2654.29C953.818 2653.1 955.637 2652.51 957.758 2652.51C959.879 2652.51 961.692 2653.1 963.198 2654.29C964.713 2655.46 965.869 2657.17 966.664 2659.4C967.469 2661.63 967.871 2664.31 967.871 2667.45C967.871 2670.62 967.474 2673.32 966.678 2675.55C965.883 2677.78 964.732 2679.48 963.227 2680.65C961.721 2681.82 959.898 2682.4 957.758 2682.4ZM957.758 2679.27C959.879 2679.27 961.527 2678.25 962.701 2676.2C963.875 2674.16 964.462 2671.24 964.462 2667.45C964.462 2664.94 964.192 2662.79 963.653 2661.02C963.122 2659.25 962.355 2657.9 961.352 2656.97C960.357 2656.04 959.159 2655.58 957.758 2655.58C955.656 2655.58 954.013 2656.62 952.829 2658.69C951.645 2660.75 951.053 2663.68 951.053 2667.45C951.053 2669.97 951.318 2672.11 951.849 2673.88C952.379 2675.64 953.141 2676.98 954.136 2677.89C955.139 2678.81 956.347 2679.27 957.758 2679.27Z" fill="white"/>
<path d="M336 1989L229 2333" stroke="black" stroke-width="8"/>
<path d="M336 1989L437 2333" stroke="black" stroke-width="8"/>
<circle cx="233.5" cy="2332.5" r="55.5" fill="#5E60CE"/>
<circle cx="436.5" cy="2332.5" r="55.5" fill="#5E60CE"/>
<path d="M725 2334L940 1989" stroke="black" stroke-width="8"/>
<path d="M939 2334L940 1989" stroke="black" stroke-width="8"/>
<path d="M636 1645L335 1989" stroke="black" stroke-width="8"/>
<path d="M636 1645L939 1989" stroke="black" stroke-width="8"/>
<path d="M1152 2334L940 1989" stroke="black" stroke-width="8"/>
<circle cx="635.5" cy="1645.5" r="55.5" fill="#5E60CE"/>
<circle cx="725.5" cy="2333.5" r="55.5" fill="#5E60CE"/>
<circle cx="938.5" cy="2333.5" r="55" fill="#5E60CE" stroke="black"/>
<circle cx="1151.5" cy="2333.5" r="55.5" fill="#5E60CE"/>
<circle cx="335.5" cy="1989.5" r="55.5" fill="#48BFE3"/>
<circle cx="938.5" cy="1989.5" r="55.5" fill="#48BFE3"/>
<path d="M606.33 1654.03V1651.14L619.114 1630.91H621.216V1635.4H619.795L610.136 1650.68V1650.91H627.352V1654.03H606.33ZM620.023 1660V1653.15V1651.8V1630.91H623.375V1660H620.023ZM643.016 1629.55L633.641 1664.38H630.573L639.948 1629.55H643.016ZM647.842 1660L660.854 1634.26V1634.03H645.854V1630.91H664.49V1634.2L651.536 1660H647.842Z" fill="white"/>
<path d="M306.011 2004V2001.44L315.614 1990.93C316.741 1989.7 317.669 1988.63 318.398 1987.72C319.127 1986.8 319.667 1985.94 320.017 1985.14C320.377 1984.32 320.557 1983.47 320.557 1982.58C320.557 1981.56 320.311 1980.67 319.818 1979.92C319.335 1979.18 318.672 1978.6 317.83 1978.19C316.987 1977.78 316.04 1977.58 314.989 1977.58C313.871 1977.58 312.896 1977.81 312.062 1978.28C311.239 1978.73 310.599 1979.37 310.145 1980.19C309.7 1981.02 309.477 1981.98 309.477 1983.09H306.125C306.125 1981.39 306.518 1979.89 307.304 1978.6C308.09 1977.31 309.16 1976.31 310.514 1975.59C311.878 1974.87 313.407 1974.51 315.102 1974.51C316.807 1974.51 318.317 1974.87 319.634 1975.59C320.95 1976.31 321.982 1977.28 322.73 1978.5C323.478 1979.72 323.852 1981.08 323.852 1982.58C323.852 1983.65 323.658 1984.7 323.27 1985.72C322.891 1986.73 322.228 1987.86 321.281 1989.11C320.344 1990.35 319.042 1991.87 317.375 1993.66L310.841 2000.65V2000.88H324.364V2004H306.011ZM340.571 1973.55L331.196 2008.38H328.128L337.503 1973.55H340.571ZM354.317 2004.4C352.442 2004.4 350.771 2004.08 349.303 2003.43C347.845 2002.79 346.685 2001.89 345.823 2000.75C344.971 1999.59 344.507 1998.25 344.431 1996.73H348.011C348.086 1997.66 348.408 1998.47 348.977 1999.16C349.545 1999.83 350.288 2000.35 351.207 2000.72C352.125 2001.09 353.143 2001.27 354.261 2001.27C355.511 2001.27 356.619 2001.05 357.585 2000.62C358.55 2000.18 359.308 1999.58 359.857 1998.8C360.406 1998.02 360.681 1997.12 360.681 1996.1C360.681 1995.03 360.416 1994.09 359.886 1993.28C359.355 1992.45 358.579 1991.81 357.556 1991.34C356.533 1990.88 355.283 1990.65 353.806 1990.65H351.477V1987.52H353.806C354.961 1987.52 355.975 1987.31 356.846 1986.9C357.727 1986.48 358.413 1985.89 358.906 1985.14C359.407 1984.38 359.658 1983.49 359.658 1982.47C359.658 1981.48 359.441 1980.62 359.005 1979.89C358.569 1979.17 357.954 1978.6 357.158 1978.19C356.372 1977.78 355.444 1977.58 354.374 1977.58C353.371 1977.58 352.424 1977.76 351.533 1978.13C350.653 1978.49 349.933 1979.02 349.374 1979.71C348.816 1980.39 348.513 1981.22 348.465 1982.18H345.056C345.113 1980.66 345.572 1979.32 346.434 1978.18C347.296 1977.02 348.423 1976.12 349.815 1975.48C351.216 1974.83 352.755 1974.51 354.431 1974.51C356.23 1974.51 357.774 1974.88 359.062 1975.61C360.35 1976.32 361.339 1977.28 362.031 1978.46C362.722 1979.64 363.067 1980.92 363.067 1982.3C363.067 1983.93 362.637 1985.33 361.775 1986.49C360.923 1987.64 359.763 1988.44 358.295 1988.89V1989.11C360.132 1989.42 361.567 1990.2 362.599 1991.46C363.631 1992.71 364.147 1994.26 364.147 1996.1C364.147 1997.68 363.716 1999.1 362.854 2000.36C362.002 2001.61 360.837 2002.6 359.36 2003.32C357.883 2004.04 356.202 2004.4 354.317 2004.4Z" fill="white"/>
<path d="M922.239 1974.91V2004H918.716V1978.6H918.545L911.443 1983.32V1979.74L918.716 1974.91H922.239ZM940.946 1973.55L931.571 2008.38H928.503L937.878 1973.55H940.946ZM944.181 1998.03V1995.14L956.965 1974.91H959.067V1979.4H957.647L947.988 1994.68V1994.91H965.204V1998.03H944.181ZM957.874 2004V1997.15V1995.8V1974.91H961.227V2004H957.874Z" fill="white"/>
<path d="M420.5 2348.4C418.36 2348.4 416.537 2347.82 415.031 2346.65C413.526 2345.48 412.375 2343.78 411.58 2341.55C410.784 2339.32 410.386 2336.62 410.386 2333.45C410.386 2330.31 410.784 2327.63 411.58 2325.4C412.384 2323.17 413.54 2321.46 415.045 2320.29C416.561 2319.1 418.379 2318.51 420.5 2318.51C422.621 2318.51 424.435 2319.1 425.94 2320.29C427.455 2321.46 428.611 2323.17 429.406 2325.4C430.211 2327.63 430.614 2330.31 430.614 2333.45C430.614 2336.62 430.216 2339.32 429.42 2341.55C428.625 2343.78 427.474 2345.48 425.969 2346.65C424.463 2347.82 422.64 2348.4 420.5 2348.4ZM420.5 2345.27C422.621 2345.27 424.269 2344.25 425.443 2342.2C426.617 2340.16 427.205 2337.24 427.205 2333.45C427.205 2330.94 426.935 2328.79 426.395 2327.02C425.865 2325.25 425.098 2323.9 424.094 2322.97C423.099 2322.04 421.902 2321.58 420.5 2321.58C418.398 2321.58 416.755 2322.62 415.571 2324.69C414.387 2326.75 413.795 2329.68 413.795 2333.45C413.795 2335.97 414.061 2338.11 414.591 2339.88C415.121 2341.64 415.884 2342.98 416.878 2343.89C417.882 2344.81 419.089 2345.27 420.5 2345.27ZM446.352 2317.55L436.977 2352.38H433.909L443.284 2317.55H446.352ZM460.496 2318.91V2348H456.974V2322.6H456.803L449.701 2327.32V2323.74L456.974 2318.91H460.496Z" fill="white"/>
<path d="M420.5 2348.4C418.36 2348.4 416.537 2347.82 415.031 2346.65C413.526 2345.48 412.375 2343.78 411.58 2341.55C410.784 2339.32 410.386 2336.62 410.386 2333.45C410.386 2330.31 410.784 2327.63 411.58 2325.4C412.384 2323.17 413.54 2321.46 415.045 2320.29C416.561 2319.1 418.379 2318.51 420.5 2318.51C422.621 2318.51 424.435 2319.1 425.94 2320.29C427.455 2321.46 428.611 2323.17 429.406 2325.4C430.211 2327.63 430.614 2330.31 430.614 2333.45C430.614 2336.62 430.216 2339.32 429.42 2341.55C428.625 2343.78 427.474 2345.48 425.969 2346.65C424.463 2347.82 422.64 2348.4 420.5 2348.4ZM420.5 2345.27C422.621 2345.27 424.269 2344.25 425.443 2342.2C426.617 2340.16 427.205 2337.24 427.205 2333.45C427.205 2330.94 426.935 2328.79 426.395 2327.02C425.865 2325.25 425.098 2323.9 424.094 2322.97C423.099 2322.04 421.902 2321.58 420.5 2321.58C418.398 2321.58 416.755 2322.62 415.571 2324.69C414.387 2326.75 413.795 2329.68 413.795 2333.45C413.795 2335.97 414.061 2338.11 414.591 2339.88C415.121 2341.64 415.884 2342.98 416.878 2343.89C417.882 2344.81 419.089 2345.27 420.5 2345.27ZM446.352 2317.55L436.977 2352.38H433.909L443.284 2317.55H446.352ZM460.496 2318.91V2348H456.974V2322.6H456.803L449.701 2327.32V2323.74L456.974 2318.91H460.496Z" fill="white"/>
<path d="M220.239 2318.91V2348H216.716V2322.6H216.545L209.443 2327.32V2323.74L216.716 2318.91H220.239ZM238.946 2317.55L229.571 2352.38H226.503L235.878 2317.55H238.946ZM253.09 2318.91V2348H249.567V2322.6H249.397L242.295 2327.32V2323.74L249.567 2318.91H253.09Z" fill="white"/>
<path d="M712.239 2318.91V2348H708.716V2322.6H708.545L701.443 2327.32V2323.74L708.716 2318.91H712.239ZM730.946 2317.55L721.571 2352.38H718.503L727.878 2317.55H730.946ZM745.09 2318.91V2348H741.567V2322.6H741.397L734.295 2327.32V2323.74L741.567 2318.91H745.09Z" fill="white"/>
<path d="M922.5 2348.4C920.36 2348.4 918.537 2347.82 917.031 2346.65C915.526 2345.48 914.375 2343.78 913.58 2341.55C912.784 2339.32 912.386 2336.62 912.386 2333.45C912.386 2330.31 912.784 2327.63 913.58 2325.4C914.384 2323.17 915.54 2321.46 917.045 2320.29C918.561 2319.1 920.379 2318.51 922.5 2318.51C924.621 2318.51 926.435 2319.1 927.94 2320.29C929.455 2321.46 930.611 2323.17 931.406 2325.4C932.211 2327.63 932.614 2330.31 932.614 2333.45C932.614 2336.62 932.216 2339.32 931.42 2341.55C930.625 2343.78 929.474 2345.48 927.969 2346.65C926.463 2347.82 924.64 2348.4 922.5 2348.4ZM922.5 2345.27C924.621 2345.27 926.269 2344.25 927.443 2342.2C928.617 2340.16 929.205 2337.24 929.205 2333.45C929.205 2330.94 928.935 2328.79 928.395 2327.02C927.865 2325.25 927.098 2323.9 926.094 2322.97C925.099 2322.04 923.902 2321.58 922.5 2321.58C920.398 2321.58 918.755 2322.62 917.571 2324.69C916.387 2326.75 915.795 2329.68 915.795 2333.45C915.795 2335.97 916.061 2338.11 916.591 2339.88C917.121 2341.64 917.884 2342.98 918.878 2343.89C919.882 2344.81 921.089 2345.27 922.5 2345.27ZM948.352 2317.55L938.977 2352.38H935.909L945.284 2317.55H948.352ZM962.496 2318.91V2348H958.974V2322.6H958.803L951.701 2327.32V2323.74L958.974 2318.91H962.496Z" fill="white"/>
<path d="M1139.24 2318.91V2348H1135.72V2322.6H1135.55L1128.44 2327.32V2323.74L1135.72 2318.91H1139.24ZM1157.95 2317.55L1148.57 2352.38H1145.5L1154.88 2317.55H1157.95ZM1172.09 2318.91V2348H1168.57V2322.6H1168.4L1161.29 2327.32V2323.74L1168.57 2318.91H1172.09Z" fill="white"/>
<path d="M65.071 2.54545V148H34.3182V31.7358H33.4659L0.15625 52.6165V25.3438L36.1648 2.54545H65.071ZM156.918 101.636C156.555 98.5777 155.086 96.2031 152.511 94.5128C149.935 92.8224 146.776 91.9773 143.033 91.9773C140.296 91.9773 137.901 92.42 135.849 93.3054C133.816 94.1908 132.227 95.4083 131.08 96.9577C129.953 98.5072 129.389 100.268 129.389 102.24C129.389 103.89 129.782 105.309 130.566 106.496C131.371 107.663 132.398 108.639 133.645 109.424C134.893 110.189 136.201 110.823 137.569 111.326C138.938 111.809 140.195 112.201 141.342 112.503L147.621 114.193C149.231 114.616 151.022 115.199 152.994 115.944C154.986 116.688 156.887 117.705 158.699 118.993C160.53 120.26 162.039 121.89 163.226 123.882C164.413 125.875 165.007 128.32 165.007 131.217C165.007 134.558 164.132 137.576 162.381 140.273C160.65 142.969 158.115 145.112 154.775 146.702C151.454 148.292 147.42 149.087 142.67 149.087C138.243 149.087 134.41 148.372 131.17 146.944C127.95 145.515 125.415 143.523 123.564 140.967C121.732 138.411 120.696 135.443 120.455 132.062H128.182C128.383 134.397 129.168 136.329 130.536 137.858C131.925 139.367 133.675 140.494 135.788 141.239C137.921 141.963 140.215 142.325 142.67 142.325C145.528 142.325 148.094 141.862 150.368 140.937C152.641 139.991 154.442 138.683 155.771 137.013C157.099 135.322 157.763 133.35 157.763 131.097C157.763 129.044 157.189 127.374 156.042 126.086C154.895 124.798 153.386 123.752 151.515 122.947C149.643 122.142 147.621 121.437 145.447 120.834L137.841 118.661C133.011 117.272 129.188 115.29 126.371 112.714C123.554 110.138 122.145 106.768 122.145 102.602C122.145 99.1411 123.081 96.1226 124.952 93.5469C126.844 90.951 129.379 88.9387 132.559 87.5099C135.758 86.0611 139.33 85.3366 143.274 85.3366C147.259 85.3366 150.8 86.051 153.899 87.4798C156.998 88.8884 159.453 90.8202 161.264 93.2752C163.095 95.7302 164.061 98.5173 164.162 101.636H156.918ZM195.788 148.966C191.321 148.966 187.467 147.98 184.227 146.008C181.007 144.016 178.522 141.239 176.772 137.677C175.041 134.095 174.176 129.929 174.176 125.18C174.176 120.431 175.041 116.246 176.772 112.624C178.522 108.981 180.957 106.144 184.076 104.112C187.215 102.059 190.878 101.033 195.063 101.033C197.478 101.033 199.863 101.435 202.217 102.24C204.572 103.045 206.715 104.353 208.647 106.164C210.578 107.955 212.118 110.33 213.265 113.288C214.412 116.246 214.985 119.888 214.985 124.214V127.233H179.247V121.075H207.741C207.741 118.459 207.218 116.125 206.171 114.072C205.145 112.02 203.676 110.4 201.764 109.213C199.873 108.025 197.639 107.432 195.063 107.432C192.226 107.432 189.771 108.136 187.698 109.545C185.646 110.933 184.066 112.744 182.959 114.978C181.853 117.212 181.299 119.606 181.299 122.162V126.267C181.299 129.768 181.903 132.737 183.11 135.172C184.338 137.586 186.038 139.428 188.212 140.695C190.385 141.943 192.91 142.567 195.788 142.567C197.659 142.567 199.35 142.305 200.859 141.782C202.388 141.239 203.706 140.434 204.813 139.367C205.92 138.281 206.775 136.932 207.379 135.322L214.261 137.254C213.536 139.589 212.319 141.641 210.609 143.412C208.898 145.163 206.785 146.531 204.27 147.517C201.754 148.483 198.927 148.966 195.788 148.966ZM232.945 86.1818V148H225.822V86.1818H232.945ZM265.431 148.966C260.964 148.966 257.111 147.98 253.871 146.008C250.651 144.016 248.166 141.239 246.415 137.677C244.685 134.095 243.819 129.929 243.819 125.18C243.819 120.431 244.685 116.246 246.415 112.624C248.166 108.981 250.601 106.144 253.72 104.112C256.859 102.059 260.521 101.033 264.707 101.033C267.122 101.033 269.506 101.435 271.861 102.24C274.215 103.045 276.358 104.353 278.29 106.164C280.222 107.955 281.761 110.33 282.908 113.288C284.055 116.246 284.629 119.888 284.629 124.214V127.233H248.89V121.075H277.385C277.385 118.459 276.861 116.125 275.815 114.072C274.789 112.02 273.32 110.4 271.408 109.213C269.516 108.025 267.283 107.432 264.707 107.432C261.87 107.432 259.415 108.136 257.342 109.545C255.289 110.933 253.71 112.744 252.603 114.978C251.496 117.212 250.943 119.606 250.943 122.162V126.267C250.943 129.768 251.547 132.737 252.754 135.172C253.981 137.586 255.682 139.428 257.855 140.695C260.028 141.943 262.554 142.567 265.431 142.567C267.303 142.567 268.993 142.305 270.502 141.782C272.032 141.239 273.35 140.434 274.457 139.367C275.563 138.281 276.419 136.932 277.022 135.322L283.904 137.254C283.18 139.589 281.963 141.641 280.252 143.412C278.542 145.163 276.429 146.531 273.913 147.517C271.398 148.483 268.571 148.966 265.431 148.966ZM314.3 148.966C309.954 148.966 306.211 147.94 303.072 145.887C299.933 143.835 297.518 141.007 295.827 137.405C294.137 133.803 293.292 129.688 293.292 125.06C293.292 120.351 294.157 116.195 295.888 112.593C297.638 108.971 300.073 106.144 303.192 104.112C306.332 102.059 309.994 101.033 314.18 101.033C317.44 101.033 320.378 101.636 322.994 102.844C325.61 104.051 327.753 105.741 329.423 107.915C331.093 110.088 332.129 112.624 332.532 115.521H325.408C324.865 113.408 323.658 111.537 321.786 109.907C319.935 108.257 317.44 107.432 314.3 107.432C311.523 107.432 309.089 108.156 306.996 109.605C304.923 111.034 303.303 113.056 302.136 115.672C300.989 118.268 300.415 121.317 300.415 124.818C300.415 128.4 300.979 131.519 302.106 134.175C303.253 136.832 304.863 138.894 306.935 140.363C309.028 141.832 311.483 142.567 314.3 142.567C316.152 142.567 317.832 142.245 319.341 141.601C320.85 140.957 322.128 140.031 323.175 138.824C324.221 137.616 324.966 136.168 325.408 134.477H332.532C332.129 137.214 331.133 139.679 329.544 141.873C327.974 144.046 325.891 145.776 323.295 147.064C320.72 148.332 317.721 148.966 314.3 148.966ZM363.109 101.636V107.673H339.082V101.636H363.109ZM346.085 90.5284H353.208V134.719C353.208 136.731 353.5 138.24 354.084 139.246C354.688 140.232 355.452 140.897 356.378 141.239C357.324 141.561 358.32 141.722 359.366 141.722C360.151 141.722 360.795 141.681 361.298 141.601C361.801 141.5 362.203 141.42 362.505 141.359L363.954 147.759C363.471 147.94 362.797 148.121 361.932 148.302C361.067 148.503 359.97 148.604 358.642 148.604C356.629 148.604 354.657 148.171 352.725 147.306C350.814 146.44 349.224 145.122 347.956 143.352C346.709 141.581 346.085 139.347 346.085 136.651V90.5284ZM373.825 148V101.636H380.948V148H373.825ZM377.447 93.9091C376.058 93.9091 374.861 93.4362 373.855 92.4904C372.869 91.5446 372.376 90.4077 372.376 89.0795C372.376 87.7514 372.869 86.6145 373.855 85.6687C374.861 84.7229 376.058 84.25 377.447 84.25C378.835 84.25 380.022 84.7229 381.009 85.6687C382.015 86.6145 382.518 87.7514 382.518 89.0795C382.518 90.4077 382.015 91.5446 381.009 92.4904C380.022 93.4362 378.835 93.9091 377.447 93.9091ZM412.831 148.966C408.645 148.966 404.973 147.97 401.813 145.978C398.674 143.985 396.219 141.198 394.448 137.616C392.698 134.035 391.822 129.849 391.822 125.06C391.822 120.23 392.698 116.014 394.448 112.412C396.219 108.81 398.674 106.013 401.813 104.021C404.973 102.029 408.645 101.033 412.831 101.033C417.016 101.033 420.679 102.029 423.818 104.021C426.977 106.013 429.432 108.81 431.183 112.412C432.954 116.014 433.839 120.23 433.839 125.06C433.839 129.849 432.954 134.035 431.183 137.616C429.432 141.198 426.977 143.985 423.818 145.978C420.679 147.97 417.016 148.966 412.831 148.966ZM412.831 142.567C416.01 142.567 418.626 141.752 420.679 140.122C422.731 138.492 424.251 136.349 425.237 133.692C426.223 131.036 426.716 128.159 426.716 125.06C426.716 121.961 426.223 119.073 425.237 116.397C424.251 113.72 422.731 111.557 420.679 109.907C418.626 108.257 416.01 107.432 412.831 107.432C409.651 107.432 407.035 108.257 404.983 109.907C402.93 111.557 401.411 113.72 400.425 116.397C399.439 119.073 398.946 121.961 398.946 125.06C398.946 128.159 399.439 131.036 400.425 133.692C401.411 136.349 402.93 138.492 404.983 140.122C407.035 141.752 409.651 142.567 412.831 142.567ZM451.837 120.109V148H444.713V101.636H451.595V108.881H452.199C453.286 106.526 454.936 104.635 457.149 103.206C459.363 101.757 462.22 101.033 465.722 101.033C468.861 101.033 471.608 101.677 473.962 102.964C476.317 104.232 478.148 106.164 479.456 108.76C480.764 111.336 481.418 114.596 481.418 118.54V148H474.294V119.023C474.294 115.38 473.348 112.543 471.457 110.511C469.565 108.458 466.969 107.432 463.669 107.432C461.395 107.432 459.363 107.925 457.572 108.911C455.801 109.897 454.403 111.336 453.376 113.227C452.35 115.119 451.837 117.413 451.837 120.109Z" fill="black"/>
<path d="M55.554 1508.99C44.9479 1508.99 35.5019 1507.17 27.2159 1503.52C18.9773 1499.83 12.4669 1494.76 7.68466 1488.32C2.94981 1481.83 0.511364 1474.35 0.369319 1465.88H31.3352C31.5246 1469.43 32.6847 1472.55 34.8153 1475.25C36.9934 1477.9 39.8816 1479.96 43.4801 1481.43C47.0786 1482.9 51.1269 1483.63 55.625 1483.63C60.3125 1483.63 64.4555 1482.8 68.054 1481.15C71.6525 1479.49 74.4697 1477.19 76.5057 1474.26C78.5417 1471.32 79.5597 1467.94 79.5597 1464.1C79.5597 1460.22 78.4706 1456.79 76.2926 1453.8C74.1619 1450.77 71.0843 1448.41 67.0597 1446.7C63.0824 1445 58.3475 1444.14 52.8551 1444.14H39.2898V1421.56H52.8551C57.4953 1421.56 61.5909 1420.75 65.142 1419.14C68.7405 1417.54 71.5341 1415.31 73.5227 1412.47C75.5114 1409.58 76.5057 1406.22 76.5057 1402.38C76.5057 1398.74 75.6297 1395.54 73.8778 1392.8C72.1733 1390 69.7585 1387.82 66.6335 1386.26C63.5559 1384.7 59.9574 1383.92 55.8381 1383.92C51.6714 1383.92 47.8598 1384.68 44.4034 1386.19C40.947 1387.66 38.1771 1389.77 36.0938 1392.51C34.0104 1395.26 32.8977 1398.48 32.7557 1402.17H3.28125C3.4233 1393.79 5.81439 1386.4 10.4545 1380.01C15.0947 1373.62 21.3447 1368.62 29.2045 1365.03C37.1117 1361.38 46.0369 1359.56 55.9801 1359.56C66.018 1359.56 74.8011 1361.38 82.3295 1365.03C89.858 1368.67 95.7055 1373.6 99.8722 1379.8C104.086 1385.95 106.17 1392.87 106.122 1400.54C106.17 1408.68 103.636 1415.48 98.5227 1420.92C93.4564 1426.37 86.8513 1429.82 78.7074 1431.29V1432.43C89.4081 1433.8 97.5521 1437.52 103.139 1443.58C108.774 1449.59 111.567 1457.12 111.52 1466.16C111.567 1474.45 109.176 1481.81 104.347 1488.25C99.5644 1494.69 92.9593 1499.76 84.5312 1503.45C76.1032 1507.14 66.4441 1508.99 55.554 1508.99ZM190.902 1460.64C190.54 1457.58 189.071 1455.2 186.495 1453.51C183.919 1451.82 180.76 1450.98 177.017 1450.98C174.28 1450.98 171.886 1451.42 169.833 1452.31C167.801 1453.19 166.211 1454.41 165.064 1455.96C163.937 1457.51 163.374 1459.27 163.374 1461.24C163.374 1462.89 163.766 1464.31 164.551 1465.5C165.356 1466.66 166.382 1467.64 167.63 1468.42C168.877 1469.19 170.185 1469.82 171.554 1470.33C172.922 1470.81 174.18 1471.2 175.327 1471.5L181.605 1473.19C183.215 1473.62 185.006 1474.2 186.978 1474.94C188.97 1475.69 190.872 1476.7 192.683 1477.99C194.514 1479.26 196.023 1480.89 197.211 1482.88C198.398 1484.87 198.991 1487.32 198.991 1490.22C198.991 1493.56 198.116 1496.58 196.365 1499.27C194.635 1501.97 192.099 1504.11 188.759 1505.7C185.439 1507.29 181.404 1508.09 176.655 1508.09C172.228 1508.09 168.394 1507.37 165.154 1505.94C161.935 1504.51 159.399 1502.52 157.548 1499.97C155.717 1497.41 154.68 1494.44 154.439 1491.06H162.166C162.367 1493.4 163.152 1495.33 164.521 1496.86C165.909 1498.37 167.66 1499.49 169.773 1500.24C171.906 1500.96 174.2 1501.33 176.655 1501.33C179.512 1501.33 182.078 1500.86 184.352 1499.94C186.626 1498.99 188.427 1497.68 189.755 1496.01C191.083 1494.32 191.747 1492.35 191.747 1490.1C191.747 1488.04 191.174 1486.37 190.027 1485.09C188.88 1483.8 187.37 1482.75 185.499 1481.95C183.627 1481.14 181.605 1480.44 179.432 1479.83L171.825 1477.66C166.996 1476.27 163.172 1474.29 160.355 1471.71C157.538 1469.14 156.129 1465.77 156.129 1461.6C156.129 1458.14 157.065 1455.12 158.936 1452.55C160.828 1449.95 163.364 1447.94 166.543 1446.51C169.743 1445.06 173.314 1444.34 177.259 1444.34C181.243 1444.34 184.785 1445.05 187.884 1446.48C190.982 1447.89 193.438 1449.82 195.249 1452.28C197.08 1454.73 198.046 1457.52 198.146 1460.64H190.902ZM210.333 1507V1460.64H217.457V1507H210.333ZM213.956 1452.91C212.567 1452.91 211.37 1452.44 210.364 1451.49C209.378 1450.54 208.884 1449.41 208.884 1448.08C208.884 1446.75 209.378 1445.61 210.364 1444.67C211.37 1443.72 212.567 1443.25 213.956 1443.25C215.344 1443.25 216.531 1443.72 217.517 1444.67C218.523 1445.61 219.027 1446.75 219.027 1448.08C219.027 1449.41 218.523 1450.54 217.517 1451.49C216.531 1452.44 215.344 1452.91 213.956 1452.91ZM230.504 1507V1460.64H237.386V1467.88H237.99C238.956 1465.41 240.516 1463.48 242.669 1462.12C244.822 1460.73 247.408 1460.03 250.426 1460.03C253.485 1460.03 256.03 1460.73 258.063 1462.12C260.115 1463.48 261.715 1465.41 262.862 1467.88H263.345C264.532 1465.49 266.313 1463.58 268.688 1462.18C271.062 1460.75 273.91 1460.03 277.23 1460.03C281.375 1460.03 284.766 1461.33 287.402 1463.93C290.038 1466.5 291.357 1470.52 291.357 1475.97V1507H284.233V1475.97C284.233 1472.55 283.297 1470.1 281.426 1468.64C279.554 1467.17 277.351 1466.43 274.815 1466.43C271.555 1466.43 269.03 1467.42 267.239 1469.39C265.448 1471.34 264.553 1473.82 264.553 1476.82V1507H257.308V1475.25C257.308 1472.61 256.453 1470.49 254.743 1468.88C253.032 1467.25 250.829 1466.43 248.132 1466.43C246.281 1466.43 244.55 1466.92 242.94 1467.91C241.351 1468.9 240.063 1470.27 239.077 1472.02C238.111 1473.75 237.628 1475.75 237.628 1478.02V1507H230.504ZM333.6 1488.04V1460.64H340.724V1507H333.6V1499.15H333.117C332.03 1501.51 330.34 1503.51 328.046 1505.16C325.752 1506.79 322.854 1507.6 319.353 1507.6C316.455 1507.6 313.879 1506.97 311.626 1505.7C309.372 1504.41 307.601 1502.48 306.313 1499.91C305.025 1497.31 304.381 1494.04 304.381 1490.1V1460.64H311.505V1489.61C311.505 1492.99 312.451 1495.69 314.342 1497.7C316.254 1499.72 318.689 1500.72 321.647 1500.72C323.418 1500.72 325.219 1500.27 327.05 1499.36C328.901 1498.46 330.451 1497.07 331.698 1495.2C332.966 1493.33 333.6 1490.94 333.6 1488.04ZM360.894 1445.18V1507H353.771V1445.18H360.894ZM387.585 1508.09C384.647 1508.09 381.981 1507.53 379.586 1506.43C377.192 1505.3 375.29 1503.68 373.881 1501.57C372.473 1499.43 371.768 1496.86 371.768 1493.84C371.768 1491.18 372.292 1489.03 373.338 1487.38C374.384 1485.71 375.783 1484.4 377.534 1483.46C379.284 1482.51 381.216 1481.81 383.329 1481.34C385.462 1480.86 387.605 1480.48 389.759 1480.2C392.576 1479.83 394.86 1479.56 396.61 1479.38C398.381 1479.18 399.669 1478.85 400.474 1478.38C401.299 1477.92 401.712 1477.12 401.712 1475.97V1475.73C401.712 1472.75 400.897 1470.44 399.267 1468.79C397.657 1467.14 395.212 1466.31 391.932 1466.31C388.531 1466.31 385.865 1467.06 383.933 1468.54C382.001 1470.03 380.643 1471.62 379.858 1473.31L373.097 1470.9C374.304 1468.08 375.914 1465.89 377.926 1464.32C379.959 1462.73 382.172 1461.62 384.567 1461C386.982 1460.35 389.356 1460.03 391.69 1460.03C393.179 1460.03 394.89 1460.21 396.822 1460.58C398.774 1460.92 400.655 1461.63 402.466 1462.72C404.297 1463.81 405.817 1465.45 407.024 1467.64C408.232 1469.83 408.835 1472.77 408.835 1476.45V1507H401.712V1500.72H401.349C400.866 1501.73 400.062 1502.8 398.935 1503.95C397.808 1505.1 396.309 1506.07 394.437 1506.88C392.566 1507.68 390.282 1508.09 387.585 1508.09ZM388.672 1501.69C391.489 1501.69 393.864 1501.13 395.795 1500.03C397.747 1498.92 399.216 1497.49 400.202 1495.74C401.209 1493.99 401.712 1492.15 401.712 1490.22V1483.7C401.41 1484.06 400.746 1484.39 399.719 1484.69C398.713 1484.98 397.546 1485.23 396.218 1485.45C394.91 1485.65 393.632 1485.83 392.385 1485.99C391.157 1486.13 390.161 1486.25 389.396 1486.35C387.545 1486.6 385.814 1486.99 384.205 1487.53C382.615 1488.05 381.327 1488.85 380.341 1489.92C379.375 1490.96 378.892 1492.39 378.892 1494.2C378.892 1496.68 379.808 1498.55 381.639 1499.82C383.49 1501.06 385.835 1501.69 388.672 1501.69ZM442.001 1460.64V1466.67H417.974V1460.64H442.001ZM424.976 1449.53H432.1V1493.72C432.1 1495.73 432.392 1497.24 432.975 1498.25C433.579 1499.23 434.344 1499.9 435.269 1500.24C436.215 1500.56 437.211 1500.72 438.258 1500.72C439.043 1500.72 439.686 1500.68 440.19 1500.6C440.693 1500.5 441.095 1500.42 441.397 1500.36L442.846 1506.76C442.363 1506.94 441.689 1507.12 440.823 1507.3C439.958 1507.5 438.861 1507.6 437.533 1507.6C435.521 1507.6 433.549 1507.17 431.617 1506.31C429.705 1505.44 428.116 1504.12 426.848 1502.35C425.6 1500.58 424.976 1498.35 424.976 1495.65V1449.53ZM452.716 1507V1460.64H459.84V1507H452.716ZM456.338 1452.91C454.95 1452.91 453.753 1452.44 452.746 1451.49C451.76 1450.54 451.267 1449.41 451.267 1448.08C451.267 1446.75 451.76 1445.61 452.746 1444.67C453.753 1443.72 454.95 1443.25 456.338 1443.25C457.727 1443.25 458.914 1443.72 459.9 1444.67C460.906 1445.61 461.409 1446.75 461.409 1448.08C461.409 1449.41 460.906 1450.54 459.9 1451.49C458.914 1452.44 457.727 1452.91 456.338 1452.91ZM491.722 1507.97C487.537 1507.97 483.864 1506.97 480.705 1504.98C477.566 1502.99 475.111 1500.2 473.34 1496.62C471.589 1493.03 470.714 1488.85 470.714 1484.06C470.714 1479.23 471.589 1475.01 473.34 1471.41C475.111 1467.81 477.566 1465.01 480.705 1463.02C483.864 1461.03 487.537 1460.03 491.722 1460.03C495.908 1460.03 499.57 1461.03 502.71 1463.02C505.869 1465.01 508.324 1467.81 510.075 1471.41C511.845 1475.01 512.731 1479.23 512.731 1484.06C512.731 1488.85 511.845 1493.03 510.075 1496.62C508.324 1500.2 505.869 1502.99 502.71 1504.98C499.57 1506.97 495.908 1507.97 491.722 1507.97ZM491.722 1501.57C494.902 1501.57 497.518 1500.75 499.57 1499.12C501.623 1497.49 503.142 1495.35 504.128 1492.69C505.114 1490.04 505.607 1487.16 505.607 1484.06C505.607 1480.96 505.114 1478.07 504.128 1475.4C503.142 1472.72 501.623 1470.56 499.57 1468.91C497.518 1467.26 494.902 1466.43 491.722 1466.43C488.543 1466.43 485.927 1467.26 483.874 1468.91C481.822 1470.56 480.302 1472.72 479.316 1475.4C478.33 1478.07 477.837 1480.96 477.837 1484.06C477.837 1487.16 478.33 1490.04 479.316 1492.69C480.302 1495.35 481.822 1497.49 483.874 1499.12C485.927 1500.75 488.543 1501.57 491.722 1501.57ZM530.728 1479.11V1507H523.605V1460.64H530.487V1467.88H531.091C532.177 1465.53 533.827 1463.63 536.041 1462.21C538.254 1460.76 541.112 1460.03 544.613 1460.03C547.753 1460.03 550.499 1460.68 552.854 1461.96C555.208 1463.23 557.039 1465.16 558.347 1467.76C559.655 1470.34 560.309 1473.6 560.309 1477.54V1507H553.186V1478.02C553.186 1474.38 552.24 1471.54 550.348 1469.51C548.457 1467.46 545.861 1466.43 542.561 1466.43C540.287 1466.43 538.254 1466.92 536.464 1467.91C534.693 1468.9 533.294 1470.34 532.268 1472.23C531.242 1474.12 530.728 1476.41 530.728 1479.11Z" fill="black"/>
<path d="M2403 2667L2404 2322" stroke="black" stroke-width="8"/>
<circle cx="2402.5" cy="2666.5" r="50.5" fill="#48BFE3" stroke="#F57A97" stroke-width="10"/>
<path d="M2386.5 2682.4C2384.36 2682.4 2382.54 2681.82 2381.03 2680.65C2379.53 2679.48 2378.38 2677.78 2377.58 2675.55C2376.78 2673.32 2376.39 2670.62 2376.39 2667.45C2376.39 2664.31 2376.78 2661.63 2377.58 2659.4C2378.38 2657.17 2379.54 2655.46 2381.05 2654.29C2382.56 2653.1 2384.38 2652.51 2386.5 2652.51C2388.62 2652.51 2390.43 2653.1 2391.94 2654.29C2393.46 2655.46 2394.61 2657.17 2395.41 2659.4C2396.21 2661.63 2396.61 2664.31 2396.61 2667.45C2396.61 2670.62 2396.22 2673.32 2395.42 2675.55C2394.62 2677.78 2393.47 2679.48 2391.97 2680.65C2390.46 2681.82 2388.64 2682.4 2386.5 2682.4ZM2386.5 2679.27C2388.62 2679.27 2390.27 2678.25 2391.44 2676.2C2392.62 2674.16 2393.2 2671.24 2393.2 2667.45C2393.2 2664.94 2392.93 2662.79 2392.39 2661.02C2391.86 2659.25 2391.1 2657.9 2390.09 2656.97C2389.1 2656.04 2387.9 2655.58 2386.5 2655.58C2384.4 2655.58 2382.75 2656.62 2381.57 2658.69C2380.39 2660.75 2379.8 2663.68 2379.8 2667.45C2379.8 2669.97 2380.06 2672.11 2380.59 2673.88C2381.12 2675.64 2381.88 2676.98 2382.88 2677.89C2383.88 2678.81 2385.09 2679.27 2386.5 2679.27ZM2412.35 2651.55L2402.98 2686.38H2399.91L2409.28 2651.55H2412.35ZM2426.5 2652.91V2682H2422.97V2656.6H2422.8L2415.7 2661.32V2657.74L2422.97 2652.91H2426.5Z" fill="white"/>
<path d="M1800 1989L1693 2333" stroke="black" stroke-width="8"/>
<path d="M1800 1989L1901 2333" stroke="black" stroke-width="8"/>
<circle cx="1697.5" cy="2332.5" r="55.5" fill="#5E60CE"/>
<circle cx="1900.5" cy="2332.5" r="55.5" fill="#5E60CE"/>
<path d="M2189 2334L2404 1989" stroke="black" stroke-width="8"/>
<path d="M2403 2334L2404 1989" stroke="black" stroke-width="8"/>
<path d="M2100 1645L1799 1989" stroke="black" stroke-width="8"/>
<path d="M2100 1645L2403 1989" stroke="black" stroke-width="8"/>
<path d="M2616 2334L2404 1989" stroke="black" stroke-width="8"/>
<circle cx="2099.5" cy="1645.5" r="50.5" fill="#5E60CE" stroke="#F57A97" stroke-width="10"/>
<circle cx="2189.5" cy="2333.5" r="55.5" fill="#5E60CE"/>
<circle cx="2402.5" cy="2333.5" r="50.5" fill="#5E60CE" stroke="#F57A97" stroke-width="10"/>
<circle cx="2615.5" cy="2333.5" r="55.5" fill="#5E60CE"/>
<circle cx="1799.5" cy="1989.5" r="55.5" fill="#48BFE3"/>
<circle cx="2402.5" cy="1989.5" r="50.5" fill="#48BFE3" stroke="#F57A97" stroke-width="10"/>
<path d="M2081.1 1660.4C2079.44 1660.4 2077.93 1660.07 2076.6 1659.4C2075.26 1658.74 2074.19 1657.83 2073.39 1656.68C2072.58 1655.52 2072.14 1654.2 2072.07 1652.73H2075.48C2075.61 1654.04 2076.21 1655.13 2077.27 1655.99C2078.34 1656.85 2079.62 1657.27 2081.1 1657.27C2082.3 1657.27 2083.36 1656.99 2084.28 1656.43C2085.22 1655.88 2085.96 1655.11 2086.49 1654.13C2087.03 1653.15 2087.3 1652.04 2087.3 1650.8C2087.3 1649.53 2087.02 1648.39 2086.46 1647.4C2085.91 1646.4 2085.15 1645.61 2084.18 1645.03C2083.22 1644.45 2082.12 1644.16 2080.88 1644.15C2079.98 1644.14 2079.07 1644.28 2078.13 1644.56C2077.2 1644.83 2076.42 1645.19 2075.82 1645.62L2072.52 1645.23L2074.28 1630.91H2089.4V1634.03H2077.24L2076.22 1642.61H2076.39C2076.98 1642.14 2077.73 1641.75 2078.63 1641.43C2079.53 1641.12 2080.47 1640.97 2081.44 1640.97C2083.22 1640.97 2084.81 1641.39 2086.2 1642.24C2087.6 1643.09 2088.7 1644.24 2089.5 1645.71C2090.3 1647.18 2090.7 1648.85 2090.7 1650.74C2090.7 1652.59 2090.29 1654.25 2089.45 1655.71C2088.63 1657.16 2087.49 1658.3 2086.05 1659.15C2084.6 1659.98 2082.95 1660.4 2081.1 1660.4ZM2106.69 1629.55L2097.31 1664.38H2094.25L2103.62 1629.55H2106.69ZM2111.51 1660L2124.53 1634.26V1634.03H2109.53V1630.91H2128.16V1634.2L2115.21 1660H2111.51Z" fill="white"/>
<path d="M1770.01 2004V2001.44L1779.61 1990.93C1780.74 1989.7 1781.67 1988.63 1782.4 1987.72C1783.13 1986.8 1783.67 1985.94 1784.02 1985.14C1784.38 1984.32 1784.56 1983.47 1784.56 1982.58C1784.56 1981.56 1784.31 1980.67 1783.82 1979.92C1783.34 1979.18 1782.67 1978.6 1781.83 1978.19C1780.99 1977.78 1780.04 1977.58 1778.99 1977.58C1777.87 1977.58 1776.9 1977.81 1776.06 1978.28C1775.24 1978.73 1774.6 1979.37 1774.14 1980.19C1773.7 1981.02 1773.48 1981.98 1773.48 1983.09H1770.12C1770.12 1981.39 1770.52 1979.89 1771.3 1978.6C1772.09 1977.31 1773.16 1976.31 1774.51 1975.59C1775.88 1974.87 1777.41 1974.51 1779.1 1974.51C1780.81 1974.51 1782.32 1974.87 1783.63 1975.59C1784.95 1976.31 1785.98 1977.28 1786.73 1978.5C1787.48 1979.72 1787.85 1981.08 1787.85 1982.58C1787.85 1983.65 1787.66 1984.7 1787.27 1985.72C1786.89 1986.73 1786.23 1987.86 1785.28 1989.11C1784.34 1990.35 1783.04 1991.87 1781.38 1993.66L1774.84 2000.65V2000.88H1788.36V2004H1770.01ZM1804.57 1973.55L1795.2 2008.38H1792.13L1801.5 1973.55H1804.57ZM1818.32 2004.4C1816.44 2004.4 1814.77 2004.08 1813.3 2003.43C1811.84 2002.79 1810.68 2001.89 1809.82 2000.75C1808.97 1999.59 1808.51 1998.25 1808.43 1996.73H1812.01C1812.09 1997.66 1812.41 1998.47 1812.98 1999.16C1813.54 1999.83 1814.29 2000.35 1815.21 2000.72C1816.13 2001.09 1817.14 2001.27 1818.26 2001.27C1819.51 2001.27 1820.62 2001.05 1821.58 2000.62C1822.55 2000.18 1823.31 1999.58 1823.86 1998.8C1824.41 1998.02 1824.68 1997.12 1824.68 1996.1C1824.68 1995.03 1824.42 1994.09 1823.89 1993.28C1823.36 1992.45 1822.58 1991.81 1821.56 1991.34C1820.53 1990.88 1819.28 1990.65 1817.81 1990.65H1815.48V1987.52H1817.81C1818.96 1987.52 1819.97 1987.31 1820.85 1986.9C1821.73 1986.48 1822.41 1985.89 1822.91 1985.14C1823.41 1984.38 1823.66 1983.49 1823.66 1982.47C1823.66 1981.48 1823.44 1980.62 1823 1979.89C1822.57 1979.17 1821.95 1978.6 1821.16 1978.19C1820.37 1977.78 1819.44 1977.58 1818.37 1977.58C1817.37 1977.58 1816.42 1977.76 1815.53 1978.13C1814.65 1978.49 1813.93 1979.02 1813.37 1979.71C1812.82 1980.39 1812.51 1981.22 1812.47 1982.18H1809.06C1809.11 1980.66 1809.57 1979.32 1810.43 1978.18C1811.3 1977.02 1812.42 1976.12 1813.81 1975.48C1815.22 1974.83 1816.75 1974.51 1818.43 1974.51C1820.23 1974.51 1821.77 1974.88 1823.06 1975.61C1824.35 1976.32 1825.34 1977.28 1826.03 1978.46C1826.72 1979.64 1827.07 1980.92 1827.07 1982.3C1827.07 1983.93 1826.64 1985.33 1825.77 1986.49C1824.92 1987.64 1823.76 1988.44 1822.29 1988.89V1989.11C1824.13 1989.42 1825.57 1990.2 1826.6 1991.46C1827.63 1992.71 1828.15 1994.26 1828.15 1996.1C1828.15 1997.68 1827.72 1999.1 1826.85 2000.36C1826 2001.61 1824.84 2002.6 1823.36 2003.32C1821.88 2004.04 1820.2 2004.4 1818.32 2004.4Z" fill="white"/>
<path d="M2387.24 1975.91V2005H2383.72V1979.6H2383.55L2376.44 1984.32V1980.74L2383.72 1975.91H2387.24ZM2405.95 1974.55L2396.57 2009.38H2393.5L2402.88 1974.55H2405.95ZM2418.95 2005.4C2417.29 2005.4 2415.79 2005.07 2414.45 2004.4C2413.12 2003.74 2412.05 2002.83 2411.24 2001.68C2410.44 2000.52 2410 1999.2 2409.92 1997.73H2413.33C2413.46 1999.04 2414.06 2000.13 2415.12 2000.99C2416.19 2001.85 2417.47 2002.27 2418.95 2002.27C2420.15 2002.27 2421.21 2001.99 2422.14 2001.43C2423.07 2000.88 2423.81 2000.11 2424.34 1999.13C2424.88 1998.15 2425.15 1997.04 2425.15 1995.8C2425.15 1994.53 2424.87 1993.39 2424.31 1992.4C2423.76 1991.4 2423 1990.61 2422.04 1990.03C2421.07 1989.45 2419.97 1989.16 2418.73 1989.15C2417.84 1989.14 2416.92 1989.28 2415.99 1989.56C2415.05 1989.83 2414.28 1990.19 2413.67 1990.62L2410.37 1990.23L2412.14 1975.91H2427.25V1979.03H2415.09L2414.07 1987.61H2414.24C2414.83 1987.14 2415.58 1986.75 2416.48 1986.43C2417.38 1986.12 2418.32 1985.97 2419.29 1985.97C2421.08 1985.97 2422.66 1986.39 2424.05 1987.24C2425.45 1988.09 2426.55 1989.24 2427.35 1990.71C2428.15 1992.18 2428.56 1993.85 2428.56 1995.74C2428.56 1997.59 2428.14 1999.25 2427.31 2000.71C2426.48 2002.16 2425.35 2003.3 2423.9 2004.15C2422.45 2004.98 2420.8 2005.4 2418.95 2005.4Z" fill="white"/>
<path d="M1884.5 2348.4C1882.36 2348.4 1880.54 2347.82 1879.03 2346.65C1877.53 2345.48 1876.38 2343.78 1875.58 2341.55C1874.78 2339.32 1874.39 2336.62 1874.39 2333.45C1874.39 2330.31 1874.78 2327.63 1875.58 2325.4C1876.38 2323.17 1877.54 2321.46 1879.05 2320.29C1880.56 2319.1 1882.38 2318.51 1884.5 2318.51C1886.62 2318.51 1888.43 2319.1 1889.94 2320.29C1891.46 2321.46 1892.61 2323.17 1893.41 2325.4C1894.21 2327.63 1894.61 2330.31 1894.61 2333.45C1894.61 2336.62 1894.22 2339.32 1893.42 2341.55C1892.62 2343.78 1891.47 2345.48 1889.97 2346.65C1888.46 2347.82 1886.64 2348.4 1884.5 2348.4ZM1884.5 2345.27C1886.62 2345.27 1888.27 2344.25 1889.44 2342.2C1890.62 2340.16 1891.2 2337.24 1891.2 2333.45C1891.2 2330.94 1890.93 2328.79 1890.39 2327.02C1889.86 2325.25 1889.1 2323.9 1888.09 2322.97C1887.1 2322.04 1885.9 2321.58 1884.5 2321.58C1882.4 2321.58 1880.75 2322.62 1879.57 2324.69C1878.39 2326.75 1877.8 2329.68 1877.8 2333.45C1877.8 2335.97 1878.06 2338.11 1878.59 2339.88C1879.12 2341.64 1879.88 2342.98 1880.88 2343.89C1881.88 2344.81 1883.09 2345.27 1884.5 2345.27ZM1910.35 2317.55L1900.98 2352.38H1897.91L1907.28 2317.55H1910.35ZM1924.5 2318.91V2348H1920.97V2322.6H1920.8L1913.7 2327.32V2323.74L1920.97 2318.91H1924.5Z" fill="white"/>
<path d="M1884.5 2348.4C1882.36 2348.4 1880.54 2347.82 1879.03 2346.65C1877.53 2345.48 1876.38 2343.78 1875.58 2341.55C1874.78 2339.32 1874.39 2336.62 1874.39 2333.45C1874.39 2330.31 1874.78 2327.63 1875.58 2325.4C1876.38 2323.17 1877.54 2321.46 1879.05 2320.29C1880.56 2319.1 1882.38 2318.51 1884.5 2318.51C1886.62 2318.51 1888.43 2319.1 1889.94 2320.29C1891.46 2321.46 1892.61 2323.17 1893.41 2325.4C1894.21 2327.63 1894.61 2330.31 1894.61 2333.45C1894.61 2336.62 1894.22 2339.32 1893.42 2341.55C1892.62 2343.78 1891.47 2345.48 1889.97 2346.65C1888.46 2347.82 1886.64 2348.4 1884.5 2348.4ZM1884.5 2345.27C1886.62 2345.27 1888.27 2344.25 1889.44 2342.2C1890.62 2340.16 1891.2 2337.24 1891.2 2333.45C1891.2 2330.94 1890.93 2328.79 1890.39 2327.02C1889.86 2325.25 1889.1 2323.9 1888.09 2322.97C1887.1 2322.04 1885.9 2321.58 1884.5 2321.58C1882.4 2321.58 1880.75 2322.62 1879.57 2324.69C1878.39 2326.75 1877.8 2329.68 1877.8 2333.45C1877.8 2335.97 1878.06 2338.11 1878.59 2339.88C1879.12 2341.64 1879.88 2342.98 1880.88 2343.89C1881.88 2344.81 1883.09 2345.27 1884.5 2345.27ZM1910.35 2317.55L1900.98 2352.38H1897.91L1907.28 2317.55H1910.35ZM1924.5 2318.91V2348H1920.97V2322.6H1920.8L1913.7 2327.32V2323.74L1920.97 2318.91H1924.5Z" fill="white"/>
<path d="M1684.24 2318.91V2348H1680.72V2322.6H1680.55L1673.44 2327.32V2323.74L1680.72 2318.91H1684.24ZM1702.95 2317.55L1693.57 2352.38H1690.5L1699.88 2317.55H1702.95ZM1717.09 2318.91V2348H1713.57V2322.6H1713.4L1706.29 2327.32V2323.74L1713.57 2318.91H1717.09Z" fill="white"/>
<path d="M2176.24 2318.91V2348H2172.72V2322.6H2172.55L2165.44 2327.32V2323.74L2172.72 2318.91H2176.24ZM2194.95 2317.55L2185.57 2352.38H2182.5L2191.88 2317.55H2194.95ZM2209.09 2318.91V2348H2205.57V2322.6H2205.4L2198.29 2327.32V2323.74L2205.57 2318.91H2209.09Z" fill="white"/>
<path d="M2387.24 2318.91V2348H2383.72V2322.6H2383.55L2376.44 2327.32V2323.74L2383.72 2318.91H2387.24ZM2405.95 2317.55L2396.57 2352.38H2393.5L2402.88 2317.55H2405.95ZM2409.86 2348V2345.44L2419.47 2334.93C2420.59 2333.7 2421.52 2332.63 2422.25 2331.72C2422.98 2330.8 2423.52 2329.94 2423.87 2329.14C2424.23 2328.32 2424.41 2327.47 2424.41 2326.58C2424.41 2325.56 2424.16 2324.67 2423.67 2323.92C2423.19 2323.18 2422.52 2322.6 2421.68 2322.19C2420.84 2321.78 2419.89 2321.58 2418.84 2321.58C2417.72 2321.58 2416.75 2321.81 2415.91 2322.28C2415.09 2322.73 2414.45 2323.37 2414 2324.19C2413.55 2325.02 2413.33 2325.98 2413.33 2327.09H2409.98C2409.98 2325.39 2410.37 2323.89 2411.16 2322.6C2411.94 2321.31 2413.01 2320.31 2414.37 2319.59C2415.73 2318.87 2417.26 2318.51 2418.95 2318.51C2420.66 2318.51 2422.17 2318.87 2423.49 2319.59C2424.8 2320.31 2425.83 2321.28 2426.58 2322.5C2427.33 2323.72 2427.7 2325.08 2427.7 2326.58C2427.7 2327.65 2427.51 2328.7 2427.12 2329.72C2426.74 2330.73 2426.08 2331.86 2425.13 2333.11C2424.2 2334.35 2422.89 2335.87 2421.23 2337.66L2414.69 2344.65V2344.88H2428.22V2348H2409.86Z" fill="white"/>
<path d="M2603.24 2318.91V2348H2599.72V2322.6H2599.55L2592.44 2327.32V2323.74L2599.72 2318.91H2603.24ZM2621.95 2317.55L2612.57 2352.38H2609.5L2618.88 2317.55H2621.95ZM2636.09 2318.91V2348H2632.57V2322.6H2632.4L2625.29 2327.32V2323.74L2632.57 2318.91H2636.09Z" fill="white"/>
<path d="M1463.59 1481.43V1457.21L1524.31 1361.55H1545.19V1395.07H1532.84L1494.55 1455.65V1456.79H1580.85V1481.43H1463.59ZM1533.4 1507V1474.05L1533.97 1463.32V1361.55H1562.81V1507H1533.4ZM1624.81 1507V1445.18H1646.42C1650.72 1445.18 1654.28 1445.93 1657.07 1447.42C1659.87 1448.88 1661.95 1450.87 1663.32 1453.36C1664.69 1455.84 1665.37 1458.58 1665.37 1461.6C1665.37 1464.26 1664.9 1466.45 1663.96 1468.18C1663.03 1469.91 1661.8 1471.28 1660.27 1472.29C1658.76 1473.29 1657.12 1474.04 1655.35 1474.52V1475.12C1657.24 1475.25 1659.15 1475.91 1661.06 1477.12C1662.97 1478.32 1664.57 1480.06 1665.86 1482.31C1667.15 1484.56 1667.79 1487.32 1667.79 1490.58C1667.79 1493.68 1667.08 1496.47 1665.68 1498.94C1664.27 1501.42 1662.04 1503.38 1659.01 1504.83C1655.97 1506.28 1652.01 1507 1647.14 1507H1624.81ZM1632.29 1500.36H1647.14C1652.03 1500.36 1655.5 1499.41 1657.56 1497.52C1659.63 1495.61 1660.67 1493.3 1660.67 1490.58C1660.67 1488.49 1660.13 1486.55 1659.07 1484.78C1658 1482.99 1656.48 1481.56 1654.51 1480.5C1652.54 1479.41 1650.2 1478.87 1647.5 1478.87H1632.29V1500.36ZM1632.29 1472.35H1646.18C1648.43 1472.35 1650.46 1471.91 1652.27 1471.02C1654.11 1470.13 1655.55 1468.89 1656.62 1467.28C1657.71 1465.67 1658.25 1463.78 1658.25 1461.6C1658.25 1458.89 1657.3 1456.58 1655.41 1454.69C1653.52 1452.78 1650.52 1451.82 1646.42 1451.82H1632.29V1472.35ZM1692.77 1508.09C1689.83 1508.09 1687.16 1507.53 1684.77 1506.43C1682.37 1505.3 1680.47 1503.68 1679.06 1501.57C1677.65 1499.43 1676.95 1496.86 1676.95 1493.84C1676.95 1491.18 1677.47 1489.03 1678.52 1487.38C1679.57 1485.71 1680.96 1484.4 1682.72 1483.46C1684.47 1482.51 1686.4 1481.81 1688.51 1481.34C1690.64 1480.86 1692.79 1480.48 1694.94 1480.2C1697.76 1479.83 1700.04 1479.56 1701.79 1479.38C1703.56 1479.18 1704.85 1478.85 1705.66 1478.38C1706.48 1477.92 1706.89 1477.12 1706.89 1475.97V1475.73C1706.89 1472.75 1706.08 1470.44 1704.45 1468.79C1702.84 1467.14 1700.39 1466.31 1697.11 1466.31C1693.71 1466.31 1691.05 1467.06 1689.11 1468.54C1687.18 1470.03 1685.82 1471.62 1685.04 1473.31L1678.28 1470.9C1679.49 1468.08 1681.1 1465.89 1683.11 1464.32C1685.14 1462.73 1687.35 1461.62 1689.75 1461C1692.16 1460.35 1694.54 1460.03 1696.87 1460.03C1698.36 1460.03 1700.07 1460.21 1702 1460.58C1703.96 1460.92 1705.84 1461.63 1707.65 1462.72C1709.48 1463.81 1711 1465.45 1712.21 1467.64C1713.41 1469.83 1714.02 1472.77 1714.02 1476.45V1507H1706.89V1500.72H1706.53C1706.05 1501.73 1705.24 1502.8 1704.12 1503.95C1702.99 1505.1 1701.49 1506.07 1699.62 1506.88C1697.75 1507.68 1695.46 1508.09 1692.77 1508.09ZM1693.85 1501.69C1696.67 1501.69 1699.05 1501.13 1700.98 1500.03C1702.93 1498.92 1704.4 1497.49 1705.38 1495.74C1706.39 1493.99 1706.89 1492.15 1706.89 1490.22V1483.7C1706.59 1484.06 1705.93 1484.39 1704.9 1484.69C1703.89 1484.98 1702.73 1485.23 1701.4 1485.45C1700.09 1485.65 1698.81 1485.83 1697.57 1485.99C1696.34 1486.13 1695.34 1486.25 1694.58 1486.35C1692.73 1486.6 1691 1486.99 1689.39 1487.53C1687.8 1488.05 1686.51 1488.85 1685.52 1489.92C1684.56 1490.96 1684.07 1492.39 1684.07 1494.2C1684.07 1496.68 1684.99 1498.55 1686.82 1499.82C1688.67 1501.06 1691.02 1501.69 1693.85 1501.69ZM1745.85 1507.97C1741.51 1507.97 1737.76 1506.94 1734.63 1504.89C1731.49 1502.83 1729.07 1500.01 1727.38 1496.41C1725.69 1492.8 1724.85 1488.69 1724.85 1484.06C1724.85 1479.35 1725.71 1475.2 1727.44 1471.59C1729.19 1467.97 1731.63 1465.14 1734.75 1463.11C1737.89 1461.06 1741.55 1460.03 1745.73 1460.03C1748.99 1460.03 1751.93 1460.64 1754.55 1461.84C1757.16 1463.05 1759.31 1464.74 1760.98 1466.91C1762.65 1469.09 1763.68 1471.62 1764.09 1474.52H1756.96C1756.42 1472.41 1755.21 1470.54 1753.34 1468.91C1751.49 1467.26 1748.99 1466.43 1745.85 1466.43C1743.08 1466.43 1740.64 1467.16 1738.55 1468.61C1736.48 1470.03 1734.86 1472.06 1733.69 1474.67C1732.54 1477.27 1731.97 1480.32 1731.97 1483.82C1731.97 1487.4 1732.53 1490.52 1733.66 1493.18C1734.81 1495.83 1736.42 1497.89 1738.49 1499.36C1740.58 1500.83 1743.04 1501.57 1745.85 1501.57C1747.71 1501.57 1749.39 1501.24 1750.89 1500.6C1752.4 1499.96 1753.68 1499.03 1754.73 1497.82C1755.77 1496.62 1756.52 1495.17 1756.96 1493.48H1764.09C1763.68 1496.21 1762.69 1498.68 1761.1 1500.87C1759.53 1503.05 1757.45 1504.78 1754.85 1506.06C1752.27 1507.33 1749.28 1507.97 1745.85 1507.97ZM1781.14 1490.1L1781.02 1481.28H1782.47L1802.75 1460.64H1811.57L1789.95 1482.49H1789.35L1781.14 1490.1ZM1774.5 1507V1445.18H1781.62V1507H1774.5ZM1803.96 1507L1785.85 1484.06L1790.92 1479.11L1813.02 1507H1803.96ZM1820.73 1524.39V1460.64H1827.62V1468H1828.46C1828.99 1467.2 1829.71 1466.17 1830.64 1464.92C1831.58 1463.65 1832.93 1462.53 1834.68 1461.54C1836.45 1460.54 1838.85 1460.03 1841.86 1460.03C1845.77 1460.03 1849.21 1461.01 1852.19 1462.96C1855.17 1464.91 1857.49 1467.68 1859.16 1471.26C1860.83 1474.84 1861.67 1479.07 1861.67 1483.94C1861.67 1488.85 1860.83 1493.1 1859.16 1496.71C1857.49 1500.29 1855.18 1503.07 1852.22 1505.04C1849.26 1506.99 1845.85 1507.97 1841.98 1507.97C1839.01 1507.97 1836.62 1507.47 1834.83 1506.49C1833.04 1505.48 1831.66 1504.34 1830.7 1503.08C1829.73 1501.79 1828.99 1500.72 1828.46 1499.88H1827.86V1524.39H1820.73ZM1827.74 1483.82C1827.74 1487.32 1828.25 1490.41 1829.28 1493.08C1830.3 1495.74 1831.8 1497.82 1833.77 1499.33C1835.75 1500.82 1838.16 1501.57 1841.02 1501.57C1844 1501.57 1846.48 1500.78 1848.47 1499.21C1850.49 1497.62 1852 1495.49 1853 1492.81C1854.03 1490.12 1854.54 1487.12 1854.54 1483.82C1854.54 1480.56 1854.04 1477.62 1853.03 1475C1852.05 1472.37 1850.55 1470.29 1848.53 1468.76C1846.54 1467.21 1844.04 1466.43 1841.02 1466.43C1838.12 1466.43 1835.69 1467.17 1833.71 1468.64C1831.74 1470.08 1830.25 1472.12 1829.25 1474.73C1828.24 1477.33 1827.74 1480.36 1827.74 1483.82ZM1872.53 1507V1460.64H1879.41V1467.64H1879.9C1880.74 1465.35 1882.27 1463.48 1884.48 1462.06C1886.7 1460.63 1889.19 1459.91 1891.97 1459.91C1892.49 1459.91 1893.15 1459.92 1893.93 1459.94C1894.72 1459.96 1895.31 1459.99 1895.71 1460.03V1467.28C1895.47 1467.22 1894.92 1467.13 1894.05 1467.01C1893.21 1466.86 1892.31 1466.79 1891.37 1466.79C1889.11 1466.79 1887.1 1467.27 1885.33 1468.21C1883.58 1469.14 1882.19 1470.43 1881.16 1472.08C1880.16 1473.71 1879.66 1475.57 1879.66 1477.66V1507H1872.53ZM1921.58 1507.97C1917.4 1507.97 1913.72 1506.97 1910.56 1504.98C1907.43 1502.99 1904.97 1500.2 1903.2 1496.62C1901.45 1493.03 1900.57 1488.85 1900.57 1484.06C1900.57 1479.23 1901.45 1475.01 1903.2 1471.41C1904.97 1467.81 1907.43 1465.01 1910.56 1463.02C1913.72 1461.03 1917.4 1460.03 1921.58 1460.03C1925.77 1460.03 1929.43 1461.03 1932.57 1463.02C1935.73 1465.01 1938.18 1467.81 1939.93 1471.41C1941.7 1475.01 1942.59 1479.23 1942.59 1484.06C1942.59 1488.85 1941.7 1493.03 1939.93 1496.62C1938.18 1500.2 1935.73 1502.99 1932.57 1504.98C1929.43 1506.97 1925.77 1507.97 1921.58 1507.97ZM1921.58 1501.57C1924.76 1501.57 1927.38 1500.75 1929.43 1499.12C1931.48 1497.49 1933 1495.35 1933.99 1492.69C1934.97 1490.04 1935.47 1487.16 1935.47 1484.06C1935.47 1480.96 1934.97 1478.07 1933.99 1475.4C1933 1472.72 1931.48 1470.56 1929.43 1468.91C1927.38 1467.26 1924.76 1466.43 1921.58 1466.43C1918.4 1466.43 1915.79 1467.26 1913.73 1468.91C1911.68 1470.56 1910.16 1472.72 1909.18 1475.4C1908.19 1478.07 1907.7 1480.96 1907.7 1484.06C1907.7 1487.16 1908.19 1490.04 1909.18 1492.69C1910.16 1495.35 1911.68 1497.49 1913.73 1499.12C1915.79 1500.75 1918.4 1501.57 1921.58 1501.57ZM1953.46 1524.39V1460.64H1960.35V1468H1961.19C1961.71 1467.2 1962.44 1466.17 1963.36 1464.92C1964.31 1463.65 1965.66 1462.53 1967.41 1461.54C1969.18 1460.54 1971.58 1460.03 1974.59 1460.03C1978.5 1460.03 1981.94 1461.01 1984.92 1462.96C1987.89 1464.91 1990.22 1467.68 1991.89 1471.26C1993.56 1474.84 1994.39 1479.07 1994.39 1483.94C1994.39 1488.85 1993.56 1493.1 1991.89 1496.71C1990.22 1500.29 1987.9 1503.07 1984.95 1505.04C1981.99 1506.99 1978.58 1507.97 1974.71 1507.97C1971.74 1507.97 1969.35 1507.47 1967.56 1506.49C1965.77 1505.48 1964.39 1504.34 1963.43 1503.08C1962.46 1501.79 1961.71 1500.72 1961.19 1499.88H1960.59V1524.39H1953.46ZM1960.47 1483.82C1960.47 1487.32 1960.98 1490.41 1962.01 1493.08C1963.03 1495.74 1964.53 1497.82 1966.5 1499.33C1968.48 1500.82 1970.89 1501.57 1973.75 1501.57C1976.73 1501.57 1979.21 1500.78 1981.2 1499.21C1983.22 1497.62 1984.73 1495.49 1985.73 1492.81C1986.76 1490.12 1987.27 1487.12 1987.27 1483.82C1987.27 1480.56 1986.77 1477.62 1985.76 1475C1984.78 1472.37 1983.28 1470.29 1981.26 1468.76C1979.27 1467.21 1976.77 1466.43 1973.75 1466.43C1970.85 1466.43 1968.42 1467.17 1966.44 1468.64C1964.47 1470.08 1962.98 1472.12 1961.98 1474.73C1960.97 1477.33 1960.47 1480.36 1960.47 1483.82ZM2018.9 1508.09C2015.97 1508.09 2013.3 1507.53 2010.91 1506.43C2008.51 1505.3 2006.61 1503.68 2005.2 1501.57C2003.79 1499.43 2003.09 1496.86 2003.09 1493.84C2003.09 1491.18 2003.61 1489.03 2004.66 1487.38C2005.7 1485.71 2007.1 1484.4 2008.85 1483.46C2010.6 1482.51 2012.54 1481.81 2014.65 1481.34C2016.78 1480.86 2018.92 1480.48 2021.08 1480.2C2023.9 1479.83 2026.18 1479.56 2027.93 1479.38C2029.7 1479.18 2030.99 1478.85 2031.79 1478.38C2032.62 1477.92 2033.03 1477.12 2033.03 1475.97V1475.73C2033.03 1472.75 2032.22 1470.44 2030.59 1468.79C2028.98 1467.14 2026.53 1466.31 2023.25 1466.31C2019.85 1466.31 2017.18 1467.06 2015.25 1468.54C2013.32 1470.03 2011.96 1471.62 2011.18 1473.31L2004.42 1470.9C2005.62 1468.08 2007.23 1465.89 2009.25 1464.32C2011.28 1462.73 2013.49 1461.62 2015.89 1461C2018.3 1460.35 2020.68 1460.03 2023.01 1460.03C2024.5 1460.03 2026.21 1460.21 2028.14 1460.58C2030.09 1460.92 2031.97 1461.63 2033.79 1462.72C2035.62 1463.81 2037.14 1465.45 2038.34 1467.64C2039.55 1469.83 2040.15 1472.77 2040.15 1476.45V1507H2033.03V1500.72H2032.67C2032.19 1501.73 2031.38 1502.8 2030.25 1503.95C2029.13 1505.1 2027.63 1506.07 2025.76 1506.88C2023.89 1507.68 2021.6 1508.09 2018.9 1508.09ZM2019.99 1501.69C2022.81 1501.69 2025.18 1501.13 2027.11 1500.03C2029.07 1498.92 2030.54 1497.49 2031.52 1495.74C2032.53 1493.99 2033.03 1492.15 2033.03 1490.22V1483.7C2032.73 1484.06 2032.07 1484.39 2031.04 1484.69C2030.03 1484.98 2028.87 1485.23 2027.54 1485.45C2026.23 1485.65 2024.95 1485.83 2023.7 1485.99C2022.48 1486.13 2021.48 1486.25 2020.72 1486.35C2018.86 1486.6 2017.13 1486.99 2015.52 1487.53C2013.93 1488.05 2012.65 1488.85 2011.66 1489.92C2010.69 1490.96 2010.21 1492.39 2010.21 1494.2C2010.21 1496.68 2011.13 1498.55 2012.96 1499.82C2014.81 1501.06 2017.15 1501.69 2019.99 1501.69ZM2071.87 1525.35C2068.43 1525.35 2065.47 1524.91 2063 1524.02C2060.52 1523.16 2058.46 1522.01 2056.81 1520.58C2055.18 1519.17 2053.88 1517.67 2052.92 1516.06L2058.59 1512.07C2059.23 1512.92 2060.05 1513.88 2061.03 1514.97C2062.02 1516.08 2063.37 1517.03 2065.08 1517.84C2066.81 1518.66 2069.07 1519.07 2071.87 1519.07C2075.61 1519.07 2078.7 1518.17 2081.14 1516.36C2083.57 1514.55 2084.79 1511.71 2084.79 1507.85V1498.43H2084.19C2083.66 1499.27 2082.92 1500.32 2081.95 1501.57C2081.01 1502.79 2079.64 1503.89 2077.85 1504.86C2076.08 1505.8 2073.68 1506.28 2070.66 1506.28C2066.92 1506.28 2063.56 1505.39 2060.58 1503.62C2057.62 1501.85 2055.28 1499.27 2053.55 1495.89C2051.84 1492.51 2050.98 1488.41 2050.98 1483.58C2050.98 1478.83 2051.82 1474.69 2053.49 1471.17C2055.16 1467.63 2057.48 1464.89 2060.46 1462.96C2063.44 1461.01 2066.88 1460.03 2070.78 1460.03C2073.8 1460.03 2076.2 1460.54 2077.97 1461.54C2079.76 1462.53 2081.13 1463.65 2082.07 1464.92C2083.04 1466.17 2083.78 1467.2 2084.31 1468H2085.03V1460.64H2091.91V1508.33C2091.91 1512.31 2091.01 1515.55 2089.2 1518.05C2087.41 1520.56 2084.99 1522.4 2081.95 1523.57C2078.93 1524.76 2075.57 1525.35 2071.87 1525.35ZM2071.63 1499.88C2074.49 1499.88 2076.9 1499.22 2078.87 1497.91C2080.85 1496.61 2082.35 1494.72 2083.37 1492.27C2084.4 1489.81 2084.91 1486.88 2084.91 1483.46C2084.91 1480.12 2084.41 1477.17 2083.4 1474.61C2082.4 1472.06 2080.91 1470.05 2078.93 1468.61C2076.96 1467.16 2074.53 1466.43 2071.63 1466.43C2068.61 1466.43 2066.1 1467.2 2064.08 1468.73C2062.09 1470.26 2060.59 1472.31 2059.59 1474.88C2058.6 1477.46 2058.11 1480.32 2058.11 1483.46C2058.11 1486.68 2058.61 1489.52 2059.62 1492C2060.64 1494.45 2062.15 1496.39 2064.14 1497.79C2066.16 1499.18 2068.65 1499.88 2071.63 1499.88ZM2118.6 1508.09C2115.66 1508.09 2112.99 1507.53 2110.6 1506.43C2108.2 1505.3 2106.3 1503.68 2104.89 1501.57C2103.48 1499.43 2102.78 1496.86 2102.78 1493.84C2102.78 1491.18 2103.3 1489.03 2104.35 1487.38C2105.4 1485.71 2106.79 1484.4 2108.55 1483.46C2110.3 1482.51 2112.23 1481.81 2114.34 1481.34C2116.47 1480.86 2118.62 1480.48 2120.77 1480.2C2123.59 1479.83 2125.87 1479.56 2127.62 1479.38C2129.39 1479.18 2130.68 1478.85 2131.49 1478.38C2132.31 1477.92 2132.72 1477.12 2132.72 1475.97V1475.73C2132.72 1472.75 2131.91 1470.44 2130.28 1468.79C2128.67 1467.14 2126.22 1466.31 2122.94 1466.31C2119.54 1466.31 2116.88 1467.06 2114.94 1468.54C2113.01 1470.03 2111.65 1471.62 2110.87 1473.31L2104.11 1470.9C2105.32 1468.08 2106.93 1465.89 2108.94 1464.32C2110.97 1462.73 2113.18 1461.62 2115.58 1461C2117.99 1460.35 2120.37 1460.03 2122.7 1460.03C2124.19 1460.03 2125.9 1460.21 2127.83 1460.58C2129.79 1460.92 2131.67 1461.63 2133.48 1462.72C2135.31 1463.81 2136.83 1465.45 2138.04 1467.64C2139.24 1469.83 2139.85 1472.77 2139.85 1476.45V1507H2132.72V1500.72H2132.36C2131.88 1501.73 2131.07 1502.8 2129.95 1503.95C2128.82 1505.1 2127.32 1506.07 2125.45 1506.88C2123.58 1507.68 2121.29 1508.09 2118.6 1508.09ZM2119.68 1501.69C2122.5 1501.69 2124.88 1501.13 2126.81 1500.03C2128.76 1498.92 2130.23 1497.49 2131.21 1495.74C2132.22 1493.99 2132.72 1492.15 2132.72 1490.22V1483.7C2132.42 1484.06 2131.76 1484.39 2130.73 1484.69C2129.73 1484.98 2128.56 1485.23 2127.23 1485.45C2125.92 1485.65 2124.64 1485.83 2123.4 1485.99C2122.17 1486.13 2121.17 1486.25 2120.41 1486.35C2118.56 1486.6 2116.83 1486.99 2115.22 1487.53C2113.63 1488.05 2112.34 1488.85 2111.35 1489.92C2110.39 1490.96 2109.9 1492.39 2109.9 1494.2C2109.9 1496.68 2110.82 1498.55 2112.65 1499.82C2114.5 1501.06 2116.85 1501.69 2119.68 1501.69ZM2173.01 1460.64V1466.67H2148.99V1460.64H2173.01ZM2155.99 1449.53H2163.11V1493.72C2163.11 1495.73 2163.4 1497.24 2163.99 1498.25C2164.59 1499.23 2165.36 1499.9 2166.28 1500.24C2167.23 1500.56 2168.22 1500.72 2169.27 1500.72C2170.05 1500.72 2170.7 1500.68 2171.2 1500.6C2171.7 1500.5 2172.11 1500.42 2172.41 1500.36L2173.86 1506.76C2173.37 1506.94 2172.7 1507.12 2171.84 1507.3C2170.97 1507.5 2169.87 1507.6 2168.55 1507.6C2166.53 1507.6 2164.56 1507.17 2162.63 1506.31C2160.72 1505.44 2159.13 1504.12 2157.86 1502.35C2156.61 1500.58 2155.99 1498.35 2155.99 1495.65V1449.53ZM2183.73 1507V1460.64H2190.85V1507H2183.73ZM2187.35 1452.91C2185.96 1452.91 2184.76 1452.44 2183.76 1451.49C2182.77 1450.54 2182.28 1449.41 2182.28 1448.08C2182.28 1446.75 2182.77 1445.61 2183.76 1444.67C2184.76 1443.72 2185.96 1443.25 2187.35 1443.25C2188.74 1443.25 2189.93 1443.72 2190.91 1444.67C2191.92 1445.61 2192.42 1446.75 2192.42 1448.08C2192.42 1449.41 2191.92 1450.54 2190.91 1451.49C2189.93 1452.44 2188.74 1452.91 2187.35 1452.91ZM2222.73 1507.97C2218.55 1507.97 2214.88 1506.97 2211.72 1504.98C2208.58 1502.99 2206.12 1500.2 2204.35 1496.62C2202.6 1493.03 2201.73 1488.85 2201.73 1484.06C2201.73 1479.23 2202.6 1475.01 2204.35 1471.41C2206.12 1467.81 2208.58 1465.01 2211.72 1463.02C2214.88 1461.03 2218.55 1460.03 2222.73 1460.03C2226.92 1460.03 2230.58 1461.03 2233.72 1463.02C2236.88 1465.01 2239.34 1467.81 2241.09 1471.41C2242.86 1475.01 2243.74 1479.23 2243.74 1484.06C2243.74 1488.85 2242.86 1493.03 2241.09 1496.62C2239.34 1500.2 2236.88 1502.99 2233.72 1504.98C2230.58 1506.97 2226.92 1507.97 2222.73 1507.97ZM2222.73 1501.57C2225.91 1501.57 2228.53 1500.75 2230.58 1499.12C2232.63 1497.49 2234.15 1495.35 2235.14 1492.69C2236.13 1490.04 2236.62 1487.16 2236.62 1484.06C2236.62 1480.96 2236.13 1478.07 2235.14 1475.4C2234.15 1472.72 2232.63 1470.56 2230.58 1468.91C2228.53 1467.26 2225.91 1466.43 2222.73 1466.43C2219.55 1466.43 2216.94 1467.26 2214.89 1468.91C2212.83 1470.56 2211.31 1472.72 2210.33 1475.4C2209.34 1478.07 2208.85 1480.96 2208.85 1484.06C2208.85 1487.16 2209.34 1490.04 2210.33 1492.69C2211.31 1495.35 2212.83 1497.49 2214.89 1499.12C2216.94 1500.75 2219.55 1501.57 2222.73 1501.57ZM2261.74 1479.11V1507H2254.62V1460.64H2261.5V1467.88H2262.1C2263.19 1465.53 2264.84 1463.63 2267.05 1462.21C2269.27 1460.76 2272.12 1460.03 2275.63 1460.03C2278.76 1460.03 2281.51 1460.68 2283.87 1461.96C2286.22 1463.23 2288.05 1465.16 2289.36 1467.76C2290.67 1470.34 2291.32 1473.6 2291.32 1477.54V1507H2284.2V1478.02C2284.2 1474.38 2283.25 1471.54 2281.36 1469.51C2279.47 1467.46 2276.87 1466.43 2273.57 1466.43C2271.3 1466.43 2269.27 1466.92 2267.48 1467.91C2265.7 1468.9 2264.31 1470.34 2263.28 1472.23C2262.25 1474.12 2261.74 1476.41 2261.74 1479.11Z" fill="black"/>
<path d="M1464.79 148V125.841L1516.57 77.9006C1520.97 73.6392 1524.66 69.804 1527.64 66.3949C1530.68 62.9858 1532.97 59.6477 1534.53 56.3807C1536.1 53.0663 1536.88 49.4915 1536.88 45.6562C1536.88 41.3949 1535.91 37.7254 1533.97 34.6477C1532.02 31.5227 1529.37 29.1316 1526.01 27.4744C1522.65 25.7699 1518.84 24.9176 1514.58 24.9176C1510.13 24.9176 1506.24 25.8172 1502.93 27.6165C1499.61 29.4157 1497.06 31.9962 1495.26 35.358C1493.46 38.7197 1492.56 42.7206 1492.56 47.3608H1463.37C1463.37 37.8437 1465.52 29.5814 1469.83 22.5739C1474.14 15.5663 1480.18 10.1449 1487.94 6.30965C1495.71 2.47443 1504.66 0.556813 1514.79 0.556813C1525.21 0.556813 1534.27 2.4034 1541.99 6.09659C1549.76 9.74242 1555.79 14.8087 1560.1 21.2955C1564.41 27.7822 1566.57 35.2159 1566.57 43.5966C1566.57 49.089 1565.48 54.5104 1563.3 59.8608C1561.17 65.2112 1557.36 71.1534 1551.86 77.6875C1546.37 84.1742 1538.63 91.9631 1528.64 101.054L1507.4 121.864V122.858H1568.48V148H1464.79ZM1614.24 148V86.1818H1651.54V92.8224H1621.72V113.71H1649.61V120.351H1621.72V141.359H1652.03V148H1614.24ZM1669.38 101.636L1680.49 120.592L1691.6 101.636H1699.81L1684.84 124.818L1699.81 148H1691.6L1680.49 130.01L1669.38 148H1661.17L1675.9 124.818L1661.17 101.636H1669.38ZM1709.97 165.386V101.636H1716.86V109.001H1717.7C1718.22 108.196 1718.95 107.17 1719.87 105.923C1720.82 104.655 1722.17 103.528 1723.92 102.542C1725.69 101.536 1728.08 101.033 1731.1 101.033C1735.01 101.033 1738.45 102.009 1741.43 103.961C1744.4 105.913 1746.73 108.679 1748.4 112.261C1750.07 115.843 1750.9 120.069 1750.9 124.939C1750.9 129.849 1750.07 134.105 1748.4 137.707C1746.73 141.289 1744.41 144.066 1741.46 146.038C1738.5 147.99 1735.09 148.966 1731.22 148.966C1728.25 148.966 1725.86 148.473 1724.07 147.487C1722.28 146.481 1720.9 145.344 1719.93 144.076C1718.97 142.788 1718.22 141.722 1717.7 140.876H1717.1V165.386H1709.97ZM1716.98 124.818C1716.98 128.32 1717.49 131.408 1718.52 134.085C1719.54 136.741 1721.04 138.824 1723.01 140.333C1724.99 141.822 1727.4 142.567 1730.26 142.567C1733.24 142.567 1735.72 141.782 1737.71 140.212C1739.73 138.623 1741.24 136.49 1742.24 133.813C1743.27 131.117 1743.78 128.118 1743.78 124.818C1743.78 121.558 1743.28 118.62 1742.27 116.004C1741.29 113.368 1739.79 111.285 1737.77 109.756C1735.78 108.207 1733.28 107.432 1730.26 107.432C1727.36 107.432 1724.93 108.166 1722.95 109.635C1720.98 111.084 1719.49 113.117 1718.49 115.733C1717.48 118.328 1716.98 121.357 1716.98 124.818ZM1775.41 149.087C1772.48 149.087 1769.81 148.533 1767.42 147.426C1765.02 146.3 1763.12 144.68 1761.71 142.567C1760.3 140.434 1759.6 137.858 1759.6 134.839C1759.6 132.183 1760.12 130.03 1761.17 128.38C1762.21 126.71 1763.61 125.402 1765.36 124.456C1767.11 123.51 1769.05 122.806 1771.16 122.343C1773.29 121.86 1775.43 121.478 1777.59 121.196C1780.4 120.834 1782.69 120.562 1784.44 120.381C1786.21 120.18 1787.5 119.848 1788.3 119.385C1789.13 118.922 1789.54 118.117 1789.54 116.97V116.729C1789.54 113.75 1788.73 111.436 1787.1 109.786C1785.49 108.136 1783.04 107.311 1779.76 107.311C1776.36 107.311 1773.69 108.056 1771.76 109.545C1769.83 111.034 1768.47 112.624 1767.69 114.314L1760.93 111.899C1762.13 109.082 1763.74 106.888 1765.76 105.319C1767.79 103.729 1770 102.622 1772.4 101.999C1774.81 101.355 1777.19 101.033 1779.52 101.033C1781.01 101.033 1782.72 101.214 1784.65 101.576C1786.6 101.918 1788.48 102.632 1790.3 103.719C1792.13 104.806 1793.65 106.446 1794.85 108.639C1796.06 110.833 1796.66 113.771 1796.66 117.453V148H1789.54V141.722H1789.18C1788.7 142.728 1787.89 143.804 1786.76 144.951C1785.64 146.098 1784.14 147.074 1782.27 147.879C1780.39 148.684 1778.11 149.087 1775.41 149.087ZM1776.5 142.688C1779.32 142.688 1781.69 142.134 1783.62 141.027C1785.58 139.921 1787.05 138.492 1788.03 136.741C1789.04 134.99 1789.54 133.149 1789.54 131.217V124.697C1789.24 125.06 1788.57 125.392 1787.55 125.694C1786.54 125.975 1785.38 126.227 1784.05 126.448C1782.74 126.649 1781.46 126.83 1780.21 126.991C1778.99 127.132 1777.99 127.253 1777.23 127.354C1775.37 127.595 1773.64 127.988 1772.03 128.531C1770.44 129.054 1769.16 129.849 1768.17 130.915C1767.2 131.962 1766.72 133.391 1766.72 135.202C1766.72 137.677 1767.64 139.548 1769.47 140.816C1771.32 142.064 1773.66 142.688 1776.5 142.688ZM1816.79 120.109V148H1809.67V101.636H1816.55V108.881H1817.15C1818.24 106.526 1819.89 104.635 1822.1 103.206C1824.32 101.757 1827.17 101.033 1830.67 101.033C1833.81 101.033 1836.56 101.677 1838.92 102.964C1841.27 104.232 1843.1 106.164 1844.41 108.76C1845.72 111.336 1846.37 114.596 1846.37 118.54V148H1839.25V119.023C1839.25 115.38 1838.3 112.543 1836.41 110.511C1834.52 108.458 1831.92 107.432 1828.62 107.432C1826.35 107.432 1824.32 107.925 1822.53 108.911C1820.75 109.897 1819.36 111.336 1818.33 113.227C1817.3 115.119 1816.79 117.413 1816.79 120.109ZM1892.23 112.02L1885.83 113.831C1885.43 112.764 1884.83 111.728 1884.05 110.722C1883.28 109.696 1882.24 108.85 1880.91 108.186C1879.58 107.522 1877.88 107.19 1875.81 107.19C1872.97 107.19 1870.61 107.844 1868.72 109.152C1866.84 110.44 1865.91 112.08 1865.91 114.072C1865.91 115.843 1866.55 117.242 1867.84 118.268C1869.13 119.294 1871.14 120.15 1873.88 120.834L1880.76 122.524C1884.9 123.53 1887.99 125.07 1890.03 127.142C1892.06 129.195 1893.07 131.841 1893.07 135.081C1893.07 137.737 1892.31 140.112 1890.78 142.205C1889.27 144.297 1887.16 145.947 1884.44 147.155C1881.72 148.362 1878.57 148.966 1874.96 148.966C1870.23 148.966 1866.32 147.94 1863.22 145.887C1860.12 143.835 1858.16 140.836 1857.34 136.892L1864.1 135.202C1864.74 137.697 1865.96 139.568 1867.75 140.816C1869.56 142.064 1871.92 142.688 1874.84 142.688C1878.16 142.688 1880.8 141.983 1882.75 140.575C1884.72 139.146 1885.71 137.435 1885.71 135.443C1885.71 133.833 1885.15 132.485 1884.02 131.398C1882.89 130.292 1881.16 129.467 1878.83 128.923L1871.1 127.112C1866.85 126.106 1863.73 124.547 1861.74 122.434C1859.77 120.301 1858.78 117.634 1858.78 114.435C1858.78 111.819 1859.52 109.504 1860.99 107.492C1862.48 105.48 1864.5 103.9 1867.05 102.753C1869.63 101.606 1872.55 101.033 1875.81 101.033C1880.4 101.033 1884 102.039 1886.61 104.051C1889.25 106.063 1891.12 108.72 1892.23 112.02ZM1903.8 148V101.636H1910.92V148H1903.8ZM1907.42 93.9091C1906.03 93.9091 1904.83 93.4362 1903.83 92.4904C1902.84 91.5446 1902.35 90.4077 1902.35 89.0795C1902.35 87.7514 1902.84 86.6145 1903.83 85.6687C1904.83 84.7229 1906.03 84.25 1907.42 84.25C1908.81 84.25 1910 84.7229 1910.98 85.6687C1911.99 86.6145 1912.49 87.7514 1912.49 89.0795C1912.49 90.4077 1911.99 91.5446 1910.98 92.4904C1910 93.4362 1908.81 93.9091 1907.42 93.9091ZM1942.8 148.966C1938.62 148.966 1934.95 147.97 1931.79 145.978C1928.65 143.985 1926.19 141.198 1924.42 137.616C1922.67 134.035 1921.79 129.849 1921.79 125.06C1921.79 120.23 1922.67 116.014 1924.42 112.412C1926.19 108.81 1928.65 106.013 1931.79 104.021C1934.95 102.029 1938.62 101.033 1942.8 101.033C1946.99 101.033 1950.65 102.029 1953.79 104.021C1956.95 106.013 1959.4 108.81 1961.16 112.412C1962.93 116.014 1963.81 120.23 1963.81 125.06C1963.81 129.849 1962.93 134.035 1961.16 137.616C1959.4 141.198 1956.95 143.985 1953.79 145.978C1950.65 147.97 1946.99 148.966 1942.8 148.966ZM1942.8 142.567C1945.98 142.567 1948.6 141.752 1950.65 140.122C1952.7 138.492 1954.22 136.349 1955.21 133.692C1956.2 131.036 1956.69 128.159 1956.69 125.06C1956.69 121.961 1956.2 119.073 1955.21 116.397C1954.22 113.72 1952.7 111.557 1950.65 109.907C1948.6 108.257 1945.98 107.432 1942.8 107.432C1939.62 107.432 1937.01 108.257 1934.96 109.907C1932.9 111.557 1931.38 113.72 1930.4 116.397C1929.41 119.073 1928.92 121.961 1928.92 125.06C1928.92 128.159 1929.41 131.036 1930.4 133.692C1931.38 136.349 1932.9 138.492 1934.96 140.122C1937.01 141.752 1939.62 142.567 1942.8 142.567ZM1981.81 120.109V148H1974.69V101.636H1981.57V108.881H1982.17C1983.26 106.526 1984.91 104.635 1987.12 103.206C1989.34 101.757 1992.19 101.033 1995.69 101.033C1998.83 101.033 2001.58 101.677 2003.93 102.964C2006.29 104.232 2008.12 106.164 2009.43 108.76C2010.74 111.336 2011.39 114.596 2011.39 118.54V148H2004.27V119.023C2004.27 115.38 2003.32 112.543 2001.43 110.511C1999.54 108.458 1996.94 107.432 1993.64 107.432C1991.37 107.432 1989.34 107.925 1987.54 108.911C1985.77 109.897 1984.38 111.336 1983.35 113.227C1982.32 115.119 1981.81 117.413 1981.81 120.109Z" fill="black"/>
<path d="M824.403 3036V2999.64H837.116C839.65 2999.64 841.739 3000.07 843.384 3000.95C845.03 3001.81 846.255 3002.98 847.06 3004.45C847.865 3005.9 848.267 3007.52 848.267 3009.3C848.267 3010.86 847.989 3012.15 847.433 3013.17C846.888 3014.18 846.166 3014.99 845.266 3015.58C844.379 3016.17 843.414 3016.61 842.372 3016.89V3017.25C843.485 3017.32 844.603 3017.71 845.728 3018.42C846.853 3019.13 847.794 3020.15 848.551 3021.48C849.309 3022.8 849.688 3024.42 849.688 3026.34C849.688 3028.16 849.273 3029.8 848.445 3031.26C847.616 3032.72 846.308 3033.87 844.521 3034.72C842.733 3035.57 840.407 3036 837.543 3036H824.403ZM828.807 3032.09H837.543C840.419 3032.09 842.461 3031.54 843.668 3030.42C844.888 3029.3 845.497 3027.94 845.497 3026.34C845.497 3025.11 845.183 3023.97 844.556 3022.93C843.929 3021.88 843.035 3021.04 841.875 3020.41C840.715 3019.77 839.342 3019.45 837.756 3019.45H828.807V3032.09ZM828.807 3015.62H836.974C838.3 3015.62 839.496 3015.36 840.561 3014.84C841.638 3014.31 842.491 3013.58 843.118 3012.63C843.757 3011.69 844.077 3010.57 844.077 3009.3C844.077 3007.7 843.52 3006.34 842.408 3005.23C841.295 3004.1 839.531 3003.54 837.116 3003.54H828.807V3015.62ZM860.545 2999.64V3036H856.355V2999.64H860.545ZM885.407 3024.85V3008.73H889.598V3036H885.407V3031.38H885.123C884.484 3032.77 883.49 3033.95 882.14 3034.92C880.791 3035.88 879.086 3036.36 877.027 3036.36C875.322 3036.36 873.807 3035.98 872.481 3035.24C871.156 3034.48 870.114 3033.34 869.356 3031.83C868.599 3030.3 868.22 3028.38 868.22 3026.06V3008.73H872.41V3025.77C872.41 3027.76 872.967 3029.35 874.079 3030.53C875.204 3031.71 876.636 3032.31 878.376 3032.31C879.418 3032.31 880.477 3032.04 881.555 3031.51C882.644 3030.98 883.555 3030.16 884.289 3029.06C885.035 3027.96 885.407 3026.55 885.407 3024.85ZM908.707 3036.57C906.08 3036.57 903.813 3035.99 901.907 3034.83C900.013 3033.66 898.551 3032.02 897.521 3029.93C896.503 3027.82 895.994 3025.37 895.994 3022.58C895.994 3019.78 896.503 3017.32 897.521 3015.19C898.551 3013.05 899.983 3011.38 901.818 3010.18C903.665 3008.98 905.819 3008.37 908.281 3008.37C909.702 3008.37 911.104 3008.61 912.489 3009.08C913.874 3009.56 915.135 3010.33 916.271 3011.39C917.408 3012.44 918.313 3013.84 918.988 3015.58C919.663 3017.32 920 3019.46 920 3022.01V3023.78H898.977V3020.16H915.739C915.739 3018.62 915.431 3017.25 914.815 3016.04C914.212 3014.84 913.348 3013.88 912.223 3013.18C911.11 3012.49 909.796 3012.14 908.281 3012.14C906.612 3012.14 905.168 3012.55 903.949 3013.38C902.741 3014.2 901.812 3015.26 901.161 3016.58C900.51 3017.89 900.185 3019.3 900.185 3020.8V3023.22C900.185 3025.28 900.54 3027.02 901.25 3028.45C901.972 3029.87 902.972 3030.96 904.251 3031.7C905.529 3032.44 907.015 3032.8 908.707 3032.8C909.808 3032.8 910.803 3032.65 911.69 3032.34C912.59 3032.02 913.365 3031.55 914.016 3030.92C914.667 3030.28 915.17 3029.49 915.526 3028.54L919.574 3029.68C919.148 3031.05 918.432 3032.26 917.425 3033.3C916.419 3034.33 915.176 3035.14 913.697 3035.72C912.217 3036.28 910.554 3036.57 908.707 3036.57ZM946.616 3036L938.306 3008.73H942.71L948.604 3029.61H948.888L954.712 3008.73H959.187L964.94 3029.54H965.224L971.119 3008.73H975.522L967.212 3036H963.093L957.127 3015.05H956.701L950.735 3036H946.616ZM981.062 3036V3008.73H985.252V3036H981.062ZM983.192 3004.18C982.376 3004.18 981.671 3003.9 981.08 3003.35C980.5 3002.79 980.21 3002.12 980.21 3001.34C980.21 3000.56 980.5 2999.89 981.08 2999.33C981.671 2998.78 982.376 2998.5 983.192 2998.5C984.009 2998.5 984.708 2998.78 985.288 2999.33C985.879 2999.89 986.175 3000.56 986.175 3001.34C986.175 3002.12 985.879 3002.79 985.288 3003.35C984.708 3003.9 984.009 3004.18 983.192 3004.18ZM997.117 3019.59V3036H992.927V3008.73H996.975V3012.99H997.33C997.97 3011.6 998.94 3010.49 1000.24 3009.65C1001.54 3008.8 1003.23 3008.37 1005.28 3008.37C1007.13 3008.37 1008.75 3008.75 1010.13 3009.51C1011.52 3010.25 1012.59 3011.39 1013.36 3012.92C1014.13 3014.43 1014.52 3016.35 1014.52 3018.67V3036H1010.33V3018.95C1010.33 3016.81 1009.77 3015.14 1008.66 3013.95C1007.55 3012.74 1006.02 3012.14 1004.08 3012.14C1002.74 3012.14 1001.54 3012.43 1000.49 3013.01C999.449 3013.59 998.627 3014.43 998.023 3015.55C997.419 3016.66 997.117 3018.01 997.117 3019.59ZM1041.49 3014.84L1037.73 3015.9C1037.49 3015.27 1037.14 3014.66 1036.68 3014.07C1036.23 3013.47 1035.62 3012.97 1034.83 3012.58C1034.05 3012.19 1033.05 3011.99 1031.83 3011.99C1030.17 3011.99 1028.77 3012.38 1027.66 3013.15C1026.56 3013.91 1026.01 3014.87 1026.01 3016.04C1026.01 3017.08 1026.39 3017.91 1027.15 3018.51C1027.9 3019.11 1029.09 3019.62 1030.7 3020.02L1034.75 3021.01C1037.18 3021.61 1039 3022.51 1040.2 3023.73C1041.39 3024.94 1041.99 3026.49 1041.99 3028.4C1041.99 3029.96 1041.54 3031.36 1040.64 3032.59C1039.75 3033.82 1038.51 3034.79 1036.91 3035.5C1035.31 3036.21 1033.46 3036.57 1031.34 3036.57C1028.56 3036.57 1026.25 3035.96 1024.43 3034.76C1022.61 3033.55 1021.45 3031.79 1020.97 3029.47L1024.94 3028.47C1025.32 3029.94 1026.04 3031.04 1027.09 3031.77C1028.16 3032.51 1029.55 3032.88 1031.27 3032.88C1033.22 3032.88 1034.77 3032.46 1035.92 3031.63C1037.08 3030.79 1037.66 3029.79 1037.66 3028.61C1037.66 3027.67 1037.33 3026.87 1036.66 3026.23C1036 3025.58 1034.98 3025.1 1033.61 3024.78L1029.06 3023.71C1026.57 3023.12 1024.73 3022.2 1023.56 3020.96C1022.4 3019.71 1021.82 3018.14 1021.82 3016.26C1021.82 3014.72 1022.25 3013.36 1023.12 3012.17C1023.99 3010.99 1025.18 3010.06 1026.69 3009.38C1028.2 3008.71 1029.92 3008.37 1031.83 3008.37C1034.53 3008.37 1036.65 3008.96 1038.19 3010.15C1039.74 3011.33 1040.84 3012.89 1041.49 3014.84ZM1053.84 2999.64L1053.48 3025.77H1049.36L1049.01 2999.64H1053.84ZM1051.42 3036.28C1050.55 3036.28 1049.8 3035.97 1049.17 3035.34C1048.54 3034.72 1048.23 3033.96 1048.23 3033.09C1048.23 3032.21 1048.54 3031.46 1049.17 3030.83C1049.8 3030.21 1050.55 3029.89 1051.42 3029.89C1052.3 3029.89 1053.05 3030.21 1053.68 3030.83C1054.31 3031.46 1054.62 3032.21 1054.62 3033.09C1054.62 3033.67 1054.47 3034.2 1054.18 3034.69C1053.89 3035.17 1053.51 3035.56 1053.02 3035.86C1052.55 3036.14 1052.01 3036.28 1051.42 3036.28Z" fill="black"/>
</svg>
