<svg width="714" height="455" viewBox="0 0 714 455" fill="none" xmlns="http://www.w3.org/2000/svg">
<path d="M356 55L55 399" stroke="black" stroke-width="8"/>
<path d="M356 55L659 399" stroke="black" stroke-width="8"/>
<circle cx="355.5" cy="55.5" r="55.5" fill="#5E60CE"/>
<circle cx="55.5" cy="399.5" r="55.5" fill="#48BFE3"/>
<path d="M34.625 417.497C31.9498 417.497 29.6712 416.769 27.7891 415.313C25.907 413.845 24.4688 411.721 23.4744 408.939C22.4801 406.145 21.983 402.772 21.983 398.818C21.983 394.888 22.4801 391.532 23.4744 388.751C24.4806 385.957 25.9247 383.826 27.8068 382.359C29.7008 380.879 31.9735 380.139 34.625 380.139C37.2765 380.139 39.5433 380.879 41.4254 382.359C43.3194 383.826 44.7635 385.957 45.7578 388.751C46.764 391.532 47.267 394.888 47.267 398.818C47.267 402.772 46.7699 406.145 45.7756 408.939C44.7812 411.721 43.343 413.845 41.4609 415.313C39.5788 416.769 37.3002 417.497 34.625 417.497ZM34.625 413.591C37.2765 413.591 39.3362 412.312 40.804 409.756C42.2718 407.199 43.0057 403.553 43.0057 398.818C43.0057 395.67 42.6683 392.988 41.9936 390.775C41.3307 388.561 40.3719 386.875 39.1172 385.714C37.8743 384.554 36.3769 383.974 34.625 383.974C31.9972 383.974 29.9434 385.271 28.4638 387.863C26.9841 390.443 26.2443 394.095 26.2443 398.818C26.2443 401.967 26.5758 404.642 27.2386 406.844C27.9015 409.045 28.8544 410.72 30.0973 411.869C31.352 413.017 32.8613 413.591 34.625 413.591ZM66.9403 378.932L55.2216 422.469H51.3864L63.1051 378.932H66.9403ZM84.6206 380.636V417H80.2172V385.253H80.0041L71.1262 391.148V386.673L80.2172 380.636H84.6206Z" fill="white"/>
<circle cx="658.5" cy="399.5" r="55.5" fill="#48BFE3"/>
<path d="M642.548 381.636V418H638.145V386.253H637.932L629.054 392.148V387.673L638.145 381.636H642.548ZM665.933 379.932L654.214 423.469H650.379L662.097 379.932H665.933ZM683.613 381.636V418H679.209V386.253H678.996L670.118 392.148V387.673L679.209 381.636H683.613Z" fill="white"/>
<path d="M335.548 37.6364V74H331.145V42.2528H330.932L322.054 48.1477V43.6733L331.145 37.6364H335.548ZM358.933 35.9318L347.214 79.4688H343.379L355.097 35.9318H358.933ZM363.829 74V70.804L375.831 57.6648C377.24 56.1259 378.4 54.7884 379.312 53.652C380.223 52.5038 380.898 51.4266 381.336 50.4205C381.786 49.4025 382.01 48.3371 382.01 47.2244C382.01 45.946 381.703 44.8393 381.087 43.9041C380.483 42.969 379.655 42.2469 378.601 41.7379C377.548 41.2289 376.364 40.9744 375.05 40.9744C373.653 40.9744 372.434 41.2644 371.393 41.8445C370.363 42.4126 369.564 43.2116 368.996 44.2415C368.439 45.2713 368.161 46.4787 368.161 47.8636H363.971C363.971 45.733 364.462 43.8627 365.444 42.2528C366.427 40.643 367.765 39.3883 369.457 38.4886C371.162 37.589 373.073 37.1392 375.192 37.1392C377.323 37.1392 379.211 37.589 380.856 38.4886C382.502 39.3883 383.792 40.6016 384.727 42.1286C385.662 43.6555 386.13 45.3542 386.13 47.2244C386.13 48.562 385.887 49.87 385.402 51.1484C384.928 52.415 384.1 53.8295 382.916 55.392C381.744 56.9427 380.117 58.8366 378.033 61.0739L369.866 69.8097V70.0938H386.769V74H363.829Z" fill="white"/>
</svg>
