<svg width="1138" height="229" viewBox="0 0 1138 229" fill="none" xmlns="http://www.w3.org/2000/svg">
<rect x="795" y="28" width="343" height="94" rx="10" fill="#A3D9E9"/>
<path d="M634 37L569.5 0L505 37L569 74.5L634 37Z" fill="#A3D9E9"/>
<path d="M634 111.667V37L569 74.3334V149L634 111.667Z" fill="#1D8AAB"/>
<path d="M505 111.667L569 149V74.3334L505 37V111.667Z" fill="#68CBE9"/>
<path d="M833.486 70.3301V68.6758C833.486 68.1198 833.577 67.541 833.76 66.9395C833.951 66.3288 834.225 65.7454 834.58 65.1895C834.936 64.6243 835.364 64.1367 835.865 63.7266L837.301 64.7246C836.882 65.3262 836.558 65.946 836.33 66.584C836.102 67.2129 835.988 67.8965 835.988 68.6348V70.3301H833.486ZM837.793 70.3301V68.6758C837.793 68.1198 837.884 67.541 838.066 66.9395C838.258 66.3288 838.531 65.7454 838.887 65.1895C839.242 64.6243 839.671 64.1367 840.172 63.7266L841.607 64.7246C841.188 65.3262 840.865 65.946 840.637 66.584C840.409 67.2129 840.295 67.8965 840.295 68.6348V70.3301H837.793ZM847.09 65.0938V85H844.451V65.0938H847.09ZM854.035 73.3652V85H851.506V70.207H853.898L854.035 73.3652ZM853.434 77.043L852.381 77.002C852.39 75.9902 852.54 75.056 852.832 74.1992C853.124 73.3333 853.534 72.5814 854.062 71.9434C854.591 71.3053 855.22 70.8132 855.949 70.4668C856.688 70.1113 857.503 69.9336 858.396 69.9336C859.126 69.9336 859.782 70.0339 860.365 70.2344C860.949 70.4258 861.445 70.7357 861.855 71.1641C862.275 71.5924 862.594 72.1484 862.812 72.832C863.031 73.5065 863.141 74.3314 863.141 75.3066V85H860.598V75.2793C860.598 74.5046 860.484 73.8848 860.256 73.4199C860.028 72.946 859.695 72.6042 859.258 72.3945C858.82 72.1758 858.283 72.0664 857.645 72.0664C857.016 72.0664 856.441 72.1986 855.922 72.4629C855.411 72.7272 854.969 73.0918 854.596 73.5566C854.231 74.0215 853.944 74.5547 853.734 75.1562C853.534 75.7487 853.434 76.3776 853.434 77.043ZM871.48 82.7168L875.527 70.207H878.111L872.793 85H871.098L871.48 82.7168ZM868.104 70.207L872.273 82.7852L872.561 85H870.865L865.506 70.207H868.104ZM886.492 85.2734C885.462 85.2734 884.528 85.1003 883.689 84.7539C882.86 84.3984 882.145 83.9017 881.543 83.2637C880.951 82.6257 880.495 81.8691 880.176 80.9941C879.857 80.1191 879.697 79.1621 879.697 78.123V77.5488C879.697 76.3457 879.875 75.2747 880.23 74.3359C880.586 73.388 881.069 72.5859 881.68 71.9297C882.29 71.2734 882.983 70.7767 883.758 70.4395C884.533 70.1022 885.335 69.9336 886.164 69.9336C887.221 69.9336 888.133 70.1159 888.898 70.4805C889.673 70.8451 890.307 71.3555 890.799 72.0117C891.291 72.6589 891.656 73.4245 891.893 74.3086C892.13 75.1836 892.248 76.1406 892.248 77.1797V78.3145H881.201V76.25H889.719V76.0586C889.682 75.4023 889.546 74.7643 889.309 74.1445C889.081 73.5247 888.716 73.0143 888.215 72.6133C887.714 72.2122 887.03 72.0117 886.164 72.0117C885.59 72.0117 885.061 72.1348 884.578 72.3809C884.095 72.6178 883.68 72.9733 883.334 73.4473C882.988 73.9212 882.719 74.5 882.527 75.1836C882.336 75.8672 882.24 76.6556 882.24 77.5488V78.123C882.24 78.8249 882.336 79.4857 882.527 80.1055C882.728 80.7161 883.015 81.2539 883.389 81.7188C883.771 82.1836 884.232 82.5482 884.77 82.8125C885.316 83.0768 885.936 83.209 886.629 83.209C887.522 83.209 888.279 83.0267 888.898 82.6621C889.518 82.2975 890.061 81.8099 890.525 81.1992L892.057 82.416C891.738 82.8991 891.332 83.3594 890.84 83.7969C890.348 84.2344 889.742 84.5898 889.021 84.8633C888.311 85.1367 887.467 85.2734 886.492 85.2734ZM897.73 73.3652V85H895.201V70.207H897.594L897.73 73.3652ZM897.129 77.043L896.076 77.002C896.085 75.9902 896.236 75.056 896.527 74.1992C896.819 73.3333 897.229 72.5814 897.758 71.9434C898.286 71.3053 898.915 70.8132 899.645 70.4668C900.383 70.1113 901.199 69.9336 902.092 69.9336C902.821 69.9336 903.477 70.0339 904.061 70.2344C904.644 70.4258 905.141 70.7357 905.551 71.1641C905.97 71.5924 906.289 72.1484 906.508 72.832C906.727 73.5065 906.836 74.3314 906.836 75.3066V85H904.293V75.2793C904.293 74.5046 904.179 73.8848 903.951 73.4199C903.723 72.946 903.391 72.6042 902.953 72.3945C902.516 72.1758 901.978 72.0664 901.34 72.0664C900.711 72.0664 900.137 72.1986 899.617 72.4629C899.107 72.7272 898.665 73.0918 898.291 73.5566C897.926 74.0215 897.639 74.5547 897.43 75.1562C897.229 75.7487 897.129 76.3776 897.129 77.043ZM916.871 70.207V72.1484H908.873V70.207H916.871ZM911.58 66.6113H914.109V81.3359C914.109 81.8372 914.187 82.2155 914.342 82.4707C914.497 82.7259 914.697 82.8945 914.943 82.9766C915.189 83.0586 915.454 83.0996 915.736 83.0996C915.946 83.0996 916.165 83.0814 916.393 83.0449C916.63 82.9993 916.807 82.9629 916.926 82.9355L916.939 85C916.739 85.0638 916.475 85.123 916.146 85.1777C915.827 85.2415 915.44 85.2734 914.984 85.2734C914.365 85.2734 913.795 85.1504 913.275 84.9043C912.756 84.6582 912.341 84.248 912.031 83.6738C911.73 83.0905 911.58 82.3066 911.58 81.3223V66.6113ZM925.977 85.2734C924.947 85.2734 924.012 85.1003 923.174 84.7539C922.344 84.3984 921.629 83.9017 921.027 83.2637C920.435 82.6257 919.979 81.8691 919.66 80.9941C919.341 80.1191 919.182 79.1621 919.182 78.123V77.5488C919.182 76.3457 919.359 75.2747 919.715 74.3359C920.07 73.388 920.553 72.5859 921.164 71.9297C921.775 71.2734 922.467 70.7767 923.242 70.4395C924.017 70.1022 924.819 69.9336 925.648 69.9336C926.706 69.9336 927.617 70.1159 928.383 70.4805C929.158 70.8451 929.791 71.3555 930.283 72.0117C930.775 72.6589 931.14 73.4245 931.377 74.3086C931.614 75.1836 931.732 76.1406 931.732 77.1797V78.3145H920.686V76.25H929.203V76.0586C929.167 75.4023 929.03 74.7643 928.793 74.1445C928.565 73.5247 928.201 73.0143 927.699 72.6133C927.198 72.2122 926.514 72.0117 925.648 72.0117C925.074 72.0117 924.546 72.1348 924.062 72.3809C923.579 72.6178 923.165 72.9733 922.818 73.4473C922.472 73.9212 922.203 74.5 922.012 75.1836C921.82 75.8672 921.725 76.6556 921.725 77.5488V78.123C921.725 78.8249 921.82 79.4857 922.012 80.1055C922.212 80.7161 922.499 81.2539 922.873 81.7188C923.256 82.1836 923.716 82.5482 924.254 82.8125C924.801 83.0768 925.421 83.209 926.113 83.209C927.007 83.209 927.763 83.0267 928.383 82.6621C929.003 82.2975 929.545 81.8099 930.01 81.1992L931.541 82.416C931.222 82.8991 930.816 83.3594 930.324 83.7969C929.832 84.2344 929.226 84.5898 928.506 84.8633C927.795 85.1367 926.952 85.2734 925.977 85.2734ZM924.24 68.0195L926.893 64H929.941L926.277 68.0195H924.24ZM950.682 81.582V70.207H953.225V85H950.805L950.682 81.582ZM951.16 78.4648L952.213 78.4375C952.213 79.4219 952.108 80.3333 951.898 81.1719C951.698 82.0013 951.37 82.7214 950.914 83.332C950.458 83.9427 949.861 84.4212 949.123 84.7676C948.385 85.1048 947.487 85.2734 946.43 85.2734C945.71 85.2734 945.049 85.1686 944.447 84.959C943.855 84.7493 943.344 84.4258 942.916 83.9883C942.488 83.5508 942.155 82.9811 941.918 82.2793C941.69 81.5775 941.576 80.7344 941.576 79.75V70.207H944.105V79.7773C944.105 80.4427 944.178 80.9941 944.324 81.4316C944.479 81.86 944.684 82.2018 944.939 82.457C945.204 82.7031 945.495 82.8763 945.814 82.9766C946.143 83.0768 946.48 83.127 946.826 83.127C947.902 83.127 948.754 82.9219 949.383 82.5117C950.012 82.0924 950.463 81.5319 950.736 80.8301C951.019 80.1191 951.16 79.3307 951.16 78.4648ZM959.609 73.3652V85H957.08V70.207H959.473L959.609 73.3652ZM959.008 77.043L957.955 77.002C957.964 75.9902 958.115 75.056 958.406 74.1992C958.698 73.3333 959.108 72.5814 959.637 71.9434C960.165 71.3053 960.794 70.8132 961.523 70.4668C962.262 70.1113 963.077 69.9336 963.971 69.9336C964.7 69.9336 965.356 70.0339 965.939 70.2344C966.523 70.4258 967.02 70.7357 967.43 71.1641C967.849 71.5924 968.168 72.1484 968.387 72.832C968.605 73.5065 968.715 74.3314 968.715 75.3066V85H966.172V75.2793C966.172 74.5046 966.058 73.8848 965.83 73.4199C965.602 72.946 965.27 72.6042 964.832 72.3945C964.395 72.1758 963.857 72.0664 963.219 72.0664C962.59 72.0664 962.016 72.1986 961.496 72.4629C960.986 72.7272 960.544 73.0918 960.17 73.5566C959.805 74.0215 959.518 74.5547 959.309 75.1562C959.108 75.7487 959.008 76.3776 959.008 77.043ZM981.279 82.4707V74.8555C981.279 74.2721 981.161 73.7663 980.924 73.3379C980.696 72.9004 980.35 72.5632 979.885 72.3262C979.42 72.0892 978.846 71.9707 978.162 71.9707C977.524 71.9707 976.964 72.0801 976.48 72.2988C976.007 72.5176 975.633 72.8047 975.359 73.1602C975.095 73.5156 974.963 73.8984 974.963 74.3086H972.434C972.434 73.7799 972.57 73.2559 972.844 72.7363C973.117 72.2168 973.509 71.7474 974.02 71.3281C974.539 70.8997 975.159 70.5625 975.879 70.3164C976.608 70.0612 977.419 69.9336 978.312 69.9336C979.388 69.9336 980.336 70.1159 981.156 70.4805C981.986 70.8451 982.633 71.3965 983.098 72.1348C983.572 72.8639 983.809 73.7799 983.809 74.8828V81.7734C983.809 82.2656 983.85 82.7897 983.932 83.3457C984.023 83.9017 984.155 84.3802 984.328 84.7812V85H981.689C981.562 84.7083 981.462 84.321 981.389 83.8379C981.316 83.3457 981.279 82.89 981.279 82.4707ZM981.717 76.0312L981.744 77.8086H979.188C978.467 77.8086 977.825 77.8678 977.26 77.9863C976.695 78.0957 976.221 78.2643 975.838 78.4922C975.455 78.7201 975.163 79.0072 974.963 79.3535C974.762 79.6908 974.662 80.0872 974.662 80.543C974.662 81.0078 974.767 81.4316 974.977 81.8145C975.186 82.1973 975.501 82.5026 975.92 82.7305C976.348 82.9492 976.872 83.0586 977.492 83.0586C978.267 83.0586 978.951 82.8945 979.543 82.5664C980.135 82.2383 980.605 81.8372 980.951 81.3633C981.307 80.8893 981.498 80.429 981.525 79.9824L982.605 81.1992C982.542 81.582 982.368 82.0059 982.086 82.4707C981.803 82.9355 981.425 83.3822 980.951 83.8105C980.486 84.2298 979.93 84.5807 979.283 84.8633C978.645 85.1367 977.925 85.2734 977.123 85.2734C976.12 85.2734 975.241 85.0775 974.484 84.6855C973.737 84.2936 973.154 83.7695 972.734 83.1133C972.324 82.4479 972.119 81.7051 972.119 80.8848C972.119 80.0918 972.274 79.3945 972.584 78.793C972.894 78.1823 973.34 77.6764 973.924 77.2754C974.507 76.8652 975.209 76.5553 976.029 76.3457C976.85 76.1361 977.766 76.0312 978.777 76.0312H981.717ZM997.262 64V85H994.732V64H997.262ZM996.66 77.043L995.607 77.002C995.617 75.9902 995.767 75.056 996.059 74.1992C996.35 73.3333 996.76 72.5814 997.289 71.9434C997.818 71.3053 998.447 70.8132 999.176 70.4668C999.914 70.1113 1000.73 69.9336 1001.62 69.9336C1002.35 69.9336 1003.01 70.0339 1003.59 70.2344C1004.18 70.4258 1004.67 70.7357 1005.08 71.1641C1005.5 71.5924 1005.82 72.1484 1006.04 72.832C1006.26 73.5065 1006.37 74.3314 1006.37 75.3066V85H1003.82V75.2793C1003.82 74.5046 1003.71 73.8848 1003.48 73.4199C1003.25 72.946 1002.92 72.6042 1002.48 72.3945C1002.05 72.1758 1001.51 72.0664 1000.87 72.0664C1000.24 72.0664 999.668 72.1986 999.148 72.4629C998.638 72.7272 998.196 73.0918 997.822 73.5566C997.458 74.0215 997.171 74.5547 996.961 75.1562C996.76 75.7487 996.66 76.3776 996.66 77.043ZM1012.9 70.207V85H1010.36V70.207H1012.9ZM1010.17 66.2832C1010.17 65.873 1010.29 65.5267 1010.54 65.2441C1010.79 64.9616 1011.17 64.8203 1011.66 64.8203C1012.14 64.8203 1012.51 64.9616 1012.77 65.2441C1013.03 65.5267 1013.16 65.873 1013.16 66.2832C1013.16 66.6751 1013.03 67.0124 1012.77 67.2949C1012.51 67.5684 1012.14 67.7051 1011.66 67.7051C1011.17 67.7051 1010.79 67.5684 1010.54 67.2949C1010.29 67.0124 1010.17 66.6751 1010.17 66.2832ZM1025.58 81.0762C1025.58 80.7116 1025.49 80.3743 1025.33 80.0645C1025.18 79.7454 1024.85 79.4583 1024.36 79.2031C1023.88 78.9388 1023.15 78.7109 1022.17 78.5195C1021.35 78.3464 1020.61 78.1413 1019.94 77.9043C1019.29 77.6673 1018.73 77.3802 1018.26 77.043C1017.81 76.7057 1017.46 76.3092 1017.21 75.8535C1016.96 75.3978 1016.84 74.8646 1016.84 74.2539C1016.84 73.6706 1016.97 73.1191 1017.22 72.5996C1017.49 72.0801 1017.86 71.6198 1018.33 71.2188C1018.81 70.8177 1019.39 70.5033 1020.07 70.2754C1020.74 70.0475 1021.49 69.9336 1022.32 69.9336C1023.51 69.9336 1024.52 70.1432 1025.36 70.5625C1026.2 70.9818 1026.84 71.5423 1027.29 72.2441C1027.73 72.9368 1027.96 73.707 1027.96 74.5547H1025.43C1025.43 74.1445 1025.3 73.748 1025.06 73.3652C1024.82 72.9733 1024.47 72.6497 1024 72.3945C1023.55 72.1393 1022.99 72.0117 1022.32 72.0117C1021.62 72.0117 1021.05 72.1211 1020.61 72.3398C1020.18 72.5495 1019.87 72.8184 1019.67 73.1465C1019.48 73.4746 1019.38 73.821 1019.38 74.1855C1019.38 74.459 1019.43 74.7051 1019.52 74.9238C1019.62 75.1335 1019.79 75.3294 1020.04 75.5117C1020.29 75.6849 1020.63 75.849 1021.08 76.0039C1021.52 76.1589 1022.09 76.3138 1022.79 76.4688C1024 76.7422 1025 77.0703 1025.78 77.4531C1026.57 77.8359 1027.15 78.3053 1027.53 78.8613C1027.91 79.4173 1028.11 80.0918 1028.11 80.8848C1028.11 81.5319 1027.97 82.1243 1027.7 82.6621C1027.43 83.1999 1027.04 83.6647 1026.53 84.0566C1026.03 84.4395 1025.43 84.7402 1024.73 84.959C1024.04 85.1686 1023.26 85.2734 1022.39 85.2734C1021.09 85.2734 1019.98 85.041 1019.08 84.5762C1018.18 84.1113 1017.5 83.5098 1017.03 82.7715C1016.57 82.0332 1016.33 81.2539 1016.33 80.4336H1018.88C1018.91 81.1263 1019.11 81.6777 1019.48 82.0879C1019.84 82.4889 1020.29 82.776 1020.82 82.9492C1021.35 83.1133 1021.87 83.1953 1022.39 83.1953C1023.08 83.1953 1023.66 83.1042 1024.13 82.9219C1024.6 82.7396 1024.96 82.4889 1025.21 82.1699C1025.45 81.8509 1025.58 81.4863 1025.58 81.0762ZM1037.62 70.207V72.1484H1029.62V70.207H1037.62ZM1032.33 66.6113H1034.86V81.3359C1034.86 81.8372 1034.94 82.2155 1035.09 82.4707C1035.25 82.7259 1035.45 82.8945 1035.69 82.9766C1035.94 83.0586 1036.2 83.0996 1036.49 83.0996C1036.7 83.0996 1036.91 83.0814 1037.14 83.0449C1037.38 82.9993 1037.56 82.9629 1037.68 82.9355L1037.69 85C1037.49 85.0638 1037.22 85.123 1036.9 85.1777C1036.58 85.2415 1036.19 85.2734 1035.73 85.2734C1035.11 85.2734 1034.54 85.1504 1034.03 84.9043C1033.51 84.6582 1033.09 84.248 1032.78 83.6738C1032.48 83.0905 1032.33 82.3066 1032.33 81.3223V66.6113ZM1039.64 77.7676V77.4531C1039.64 76.3867 1039.8 75.3978 1040.11 74.4863C1040.42 73.5658 1040.87 72.7682 1041.45 72.0938C1042.03 71.4102 1042.74 70.8815 1043.57 70.5078C1044.4 70.125 1045.33 69.9336 1046.36 69.9336C1047.4 69.9336 1048.33 70.125 1049.16 70.5078C1050 70.8815 1050.71 71.4102 1051.29 72.0938C1051.89 72.7682 1052.34 73.5658 1052.65 74.4863C1052.96 75.3978 1053.11 76.3867 1053.11 77.4531V77.7676C1053.11 78.834 1052.96 79.8229 1052.65 80.7344C1052.34 81.6458 1051.89 82.4434 1051.29 83.127C1050.71 83.8014 1050 84.3301 1049.17 84.7129C1048.35 85.0866 1047.42 85.2734 1046.38 85.2734C1045.35 85.2734 1044.41 85.0866 1043.58 84.7129C1042.75 84.3301 1042.04 83.8014 1041.45 83.127C1040.87 82.4434 1040.42 81.6458 1040.11 80.7344C1039.8 79.8229 1039.64 78.834 1039.64 77.7676ZM1042.17 77.4531V77.7676C1042.17 78.5059 1042.26 79.2031 1042.43 79.8594C1042.61 80.5065 1042.87 81.0807 1043.21 81.582C1043.57 82.0833 1044.01 82.4798 1044.54 82.7715C1045.07 83.054 1045.68 83.1953 1046.38 83.1953C1047.08 83.1953 1047.68 83.054 1048.2 82.7715C1048.73 82.4798 1049.17 82.0833 1049.52 81.582C1049.86 81.0807 1050.12 80.5065 1050.29 79.8594C1050.48 79.2031 1050.57 78.5059 1050.57 77.7676V77.4531C1050.57 76.724 1050.48 76.0358 1050.29 75.3887C1050.12 74.7324 1049.86 74.1536 1049.5 73.6523C1049.16 73.1419 1048.72 72.7409 1048.19 72.4492C1047.67 72.1576 1047.06 72.0117 1046.36 72.0117C1045.66 72.0117 1045.05 72.1576 1044.53 72.4492C1044.01 72.7409 1043.57 73.1419 1043.21 73.6523C1042.87 74.1536 1042.61 74.7324 1042.43 75.3887C1042.26 76.0358 1042.17 76.724 1042.17 77.4531ZM1058.81 72.5312V85H1056.28V70.207H1058.74L1058.81 72.5312ZM1063.43 70.125L1063.42 72.4766C1063.21 72.431 1063.01 72.4036 1062.82 72.3945C1062.64 72.3763 1062.43 72.3672 1062.19 72.3672C1061.61 72.3672 1061.09 72.4583 1060.64 72.6406C1060.2 72.8229 1059.82 73.0781 1059.51 73.4062C1059.2 73.7344 1058.95 74.1263 1058.77 74.582C1058.6 75.0286 1058.48 75.5208 1058.43 76.0586L1057.72 76.4688C1057.72 75.5755 1057.81 74.737 1057.98 73.9531C1058.16 73.1693 1058.44 72.4766 1058.81 71.875C1059.19 71.2643 1059.66 70.7904 1060.23 70.4531C1060.82 70.1068 1061.51 69.9336 1062.31 69.9336C1062.49 69.9336 1062.7 69.9564 1062.94 70.002C1063.18 70.0384 1063.34 70.0794 1063.43 70.125ZM1068.52 70.207V85H1065.98V70.207H1068.52ZM1065.79 66.2832C1065.79 65.873 1065.91 65.5267 1066.15 65.2441C1066.41 64.9616 1066.78 64.8203 1067.28 64.8203C1067.76 64.8203 1068.13 64.9616 1068.38 65.2441C1068.65 65.5267 1068.78 65.873 1068.78 66.2832C1068.78 66.6751 1068.65 67.0124 1068.38 67.2949C1068.13 67.5684 1067.76 67.7051 1067.28 67.7051C1066.78 67.7051 1066.41 67.5684 1066.15 67.2949C1065.91 67.0124 1065.79 66.6751 1065.79 66.2832ZM1081.3 82.4707V74.8555C1081.3 74.2721 1081.18 73.7663 1080.95 73.3379C1080.72 72.9004 1080.37 72.5632 1079.91 72.3262C1079.44 72.0892 1078.87 71.9707 1078.19 71.9707C1077.55 71.9707 1076.99 72.0801 1076.5 72.2988C1076.03 72.5176 1075.66 72.8047 1075.38 73.1602C1075.12 73.5156 1074.99 73.8984 1074.99 74.3086H1072.46C1072.46 73.7799 1072.59 73.2559 1072.87 72.7363C1073.14 72.2168 1073.53 71.7474 1074.04 71.3281C1074.56 70.8997 1075.18 70.5625 1075.9 70.3164C1076.63 70.0612 1077.44 69.9336 1078.34 69.9336C1079.41 69.9336 1080.36 70.1159 1081.18 70.4805C1082.01 70.8451 1082.66 71.3965 1083.12 72.1348C1083.6 72.8639 1083.83 73.7799 1083.83 74.8828V81.7734C1083.83 82.2656 1083.87 82.7897 1083.96 83.3457C1084.05 83.9017 1084.18 84.3802 1084.35 84.7812V85H1081.71C1081.59 84.7083 1081.49 84.321 1081.41 83.8379C1081.34 83.3457 1081.3 82.89 1081.3 82.4707ZM1081.74 76.0312L1081.77 77.8086H1079.21C1078.49 77.8086 1077.85 77.8678 1077.28 77.9863C1076.72 78.0957 1076.24 78.2643 1075.86 78.4922C1075.48 78.7201 1075.19 79.0072 1074.99 79.3535C1074.79 79.6908 1074.69 80.0872 1074.69 80.543C1074.69 81.0078 1074.79 81.4316 1075 81.8145C1075.21 82.1973 1075.52 82.5026 1075.94 82.7305C1076.37 82.9492 1076.9 83.0586 1077.52 83.0586C1078.29 83.0586 1078.97 82.8945 1079.57 82.5664C1080.16 82.2383 1080.63 81.8372 1080.97 81.3633C1081.33 80.8893 1081.52 80.429 1081.55 79.9824L1082.63 81.1992C1082.57 81.582 1082.39 82.0059 1082.11 82.4707C1081.83 82.9355 1081.45 83.3822 1080.97 83.8105C1080.51 84.2298 1079.95 84.5807 1079.31 84.8633C1078.67 85.1367 1077.95 85.2734 1077.15 85.2734C1076.14 85.2734 1075.26 85.0775 1074.51 84.6855C1073.76 84.2936 1073.18 83.7695 1072.76 83.1133C1072.35 82.4479 1072.14 81.7051 1072.14 80.8848C1072.14 80.0918 1072.3 79.3945 1072.61 78.793C1072.92 78.1823 1073.36 77.6764 1073.95 77.2754C1074.53 76.8652 1075.23 76.5553 1076.05 76.3457C1076.87 76.1361 1077.79 76.0312 1078.8 76.0312H1081.74ZM1087.85 83.6602C1087.85 83.2318 1087.98 82.8717 1088.25 82.5801C1088.52 82.2793 1088.91 82.1289 1089.42 82.1289C1089.93 82.1289 1090.32 82.2793 1090.59 82.5801C1090.86 82.8717 1091 83.2318 1091 83.6602C1091 84.0794 1090.86 84.4349 1090.59 84.7266C1090.32 85.0182 1089.93 85.1641 1089.42 85.1641C1088.91 85.1641 1088.52 85.0182 1088.25 84.7266C1087.98 84.4349 1087.85 84.0794 1087.85 83.6602ZM1095.59 64V65.75C1095.59 66.2969 1095.49 66.8757 1095.3 67.4863C1095.12 68.0879 1094.85 68.6712 1094.5 69.2363C1094.14 69.7923 1093.71 70.2799 1093.21 70.6992L1091.76 69.7012C1092.19 69.0996 1092.51 68.4844 1092.73 67.8555C1092.96 67.2174 1093.07 66.5293 1093.07 65.791V64H1095.59ZM1099.79 64V65.75C1099.79 66.2969 1099.69 66.8757 1099.5 67.4863C1099.32 68.0879 1099.05 68.6712 1098.69 69.2363C1098.34 69.7923 1097.91 70.2799 1097.41 70.6992L1095.96 69.7012C1096.39 69.0996 1096.71 68.4844 1096.93 67.8555C1097.16 67.2174 1097.27 66.5293 1097.27 65.791V64H1099.79Z" fill="black"/>
<rect y="28" width="343" height="94" rx="10" fill="#A3D9E9"/>
<path d="M53.9082 70.3301V68.6758C53.9082 68.1198 53.9993 67.541 54.1816 66.9395C54.373 66.3288 54.6465 65.7454 55.002 65.1895C55.3574 64.6243 55.7858 64.1367 56.2871 63.7266L57.7227 64.7246C57.3034 65.3262 56.9798 65.946 56.752 66.584C56.5241 67.2129 56.4102 67.8965 56.4102 68.6348V70.3301H53.9082ZM58.2148 70.3301V68.6758C58.2148 68.1198 58.306 67.541 58.4883 66.9395C58.6797 66.3288 58.9531 65.7454 59.3086 65.1895C59.6641 64.6243 60.0924 64.1367 60.5938 63.7266L62.0293 64.7246C61.61 65.3262 61.2865 65.946 61.0586 66.584C60.8307 67.2129 60.7168 67.8965 60.7168 68.6348V70.3301H58.2148ZM67.5117 65.0938V85H64.873V65.0938H67.5117ZM81.3887 73.1465V85H78.8457V70.207H81.252L81.3887 73.1465ZM80.8691 77.043L79.6934 77.002C79.7025 75.9902 79.8346 75.056 80.0898 74.1992C80.3451 73.3333 80.7233 72.5814 81.2246 71.9434C81.7259 71.3053 82.3503 70.8132 83.0977 70.4668C83.8451 70.1113 84.7109 69.9336 85.6953 69.9336C86.388 69.9336 87.026 70.0339 87.6094 70.2344C88.1927 70.4258 88.6986 70.7311 89.127 71.1504C89.5553 71.5697 89.888 72.1074 90.125 72.7637C90.362 73.4199 90.4805 74.2129 90.4805 75.1426V85H87.9512V75.2656C87.9512 74.4909 87.819 73.8711 87.5547 73.4062C87.2995 72.9414 86.9349 72.6042 86.4609 72.3945C85.987 72.1758 85.431 72.0664 84.793 72.0664C84.0456 72.0664 83.4212 72.1986 82.9199 72.4629C82.4186 72.7272 82.0176 73.0918 81.7168 73.5566C81.416 74.0215 81.1973 74.5547 81.0605 75.1562C80.9329 75.7487 80.8691 76.3776 80.8691 77.043ZM90.4531 75.6484L88.7578 76.168C88.7669 75.3568 88.8991 74.5775 89.1543 73.8301C89.4186 73.0827 89.7969 72.4173 90.2891 71.834C90.7904 71.2507 91.4056 70.7904 92.1348 70.4531C92.8639 70.1068 93.6979 69.9336 94.6367 69.9336C95.4297 69.9336 96.1315 70.0384 96.7422 70.248C97.362 70.4577 97.8815 70.7812 98.3008 71.2188C98.7292 71.6471 99.0527 72.1986 99.2715 72.873C99.4902 73.5475 99.5996 74.3496 99.5996 75.2793V85H97.0566V75.252C97.0566 74.4225 96.9245 73.7799 96.6602 73.3242C96.4049 72.8594 96.0404 72.5358 95.5664 72.3535C95.1016 72.1621 94.5456 72.0664 93.8984 72.0664C93.3424 72.0664 92.8503 72.1621 92.4219 72.3535C91.9935 72.5449 91.6335 72.8092 91.3418 73.1465C91.0501 73.4746 90.8268 73.8529 90.6719 74.2812C90.526 74.7096 90.4531 75.1654 90.4531 75.6484ZM112.15 82.4707V74.8555C112.15 74.2721 112.032 73.7663 111.795 73.3379C111.567 72.9004 111.221 72.5632 110.756 72.3262C110.291 72.0892 109.717 71.9707 109.033 71.9707C108.395 71.9707 107.835 72.0801 107.352 72.2988C106.878 72.5176 106.504 72.8047 106.23 73.1602C105.966 73.5156 105.834 73.8984 105.834 74.3086H103.305C103.305 73.7799 103.441 73.2559 103.715 72.7363C103.988 72.2168 104.38 71.7474 104.891 71.3281C105.41 70.8997 106.03 70.5625 106.75 70.3164C107.479 70.0612 108.29 69.9336 109.184 69.9336C110.259 69.9336 111.207 70.1159 112.027 70.4805C112.857 70.8451 113.504 71.3965 113.969 72.1348C114.443 72.8639 114.68 73.7799 114.68 74.8828V81.7734C114.68 82.2656 114.721 82.7897 114.803 83.3457C114.894 83.9017 115.026 84.3802 115.199 84.7812V85H112.561C112.433 84.7083 112.333 84.321 112.26 83.8379C112.187 83.3457 112.15 82.89 112.15 82.4707ZM112.588 76.0312L112.615 77.8086H110.059C109.339 77.8086 108.696 77.8678 108.131 77.9863C107.566 78.0957 107.092 78.2643 106.709 78.4922C106.326 78.7201 106.035 79.0072 105.834 79.3535C105.633 79.6908 105.533 80.0872 105.533 80.543C105.533 81.0078 105.638 81.4316 105.848 81.8145C106.057 82.1973 106.372 82.5026 106.791 82.7305C107.219 82.9492 107.743 83.0586 108.363 83.0586C109.138 83.0586 109.822 82.8945 110.414 82.5664C111.007 82.2383 111.476 81.8372 111.822 81.3633C112.178 80.8893 112.369 80.429 112.396 79.9824L113.477 81.1992C113.413 81.582 113.24 82.0059 112.957 82.4707C112.674 82.9355 112.296 83.3822 111.822 83.8105C111.357 84.2298 110.801 84.5807 110.154 84.8633C109.516 85.1367 108.796 85.2734 107.994 85.2734C106.992 85.2734 106.112 85.0775 105.355 84.6855C104.608 84.2936 104.025 83.7695 103.605 83.1133C103.195 82.4479 102.99 81.7051 102.99 80.8848C102.99 80.0918 103.145 79.3945 103.455 78.793C103.765 78.1823 104.212 77.6764 104.795 77.2754C105.378 76.8652 106.08 76.5553 106.9 76.3457C107.721 76.1361 108.637 76.0312 109.648 76.0312H112.588ZM127.982 82.1289V64H130.525V85H128.201L127.982 82.1289ZM118.029 77.7676V77.4805C118.029 76.3503 118.166 75.3249 118.439 74.4043C118.722 73.4746 119.118 72.6771 119.629 72.0117C120.148 71.3464 120.764 70.8359 121.475 70.4805C122.195 70.1159 122.997 69.9336 123.881 69.9336C124.811 69.9336 125.622 70.0977 126.314 70.4258C127.016 70.7448 127.609 71.2142 128.092 71.834C128.584 72.4447 128.971 73.1829 129.254 74.0488C129.536 74.9147 129.732 75.8945 129.842 76.9883V78.2461C129.742 79.3307 129.546 80.306 129.254 81.1719C128.971 82.0378 128.584 82.776 128.092 83.3867C127.609 83.9974 127.016 84.4668 126.314 84.7949C125.613 85.1139 124.792 85.2734 123.854 85.2734C122.988 85.2734 122.195 85.0866 121.475 84.7129C120.764 84.3392 120.148 83.8151 119.629 83.1406C119.118 82.4661 118.722 81.6732 118.439 80.7617C118.166 79.8411 118.029 78.8431 118.029 77.7676ZM120.572 77.4805V77.7676C120.572 78.5059 120.645 79.1986 120.791 79.8457C120.946 80.4928 121.183 81.0625 121.502 81.5547C121.821 82.0469 122.227 82.4342 122.719 82.7168C123.211 82.9902 123.799 83.127 124.482 83.127C125.321 83.127 126.009 82.9492 126.547 82.5938C127.094 82.2383 127.531 81.7689 127.859 81.1855C128.188 80.6022 128.443 79.9688 128.625 79.2852V75.9902C128.516 75.4889 128.356 75.0059 128.146 74.541C127.946 74.0671 127.682 73.6478 127.354 73.2832C127.035 72.9095 126.638 72.6133 126.164 72.3945C125.699 72.1758 125.148 72.0664 124.51 72.0664C123.817 72.0664 123.22 72.2122 122.719 72.5039C122.227 72.7865 121.821 73.1784 121.502 73.6797C121.183 74.1719 120.946 74.7461 120.791 75.4023C120.645 76.0495 120.572 76.7422 120.572 77.4805ZM140.602 85.2734C139.572 85.2734 138.637 85.1003 137.799 84.7539C136.969 84.3984 136.254 83.9017 135.652 83.2637C135.06 82.6257 134.604 81.8691 134.285 80.9941C133.966 80.1191 133.807 79.1621 133.807 78.123V77.5488C133.807 76.3457 133.984 75.2747 134.34 74.3359C134.695 73.388 135.178 72.5859 135.789 71.9297C136.4 71.2734 137.092 70.7767 137.867 70.4395C138.642 70.1022 139.444 69.9336 140.273 69.9336C141.331 69.9336 142.242 70.1159 143.008 70.4805C143.783 70.8451 144.416 71.3555 144.908 72.0117C145.4 72.6589 145.765 73.4245 146.002 74.3086C146.239 75.1836 146.357 76.1406 146.357 77.1797V78.3145H135.311V76.25H143.828V76.0586C143.792 75.4023 143.655 74.7643 143.418 74.1445C143.19 73.5247 142.826 73.0143 142.324 72.6133C141.823 72.2122 141.139 72.0117 140.273 72.0117C139.699 72.0117 139.171 72.1348 138.688 72.3809C138.204 72.6178 137.79 72.9733 137.443 73.4473C137.097 73.9212 136.828 74.5 136.637 75.1836C136.445 75.8672 136.35 76.6556 136.35 77.5488V78.123C136.35 78.8249 136.445 79.4857 136.637 80.1055C136.837 80.7161 137.124 81.2539 137.498 81.7188C137.881 82.1836 138.341 82.5482 138.879 82.8125C139.426 83.0768 140.046 83.209 140.738 83.209C141.632 83.209 142.388 83.0267 143.008 82.6621C143.628 82.2975 144.17 81.8099 144.635 81.1992L146.166 82.416C145.847 82.8991 145.441 83.3594 144.949 83.7969C144.457 84.2344 143.851 84.5898 143.131 84.8633C142.42 85.1367 141.577 85.2734 140.602 85.2734ZM165.307 81.582V70.207H167.85V85H165.43L165.307 81.582ZM165.785 78.4648L166.838 78.4375C166.838 79.4219 166.733 80.3333 166.523 81.1719C166.323 82.0013 165.995 82.7214 165.539 83.332C165.083 83.9427 164.486 84.4212 163.748 84.7676C163.01 85.1048 162.112 85.2734 161.055 85.2734C160.335 85.2734 159.674 85.1686 159.072 84.959C158.48 84.7493 157.969 84.4258 157.541 83.9883C157.113 83.5508 156.78 82.9811 156.543 82.2793C156.315 81.5775 156.201 80.7344 156.201 79.75V70.207H158.73V79.7773C158.73 80.4427 158.803 80.9941 158.949 81.4316C159.104 81.86 159.309 82.2018 159.564 82.457C159.829 82.7031 160.12 82.8763 160.439 82.9766C160.768 83.0768 161.105 83.127 161.451 83.127C162.527 83.127 163.379 82.9219 164.008 82.5117C164.637 82.0924 165.088 81.5319 165.361 80.8301C165.644 80.1191 165.785 79.3307 165.785 78.4648ZM174.234 73.0508V90.6875H171.691V70.207H174.016L174.234 73.0508ZM184.201 77.4805V77.7676C184.201 78.8431 184.074 79.8411 183.818 80.7617C183.563 81.6732 183.189 82.4661 182.697 83.1406C182.214 83.8151 181.617 84.3392 180.906 84.7129C180.195 85.0866 179.38 85.2734 178.459 85.2734C177.52 85.2734 176.691 85.1185 175.971 84.8086C175.251 84.4987 174.64 84.0475 174.139 83.4551C173.637 82.8626 173.236 82.1517 172.936 81.3223C172.644 80.4928 172.443 79.5586 172.334 78.5195V76.9883C172.443 75.8945 172.648 74.9147 172.949 74.0488C173.25 73.1829 173.646 72.4447 174.139 71.834C174.64 71.2142 175.246 70.7448 175.957 70.4258C176.668 70.0977 177.488 69.9336 178.418 69.9336C179.348 69.9336 180.173 70.1159 180.893 70.4805C181.613 70.8359 182.219 71.3464 182.711 72.0117C183.203 72.6771 183.572 73.4746 183.818 74.4043C184.074 75.3249 184.201 76.3503 184.201 77.4805ZM181.658 77.7676V77.4805C181.658 76.7422 181.581 76.0495 181.426 75.4023C181.271 74.7461 181.029 74.1719 180.701 73.6797C180.382 73.1784 179.972 72.7865 179.471 72.5039C178.969 72.2122 178.372 72.0664 177.68 72.0664C177.042 72.0664 176.486 72.1758 176.012 72.3945C175.547 72.6133 175.15 72.9095 174.822 73.2832C174.494 73.6478 174.225 74.0671 174.016 74.541C173.815 75.0059 173.665 75.4889 173.564 75.9902V79.5312C173.747 80.1693 174.002 80.7708 174.33 81.3359C174.658 81.8919 175.096 82.3431 175.643 82.6895C176.189 83.0267 176.878 83.1953 177.707 83.1953C178.391 83.1953 178.979 83.054 179.471 82.7715C179.972 82.4798 180.382 82.0833 180.701 81.582C181.029 81.0807 181.271 80.5065 181.426 79.8594C181.581 79.2031 181.658 78.5059 181.658 77.7676ZM203.096 82.4707V74.8555C203.096 74.2721 202.977 73.7663 202.74 73.3379C202.512 72.9004 202.166 72.5632 201.701 72.3262C201.236 72.0892 200.662 71.9707 199.979 71.9707C199.34 71.9707 198.78 72.0801 198.297 72.2988C197.823 72.5176 197.449 72.8047 197.176 73.1602C196.911 73.5156 196.779 73.8984 196.779 74.3086H194.25C194.25 73.7799 194.387 73.2559 194.66 72.7363C194.934 72.2168 195.326 71.7474 195.836 71.3281C196.355 70.8997 196.975 70.5625 197.695 70.3164C198.424 70.0612 199.236 69.9336 200.129 69.9336C201.204 69.9336 202.152 70.1159 202.973 70.4805C203.802 70.8451 204.449 71.3965 204.914 72.1348C205.388 72.8639 205.625 73.7799 205.625 74.8828V81.7734C205.625 82.2656 205.666 82.7897 205.748 83.3457C205.839 83.9017 205.971 84.3802 206.145 84.7812V85H203.506C203.378 84.7083 203.278 84.321 203.205 83.8379C203.132 83.3457 203.096 82.89 203.096 82.4707ZM203.533 76.0312L203.561 77.8086H201.004C200.284 77.8086 199.641 77.8678 199.076 77.9863C198.511 78.0957 198.037 78.2643 197.654 78.4922C197.271 78.7201 196.98 79.0072 196.779 79.3535C196.579 79.6908 196.479 80.0872 196.479 80.543C196.479 81.0078 196.583 81.4316 196.793 81.8145C197.003 82.1973 197.317 82.5026 197.736 82.7305C198.165 82.9492 198.689 83.0586 199.309 83.0586C200.083 83.0586 200.767 82.8945 201.359 82.5664C201.952 82.2383 202.421 81.8372 202.768 81.3633C203.123 80.8893 203.314 80.429 203.342 79.9824L204.422 81.1992C204.358 81.582 204.185 82.0059 203.902 82.4707C203.62 82.9355 203.242 83.3822 202.768 83.8105C202.303 84.2298 201.747 84.5807 201.1 84.8633C200.462 85.1367 199.742 85.2734 198.939 85.2734C197.937 85.2734 197.057 85.0775 196.301 84.6855C195.553 84.2936 194.97 83.7695 194.551 83.1133C194.141 82.4479 193.936 81.7051 193.936 80.8848C193.936 80.0918 194.09 79.3945 194.4 78.793C194.71 78.1823 195.157 77.6764 195.74 77.2754C196.324 76.8652 197.025 76.5553 197.846 76.3457C198.666 76.1361 199.582 76.0312 200.594 76.0312H203.533ZM225.162 81.0762C225.162 80.7116 225.08 80.3743 224.916 80.0645C224.761 79.7454 224.438 79.4583 223.945 79.2031C223.462 78.9388 222.733 78.7109 221.758 78.5195C220.938 78.3464 220.195 78.1413 219.529 77.9043C218.873 77.6673 218.312 77.3802 217.848 77.043C217.392 76.7057 217.041 76.3092 216.795 75.8535C216.549 75.3978 216.426 74.8646 216.426 74.2539C216.426 73.6706 216.553 73.1191 216.809 72.5996C217.073 72.0801 217.442 71.6198 217.916 71.2188C218.399 70.8177 218.978 70.5033 219.652 70.2754C220.327 70.0475 221.079 69.9336 221.908 69.9336C223.093 69.9336 224.105 70.1432 224.943 70.5625C225.782 70.9818 226.424 71.5423 226.871 72.2441C227.318 72.9368 227.541 73.707 227.541 74.5547H225.012C225.012 74.1445 224.889 73.748 224.643 73.3652C224.406 72.9733 224.055 72.6497 223.59 72.3945C223.134 72.1393 222.574 72.0117 221.908 72.0117C221.206 72.0117 220.637 72.1211 220.199 72.3398C219.771 72.5495 219.456 72.8184 219.256 73.1465C219.064 73.4746 218.969 73.821 218.969 74.1855C218.969 74.459 219.014 74.7051 219.105 74.9238C219.206 75.1335 219.379 75.3294 219.625 75.5117C219.871 75.6849 220.217 75.849 220.664 76.0039C221.111 76.1589 221.68 76.3138 222.373 76.4688C223.585 76.7422 224.583 77.0703 225.367 77.4531C226.151 77.8359 226.734 78.3053 227.117 78.8613C227.5 79.4173 227.691 80.0918 227.691 80.8848C227.691 81.5319 227.555 82.1243 227.281 82.6621C227.017 83.1999 226.63 83.6647 226.119 84.0566C225.618 84.4395 225.016 84.7402 224.314 84.959C223.622 85.1686 222.842 85.2734 221.977 85.2734C220.673 85.2734 219.57 85.041 218.668 84.5762C217.766 84.1113 217.082 83.5098 216.617 82.7715C216.152 82.0332 215.92 81.2539 215.92 80.4336H218.463C218.499 81.1263 218.7 81.6777 219.064 82.0879C219.429 82.4889 219.876 82.776 220.404 82.9492C220.933 83.1133 221.457 83.1953 221.977 83.1953C222.669 83.1953 223.248 83.1042 223.713 82.9219C224.187 82.7396 224.547 82.4889 224.793 82.1699C225.039 81.8509 225.162 81.4863 225.162 81.0762ZM237.207 70.207V72.1484H229.209V70.207H237.207ZM231.916 66.6113H234.445V81.3359C234.445 81.8372 234.523 82.2155 234.678 82.4707C234.833 82.7259 235.033 82.8945 235.279 82.9766C235.525 83.0586 235.79 83.0996 236.072 83.0996C236.282 83.0996 236.501 83.0814 236.729 83.0449C236.965 82.9993 237.143 82.9629 237.262 82.9355L237.275 85C237.075 85.0638 236.811 85.123 236.482 85.1777C236.163 85.2415 235.776 85.2734 235.32 85.2734C234.701 85.2734 234.131 85.1504 233.611 84.9043C233.092 84.6582 232.677 84.248 232.367 83.6738C232.066 83.0905 231.916 82.3066 231.916 81.3223V66.6113ZM239.23 77.7676V77.4531C239.23 76.3867 239.385 75.3978 239.695 74.4863C240.005 73.5658 240.452 72.7682 241.035 72.0938C241.618 71.4102 242.325 70.8815 243.154 70.5078C243.984 70.125 244.913 69.9336 245.943 69.9336C246.982 69.9336 247.917 70.125 248.746 70.5078C249.585 70.8815 250.296 71.4102 250.879 72.0938C251.471 72.7682 251.923 73.5658 252.232 74.4863C252.542 75.3978 252.697 76.3867 252.697 77.4531V77.7676C252.697 78.834 252.542 79.8229 252.232 80.7344C251.923 81.6458 251.471 82.4434 250.879 83.127C250.296 83.8014 249.589 84.3301 248.76 84.7129C247.939 85.0866 247.01 85.2734 245.971 85.2734C244.932 85.2734 243.997 85.0866 243.168 84.7129C242.339 84.3301 241.628 83.8014 241.035 83.127C240.452 82.4434 240.005 81.6458 239.695 80.7344C239.385 79.8229 239.23 78.834 239.23 77.7676ZM241.76 77.4531V77.7676C241.76 78.5059 241.846 79.2031 242.02 79.8594C242.193 80.5065 242.452 81.0807 242.799 81.582C243.154 82.0833 243.596 82.4798 244.125 82.7715C244.654 83.054 245.269 83.1953 245.971 83.1953C246.663 83.1953 247.27 83.054 247.789 82.7715C248.318 82.4798 248.755 82.0833 249.102 81.582C249.448 81.0807 249.708 80.5065 249.881 79.8594C250.063 79.2031 250.154 78.5059 250.154 77.7676V77.4531C250.154 76.724 250.063 76.0358 249.881 75.3887C249.708 74.7324 249.443 74.1536 249.088 73.6523C248.742 73.1419 248.304 72.7409 247.775 72.4492C247.256 72.1576 246.645 72.0117 245.943 72.0117C245.251 72.0117 244.64 72.1576 244.111 72.4492C243.592 72.7409 243.154 73.1419 242.799 73.6523C242.452 74.1536 242.193 74.7324 242.02 75.3887C241.846 76.0358 241.76 76.724 241.76 77.4531ZM258.398 72.5312V85H255.869V70.207H258.33L258.398 72.5312ZM263.02 70.125L263.006 72.4766C262.796 72.431 262.596 72.4036 262.404 72.3945C262.222 72.3763 262.012 72.3672 261.775 72.3672C261.192 72.3672 260.677 72.4583 260.23 72.6406C259.784 72.8229 259.406 73.0781 259.096 73.4062C258.786 73.7344 258.54 74.1263 258.357 74.582C258.184 75.0286 258.07 75.5208 258.016 76.0586L257.305 76.4688C257.305 75.5755 257.391 74.737 257.564 73.9531C257.747 73.1693 258.025 72.4766 258.398 71.875C258.772 71.2643 259.246 70.7904 259.82 70.4531C260.404 70.1068 261.096 69.9336 261.898 69.9336C262.081 69.9336 262.29 69.9564 262.527 70.002C262.764 70.0384 262.928 70.0794 263.02 70.125ZM269.76 83.4688L273.875 70.207H276.582L270.648 87.2832C270.512 87.6478 270.329 88.0397 270.102 88.459C269.883 88.8874 269.6 89.293 269.254 89.6758C268.908 90.0586 268.488 90.3685 267.996 90.6055C267.513 90.8516 266.934 90.9746 266.26 90.9746C266.059 90.9746 265.804 90.9473 265.494 90.8926C265.184 90.8379 264.965 90.7923 264.838 90.7559L264.824 88.7051C264.897 88.7142 265.011 88.7233 265.166 88.7324C265.33 88.7507 265.444 88.7598 265.508 88.7598C266.082 88.7598 266.57 88.6823 266.971 88.5273C267.372 88.3815 267.709 88.1309 267.982 87.7754C268.265 87.429 268.507 86.9505 268.707 86.3398L269.76 83.4688ZM266.738 70.207L270.58 81.6914L271.236 84.3574L269.418 85.2871L263.977 70.207H266.738ZM277.43 83.6602C277.43 83.2318 277.562 82.8717 277.826 82.5801C278.1 82.2793 278.492 82.1289 279.002 82.1289C279.512 82.1289 279.9 82.2793 280.164 82.5801C280.438 82.8717 280.574 83.2318 280.574 83.6602C280.574 84.0794 280.438 84.4349 280.164 84.7266C279.9 85.0182 279.512 85.1641 279.002 85.1641C278.492 85.1641 278.1 85.0182 277.826 84.7266C277.562 84.4349 277.43 84.0794 277.43 83.6602ZM285.168 64V65.75C285.168 66.2969 285.072 66.8757 284.881 67.4863C284.699 68.0879 284.43 68.6712 284.074 69.2363C283.719 69.7923 283.29 70.2799 282.789 70.6992L281.34 69.7012C281.768 69.0996 282.092 68.4844 282.311 67.8555C282.538 67.2174 282.652 66.5293 282.652 65.791V64H285.168ZM289.365 64V65.75C289.365 66.2969 289.27 66.8757 289.078 67.4863C288.896 68.0879 288.627 68.6712 288.271 69.2363C287.916 69.7923 287.488 70.2799 286.986 70.6992L285.537 69.7012C285.965 69.0996 286.289 68.4844 286.508 67.8555C286.736 67.2174 286.85 66.5293 286.85 65.791V64H289.365Z" fill="black"/>
<path d="M458.768 76.7678C459.744 75.7915 459.744 74.2085 458.768 73.2322L442.858 57.3223C441.882 56.346 440.299 56.346 439.322 57.3223C438.346 58.2986 438.346 59.8816 439.322 60.8579L453.464 75L439.322 89.1421C438.346 90.1184 438.346 91.7014 439.322 92.6777C440.299 93.654 441.882 93.654 442.858 92.6777L458.768 76.7678ZM387 77.5H457V72.5H387V77.5Z" fill="#AAAAAA"/>
<path d="M748.768 76.7678C749.744 75.7915 749.744 74.2085 748.768 73.2322L732.858 57.3223C731.882 56.346 730.299 56.346 729.322 57.3223C728.346 58.2986 728.346 59.8816 729.322 60.8579L743.464 75L729.322 89.1421C728.346 90.1184 728.346 91.7014 729.322 92.6777C730.299 93.654 731.882 93.654 732.858 92.6777L748.768 76.7678ZM678 77.5H747V72.5H678V77.5Z" fill="#AAAAAA"/>
<rect x="458" y="169" width="221" height="60" rx="10" fill="#AAAAAA"/>
<path d="M515.707 197.93V199.008C515.707 200.289 515.547 201.438 515.227 202.453C514.906 203.469 514.445 204.332 513.844 205.043C513.242 205.754 512.52 206.297 511.676 206.672C510.84 207.047 509.902 207.234 508.863 207.234C507.855 207.234 506.93 207.047 506.086 206.672C505.25 206.297 504.523 205.754 503.906 205.043C503.297 204.332 502.824 203.469 502.488 202.453C502.152 201.438 501.984 200.289 501.984 199.008V197.93C501.984 196.648 502.148 195.504 502.477 194.496C502.812 193.48 503.285 192.617 503.895 191.906C504.504 191.188 505.227 190.641 506.062 190.266C506.906 189.891 507.832 189.703 508.84 189.703C509.879 189.703 510.816 189.891 511.652 190.266C512.496 190.641 513.219 191.188 513.82 191.906C514.43 192.617 514.895 193.48 515.215 194.496C515.543 195.504 515.707 196.648 515.707 197.93ZM513.469 199.008V197.906C513.469 196.891 513.363 195.992 513.152 195.211C512.949 194.43 512.648 193.773 512.25 193.242C511.852 192.711 511.363 192.309 510.785 192.035C510.215 191.762 509.566 191.625 508.84 191.625C508.137 191.625 507.5 191.762 506.93 192.035C506.367 192.309 505.883 192.711 505.477 193.242C505.078 193.773 504.77 194.43 504.551 195.211C504.332 195.992 504.223 196.891 504.223 197.906V199.008C504.223 200.031 504.332 200.938 504.551 201.727C504.77 202.508 505.082 203.168 505.488 203.707C505.902 204.238 506.391 204.641 506.953 204.914C507.523 205.188 508.16 205.324 508.863 205.324C509.598 205.324 510.25 205.188 510.82 204.914C511.391 204.641 511.871 204.238 512.262 203.707C512.66 203.168 512.961 202.508 513.164 201.727C513.367 200.938 513.469 200.031 513.469 199.008ZM526.523 204.07V194.32H528.703V207H526.629L526.523 204.07ZM526.934 201.398L527.836 201.375C527.836 202.219 527.746 203 527.566 203.719C527.395 204.43 527.113 205.047 526.723 205.57C526.332 206.094 525.82 206.504 525.188 206.801C524.555 207.09 523.785 207.234 522.879 207.234C522.262 207.234 521.695 207.145 521.18 206.965C520.672 206.785 520.234 206.508 519.867 206.133C519.5 205.758 519.215 205.27 519.012 204.668C518.816 204.066 518.719 203.344 518.719 202.5V194.32H520.887V202.523C520.887 203.094 520.949 203.566 521.074 203.941C521.207 204.309 521.383 204.602 521.602 204.82C521.828 205.031 522.078 205.18 522.352 205.266C522.633 205.352 522.922 205.395 523.219 205.395C524.141 205.395 524.871 205.219 525.41 204.867C525.949 204.508 526.336 204.027 526.57 203.426C526.812 202.816 526.934 202.141 526.934 201.398ZM534.176 196.312V207H532.008V194.32H534.117L534.176 196.312ZM538.137 194.25L538.125 196.266C537.945 196.227 537.773 196.203 537.609 196.195C537.453 196.18 537.273 196.172 537.07 196.172C536.57 196.172 536.129 196.25 535.746 196.406C535.363 196.562 535.039 196.781 534.773 197.062C534.508 197.344 534.297 197.68 534.141 198.07C533.992 198.453 533.895 198.875 533.848 199.336L533.238 199.688C533.238 198.922 533.312 198.203 533.461 197.531C533.617 196.859 533.855 196.266 534.176 195.75C534.496 195.227 534.902 194.82 535.395 194.531C535.895 194.234 536.488 194.086 537.176 194.086C537.332 194.086 537.512 194.105 537.715 194.145C537.918 194.176 538.059 194.211 538.137 194.25ZM552.715 200.309H548.156V198.469H552.715C553.598 198.469 554.312 198.328 554.859 198.047C555.406 197.766 555.805 197.375 556.055 196.875C556.312 196.375 556.441 195.805 556.441 195.164C556.441 194.578 556.312 194.027 556.055 193.512C555.805 192.996 555.406 192.582 554.859 192.27C554.312 191.949 553.598 191.789 552.715 191.789H548.684V207H546.422V189.938H552.715C554.004 189.938 555.094 190.16 555.984 190.605C556.875 191.051 557.551 191.668 558.012 192.457C558.473 193.238 558.703 194.133 558.703 195.141C558.703 196.234 558.473 197.168 558.012 197.941C557.551 198.715 556.875 199.305 555.984 199.711C555.094 200.109 554.004 200.309 552.715 200.309ZM563.402 196.312V207H561.234V194.32H563.344L563.402 196.312ZM567.363 194.25L567.352 196.266C567.172 196.227 567 196.203 566.836 196.195C566.68 196.18 566.5 196.172 566.297 196.172C565.797 196.172 565.355 196.25 564.973 196.406C564.59 196.562 564.266 196.781 564 197.062C563.734 197.344 563.523 197.68 563.367 198.07C563.219 198.453 563.121 198.875 563.074 199.336L562.465 199.688C562.465 198.922 562.539 198.203 562.688 197.531C562.844 196.859 563.082 196.266 563.402 195.75C563.723 195.227 564.129 194.82 564.621 194.531C565.121 194.234 565.715 194.086 566.402 194.086C566.559 194.086 566.738 194.105 566.941 194.145C567.145 194.176 567.285 194.211 567.363 194.25ZM568.559 200.801V200.531C568.559 199.617 568.691 198.77 568.957 197.988C569.223 197.199 569.605 196.516 570.105 195.938C570.605 195.352 571.211 194.898 571.922 194.578C572.633 194.25 573.43 194.086 574.312 194.086C575.203 194.086 576.004 194.25 576.715 194.578C577.434 194.898 578.043 195.352 578.543 195.938C579.051 196.516 579.438 197.199 579.703 197.988C579.969 198.77 580.102 199.617 580.102 200.531V200.801C580.102 201.715 579.969 202.562 579.703 203.344C579.438 204.125 579.051 204.809 578.543 205.395C578.043 205.973 577.438 206.426 576.727 206.754C576.023 207.074 575.227 207.234 574.336 207.234C573.445 207.234 572.645 207.074 571.934 206.754C571.223 206.426 570.613 205.973 570.105 205.395C569.605 204.809 569.223 204.125 568.957 203.344C568.691 202.562 568.559 201.715 568.559 200.801ZM570.727 200.531V200.801C570.727 201.434 570.801 202.031 570.949 202.594C571.098 203.148 571.32 203.641 571.617 204.07C571.922 204.5 572.301 204.84 572.754 205.09C573.207 205.332 573.734 205.453 574.336 205.453C574.93 205.453 575.449 205.332 575.895 205.09C576.348 204.84 576.723 204.5 577.02 204.07C577.316 203.641 577.539 203.148 577.688 202.594C577.844 202.031 577.922 201.434 577.922 200.801V200.531C577.922 199.906 577.844 199.316 577.688 198.762C577.539 198.199 577.312 197.703 577.008 197.273C576.711 196.836 576.336 196.492 575.883 196.242C575.438 195.992 574.914 195.867 574.312 195.867C573.719 195.867 573.195 195.992 572.742 196.242C572.297 196.492 571.922 196.836 571.617 197.273C571.32 197.703 571.098 198.199 570.949 198.762C570.801 199.316 570.727 199.906 570.727 200.531ZM591.035 194.32H593.004V206.73C593.004 207.848 592.777 208.801 592.324 209.59C591.871 210.379 591.238 210.977 590.426 211.383C589.621 211.797 588.691 212.004 587.637 212.004C587.199 212.004 586.684 211.934 586.09 211.793C585.504 211.66 584.926 211.43 584.355 211.102C583.793 210.781 583.32 210.348 582.938 209.801L584.074 208.512C584.605 209.152 585.16 209.598 585.738 209.848C586.324 210.098 586.902 210.223 587.473 210.223C588.16 210.223 588.754 210.094 589.254 209.836C589.754 209.578 590.141 209.195 590.414 208.688C590.695 208.188 590.836 207.57 590.836 206.836V197.109L591.035 194.32ZM582.305 200.801V200.555C582.305 199.586 582.418 198.707 582.645 197.918C582.879 197.121 583.211 196.438 583.641 195.867C584.078 195.297 584.605 194.859 585.223 194.555C585.84 194.242 586.535 194.086 587.309 194.086C588.105 194.086 588.801 194.227 589.395 194.508C589.996 194.781 590.504 195.184 590.918 195.715C591.34 196.238 591.672 196.871 591.914 197.613C592.156 198.355 592.324 199.195 592.418 200.133V201.211C592.332 202.141 592.164 202.977 591.914 203.719C591.672 204.461 591.34 205.094 590.918 205.617C590.504 206.141 589.996 206.543 589.395 206.824C588.793 207.098 588.09 207.234 587.285 207.234C586.527 207.234 585.84 207.074 585.223 206.754C584.613 206.434 584.09 205.984 583.652 205.406C583.215 204.828 582.879 204.148 582.645 203.367C582.418 202.578 582.305 201.723 582.305 200.801ZM584.473 200.555V200.801C584.473 201.434 584.535 202.027 584.66 202.582C584.793 203.137 584.992 203.625 585.258 204.047C585.531 204.469 585.879 204.801 586.301 205.043C586.723 205.277 587.227 205.395 587.812 205.395C588.531 205.395 589.125 205.242 589.594 204.938C590.062 204.633 590.434 204.23 590.707 203.73C590.988 203.23 591.207 202.688 591.363 202.102V199.277C591.277 198.848 591.145 198.434 590.965 198.035C590.793 197.629 590.566 197.27 590.285 196.957C590.012 196.637 589.672 196.383 589.266 196.195C588.859 196.008 588.383 195.914 587.836 195.914C587.242 195.914 586.73 196.039 586.301 196.289C585.879 196.531 585.531 196.867 585.258 197.297C584.992 197.719 584.793 198.211 584.66 198.773C584.535 199.328 584.473 199.922 584.473 200.555ZM598.465 196.312V207H596.297V194.32H598.406L598.465 196.312ZM602.426 194.25L602.414 196.266C602.234 196.227 602.062 196.203 601.898 196.195C601.742 196.18 601.562 196.172 601.359 196.172C600.859 196.172 600.418 196.25 600.035 196.406C599.652 196.562 599.328 196.781 599.062 197.062C598.797 197.344 598.586 197.68 598.43 198.07C598.281 198.453 598.184 198.875 598.137 199.336L597.527 199.688C597.527 198.922 597.602 198.203 597.75 197.531C597.906 196.859 598.145 196.266 598.465 195.75C598.785 195.227 599.191 194.82 599.684 194.531C600.184 194.234 600.777 194.086 601.465 194.086C601.621 194.086 601.801 194.105 602.004 194.145C602.207 194.176 602.348 194.211 602.426 194.25ZM611.438 204.832V198.305C611.438 197.805 611.336 197.371 611.133 197.004C610.938 196.629 610.641 196.34 610.242 196.137C609.844 195.934 609.352 195.832 608.766 195.832C608.219 195.832 607.738 195.926 607.324 196.113C606.918 196.301 606.598 196.547 606.363 196.852C606.137 197.156 606.023 197.484 606.023 197.836H603.855C603.855 197.383 603.973 196.934 604.207 196.488C604.441 196.043 604.777 195.641 605.215 195.281C605.66 194.914 606.191 194.625 606.809 194.414C607.434 194.195 608.129 194.086 608.895 194.086C609.816 194.086 610.629 194.242 611.332 194.555C612.043 194.867 612.598 195.34 612.996 195.973C613.402 196.598 613.605 197.383 613.605 198.328V204.234C613.605 204.656 613.641 205.105 613.711 205.582C613.789 206.059 613.902 206.469 614.051 206.812V207H611.789C611.68 206.75 611.594 206.418 611.531 206.004C611.469 205.582 611.438 205.191 611.438 204.832ZM611.812 199.312L611.836 200.836H609.645C609.027 200.836 608.477 200.887 607.992 200.988C607.508 201.082 607.102 201.227 606.773 201.422C606.445 201.617 606.195 201.863 606.023 202.16C605.852 202.449 605.766 202.789 605.766 203.18C605.766 203.578 605.855 203.941 606.035 204.27C606.215 204.598 606.484 204.859 606.844 205.055C607.211 205.242 607.66 205.336 608.191 205.336C608.855 205.336 609.441 205.195 609.949 204.914C610.457 204.633 610.859 204.289 611.156 203.883C611.461 203.477 611.625 203.082 611.648 202.699L612.574 203.742C612.52 204.07 612.371 204.434 612.129 204.832C611.887 205.23 611.562 205.613 611.156 205.98C610.758 206.34 610.281 206.641 609.727 206.883C609.18 207.117 608.562 207.234 607.875 207.234C607.016 207.234 606.262 207.066 605.613 206.73C604.973 206.395 604.473 205.945 604.113 205.383C603.762 204.812 603.586 204.176 603.586 203.473C603.586 202.793 603.719 202.195 603.984 201.68C604.25 201.156 604.633 200.723 605.133 200.379C605.633 200.027 606.234 199.762 606.938 199.582C607.641 199.402 608.426 199.312 609.293 199.312H611.812ZM619.172 196.84V207H616.992V194.32H619.055L619.172 196.84ZM618.727 200.18L617.719 200.145C617.727 199.277 617.84 198.477 618.059 197.742C618.277 197 618.602 196.355 619.031 195.809C619.461 195.262 619.996 194.84 620.637 194.543C621.277 194.238 622.02 194.086 622.863 194.086C623.457 194.086 624.004 194.172 624.504 194.344C625.004 194.508 625.438 194.77 625.805 195.129C626.172 195.488 626.457 195.949 626.66 196.512C626.863 197.074 626.965 197.754 626.965 198.551V207H624.797V198.656C624.797 197.992 624.684 197.461 624.457 197.062C624.238 196.664 623.926 196.375 623.52 196.195C623.113 196.008 622.637 195.914 622.09 195.914C621.449 195.914 620.914 196.027 620.484 196.254C620.055 196.48 619.711 196.793 619.453 197.191C619.195 197.59 619.008 198.047 618.891 198.562C618.781 199.07 618.727 199.609 618.727 200.18ZM626.941 198.984L625.488 199.43C625.496 198.734 625.609 198.066 625.828 197.426C626.055 196.785 626.379 196.215 626.801 195.715C627.23 195.215 627.758 194.82 628.383 194.531C629.008 194.234 629.723 194.086 630.527 194.086C631.207 194.086 631.809 194.176 632.332 194.355C632.863 194.535 633.309 194.812 633.668 195.188C634.035 195.555 634.312 196.027 634.5 196.605C634.688 197.184 634.781 197.871 634.781 198.668V207H632.602V198.645C632.602 197.934 632.488 197.383 632.262 196.992C632.043 196.594 631.73 196.316 631.324 196.16C630.926 195.996 630.449 195.914 629.895 195.914C629.418 195.914 628.996 195.996 628.629 196.16C628.262 196.324 627.953 196.551 627.703 196.84C627.453 197.121 627.262 197.445 627.129 197.812C627.004 198.18 626.941 198.57 626.941 198.984Z" fill="black"/>
</svg>
