<svg width="1806" height="1107" viewBox="0 0 1806 1107" fill="none" xmlns="http://www.w3.org/2000/svg">
<path d="M972 56L341 387" stroke="black" stroke-width="8"/>
<path d="M971 56L972 388" stroke="black" stroke-width="8"/>
<path d="M192 720L341 387" stroke="black" stroke-width="8"/>
<path d="M193 720L192 1052" stroke="black" stroke-width="8"/>
<path d="M490 720L341 387" stroke="black" stroke-width="8"/>
<path d="M822 720L969 388" stroke="black" stroke-width="8"/>
<path d="M1121 719L969 388" stroke="black" stroke-width="8"/>
<path d="M1453 719L1602 388" stroke="black" stroke-width="8"/>
<path d="M1751 719L1602 388" stroke="black" stroke-width="8"/>
<path d="M1750 719L1751 1051" stroke="black" stroke-width="8"/>
<path d="M1122 719L1121 1051" stroke="black" stroke-width="8"/>
<path d="M491 720L490 1051" stroke="black" stroke-width="8"/>
<path d="M972 56L1602 388" stroke="black" stroke-width="8"/>
<path d="M812 6L812 105" stroke="#222222" stroke-width="4"/>
<path d="M845 6L845 105" stroke="#222222" stroke-width="4"/>
<path d="M779 39H878" stroke="#222222" stroke-width="4"/>
<path d="M779 72H878" stroke="#222222" stroke-width="4"/>
<circle cx="828" cy="56" r="9" stroke="#48BFE3" stroke-width="4"/>
<circle cx="828" cy="22" r="9" stroke="#48BFE3" stroke-width="4"/>
<circle cx="795" cy="56" r="9" stroke="#48BFE3" stroke-width="4"/>
<path d="M785 12L805 32" stroke="#5E60CE" stroke-width="4"/>
<path d="M785 32L805 12" stroke="#5E60CE" stroke-width="4"/>
<path d="M785 83L805 103" stroke="#5E60CE" stroke-width="4"/>
<path d="M785 103L805 83" stroke="#5E60CE" stroke-width="4"/>
<path d="M852 46L872 66" stroke="#5E60CE" stroke-width="4"/>
<path d="M852 66L872 46" stroke="#5E60CE" stroke-width="4"/>
<circle cx="971.5" cy="55.5" r="55.5" fill="#5E60CE"/>
<path d="M812 338L812 437" stroke="#222222" stroke-width="4"/>
<path d="M845 338L845 437" stroke="#222222" stroke-width="4"/>
<path d="M779 371H878" stroke="#222222" stroke-width="4"/>
<path d="M779 404H878" stroke="#222222" stroke-width="4"/>
<circle cx="828" cy="388" r="9" stroke="#48BFE3" stroke-width="4"/>
<circle cx="828" cy="354" r="9" stroke="#48BFE3" stroke-width="4"/>
<circle cx="795" cy="388" r="9" stroke="#48BFE3" stroke-width="4"/>
<path d="M785 344L805 364" stroke="#5E60CE" stroke-width="4"/>
<path d="M785 364L805 344" stroke="#5E60CE" stroke-width="4"/>
<path d="M785 415L805 435" stroke="#5E60CE" stroke-width="4"/>
<path d="M785 435L805 415" stroke="#5E60CE" stroke-width="4"/>
<path d="M852 415L872 435" stroke="#5E60CE" stroke-width="4"/>
<path d="M852 435L872 415" stroke="#5E60CE" stroke-width="4"/>
<path d="M852 378L872 398" stroke="#5E60CE" stroke-width="4"/>
<path d="M852 398L872 378" stroke="#5E60CE" stroke-width="4"/>
<circle cx="971.5" cy="387.5" r="55.5" fill="#48BFE3"/>
<path d="M1442 340L1442 439" stroke="#222222" stroke-width="4"/>
<path d="M1475 340L1475 439" stroke="#222222" stroke-width="4"/>
<path d="M1409 373H1508" stroke="#222222" stroke-width="4"/>
<path d="M1409 406H1508" stroke="#222222" stroke-width="4"/>
<circle cx="1458" cy="390" r="9" stroke="#48BFE3" stroke-width="4"/>
<circle cx="1458" cy="356" r="9" stroke="#48BFE3" stroke-width="4"/>
<circle cx="1425" cy="390" r="9" stroke="#48BFE3" stroke-width="4"/>
<path d="M1415 346L1435 366" stroke="#5E60CE" stroke-width="4"/>
<path d="M1415 366L1435 346" stroke="#5E60CE" stroke-width="4"/>
<path d="M1415 417L1435 437" stroke="#5E60CE" stroke-width="4"/>
<path d="M1415 437L1435 417" stroke="#5E60CE" stroke-width="4"/>
<path d="M1482 380L1502 400" stroke="#5E60CE" stroke-width="4"/>
<path d="M1482 400L1502 380" stroke="#5E60CE" stroke-width="4"/>
<path d="M1482 346L1502 366" stroke="#5E60CE" stroke-width="4"/>
<path d="M1482 366L1502 346" stroke="#5E60CE" stroke-width="4"/>
<circle cx="1601.5" cy="389.5" r="55.5" fill="#48BFE3"/>
<path d="M33 670L33 769" stroke="#222222" stroke-width="4"/>
<path d="M66 670L66 769" stroke="#222222" stroke-width="4"/>
<path d="M0 703H99" stroke="#222222" stroke-width="4"/>
<path d="M0 736H99" stroke="#222222" stroke-width="4"/>
<circle cx="49" cy="720" r="9" stroke="#48BFE3" stroke-width="4"/>
<circle cx="49" cy="686" r="9" stroke="#48BFE3" stroke-width="4"/>
<circle cx="83" cy="686" r="9" stroke="#48BFE3" stroke-width="4"/>
<circle cx="16" cy="720" r="9" stroke="#48BFE3" stroke-width="4"/>
<path d="M6 676L26 696" stroke="#5E60CE" stroke-width="4"/>
<path d="M6 696L26 676" stroke="#5E60CE" stroke-width="4"/>
<path d="M6 747L26 767" stroke="#5E60CE" stroke-width="4"/>
<path d="M6 767L26 747" stroke="#5E60CE" stroke-width="4"/>
<path d="M73 710L93 730" stroke="#5E60CE" stroke-width="4"/>
<path d="M73 730L93 710" stroke="#5E60CE" stroke-width="4"/>
<path d="M40 747L60 767" stroke="#5E60CE" stroke-width="4"/>
<path d="M40 767L60 747" stroke="#5E60CE" stroke-width="4"/>
<circle cx="192.5" cy="719.5" r="55.5" fill="#5E60CE"/>
<path d="M331 670L331 769" stroke="#222222" stroke-width="4"/>
<path d="M364 670L364 769" stroke="#222222" stroke-width="4"/>
<path d="M298 703H397" stroke="#222222" stroke-width="4"/>
<path d="M298 736H397" stroke="#222222" stroke-width="4"/>
<circle cx="347" cy="720" r="9" stroke="#48BFE3" stroke-width="4"/>
<circle cx="381" cy="756" r="9" stroke="#48BFE3" stroke-width="4"/>
<circle cx="347" cy="686" r="9" stroke="#48BFE3" stroke-width="4"/>
<circle cx="314" cy="720" r="9" stroke="#48BFE3" stroke-width="4"/>
<path d="M304 676L324 696" stroke="#5E60CE" stroke-width="4"/>
<path d="M304 696L324 676" stroke="#5E60CE" stroke-width="4"/>
<path d="M304 747L324 767" stroke="#5E60CE" stroke-width="4"/>
<path d="M304 767L324 747" stroke="#5E60CE" stroke-width="4"/>
<path d="M371 710L391 730" stroke="#5E60CE" stroke-width="4"/>
<path d="M371 730L391 710" stroke="#5E60CE" stroke-width="4"/>
<path d="M338 747L358 767" stroke="#5E60CE" stroke-width="4"/>
<path d="M338 767L358 747" stroke="#5E60CE" stroke-width="4"/>
<circle cx="490.5" cy="719.5" r="55.5" fill="#5E60CE"/>
<path d="M663 670L663 769" stroke="#222222" stroke-width="4"/>
<path d="M696 670L696 769" stroke="#222222" stroke-width="4"/>
<path d="M630 703H729" stroke="#222222" stroke-width="4"/>
<path d="M630 736H729" stroke="#222222" stroke-width="4"/>
<circle cx="679" cy="720" r="9" stroke="#48BFE3" stroke-width="4"/>
<circle cx="679" cy="756" r="9" stroke="#48BFE3" stroke-width="4"/>
<circle cx="679" cy="686" r="9" stroke="#48BFE3" stroke-width="4"/>
<circle cx="646" cy="720" r="9" stroke="#48BFE3" stroke-width="4"/>
<path d="M636 676L656 696" stroke="#5E60CE" stroke-width="4"/>
<path d="M636 696L656 676" stroke="#5E60CE" stroke-width="4"/>
<path d="M636 747L656 767" stroke="#5E60CE" stroke-width="4"/>
<path d="M636 767L656 747" stroke="#5E60CE" stroke-width="4"/>
<path d="M703 710L723 730" stroke="#5E60CE" stroke-width="4"/>
<path d="M703 730L723 710" stroke="#5E60CE" stroke-width="4"/>
<path d="M703 747L723 767" stroke="#5E60CE" stroke-width="4"/>
<path d="M703 767L723 747" stroke="#5E60CE" stroke-width="4"/>
<circle cx="822.5" cy="719.5" r="55.5" fill="#5E60CE"/>
<path d="M961 670L961 769" stroke="#222222" stroke-width="4"/>
<path d="M994 670L994 769" stroke="#222222" stroke-width="4"/>
<path d="M928 703H1027" stroke="#222222" stroke-width="4"/>
<path d="M928 736H1027" stroke="#222222" stroke-width="4"/>
<circle cx="977" cy="720" r="9" stroke="#48BFE3" stroke-width="4"/>
<circle cx="977" cy="686" r="9" stroke="#48BFE3" stroke-width="4"/>
<circle cx="1011" cy="686" r="9" stroke="#48BFE3" stroke-width="4"/>
<circle cx="944" cy="720" r="9" stroke="#48BFE3" stroke-width="4"/>
<path d="M934 676L954 696" stroke="#5E60CE" stroke-width="4"/>
<path d="M934 696L954 676" stroke="#5E60CE" stroke-width="4"/>
<path d="M934 747L954 767" stroke="#5E60CE" stroke-width="4"/>
<path d="M934 767L954 747" stroke="#5E60CE" stroke-width="4"/>
<path d="M1001 710L1021 730" stroke="#5E60CE" stroke-width="4"/>
<path d="M1001 730L1021 710" stroke="#5E60CE" stroke-width="4"/>
<path d="M1001 747L1021 767" stroke="#5E60CE" stroke-width="4"/>
<path d="M1001 767L1021 747" stroke="#5E60CE" stroke-width="4"/>
<circle cx="1120.5" cy="719.5" r="55.5" fill="#5E60CE"/>
<path d="M1293 670L1293 769" stroke="#222222" stroke-width="4"/>
<path d="M1326 670L1326 769" stroke="#222222" stroke-width="4"/>
<path d="M1260 703H1359" stroke="#222222" stroke-width="4"/>
<path d="M1260 736H1359" stroke="#222222" stroke-width="4"/>
<circle cx="1309" cy="720" r="9" stroke="#48BFE3" stroke-width="4"/>
<circle cx="1309" cy="757" r="9" stroke="#48BFE3" stroke-width="4"/>
<circle cx="1309" cy="686" r="9" stroke="#48BFE3" stroke-width="4"/>
<circle cx="1276" cy="720" r="9" stroke="#48BFE3" stroke-width="4"/>
<path d="M1266 676L1286 696" stroke="#5E60CE" stroke-width="4"/>
<path d="M1266 696L1286 676" stroke="#5E60CE" stroke-width="4"/>
<path d="M1266 747L1286 767" stroke="#5E60CE" stroke-width="4"/>
<path d="M1266 767L1286 747" stroke="#5E60CE" stroke-width="4"/>
<path d="M1333 710L1353 730" stroke="#5E60CE" stroke-width="4"/>
<path d="M1333 730L1353 710" stroke="#5E60CE" stroke-width="4"/>
<path d="M1333 675L1353 695" stroke="#5E60CE" stroke-width="4"/>
<path d="M1333 695L1353 675" stroke="#5E60CE" stroke-width="4"/>
<circle cx="1452.5" cy="719.5" r="55.5" fill="#5E60CE"/>
<path d="M1591 670L1591 769" stroke="#222222" stroke-width="4"/>
<path d="M1624 670L1624 769" stroke="#222222" stroke-width="4"/>
<path d="M1558 703H1657" stroke="#222222" stroke-width="4"/>
<path d="M1558 736H1657" stroke="#222222" stroke-width="4"/>
<circle cx="1607" cy="720" r="9" stroke="#48BFE3" stroke-width="4"/>
<circle cx="1641" cy="758" r="9" stroke="#48BFE3" stroke-width="4"/>
<circle cx="1607" cy="686" r="9" stroke="#48BFE3" stroke-width="4"/>
<circle cx="1574" cy="720" r="9" stroke="#48BFE3" stroke-width="4"/>
<path d="M1564 676L1584 696" stroke="#5E60CE" stroke-width="4"/>
<path d="M1564 696L1584 676" stroke="#5E60CE" stroke-width="4"/>
<path d="M1564 747L1584 767" stroke="#5E60CE" stroke-width="4"/>
<path d="M1564 767L1584 747" stroke="#5E60CE" stroke-width="4"/>
<path d="M1631 710L1651 730" stroke="#5E60CE" stroke-width="4"/>
<path d="M1631 730L1651 710" stroke="#5E60CE" stroke-width="4"/>
<path d="M1631 675L1651 695" stroke="#5E60CE" stroke-width="4"/>
<path d="M1631 695L1651 675" stroke="#5E60CE" stroke-width="4"/>
<circle cx="1750.5" cy="719.5" r="55.5" fill="#5E60CE"/>
<path d="M182 338L182 437" stroke="#222222" stroke-width="4"/>
<path d="M215 338L215 437" stroke="#222222" stroke-width="4"/>
<path d="M149 371H248" stroke="#222222" stroke-width="4"/>
<path d="M149 404H248" stroke="#222222" stroke-width="4"/>
<circle cx="198" cy="388" r="9" stroke="#48BFE3" stroke-width="4"/>
<circle cx="198" cy="354" r="9" stroke="#48BFE3" stroke-width="4"/>
<circle cx="165" cy="388" r="9" stroke="#48BFE3" stroke-width="4"/>
<path d="M155 344L175 364" stroke="#5E60CE" stroke-width="4"/>
<path d="M155 364L175 344" stroke="#5E60CE" stroke-width="4"/>
<path d="M155 415L175 435" stroke="#5E60CE" stroke-width="4"/>
<path d="M155 435L175 415" stroke="#5E60CE" stroke-width="4"/>
<path d="M222 378L242 398" stroke="#5E60CE" stroke-width="4"/>
<path d="M222 398L242 378" stroke="#5E60CE" stroke-width="4"/>
<path d="M189 415L209 435" stroke="#5E60CE" stroke-width="4"/>
<path d="M189 435L209 415" stroke="#5E60CE" stroke-width="4"/>
<circle cx="341.5" cy="387.5" r="55.5" fill="#48BFE3"/>
<path d="M33 1001L33 1100" stroke="#222222" stroke-width="4"/>
<path d="M66 1001L66 1100" stroke="#222222" stroke-width="4"/>
<path d="M0 1034H99" stroke="#222222" stroke-width="4"/>
<path d="M0 1067H99" stroke="#222222" stroke-width="4"/>
<circle cx="49" cy="1051" r="9" stroke="#48BFE3" stroke-width="4"/>
<circle cx="49" cy="1017" r="9" stroke="#48BFE3" stroke-width="4"/>
<circle cx="83" cy="1017" r="9" stroke="#48BFE3" stroke-width="4"/>
<circle cx="16" cy="1051" r="9" stroke="#48BFE3" stroke-width="4"/>
<path d="M6 1007L26 1027" stroke="#5E60CE" stroke-width="4"/>
<path d="M6 1027L26 1007" stroke="#5E60CE" stroke-width="4"/>
<path d="M6 1078L26 1098" stroke="#5E60CE" stroke-width="4"/>
<path d="M6 1098L26 1078" stroke="#5E60CE" stroke-width="4"/>
<path d="M73 1041L93 1061" stroke="#5E60CE" stroke-width="4"/>
<path d="M73 1061L93 1041" stroke="#5E60CE" stroke-width="4"/>
<path d="M73 1078L93 1098" stroke="#5E60CE" stroke-width="4"/>
<path d="M73 1098L93 1078" stroke="#5E60CE" stroke-width="4"/>
<path d="M40 1078L60 1098" stroke="#5E60CE" stroke-width="4"/>
<path d="M40 1098L60 1078" stroke="#5E60CE" stroke-width="4"/>
<circle cx="192.5" cy="1050.5" r="55.5" fill="#48BFE3"/>
<path d="M331 1001L331 1100" stroke="#222222" stroke-width="4"/>
<path d="M364 1001L364 1100" stroke="#222222" stroke-width="4"/>
<path d="M298 1034H397" stroke="#222222" stroke-width="4"/>
<path d="M298 1067H397" stroke="#222222" stroke-width="4"/>
<circle cx="347" cy="1051" r="9" stroke="#48BFE3" stroke-width="4"/>
<circle cx="381" cy="1087" r="9" stroke="#48BFE3" stroke-width="4"/>
<circle cx="347" cy="1017" r="9" stroke="#48BFE3" stroke-width="4"/>
<circle cx="314" cy="1051" r="9" stroke="#48BFE3" stroke-width="4"/>
<path d="M304 1007L324 1027" stroke="#5E60CE" stroke-width="4"/>
<path d="M304 1027L324 1007" stroke="#5E60CE" stroke-width="4"/>
<path d="M304 1078L324 1098" stroke="#5E60CE" stroke-width="4"/>
<path d="M304 1098L324 1078" stroke="#5E60CE" stroke-width="4"/>
<path d="M371 1041L391 1061" stroke="#5E60CE" stroke-width="4"/>
<path d="M371 1061L391 1041" stroke="#5E60CE" stroke-width="4"/>
<path d="M371 1007L391 1027" stroke="#5E60CE" stroke-width="4"/>
<path d="M371 1027L391 1007" stroke="#5E60CE" stroke-width="4"/>
<path d="M338 1078L358 1098" stroke="#5E60CE" stroke-width="4"/>
<path d="M338 1098L358 1078" stroke="#5E60CE" stroke-width="4"/>
<circle cx="490.5" cy="1050.5" r="55.5" fill="#48BFE3"/>
<path d="M961 1002L961 1101" stroke="#222222" stroke-width="4"/>
<path d="M994 1002L994 1101" stroke="#222222" stroke-width="4"/>
<path d="M928 1035H1027" stroke="#222222" stroke-width="4"/>
<path d="M928 1068H1027" stroke="#222222" stroke-width="4"/>
<circle cx="977" cy="1052" r="9" stroke="#48BFE3" stroke-width="4"/>
<circle cx="977" cy="1018" r="9" stroke="#48BFE3" stroke-width="4"/>
<circle cx="1011" cy="1018" r="9" stroke="#48BFE3" stroke-width="4"/>
<circle cx="944" cy="1052" r="9" stroke="#48BFE3" stroke-width="4"/>
<path d="M934 1008L954 1028" stroke="#5E60CE" stroke-width="4"/>
<path d="M934 1028L954 1008" stroke="#5E60CE" stroke-width="4"/>
<path d="M934 1079L954 1099" stroke="#5E60CE" stroke-width="4"/>
<path d="M934 1099L954 1079" stroke="#5E60CE" stroke-width="4"/>
<path d="M1001 1042L1021 1062" stroke="#5E60CE" stroke-width="4"/>
<path d="M1001 1062L1021 1042" stroke="#5E60CE" stroke-width="4"/>
<path d="M1001 1079L1021 1099" stroke="#5E60CE" stroke-width="4"/>
<path d="M1001 1099L1021 1079" stroke="#5E60CE" stroke-width="4"/>
<path d="M967 1079L987 1099" stroke="#5E60CE" stroke-width="4"/>
<path d="M967 1099L987 1079" stroke="#5E60CE" stroke-width="4"/>
<circle cx="1120.5" cy="1051.5" r="55.5" fill="#48BFE3"/>
<path d="M1591 1002L1591 1101" stroke="#222222" stroke-width="4"/>
<path d="M1624 1002L1624 1101" stroke="#222222" stroke-width="4"/>
<path d="M1558 1035H1657" stroke="#222222" stroke-width="4"/>
<path d="M1558 1068H1657" stroke="#222222" stroke-width="4"/>
<circle cx="1607" cy="1052" r="9" stroke="#48BFE3" stroke-width="4"/>
<circle cx="1641" cy="1090" r="9" stroke="#48BFE3" stroke-width="4"/>
<circle cx="1607" cy="1018" r="9" stroke="#48BFE3" stroke-width="4"/>
<circle cx="1574" cy="1052" r="9" stroke="#48BFE3" stroke-width="4"/>
<path d="M1564 1008L1584 1028" stroke="#5E60CE" stroke-width="4"/>
<path d="M1564 1028L1584 1008" stroke="#5E60CE" stroke-width="4"/>
<path d="M1564 1079L1584 1099" stroke="#5E60CE" stroke-width="4"/>
<path d="M1564 1099L1584 1079" stroke="#5E60CE" stroke-width="4"/>
<path d="M1597 1079L1617 1099" stroke="#5E60CE" stroke-width="4"/>
<path d="M1597 1099L1617 1079" stroke="#5E60CE" stroke-width="4"/>
<path d="M1631 1042L1651 1062" stroke="#5E60CE" stroke-width="4"/>
<path d="M1631 1062L1651 1042" stroke="#5E60CE" stroke-width="4"/>
<path d="M1631 1007L1651 1027" stroke="#5E60CE" stroke-width="4"/>
<path d="M1631 1027L1651 1007" stroke="#5E60CE" stroke-width="4"/>
<circle cx="1750.5" cy="1051.5" r="55.5" fill="#48BFE3"/>
<path d="M192.625 1070.5C189.95 1070.5 187.671 1069.77 185.789 1068.31C183.907 1066.85 182.469 1064.72 181.474 1061.94C180.48 1059.15 179.983 1055.77 179.983 1051.82C179.983 1047.89 180.48 1044.53 181.474 1041.75C182.481 1038.96 183.925 1036.83 185.807 1035.36C187.701 1033.88 189.973 1033.14 192.625 1033.14C195.277 1033.14 197.543 1033.88 199.425 1035.36C201.319 1036.83 202.763 1038.96 203.758 1041.75C204.764 1044.53 205.267 1047.89 205.267 1051.82C205.267 1055.77 204.77 1059.15 203.776 1061.94C202.781 1064.72 201.343 1066.85 199.461 1068.31C197.579 1069.77 195.3 1070.5 192.625 1070.5ZM192.625 1066.59C195.277 1066.59 197.336 1065.31 198.804 1062.76C200.272 1060.2 201.006 1056.55 201.006 1051.82C201.006 1048.67 200.668 1045.99 199.994 1043.77C199.331 1041.56 198.372 1039.87 197.117 1038.71C195.874 1037.55 194.377 1036.97 192.625 1036.97C189.997 1036.97 187.943 1038.27 186.464 1040.86C184.984 1043.44 184.244 1047.1 184.244 1051.82C184.244 1054.97 184.576 1057.64 185.239 1059.84C185.902 1062.05 186.854 1063.72 188.097 1064.87C189.352 1066.02 190.861 1066.59 192.625 1066.59Z" fill="white"/>
<path d="M311.895 410.545V365.091H322.406V368.571H315.872V407.065H322.406V410.545H311.895ZM330.01 406H325.394L338.746 369.636H343.291L356.644 406H352.027L341.161 375.389H340.877L330.01 406ZM331.715 391.795H350.323V395.702H331.715V391.795ZM370.12 365.091V410.545H359.609V407.065H366.143V368.571H359.609V365.091H370.12Z" fill="white"/>
<path d="M942.895 410.545V365.091H953.406V368.571H946.872V407.065H953.406V410.545H942.895ZM959.519 406V369.636H972.232C974.765 369.636 976.854 370.074 978.499 370.95C980.145 371.814 981.37 372.98 982.175 374.448C982.98 375.904 983.382 377.52 983.382 379.295C983.382 380.858 983.104 382.148 982.548 383.166C982.003 384.184 981.281 384.989 980.382 385.581C979.494 386.173 978.529 386.611 977.487 386.895V387.25C978.6 387.321 979.719 387.712 980.843 388.422C981.968 389.132 982.909 390.15 983.666 391.476C984.424 392.802 984.803 394.423 984.803 396.341C984.803 398.164 984.388 399.803 983.56 401.259C982.731 402.715 981.423 403.869 979.636 404.722C977.848 405.574 975.522 406 972.658 406H959.519ZM963.922 402.094H972.658C975.534 402.094 977.576 401.537 978.784 400.425C980.003 399.3 980.612 397.939 980.612 396.341C980.612 395.11 980.299 393.973 979.671 392.932C979.044 391.878 978.15 391.038 976.99 390.411C975.83 389.771 974.457 389.452 972.871 389.452H963.922V402.094ZM963.922 385.616H972.09C973.415 385.616 974.611 385.356 975.676 384.835C976.753 384.314 977.606 383.58 978.233 382.634C978.872 381.687 979.192 380.574 979.192 379.295C979.192 377.697 978.636 376.342 977.523 375.229C976.41 374.105 974.646 373.543 972.232 373.543H963.922V385.616ZM999.851 365.091V410.545H989.339V407.065H995.873V368.571H989.339V365.091H999.851Z" fill="white"/>
<path d="M1570.89 412.545V367.091H1581.41V370.571H1574.87V409.065H1581.41V412.545H1570.89ZM1616.78 383H1612.38C1612.12 381.733 1611.66 380.621 1611.01 379.662C1610.37 378.703 1609.59 377.898 1608.67 377.247C1607.75 376.584 1606.74 376.087 1605.63 375.756C1604.52 375.424 1603.36 375.259 1602.15 375.259C1599.95 375.259 1597.95 375.815 1596.17 376.928C1594.39 378.04 1592.98 379.68 1591.92 381.846C1590.88 384.012 1590.36 386.67 1590.36 389.818C1590.36 392.967 1590.88 395.624 1591.92 397.79C1592.98 399.957 1594.39 401.596 1596.17 402.709C1597.95 403.821 1599.95 404.378 1602.15 404.378C1603.36 404.378 1604.52 404.212 1605.63 403.881C1606.74 403.549 1607.75 403.058 1608.67 402.407C1609.59 401.744 1610.37 400.933 1611.01 399.974C1611.66 399.004 1612.12 397.891 1612.38 396.636H1616.78C1616.45 398.495 1615.84 400.158 1614.97 401.626C1614.09 403.094 1613 404.342 1611.7 405.372C1610.4 406.39 1608.94 407.165 1607.32 407.698C1605.71 408.231 1603.98 408.497 1602.15 408.497C1599.05 408.497 1596.29 407.74 1593.88 406.224C1591.46 404.709 1589.56 402.555 1588.18 399.761C1586.79 396.968 1586.1 393.653 1586.1 389.818C1586.1 385.983 1586.79 382.669 1588.18 379.875C1589.56 377.081 1591.46 374.927 1593.88 373.412C1596.29 371.897 1599.05 371.139 1602.15 371.139C1603.98 371.139 1605.71 371.406 1607.32 371.938C1608.94 372.471 1610.4 373.252 1611.7 374.282C1613 375.3 1614.09 376.543 1614.97 378.011C1615.84 379.467 1616.45 381.13 1616.78 383ZM1631.71 367.091V412.545H1621.2V409.065H1627.73V370.571H1621.2V367.091H1631.71Z" fill="white"/>
<path d="M489.625 1070.5C486.95 1070.5 484.671 1069.77 482.789 1068.31C480.907 1066.85 479.469 1064.72 478.474 1061.94C477.48 1059.15 476.983 1055.77 476.983 1051.82C476.983 1047.89 477.48 1044.53 478.474 1041.75C479.481 1038.96 480.925 1036.83 482.807 1035.36C484.701 1033.88 486.973 1033.14 489.625 1033.14C492.277 1033.14 494.543 1033.88 496.425 1035.36C498.319 1036.83 499.763 1038.96 500.758 1041.75C501.764 1044.53 502.267 1047.89 502.267 1051.82C502.267 1055.77 501.77 1059.15 500.776 1061.94C499.781 1064.72 498.343 1066.85 496.461 1068.31C494.579 1069.77 492.3 1070.5 489.625 1070.5ZM489.625 1066.59C492.277 1066.59 494.336 1065.31 495.804 1062.76C497.272 1060.2 498.006 1056.55 498.006 1051.82C498.006 1048.67 497.668 1045.99 496.994 1043.77C496.331 1041.56 495.372 1039.87 494.117 1038.71C492.874 1037.55 491.377 1036.97 489.625 1036.97C486.997 1036.97 484.943 1038.27 483.464 1040.86C481.984 1043.44 481.244 1047.1 481.244 1051.82C481.244 1054.97 481.576 1057.64 482.239 1059.84C482.902 1062.05 483.854 1063.72 485.097 1064.87C486.352 1066.02 487.861 1066.59 489.625 1066.59Z" fill="white"/>
<path d="M1750.62 1070.5C1747.95 1070.5 1745.67 1069.77 1743.79 1068.31C1741.91 1066.85 1740.47 1064.72 1739.47 1061.94C1738.48 1059.15 1737.98 1055.77 1737.98 1051.82C1737.98 1047.89 1738.48 1044.53 1739.47 1041.75C1740.48 1038.96 1741.92 1036.83 1743.81 1035.36C1745.7 1033.88 1747.97 1033.14 1750.62 1033.14C1753.28 1033.14 1755.54 1033.88 1757.43 1035.36C1759.32 1036.83 1760.76 1038.96 1761.76 1041.75C1762.76 1044.53 1763.27 1047.89 1763.27 1051.82C1763.27 1055.77 1762.77 1059.15 1761.78 1061.94C1760.78 1064.72 1759.34 1066.85 1757.46 1068.31C1755.58 1069.77 1753.3 1070.5 1750.62 1070.5ZM1750.62 1066.59C1753.28 1066.59 1755.34 1065.31 1756.8 1062.76C1758.27 1060.2 1759.01 1056.55 1759.01 1051.82C1759.01 1048.67 1758.67 1045.99 1757.99 1043.77C1757.33 1041.56 1756.37 1039.87 1755.12 1038.71C1753.87 1037.55 1752.38 1036.97 1750.62 1036.97C1748 1036.97 1745.94 1038.27 1744.46 1040.86C1742.98 1043.44 1742.24 1047.1 1742.24 1051.82C1742.24 1054.97 1742.58 1057.64 1743.24 1059.84C1743.9 1062.05 1744.85 1063.72 1746.1 1064.87C1747.35 1066.02 1748.86 1066.59 1750.62 1066.59Z" fill="white"/>
<path d="M1106.49 1063.61V1040.17H1110.47V1063.61H1106.49ZM1096.76 1053.88V1049.9H1120.2V1053.88H1096.76ZM1141.51 1033.64V1070H1137.1V1038.25H1136.89L1128.01 1044.15V1039.67L1137.1 1033.64H1141.51Z" fill="white"/>
<path d="M817.46 716.865V720.771H801.551V716.865H817.46ZM837.546 700.636V737H833.143V705.253H832.93L824.052 711.148V706.673L833.143 700.636H837.546Z" fill="white"/>
<path d="M1448.46 716.865V720.771H1432.55V716.865H1448.46ZM1468.55 700.636V737H1464.14V705.253H1463.93L1455.05 711.148V706.673L1464.14 700.636H1468.55Z" fill="white"/>
</svg>
